<svg width="120" height="56" viewBox="0 0 120 56" fill="none" xmlns="http://www.w3.org/2000/svg">
<path d="M37.0458 23.1735H0V25.3434H37.0458V23.1735Z" fill="#1C3E90"/>
<path d="M37.0458 17.4519H33.4386V21.0591H37.0458V17.4519Z" fill="#1C3E90"/>
<path d="M2.97668 0H11.1833C16.7565 0 21.3373 3.3105 21.3373 10.5342C21.3373 16.7286 16.7565 21.0684 11.1833 21.0684H2.97668V0.00928211V0ZM10.7197 17.3406C14.3455 17.3406 17.3777 14.6793 17.3777 10.5249C17.3777 5.94403 14.3455 3.70922 10.7197 3.70922H6.84353V17.3313H10.7197V17.3406Z" fill="#262627"/>
<path d="M43.7225 20.9293C48.0623 20.9293 49.3698 18.7594 49.3698 15.2449V3.92251H44.9095V0H53.8858V15.5324C53.8858 22.4779 50.4826 25.3433 43.7504 25.3433L43.7133 20.9293H43.7225Z" fill="#262627"/>
<path d="M56.2133 15.1986C56.2133 9.60691 60.7756 5.05383 66.3672 5.05383C71.9589 5.05383 76.512 9.61618 76.512 15.1986C76.512 20.7809 71.9496 25.3525 66.3672 25.3525C60.7849 25.3525 56.2133 20.8273 56.2133 15.1986ZM72.098 15.1986C72.098 12.0364 69.5201 9.45853 66.358 9.45853C63.1959 9.45853 60.618 12.0364 60.618 15.1986C60.618 18.3607 63.1959 20.9386 66.358 20.9386C69.5201 20.9386 72.098 18.3978 72.098 15.1986Z" fill="#262627"/>
<path d="M80.4623 19.223C85.2658 21.8844 91.7106 22.7282 91.7477 19.2972C91.7477 16.2093 79.1363 17.5075 79.5165 10.4693C79.9338 4.44178 88.9101 3.28263 95.6701 7.84498L93.9546 10.7567C90.0321 7.67808 84.0046 7.95628 83.8934 10.6826C83.7172 13.8354 96.0874 12.9915 96.0874 19.1303C96.0874 24.8054 89.4665 27.8934 78.9879 22.7375L80.4623 19.2323V19.223Z" fill="#262627"/>
<path d="M98.3593 15.18C98.3593 9.85722 101.855 5.0167 107.688 5.0538C114.031 5.0538 118.51 9.9314 116.794 17.118H103.126C103.348 19.3436 105.676 21.4578 108.587 21.4578C110.006 21.4949 112.668 20.7623 113.4 19.6681L116.757 22.2553C114.791 24.4437 111.657 25.3525 108.161 25.3525C102.254 25.3525 98.3593 20.1781 98.3593 15.18ZM112.538 13.3253C112.788 11.6469 111.555 8.92064 107.836 8.92064C104.739 8.92064 103.098 11.2853 103.098 13.3253H112.538ZM108.55 0.723267H111.397L108.689 4.16359H107.215L108.56 0.723267H108.55Z" fill="#262627"/>
<path d="M0.00927734 43.3516C0.00927734 36.675 5.15583 30.7124 12.5094 30.7124C16.8028 30.7124 19.6774 32.5206 21.8844 34.9409L18.8336 38.0289C17.591 36.573 15.7086 35.0151 12.5186 35.0151C7.58538 35.0151 4.32127 39.1694 4.32127 43.3609C4.32127 47.8305 7.90994 51.7066 12.5186 51.7066C15.3562 51.7066 17.5632 50.566 18.8336 48.7207L21.8844 51.7715C19.6867 54.4329 16.5246 56 12.5094 56C5.16511 56 0.00927734 49.9262 0.00927734 43.3609" fill="#262627"/>
<path d="M91.2004 48.0067V30.7124H95.4382V47.9418C95.4382 50.0931 96.4305 51.6417 98.3685 51.6417V55.9815C93.9916 55.9815 91.2097 52.6339 91.2097 48.0067" fill="#262627"/>
<path d="M27.6708 3.23633H23.4515V21.0684H27.6708V3.23633Z" fill="#262627"/>
<path d="M33.2069 35.6827C27.8748 35.6827 23.535 40.2173 23.535 45.744C23.535 51.2708 27.5596 55.5364 32.6226 55.8516C32.8174 55.8609 33.0121 55.8702 33.2069 55.8702C34.7925 55.8702 36.2484 55.3045 37.3704 54.3772V49.4069C36.369 50.6587 34.876 51.4469 33.2069 51.4469C33.0121 51.4469 32.8174 51.4377 32.6226 51.4098C29.8964 51.1038 27.7728 48.6928 27.7728 45.7347C27.7728 42.7766 30.2117 40.0967 33.2069 40.0967C36.2021 40.0967 38.6409 42.6375 38.6409 45.7347C38.6409 45.7533 38.6409 45.7718 38.6409 45.7904V52.9584V55.9814H42.8786V45.744C42.8786 40.2173 38.5388 35.6827 33.2161 35.6827" fill="#262627"/>
<path d="M78.144 35.6827C72.812 35.6827 68.4722 40.2173 68.4722 45.744C68.4722 51.2708 72.4967 55.5364 77.5598 55.8516C77.7545 55.8609 77.9492 55.8702 78.144 55.8702C79.7297 55.8702 81.1855 55.3045 82.3076 54.3772V49.4069C81.3061 50.6587 79.8131 51.4469 78.144 51.4469C77.9492 51.4469 77.7545 51.4377 77.5598 51.4098C74.8335 51.1038 72.71 48.6928 72.71 45.7347C72.71 42.7766 75.1488 40.0967 78.144 40.0967C81.1392 40.0967 83.578 42.6375 83.578 45.7347C83.578 45.7533 83.578 45.7718 83.578 45.7904V52.9584V55.9814H87.8158V45.744C87.8158 40.2173 83.476 35.6827 78.1532 35.6827" fill="#262627"/>
<path d="M109.728 35.6827C104.396 35.6827 100.056 40.2173 100.056 45.744C100.056 51.2708 104.081 55.5364 109.144 55.8516C109.339 55.8609 109.533 55.8702 109.728 55.8702C111.314 55.8702 112.77 55.3045 113.892 54.3772V49.4069C112.89 50.6587 111.397 51.4469 109.728 51.4469C109.533 51.4469 109.339 51.4377 109.144 51.4098C106.418 51.1038 104.294 48.6928 104.294 45.7347C104.294 42.7766 106.733 40.0967 109.728 40.0967C112.723 40.0967 115.162 42.6375 115.162 45.7347C115.162 45.7533 115.162 45.7718 115.162 45.7904V52.9584V55.9814H119.4V45.744C119.4 40.2173 115.06 35.6827 109.737 35.6827" fill="#262627"/>
<path d="M55.8331 35.8775C54.2103 35.8775 52.6988 36.4895 51.5304 37.4168V42.2759C52.569 41.0611 54.1176 40.2915 55.8331 40.2915C58.9582 40.2915 61.499 42.8323 61.499 45.9573C61.499 49.0823 58.9582 51.6232 55.8331 51.6232C52.7081 51.6232 50.1673 49.1194 50.1673 45.9573V46.0037V30.7217H45.809V45.9573C45.809 51.5211 50.3157 55.9908 55.8424 55.9908C61.3692 55.9908 65.8758 51.5211 65.8758 45.9573C65.8758 40.3935 61.3692 35.8775 55.8424 35.8775" fill="#262627"/>
<path d="M32.8359 6.84356C33.0399 6.84356 33.2439 6.85284 33.4386 6.88066V2.47596C33.2346 2.46669 33.0399 2.4574 32.8359 2.4574C31.1853 2.4574 29.6738 3.02306 28.5146 3.94109V8.87436C29.5532 7.63178 31.1018 6.84356 32.8359 6.84356Z" fill="#1C3E90"/>
</svg>
