<?xml version="1.0" standalone="no"?>
<!DOCTYPE svg PUBLIC "-//W3C//DTD SVG 1.1//EN" "http://www.w3.org/Graphics/SVG/1.1/DTD/svg11.dtd" >
<svg xmlns="http://www.w3.org/2000/svg" xmlns:xlink="http://www.w3.org/1999/xlink" version="1.1">
<metadata>
Created by FontForge 20201107 at Mon May 12 20:16:05 2025
 By 
Copylight(c)2020, Brenners Template All rights reserved
</metadata>
<defs>
<font id="AlongSanss2-Bold" horiz-adv-x="1642" >
  <font-face 
    font-family="Along Sans s2 Bold"
    font-weight="700"
    font-stretch="normal"
    units-per-em="2048"
    panose-1="0 0 8 0 0 0 0 0 0 0"
    ascent="1638"
    descent="-410"
    x-height="1096"
    cap-height="1403"
    bbox="-1036 -614 2601 1987"
    underline-thickness="102"
    underline-position="-204"
    unicode-range="U+0020-FB02"
  />
<missing-glyph horiz-adv-x="1300" 
d="M1067 1987v-2601h-825v2601h825zM866 1812h-430v-86h170v-96h-172v-86h432v86h-172v96h172v86zM694 1477h-260v-271h432v88h-172v183zM606 1389v-95h-86v95h86zM866 1137h-432v-86h172v-97h-172v-86h260v183h172v86zM866 981h-86v-172h-346v-88h432v260zM866 664h-260
v-148h88v62h86v-123h-260v209h-86v-295h432v295zM866 213h-432v-295h432v295zM780 127v-123h-260v123h260zM866 -141h-432v-86h182l-182 -121v-86h432v86h-266l182 121h84v86z" />
    <glyph glyph-name="fi" unicode="fi" horiz-adv-x="1243" 
d="M162 0v836h-129v260h129q0 77 19.5 144t66.5 123.5t116.5 87.5t178.5 29t243 -46l-51 -220q-120 44 -211.5 10t-91.5 -128h698v-1096h-256v836h-434v-836h-278zM973 1147q-61 0 -106.5 46t-45.5 105q0 63 45 107.5t107 44.5q63 0 107 -44.5t44 -107.5q0 -60 -44.5 -105.5
t-106.5 -45.5z" />
    <glyph glyph-name="fl" unicode="fl" horiz-adv-x="1259" 
d="M162 0v836h-129v260h129q0 55 14 106.5t47 101.5t83 87.5t126.5 60.5t172 25t226 -24.5t281.5 -82.5v-1370h-276v1227q-123 28 -212.5 19.5t-140.5 -48.5t-51 -102h305v-260h-297v-836h-278z" />
    <glyph glyph-name="L_a" unicode="La" horiz-adv-x="1974" 
d="M1364 -18q-205 0 -364 127.5t-197 322.5h-701v971h254v-717h455q44 194 201.5 318t351.5 124q153 0 284 -73t210 -207.5t79 -300.5v-539h-245v115q-60 -65 -146.5 -103t-181.5 -38zM1364 236q138 0 230 90.5t92 220.5q0 83 -41 158t-116 122t-165 47q-137 0 -230.5 -99
t-93.5 -228q0 -130 92.5 -220.5t231.5 -90.5z" />
    <glyph glyph-name="L_e" unicode="Le" horiz-adv-x="1953" 
d="M1395 -25q-120 0 -222 41.5t-169 108.5t-108 146t-52 161h-742v971h254v-717h488q14 133 91.5 239.5t191.5 163t239 56.5q139 0 254.5 -52.5t188 -147t98.5 -225.5t-15 -288h-749q13 -77 95.5 -141t184.5 -64q64 0 145.5 27.5t106.5 64.5l217 -167q-160 -177 -497 -177z
M1135 686h477q8 28 -3 62.5t-38 66.5t-77.5 54t-113.5 22q-108 0 -176.5 -64.5t-68.5 -140.5z" />
    <glyph glyph-name="L_o" unicode="Lo" horiz-adv-x="2007" 
d="M1405 -25q-203 0 -358.5 126.5t-190.5 330.5h-754v971h254v-717h504q30 131 114 232t196.5 153.5t234.5 52.5q153 0 281 -70t206 -203t78 -302q0 -126 -46 -234.5t-123.5 -182t-180.5 -115.5t-215 -42zM1405 240q131 0 216 90t85 219q0 126 -82.5 217.5t-218.5 91.5
q-127 0 -214 -92t-87 -217q0 -128 86 -218.5t215 -90.5z" />
    <glyph glyph-name="d_a" unicode="da" horiz-adv-x="2402" 
d="M1837 737q153 0 283 -76t206 -206t76 -283v-578h-286v138q-48 -58 -122 -92.5t-157 -34.5q-188 0 -335 111t-197 284q-98 5 -163 35t-116 117q-145 -187 -397 -187q-115 0 -220.5 45t-181.5 121.5t-121 182t-45 221.5q0 154 76 285t207 207.5t285 76.5q85 0 159 -35.5
t125 -95.5v461h287v-920q0 -75 32 -120t75 -52q50 173 196.5 284t333.5 111zM629 252q119 0 201.5 82.5t82.5 200.5q0 117 -83 199.5t-201 82.5q-117 0 -199 -82.5t-82 -199.5q0 -118 82 -200.5t199 -82.5zM1837 -109q116 0 197.5 82t81.5 199q0 116 -82 197.5t-197 81.5
q-117 0 -199 -81.5t-82 -197.5q0 -117 82 -199t199 -82z" />
    <glyph glyph-name="d_e" unicode="de" horiz-adv-x="2342" 
d="M1829 -414q-97 0 -185 33.5t-153.5 91.5t-113 132t-70.5 157q-47 1 -81.5 6.5t-72.5 21t-69.5 46.5t-57.5 78q-145 -187 -397 -187q-115 0 -220.5 45t-181.5 121.5t-121 182t-45 221.5q0 154 76 285t207 207.5t285 76.5q85 0 159 -35.5t125 -95.5v461h287v-957
q0 -73 28.5 -116.5t67.5 -55.5q37 187 172 308t334 120q136 -1 249 -52.5t184 -143.5t96.5 -220t-13.5 -282h-731q11 -76 90 -134.5t181 -58.5q62 -2 139.5 23t103.5 61l217 -166q-155 -174 -489 -174zM629 252q119 0 201.5 82.5t82.5 200.5q0 117 -83 199.5t-201 82.5
q-117 0 -199 -82.5t-82 -199.5q0 -118 82 -200.5t199 -82.5zM1585 283h453q4 29 -7 62t-36 64.5t-73 51.5t-110 20q-106 0 -166.5 -62t-60.5 -136z" />
    <glyph glyph-name="d_o" unicode="do" horiz-adv-x="2406" 
d="M1837 737q154 0 285 -76.5t207.5 -207.5t76.5 -285t-76.5 -285t-207.5 -207.5t-285 -76.5q-189 0 -337.5 113t-196.5 288q-97 4 -162.5 34t-114.5 118q-145 -187 -397 -187q-115 0 -220.5 45t-181.5 121.5t-121 182t-45 221.5q0 154 76 285t207 207.5t285 76.5
q85 0 159 -35.5t125 -95.5v461h287v-920q0 -76 31.5 -120.5t73.5 -51.5q52 173 199 284t333 111zM629 252q119 0 201.5 82.5t82.5 200.5q0 117 -83 199.5t-201 82.5q-117 0 -199 -82.5t-82 -199.5q0 -118 82 -200.5t199 -82.5zM1837 -115q117 0 200 83t83 200t-83 200
t-200 83q-118 0 -200.5 -83t-82.5 -200t82.5 -200t200.5 -83z" />
    <glyph glyph-name="m_a" unicode="ma" horiz-adv-x="2488" 
d="M2478 -61q0 -91 31 -148t92 -57v-295q-114 0 -179.5 48t-99.5 132q-70 -91 -176.5 -139.5t-234.5 -48.5q-116 0 -221.5 45t-182 121t-122 181.5t-46.5 221.5v627q0 91 -41 150t-120 59t-120.5 -59.5t-41.5 -149.5v-627h-289v627q0 90 -41.5 149.5t-120.5 59.5
t-120.5 -59.5t-41.5 -149.5v-627h-286v627q0 221 118 358t330 137q96 0 175.5 -34.5t131.5 -94.5q53 60 131.5 94.5t174.5 34.5q214 0 332 -137.5t116 -357.5v-189q51 61 125 96t160 35q154 0 284.5 -76t206.5 -206.5t76 -284.5v-63zM1911 -283q117 0 198.5 82.5t81.5 202.5
q0 117 -81.5 199t-198.5 82q-119 0 -202 -82t-83 -199q0 -120 83 -202.5t202 -82.5z" />
    <glyph glyph-name="m_e" unicode="me" horiz-adv-x="2406" 
d="M1894 -575q-120 0 -226 50t-177 131t-111.5 184t-40.5 210v627q0 91 -41 150t-120 59t-121.5 -59.5t-42.5 -149.5v-627h-287v627q0 90 -41.5 149.5t-120.5 59.5t-121.5 -59.5t-42.5 -149.5v-627h-286v627q0 144 50.5 254.5t153.5 175.5t246 65q96 0 174 -34.5t131 -94.5
q52 60 132 94.5t176 34.5q212 0 330 -137t118 -358v-176q39 56 102 88t140 32q135 -1 247.5 -52.5t184 -143.5t97 -220t-14.5 -282h-731q12 -77 90.5 -135.5t179.5 -59.5q64 0 141.5 25t102.5 61l217 -167q-155 -172 -488 -172zM1651 121h450q5 29 -5.5 61.5t-35 63.5
t-72.5 51t-110 20q-106 0 -166.5 -61t-60.5 -135z" />
    <glyph glyph-name="m_o" unicode="mo" horiz-adv-x="2478" 
d="M1909 569q154 0 285 -76.5t207.5 -207.5t76.5 -285q0 -155 -76.5 -286.5t-207.5 -208t-285 -76.5q-116 0 -221.5 45.5t-182 122t-121.5 182t-45 221.5v627q0 91 -41 150t-120 59t-121.5 -59.5t-42.5 -149.5v-627h-287v627q0 90 -41.5 149.5t-120.5 59.5t-121.5 -59.5
t-42.5 -149.5v-627h-286v627q0 144 50.5 254.5t153.5 175.5t246 65q96 0 174 -34.5t131 -94.5q52 60 132 94.5t176 34.5q212 0 330 -137t118 -358v-189q48 60 123 95.5t160 35.5zM1909 -285q117 0 199.5 83.5t82.5 201.5q0 117 -82.5 200t-199.5 83q-118 0 -200.5 -83
t-82.5 -200q0 -119 82.5 -202t200.5 -83z" />
    <glyph glyph-name="m_u" unicode="mu" horiz-adv-x="2428" 
d="M2142 565h287v-565q0 -240 -155 -395.5t-388 -155.5q-154 0 -279 70t-196.5 196.5t-71.5 284.5v627q0 91 -41 150t-120 59t-120.5 -59.5t-41.5 -149.5v-627h-289v627q0 90 -41.5 149.5t-120.5 59.5t-120.5 -59.5t-41.5 -149.5v-627h-286v627q0 221 118 358t330 137
q96 0 175.5 -34.5t131.5 -94.5q53 60 131.5 94.5t174.5 34.5q214 0 332 -137.5t116 -357.5v-627q0 -119 72 -191.5t188 -72.5q115 0 185.5 71.5t70.5 192.5v565z" />
    <glyph glyph-name="n_a" unicode="na" horiz-adv-x="2070" 
d="M2058 -61q0 -91 31 -148t92 -57v-295q-78 0 -135.5 25.5t-89 62.5t-53.5 92q-70 -91 -177 -139.5t-235 -48.5q-155 0 -286 76t-207.5 207t-77.5 286v565q0 123 -69.5 193.5t-186.5 70.5t-189 -70.5t-72 -193.5v-565h-286v565q0 241 156 396t391 155q233 0 387.5 -155
t154.5 -396v-127q51 61 125 96t160 35q154 0 284.5 -76t206.5 -206.5t76 -284.5v-63zM1491 -283q117 0 199 82.5t82 202.5q0 117 -82 199t-199 82q-119 0 -202 -82t-83 -199q0 -120 83 -202.5t202 -82.5z" />
    <glyph glyph-name="n_e" unicode="ne" horiz-adv-x="1988" 
d="M1477 -575q-120 0 -226 50t-177.5 131t-112.5 184t-41 210v565q0 123 -69.5 193.5t-186.5 70.5t-189 -70.5t-72 -193.5v-565h-286v565q0 241 156 396t391 155q233 0 387.5 -155t154.5 -396v-114q40 56 103.5 88t140.5 32q135 -1 247.5 -52.5t184 -143.5t97 -220
t-14.5 -282h-731q12 -77 90 -135.5t180 -59.5q63 0 141 25t103 61l217 -167q-155 -172 -487 -172zM1231 121h452q4 23 -1.5 48.5t-22 52t-42 47.5t-67 34.5t-92.5 13.5q-106 0 -166.5 -61t-60.5 -135z" />
    <glyph glyph-name="n_o" unicode="no" horiz-adv-x="2058" 
d="M1491 569q154 0 284.5 -76t206.5 -206.5t76 -284.5q0 -156 -76 -287.5t-206.5 -207.5t-284.5 -76q-155 0 -286 76t-207.5 207t-77.5 286v565q0 123 -69.5 193.5t-186.5 70.5t-189 -70.5t-72 -193.5v-565h-286v565q0 241 156 396t391 155q233 0 387.5 -155t154.5 -396
v-127q51 61 125 96t160 35zM1491 -283q117 0 199 82.5t82 202.5q0 117 -82 199t-199 82q-119 0 -202 -82t-83 -199q0 -120 83 -202.5t202 -82.5z" />
    <glyph glyph-name="n_u" unicode="nu" horiz-adv-x="2009" 
d="M1722 565h287v-565q0 -240 -155 -395.5t-388 -155.5q-154 0 -278.5 70t-196 196.5t-71.5 284.5v565q0 123 -69.5 193.5t-186.5 70.5t-189 -70.5t-72 -193.5v-565h-286v565q0 241 156 396t391 155q233 0 387.5 -155t154.5 -396v-565q0 -119 72 -191.5t188 -72.5
q115 0 185.5 71.5t70.5 192.5v565z" />
    <glyph glyph-name="t_a" unicode="ta" horiz-adv-x="1843" 
d="M1556 -436v135q-47 -58 -120 -92.5t-158 -34.5q-193 0 -345 119.5t-198 302.5q-79 1 -150 11t-152.5 40t-140 78.5t-97.5 133t-39 196.5v356h-101v287h101v227h286v-227h267v-287h-267v-293q0 -60 17.5 -104.5t44.5 -69t68 -39t78 -18.5t85 -4q43 183 195 303.5
t348 120.5q153 0 283 -76t206 -206.5t76 -283.5v-575h-287zM1278 -141q116 0 197 81.5t81 198.5q0 116 -81.5 197.5t-196.5 81.5q-117 0 -199 -81.5t-82 -197.5q0 -117 82 -198.5t199 -81.5z" />
    <glyph glyph-name="t_e" unicode="te" horiz-adv-x="1783" 
d="M1272 -444q-198 0 -342.5 127.5t-188.5 310.5q-55 0 -106 5t-111.5 18.5t-111 34.5t-99 57t-82.5 82.5t-54.5 113.5t-20.5 148v356h-101v287h101v227h286v-227h267v-287h-267v-293q0 -61 18 -105.5t45 -69t68.5 -38.5t79 -18t86.5 -4q38 185 173 303.5t333 117.5
q135 0 247.5 -51t184 -143t97 -220t-14.5 -282h-731q12 -77 90.5 -135t179.5 -59q64 -2 141.5 23.5t102.5 62.5l217 -168q-157 -174 -487 -174zM1028 252h451q5 29 -5.5 62.5t-35.5 64.5t-73 51.5t-110 20.5q-106 0 -166.5 -62t-60.5 -137z" />
    <glyph glyph-name="t_h" unicode="th" horiz-adv-x="1839" 
d="M854 -307v1141h-393v-381q0 -75 27.5 -122.5t71 -63.5t98 -20.5t108.5 5.5v-275q-66 -14 -133.5 -14.5t-134 12t-124.5 43t-102.5 76t-70 116t-25.5 157.5v467h-100v262h100v227h285v-227h674v-394q89 97 256 97q85 0 166 -35t143.5 -94.5t100.5 -145.5t38 -182v-649
h-276l-4 596q0 103 -60.5 162t-148.5 57q-89 0 -152 -62t-63 -172v-581h-281z" />
    <glyph glyph-name="t_o" unicode="to" horiz-adv-x="1835" 
d="M1266 707q154 0 285 -76.5t207.5 -208t76.5 -285.5t-76.5 -285t-207.5 -207.5t-285 -76.5q-195 0 -347.5 120.5t-197.5 305.5q-54 1 -104.5 7t-108.5 20t-107 36t-95 57.5t-78.5 81.5t-52 112t-19.5 145v356h-101v287h101v227h286v-227h267v-287h-267v-293
q0 -73 23.5 -121.5t67 -72t87 -32t101.5 -9.5q43 183 196 304.5t349 121.5zM1266 -145q117 0 199.5 82.5t82.5 199.5t-82.5 200t-199.5 83t-200 -83t-83 -200t83 -199.5t200 -82.5z" />
    <glyph glyph-name="t_t" unicode="tt" horiz-adv-x="1447" 
d="M766 -23q-66 -14 -133.5 -14.5t-134 12t-124.5 43t-102.5 76t-70 116t-25.5 157.5v467h-100v262h100v227h285v-227h360v227h285v-227h266v-262h-266v-381q0 -75 27.5 -122.5t71 -63.5t98 -20.5t108.5 5.5v-275q-66 -14 -133.5 -14.5t-134 12t-124.5 43t-102.5 76t-70 116
t-25.5 157.5v467h-360v-381q0 -75 27.5 -122.5t71 -63.5t98 -20.5t108.5 5.5v-275z" />
    <glyph glyph-name=".notdef" horiz-adv-x="1300" 
d="M1067 1987v-2601h-825v2601h825zM866 1812h-430v-86h170v-96h-172v-86h432v86h-172v96h172v86zM694 1477h-260v-271h432v88h-172v183zM606 1389v-95h-86v95h86zM866 1137h-432v-86h172v-97h-172v-86h260v183h172v86zM866 981h-86v-172h-346v-88h432v260zM866 664h-260
v-148h88v62h86v-123h-260v209h-86v-295h432v295zM866 213h-432v-295h432v295zM780 127v-123h-260v123h260zM866 -141h-432v-86h182l-182 -121v-86h432v86h-266l182 121h84v86z" />
    <glyph glyph-name=".null" horiz-adv-x="0" 
 />
    <glyph glyph-name="nonmarkingreturn" horiz-adv-x="682" 
 />
    <glyph glyph-name="space" unicode=" " horiz-adv-x="552" 
 />
    <glyph glyph-name="exclam" unicode="!" horiz-adv-x="460" 
d="M145 375l-51 911h273l-52 -911h-170zM229 4q-51 0 -87 35t-36 86q0 52 36 87.5t87 35.5t87 -35.5t36 -87.5q0 -51 -36 -86t-87 -35z" />
    <glyph glyph-name="quotedbl" unicode="&#x22;" horiz-adv-x="778" 
d="M182 1077l-59 15q21 38 28.5 70t10.5 83q-64 41 -64 111q0 57 37 93t90 36q54 0 90.5 -36t36.5 -93q0 -40 -17 -81.5t-48 -81.5t-52.5 -63t-52.5 -53zM510 1077l-59 15q20 37 27.5 69t10.5 84q-63 40 -63 111q0 57 37 93t90 36q54 0 90.5 -36t36.5 -93q0 -40 -17 -81.5
t-48 -81.5t-52.5 -63t-52.5 -53z" />
    <glyph glyph-name="numbersign" unicode="#" horiz-adv-x="1333" 
d="M190 -41l46 231h-195v220h235l50 254h-193v217h236l45 227h217l-43 -227h268l45 227h217l-43 -227h217v-217h-260l-49 -254h217v-220h-258l-45 -231h-219l45 231h-268l-45 -231h-220zM496 410h268l49 254h-268z" />
    <glyph glyph-name="dollar" unicode="$" horiz-adv-x="1341" 
d="M502 -207v193q-236 43 -445 133l78 274q149 -57 286 -89.5t251 -38t182 32.5t68 118q0 34 -29 60.5t-78.5 44t-113.5 33.5t-134.5 35t-141.5 42t-134.5 59t-112.5 83t-77 118.5t-27 159.5q3 154 119 253t309 123v175h272v-177q227 -26 440 -145l-90 -270
q-104 57 -208 92.5t-189 44.5t-152 -2t-105 -45.5t-40 -87.5q-1 -39 27.5 -70t78 -53t113.5 -41t135 -39t142 -42t135.5 -53.5t114 -71t79 -97.5t29.5 -129q0 -208 -135.5 -323t-374.5 -120v-180h-272z" />
    <glyph glyph-name="percent" unicode="%" horiz-adv-x="1757" 
d="M317 0l883 1403h248l-891 -1403h-240zM379 672q-134 0 -229 94t-95 229q0 132 95 226t229 94q132 0 226.5 -94t94.5 -226q0 -135 -94 -229t-227 -94zM379 870q52 0 87.5 36t35.5 89t-35 88t-88 35t-89 -35.5t-36 -87.5q0 -53 36 -89t89 -36zM1380 86q-134 0 -228.5 94.5
t-94.5 227.5t94.5 227t228.5 94q132 0 227 -94t95 -227t-95 -227.5t-227 -94.5zM1380 283q52 0 87.5 37t35.5 90q0 52 -35 86t-88 34t-89 -34t-36 -86q0 -53 36.5 -90t88.5 -37z" />
    <glyph glyph-name="ampersand" unicode="&#x26;" horiz-adv-x="1302" 
d="M766 639l-148 215q141 40 181 140q31 76 -9 144q-46 65 -120 68q-53 0 -91.5 -24.5t-54 -63t-10 -87t34.5 -93.5l-193 -113q-50 72 -69.5 149t-10 146t43.5 131.5t87.5 108t126 72t154.5 26.5q76 0 144 -26.5t118 -71.5t84 -105t47.5 -126.5t1.5 -137t-47 -134.5
t-104.5 -121.5t-165.5 -96.5zM1001 -72l-100 127q-85 -57 -152 -77t-184 -21q-100 0 -182.5 45t-131.5 116t-68 161t-3 176.5t74.5 165t153.5 124.5l145 -204q-54 -27 -83 -73.5t-27.5 -92.5t24.5 -90q42 -68 121 -78t178 51q118 76 346 229l139 -190l-149 -107l94 -122z
" />
    <glyph glyph-name="quotesingle" unicode="'" horiz-adv-x="450" 
d="M182 1077l-59 15q21 38 28 70.5t9 82.5q-62 42 -62 111q0 57 37 93t90 36t89 -35.5t36 -93.5q0 -117 -168 -279z" />
    <glyph glyph-name="parenleft" unicode="(" horiz-adv-x="677" 
d="M516 0q-112 44 -199 160.5t-130.5 263.5t-39.5 293q4 149 48 293.5t128.5 261.5t192.5 162l102 -86q-128 -115 -184.5 -285.5t-54.5 -345.5t59 -345.5t180 -285.5z" />
    <glyph glyph-name="parenright" unicode=")" horiz-adv-x="677" 
d="M162 0l-103 86q84 79 140.5 192t78.5 221t23 218q0 176 -57 346t-185 285l103 86q108 -45 192.5 -162t128 -261.5t47.5 -293.5q4 -147 -39 -293.5t-130 -263t-199 -160.5z" />
    <glyph glyph-name="asterisk" unicode="*" horiz-adv-x="886" 
d="M334 598v231l-199 -114l-108 190l196 113l-196 115l108 188l199 -113v224h219v-224l197 113l110 -188l-198 -115l198 -113l-110 -190l-197 114v-231h-219z" />
    <glyph glyph-name="plus" unicode="+" horiz-adv-x="1146" 
d="M436 250v311h-309v273h309v311h275v-311h309v-273h-309v-311h-275z" />
    <glyph glyph-name="comma" unicode="," horiz-adv-x="393" 
d="M152 -166l-58 12q31 61 37 156q-61 38 -61 111q0 56 36.5 91.5t90.5 35.5q52 0 88.5 -35.5t36.5 -91.5q0 -40 -17 -81.5t-48 -81.5t-52.5 -63t-52.5 -53z" />
    <glyph glyph-name="hyphen" unicode="-" horiz-adv-x="927" 
d="M106 410v217h717v-217h-717z" />
    <glyph glyph-name="period" unicode="." horiz-adv-x="387" 
d="M195 0q-53 0 -88 35t-35 88q0 51 35.5 86t87.5 35q51 0 85.5 -35t34.5 -86q0 -52 -34.5 -87.5t-85.5 -35.5z" />
    <glyph glyph-name="slash" unicode="/" horiz-adv-x="743" 
d="M-68 -215l654 1645h245l-653 -1645h-246z" />
    <glyph glyph-name="zero" unicode="0" horiz-adv-x="1343" 
d="M672 -29q-175 0 -311.5 99t-208.5 264.5t-72 365.5q0 199 72 364.5t208.5 265.5t311.5 100t311.5 -100t208.5 -265.5t72 -364.5q0 -200 -72 -365.5t-208.5 -264.5t-311.5 -99zM672 242q93 0 158.5 64t95.5 165t30 229q0 126 -30 227t-95.5 165.5t-158.5 64.5t-159 -64.5
t-96 -165.5t-30 -227q0 -128 30 -229t96 -165t159 -64z" />
    <glyph glyph-name="one" unicode="1" horiz-adv-x="661" 
d="M207 0v1143h-166v260h453v-1403h-287z" />
    <glyph glyph-name="two" unicode="2" horiz-adv-x="1155" 
d="M76 0v164q0 121 40 214t103.5 149t140.5 99t154.5 76t141 68.5t103.5 88.5t40 124q0 77 -50.5 128.5t-158.5 51.5q-95 0 -157 -60t-87 -147l-266 84q29 182 172 291t344 109q135 0 244 -48t177 -148.5t68 -239.5q0 -109 -38.5 -195t-99.5 -140t-135 -96.5t-148.5 -75.5
t-135.5 -65.5t-100 -77.5t-39 -102h670v-252h-983z" />
    <glyph glyph-name="three" unicode="3" horiz-adv-x="1220" 
d="M573 -35q-192 0 -330 84t-208 227l295 117q25 -75 88.5 -116t154.5 -41q110 0 178 65.5t68 161.5q-1 67 -42.5 117t-99 69.5t-121 12.5t-107.5 -44l-158 220l401 305h-499v260h917v-215l-352 -289q168 -35 274 -157.5t103 -278.5q-3 -210 -161.5 -354t-400.5 -144z" />
    <glyph glyph-name="four" unicode="4" horiz-adv-x="1275" 
d="M748 0v287h-685v264l463 844h346l-464 -844h350v444h286v-444h201v-264h-201v-287h-296z" />
    <glyph glyph-name="five" unicode="5" horiz-adv-x="1236" 
d="M580 -33q-310 0 -525 131l142 262q191 -116 370 -116q152 0 236 52.5t84 139.5q0 178 -336 178h-369v789h908v-258h-623v-275h219q254 0 369.5 -115.5t115.5 -318.5q0 -217 -164 -343t-427 -126z" />
    <glyph glyph-name="six" unicode="6" horiz-adv-x="1245" 
d="M629 -39q-152 0 -281.5 75t-205.5 204t-76 282q0 181 137 367l354 514h358l-247 -359q120 2 220.5 -39.5t166 -113.5t101.5 -167t36 -202q-1 -153 -76.5 -282t-205 -204t-281.5 -75zM629 270q102 0 177 73.5t75 178.5q0 95 -69.5 172.5t-180.5 77.5q-41 0 -87 -16.5
t-79 -44.5q-40 -34 -64 -87.5t-24 -101.5q0 -106 75.5 -179t176.5 -73z" />
    <glyph glyph-name="seven" unicode="7" horiz-adv-x="1185" 
d="M141 0l594 1124h-672v279h1055v-213l-608 -1190h-369z" />
    <glyph glyph-name="eight" unicode="8" horiz-adv-x="1308" 
d="M653 -20q-167 0 -298 50.5t-207 148.5t-76 229q0 116 70.5 206t166.5 129q-81 45 -131.5 122.5t-50.5 172.5q0 116 78 209t197 141t251 48q133 0 253 -48t198 -141t78 -209q0 -97 -49 -174.5t-136 -120.5q102 -38 171 -127.5t69 -207.5q0 -131 -76.5 -229t-208 -148.5
t-299.5 -50.5zM653 850q90 0 149.5 53t59.5 129q0 75 -59.5 127.5t-149.5 52.5q-89 -1 -149 -53.5t-60 -126.5q0 -76 60 -129t149 -53zM653 211q104 0 178 63t74 146q0 85 -73.5 147t-178.5 62q-106 0 -178 -61.5t-72 -147.5q0 -84 72.5 -146.5t177.5 -62.5z" />
    <glyph glyph-name="nine" unicode="9" horiz-adv-x="1255" 
d="M326 0l249 358q-121 -2 -221.5 39.5t-166 114t-101.5 167.5t-35 202q1 153 76.5 282t205 204t281.5 75t281.5 -75t205 -204t75.5 -282q0 -167 -136 -367l-354 -514h-360zM612 631q40 0 87.5 16.5t78.5 44.5q40 35 63 88t23 101q0 105 -75 178.5t-175 73.5
q-103 0 -177.5 -73.5t-74.5 -178.5q0 -95 69.5 -172.5t180.5 -77.5z" />
    <glyph glyph-name="colon" unicode=":" horiz-adv-x="387" 
d="M195 676q-52 0 -87.5 35t-35.5 86q0 53 35 88t88 35q51 0 85.5 -35.5t34.5 -87.5q0 -51 -34.5 -86t-85.5 -35zM195 104q-53 0 -88 35t-35 88q0 51 35.5 86t87.5 35q51 0 85.5 -35t34.5 -86q0 -52 -34.5 -87.5t-85.5 -35.5z" />
    <glyph glyph-name="semicolon" unicode=";" horiz-adv-x="393" 
d="M193 653q-53 0 -88 35.5t-35 87.5q0 51 35.5 86t87.5 35q51 0 85.5 -35t34.5 -86q0 -52 -34.5 -87.5t-85.5 -35.5zM152 -82l-58 12q31 61 37 156q-61 38 -61 111q0 56 36.5 91.5t90.5 35.5q52 0 88.5 -35.5t36.5 -91.5q0 -40 -17 -81.5t-48 -81.5t-52.5 -63t-52.5 -53z
" />
    <glyph glyph-name="less" unicode="&#x3c;" horiz-adv-x="1114" 
d="M987 244l-860 315v275l860 315v-275l-489 -178l489 -178v-274z" />
    <glyph glyph-name="equal" unicode="=" horiz-adv-x="1173" 
d="M127 774v273h922v-273h-922zM127 340v274h922v-274h-922z" />
    <glyph glyph-name="greater" unicode="&#x3e;" horiz-adv-x="1114" 
d="M127 244v274l489 178l-489 178v275l860 -315v-275z" />
    <glyph glyph-name="question" unicode="?" horiz-adv-x="1153" 
d="M395 442q-4 133 25.5 235t77 163.5t96.5 109t90.5 98.5t52.5 105q10 71 -33 132t-126 61q-79 0 -131 -60t-52 -156h-299q-3 239 128 380.5t358 142.5q109 0 203 -40t155.5 -107.5t88.5 -160t9 -192.5q-9 -65 -34 -119.5t-57 -93.5t-68.5 -77t-70 -77.5t-61 -85.5
t-42 -112t-11.5 -146h-299zM551 -49q-75 -1 -126.5 51t-51.5 127q-1 76 51 128t127 52q77 0 128.5 -51.5t51.5 -128.5q0 -75 -52 -126.5t-128 -51.5z" />
    <glyph glyph-name="at" unicode="@" horiz-adv-x="1626" 
d="M834 -104q-142 0 -275 52.5t-235 143.5t-163 225.5t-61 288.5q0 198 90.5 359.5t254.5 254.5t370 93q160 0 294.5 -53.5t225 -145t141 -215.5t50.5 -264q0 -119 -27 -204t-74.5 -130.5t-101 -65.5t-117.5 -20q-112 0 -168 100q-39 -45 -101.5 -73.5t-127.5 -28.5
q-76 0 -146 27.5t-124.5 77t-87.5 124t-33 162.5q0 165 103 278t253 113q219 0 264 -125v82h166v-354q0 -100 13 -160t31 -79t44 -19q29 -2 59 13t58 46.5t46 92t18 139.5q0 132 -48.5 247.5t-133.5 199t-208.5 131.5t-267.5 48q-130 0 -249 -47t-210.5 -130t-146 -207
t-55.5 -269q-1 -121 42 -228.5t113.5 -183.5t159.5 -131.5t183 -82.5t182 -27q165 0 309 78l12 -58q-150 -75 -321 -75zM811 412q83 2 139 54.5t56 135.5q2 73 -53 133t-146 60q-87 0 -139 -57t-52 -134q0 -79 61 -136.5t134 -55.5z" />
    <glyph glyph-name="A" unicode="A" horiz-adv-x="1542" 
d="M1229 0l-117 213h-682l-117 -215l-329 2l786 1403l789 -1403h-330zM582 479h376l-188 346z" />
    <glyph glyph-name="B" unicode="B" horiz-adv-x="1417" 
d="M168 0v1403h616q214 0 345 -99t131 -251q0 -121 -53.5 -203t-139.5 -111q137 -29 203.5 -126t66.5 -228q0 -179 -131 -282t-381 -103h-657zM469 864h299q81 0 133.5 32t52.5 103q0 49 -34 81.5t-82 44.5t-107 12h-262v-273zM469 266h317q112 0 176 41.5t64 124.5
q0 78 -57 122t-172 44h-328v-332z" />
    <glyph glyph-name="C" unicode="C" horiz-adv-x="1398" 
d="M809 -35q-154 0 -291 60.5t-232.5 161t-150.5 234.5t-55 279t55 279.5t150.5 234.5t232.5 160t291 60q320 0 537 -238l-203 -207q-140 156 -334 156q-127 0 -229 -64t-156.5 -165.5t-54.5 -215.5q0 -183 128 -314.5t312 -131.5q107 0 192.5 41t139.5 113l205 -203
q-97 -115 -234 -177.5t-303 -62.5z" />
    <glyph glyph-name="D" unicode="D" horiz-adv-x="1474" 
d="M168 0v1403h551q143 0 263.5 -43t214 -127.5t146 -221t52.5 -311.5q0 -151 -53.5 -282.5t-144.5 -222.5t-215 -143t-263 -52h-551zM469 287h217q168 0 286 112.5t118 300.5q0 103 -32.5 184t-89 130.5t-128.5 75.5t-154 26h-217v-829z" />
    <glyph glyph-name="E" unicode="E" horiz-adv-x="1275" 
d="M168 0v1403h1014v-258h-713v-301h612v-258h-612v-330h713v-256h-1014z" />
    <glyph glyph-name="F" unicode="F" horiz-adv-x="1267" 
d="M168 0v1403h1044v-258h-743v-301h643v-258h-643v-586h-301z" />
    <glyph glyph-name="G" unicode="G" horiz-adv-x="1538" 
d="M809 -45q-197 0 -364.5 96.5t-266 264.5t-98.5 368q0 155 61 293t161.5 233t233 150t273.5 55q155 0 288.5 -56.5t233.5 -160.5l-203 -203q-131 131 -319 131q-84 0 -164 -33.5t-141 -91t-98 -141t-37 -176.5t36.5 -176t97.5 -140.5t141 -91.5t165 -34q92 0 183.5 39
t150.5 112v387h287v-549q-49 -72 -125.5 -127.5t-162 -86.5t-170 -46.5t-163.5 -15.5z" />
    <glyph glyph-name="H" unicode="H" horiz-adv-x="1533" 
d="M147 0v1403h302v-518h636v518h301v-1403h-301v598h-636v-598h-302z" />
    <glyph glyph-name="I" unicode="I" horiz-adv-x="636" 
d="M168 0v1403h301v-1403h-301z" />
    <glyph glyph-name="J" unicode="J" horiz-adv-x="811" 
d="M37 -41l-2 291q178 0 249.5 80.5t71.5 232.5v580h-120v258h419v-856q0 -306 -152 -446t-466 -140z" />
    <glyph glyph-name="K" unicode="K" horiz-adv-x="1460" 
d="M168 0v1403h301v-485l463 485h399l-606 -668l721 -735h-420l-518 518l-39 -41v-477h-301z" />
    <glyph glyph-name="L" unicode="L" horiz-adv-x="1191" 
d="M168 0v1403h301v-1116h705v-287h-1006z" />
    <glyph glyph-name="M" unicode="M" horiz-adv-x="1849" 
d="M154 0l2 1403l768 -715l770 715v-1403h-299v745l-471 -471l-469 471v-745h-301z" />
    <glyph glyph-name="N" unicode="N" horiz-adv-x="1624" 
d="M1470 -76l-1015 846v-770h-301v1401l1015 -846v848h301v-1479z" />
    <glyph glyph-name="O" unicode="O" horiz-adv-x="1630" 
d="M817 -33q-151 0 -287.5 58t-235 156t-156.5 234.5t-58 286.5q0 199 98 368t268 268.5t371 99.5q199 0 368 -99.5t267 -269t98 -367.5q0 -201 -98 -370t-266.5 -267t-368.5 -98zM815 266q180 0 307 128t127 308q0 178 -128 305.5t-306 129.5q-118 0 -218 -58.5t-158 -159
t-58 -217.5q0 -180 127 -308t307 -128z" />
    <glyph glyph-name="P" unicode="P" horiz-adv-x="1425" 
d="M168 0v1403h655q99 0 184 -28t145 -76t103 -112.5t63.5 -137t20.5 -148.5q0 -103 -33.5 -193t-96.5 -159t-162.5 -109.5t-223.5 -40.5h-350v-399h-305zM473 662h332q99 0 169 68.5t70 170.5q0 104 -69.5 172t-169.5 68h-332v-479z" />
    <glyph glyph-name="Q" unicode="Q" horiz-adv-x="1634" 
d="M1575 -406l-512 443q-114 -70 -246 -70q-151 0 -287.5 58t-235 156t-156.5 234.5t-58 286.5q0 199 98 368t268 268.5t371 99.5q199 0 368 -99.5t267 -269t98 -367.5q0 -150 -56 -284t-157 -236l238 -213v-375zM815 266q180 0 307 127.5t127 308.5q0 118 -58.5 218.5
t-158.5 158.5t-217 58q-180 0 -307 -127.5t-127 -307.5q0 -181 127 -308.5t307 -127.5z" />
    <glyph glyph-name="R" unicode="R" horiz-adv-x="1402" 
d="M168 0v1403h627q124 0 224.5 -42.5t163.5 -114t96.5 -160.5t33.5 -185q0 -154 -75 -277t-212 -180l313 -442h-350l-280 397h-240v-399h-301zM469 1141v-479h309q98 0 169 69t71 170q0 104 -70.5 172t-169.5 68h-309z" />
    <glyph glyph-name="S" unicode="S" horiz-adv-x="1310" 
d="M88 119l117 297q87 -59 188 -101t193.5 -58.5t168.5 -10.5t121.5 44t45.5 103q0 31 -29.5 55.5t-78.5 42.5t-113 35.5t-134.5 38t-140.5 45.5t-132.5 63t-109.5 85t-73.5 115.5t-22.5 152.5q4 104 54 187t131.5 133.5t191 72t227.5 10t247 -59.5t245 -130l-137 -244
q-87 66 -182 107t-177 50.5t-149 -2.5t-106.5 -50t-41.5 -94q-1 -38 26.5 -68t75.5 -50.5t110.5 -39t132 -37.5t139 -41t132.5 -54t111.5 -72t77.5 -100t29 -134q0 -132 -54.5 -231t-157 -154t-240 -67.5t-315 28.5t-370.5 133z" />
    <glyph glyph-name="T" unicode="T" horiz-adv-x="1038" 
d="M369 0v1116h-361v287h1022v-287h-360v-1116h-301z" />
    <glyph glyph-name="U" unicode="U" horiz-adv-x="1445" 
d="M725 -23q-166 0 -296.5 76t-201.5 206.5t-71 291.5v850h295v-850q0 -120 73 -197.5t199 -77.5t199 77.5t73 197.5v850h295v-850q0 -161 -71 -292t-200.5 -206.5t-293.5 -75.5z" />
    <glyph glyph-name="V" unicode="V" horiz-adv-x="1523" 
d="M762 0l-780 1403h329l451 -823l450 823h330z" />
    <glyph glyph-name="W" unicode="W" horiz-adv-x="2217" 
d="M2175 1403l-782 -1403l-283 512l-285 -512l-780 1403h330l450 -823l119 219l-332 604h330l168 -318l166 318h330l-330 -604l117 -219l452 823h330z" />
    <glyph glyph-name="X" unicode="X" horiz-adv-x="1329" 
d="M6 0l481 709l-471 694h353l301 -445l297 445h336l-467 -682l487 -721h-358l-303 465l-300 -465h-356z" />
    <glyph glyph-name="Y" unicode="Y" horiz-adv-x="1372" 
d="M537 0v541l-512 862h348l313 -524l313 524h349l-512 -866v-537h-299z" />
    <glyph glyph-name="Z" unicode="Z" horiz-adv-x="1468" 
d="M51 0l793 1102h-568v301h1135l-778 -1102h708v-301h-1290z" />
    <glyph glyph-name="bracketleft" unicode="[" horiz-adv-x="647" 
d="M168 -47v1603h448v-235h-202v-1133h202v-235h-448z" />
    <glyph glyph-name="backslash" unicode="\" horiz-adv-x="743" 
d="M565 -215l-653 1645h246l653 -1645h-246z" />
    <glyph glyph-name="bracketright" unicode="]" horiz-adv-x="647" 
d="M31 -47v235h202v1133h-202v235h448v-1603h-448z" />
    <glyph glyph-name="asciicircum" unicode="^" horiz-adv-x="1282" 
d="M117 721l387 682h274l387 -682h-276l-248 438l-250 -438h-274z" />
    <glyph glyph-name="underscore" unicode="_" horiz-adv-x="909" 
d="M0 -225v219h909v-219h-909z" />
    <glyph glyph-name="grave" unicode="`" horiz-adv-x="24" 
d="M-729 1194l-219 279h229l107 -279h-117z" />
    <glyph glyph-name="a" unicode="a" horiz-adv-x="1314" 
d="M643 -12q-154 0 -284.5 76t-206.5 206.5t-76 284.5q0 153 76 283t206.5 206t284.5 76q153 0 283 -76t206 -206t76 -283v-575h-286v135q-48 -59 -121.5 -93t-157.5 -34zM643 274q116 0 197.5 82t81.5 199q0 115 -82 197t-197 82q-117 0 -199 -81.5t-82 -197.5
q0 -117 82 -199t199 -82z" />
    <glyph glyph-name="b" unicode="b" horiz-adv-x="1302" 
d="M668 1104q154 0 285 -76.5t207.5 -207.5t76.5 -285q0 -116 -45 -221.5t-121.5 -182t-182 -121.5t-220.5 -45t-220.5 45t-182 121.5t-122 182t-45.5 221.5v899h287v-461q48 60 123 95.5t160 35.5zM668 252q117 0 199.5 82.5t82.5 200.5q0 117 -82.5 199.5t-199.5 82.5
t-200 -82.5t-83 -199.5q0 -118 83 -200.5t200 -82.5z" />
    <glyph glyph-name="c" unicode="c" horiz-adv-x="1130" 
d="M637 -43q-155 0 -286.5 78t-208 211.5t-76.5 290.5q0 163 80 296.5t210.5 206t280.5 72.5q135 0 253.5 -61t188.5 -162l-207 -201q-34 67 -100 102t-133 35q-113 0 -200 -80t-87 -208q0 -122 83.5 -207.5t203.5 -85.5q75 0 140 39t95 100l205 -201
q-68 -102 -187.5 -163.5t-254.5 -61.5z" />
    <glyph glyph-name="d" unicode="d" horiz-adv-x="1392" 
d="M641 -35q-115 0 -220.5 45t-182 121.5t-121.5 182t-45 221.5q0 154 76.5 285t207.5 207.5t285 76.5q85 0 160 -35.5t123 -95.5v461h286v-965q0 -82 37.5 -127t83.5 -45v-297q-103 0 -173 29.5t-120 122.5q-148 -187 -397 -187zM641 252q119 0 201 82t82 201
q0 117 -82.5 199.5t-200.5 82.5q-117 0 -200 -82.5t-83 -199.5q0 -118 83 -200.5t200 -82.5z" />
    <glyph glyph-name="e" unicode="e" horiz-adv-x="1200" 
d="M621 -20q-120 0 -226 50t-177 131.5t-111.5 184.5t-40.5 209q0 111 36 214t102 183t167.5 127.5t222.5 46.5q136 -1 249 -52.5t184 -143.5t96.5 -220t-13.5 -282h-731q11 -76 89.5 -134t180.5 -58q62 -2 140 22.5t104 60.5l217 -165q-155 -174 -489 -174zM377 676h452
q4 30 -6.5 62.5t-35.5 64t-73 51.5t-110 20q-106 0 -166.5 -62t-60.5 -136z" />
    <glyph glyph-name="f" unicode="f" horiz-adv-x="839" 
d="M184 0v809h-131v287h131q0 63 15.5 123t46 116.5t83 98t120.5 65t164 19.5t208 -39l-55 -265q-120 44 -211.5 10t-91.5 -128h305v-287h-297v-809h-287z" />
    <glyph glyph-name="g" unicode="g" horiz-adv-x="1304" 
d="M635 1104q154 0 285 -76.5t207.5 -207.5t76.5 -285v-541q0 -127 -45 -233.5t-122 -178t-181 -111.5t-221 -40v286q117 0 200 70t83 197v110q-48 -60 -122.5 -94.5t-160.5 -34.5q-115 0 -220.5 45t-182 121.5t-121.5 182t-45 221.5q0 154 76.5 285t207.5 207.5t285 76.5z
M635 252q117 0 200 82.5t83 200.5q0 117 -83 199.5t-200 82.5t-200 -82.5t-83 -199.5q0 -118 83 -200.5t200 -82.5z" />
    <glyph glyph-name="h" unicode="h" horiz-adv-x="1372" 
d="M688 1116q234 0 388.5 -155t154.5 -396v-565h-287v565q0 121 -70.5 192.5t-185.5 71.5q-116 0 -188 -71.5t-72 -192.5v-565h-287v1434h287v-420q92 102 260 102z" />
    <glyph glyph-name="i" unicode="i" horiz-adv-x="512" 
d="M256 1196q-61 0 -106.5 46.5t-45.5 107.5t45 106t107 45q63 0 107.5 -44.5t44.5 -106.5q0 -61 -45 -107.5t-107 -46.5zM119 0v1096h272v-1096h-272z" />
    <glyph glyph-name="j" unicode="j" horiz-adv-x="598" 
d="M330 1196q-61 0 -106.5 46.5t-45.5 107.5t45 106t107 45q63 0 107 -44.5t44 -106.5q0 -61 -44.5 -107.5t-106.5 -46.5zM4 -416v281q96 0 144.5 66.5t48.5 181.5v983h280v-981q0 -149 -56 -269t-164.5 -191t-252.5 -71z" />
    <glyph glyph-name="k" unicode="k" horiz-adv-x="1224" 
d="M735 641l486 -641h-353l-329 428l-105 -74v-354h-287v1047q0 94 29 180t83.5 156t144 112t200.5 41v-287q-80 0 -125 -56.5t-45 -148.5v-339l340 391h336z" />
    <glyph glyph-name="l" unicode="l" horiz-adv-x="688" 
d="M604 0q-202 0 -329.5 139t-127.5 353v1003h287v-997q0 -92 45 -148.5t125 -56.5v-293z" />
    <glyph glyph-name="m" unicode="m" horiz-adv-x="1783" 
d="M137 0v627q0 220 119 357.5t332 137.5q96 0 175 -34.5t130 -94.5q52 60 131.5 94.5t175.5 34.5q213 0 331 -137.5t118 -357.5v-627h-287v627q0 90 -41.5 149.5t-120.5 59.5t-121.5 -59.5t-42.5 -149.5v-627h-286v627q0 90 -41.5 149.5t-120.5 59.5t-121.5 -59.5
t-42.5 -149.5v-627h-287z" />
    <glyph glyph-name="n" unicode="n" horiz-adv-x="1351" 
d="M133 0v565q0 241 155 396t390 155q153 0 277.5 -69.5t196 -196t71.5 -285.5v-565h-287v565q0 123 -70.5 193.5t-187.5 70.5t-187.5 -70.5t-70.5 -193.5v-565h-287z" />
    <glyph glyph-name="o" unicode="o" horiz-adv-x="1269" 
d="M635 -23q-115 0 -220.5 45t-182 121.5t-121.5 182t-45 221.5q0 154 76.5 285t207.5 207.5t285 76.5t285 -76.5t207.5 -207.5t76.5 -285q0 -116 -45 -221.5t-121.5 -182t-182 -121.5t-220.5 -45zM635 264q117 0 200 82.5t83 200.5q0 117 -83 199.5t-200 82.5t-200 -82.5
t-83 -199.5q0 -118 83 -200.5t200 -82.5z" />
    <glyph glyph-name="p" unicode="p" horiz-adv-x="1337" 
d="M702 -49q-85 0 -159.5 35t-122.5 96v-463h-287v899q0 155 76 286.5t207 208.5t286 77q115 0 220.5 -45.5t182 -122t122 -182.5t45.5 -222q0 -154 -76.5 -284.5t-208 -206.5t-285.5 -76zM702 803q-118 0 -200 -83t-82 -202q0 -117 82 -198.5t200 -81.5q117 0 200 81.5
t83 198.5q0 118 -83 201.5t-200 83.5z" />
    <glyph glyph-name="q" unicode="q" horiz-adv-x="1337" 
d="M635 -49q-154 0 -285 76t-207.5 206.5t-76.5 284.5q0 116 45 222t121.5 182.5t182 122t220.5 45.5t220.5 -45.5t182 -122t121.5 -182.5t45 -222v-899h-286v463q-48 -61 -123 -96t-160 -35zM635 803q-117 0 -200 -83.5t-83 -201.5q0 -117 83 -198.5t200 -81.5t200 81.5
t83 198.5q0 118 -83 201.5t-200 83.5z" />
    <glyph glyph-name="r" unicode="r" horiz-adv-x="808" 
d="M147 0v1096h273v-127q36 69 133.5 100.5t206.5 26.5v-287q-128 22 -227 -50t-99 -198v-561h-287z" />
    <glyph glyph-name="s" unicode="s" horiz-adv-x="1118" 
d="M43 102l100 238q130 -73 275 -111.5t249.5 -19t104.5 103.5q0 25 -24.5 44.5t-66 34.5t-95 29t-112.5 30.5t-117.5 36.5t-110.5 50t-92 67.5t-61.5 92t-18.5 121.5q7 88 53.5 156t119.5 107t170 54t201 3t215.5 -52t210.5 -106l-116 -197q-63 48 -140 79.5t-148 39.5
t-131 1t-97 -34t-39 -67q-1 -24 22 -44.5t63.5 -36t92.5 -30.5t110 -32t116 -36.5t110.5 -47.5t93 -62t64.5 -82t24 -106q0 -86 -33 -157t-94 -122t-153 -76.5t-203 -23.5t-251 41t-292 114z" />
    <glyph glyph-name="t" unicode="t" horiz-adv-x="786" 
d="M739 -6q-55 0 -106 4.5t-112 17.5t-112.5 33.5t-101 56.5t-84 82.5t-55.5 114.5t-21 150v356h-100v287h100v227h287v-227h266v-287h-266v-293q0 -52 12 -92t35.5 -65t50 -41t64.5 -24t69.5 -10.5t73.5 -2.5v-287z" />
    <glyph glyph-name="u" unicode="u" horiz-adv-x="1255" 
d="M629 -20q-235 0 -390 154.5t-155 395.5v566h287v-566q0 -121 71 -192.5t187 -71.5q115 0 186.5 72t71.5 192v566h287v-566q0 -159 -71.5 -285t-196 -195.5t-277.5 -69.5z" />
    <glyph glyph-name="v" unicode="v" horiz-adv-x="1275" 
d="M1251 1096l-612 -1096l-612 1096h329l283 -516l281 516h331z" />
    <glyph glyph-name="w" unicode="w" horiz-adv-x="2168" 
d="M2144 1096l-612 -1096l-447 631l-448 -631l-612 1096h331l320 -574l409 574l410 -574l320 574h329z" />
    <glyph glyph-name="x" unicode="x" horiz-adv-x="1185" 
d="M35 0l395 545l-389 551h334l217 -320l219 320h334l-389 -537l395 -559h-330l-229 322l-230 -322h-327z" />
    <glyph glyph-name="y" unicode="y" horiz-adv-x="1271" 
d="M133 -455v275q61 -13 111.5 -4.5t91 29.5t67.5 54t41 70.5t12 78.5t-20 77l-397 971h303l295 -713l295 713h303l-449 -1096q-21 -46 -41 -84.5t-43.5 -79t-47 -73t-51.5 -64.5t-58 -56t-64 -45t-72.5 -34t-81 -20.5t-91.5 -7t-103 8.5z" />
    <glyph glyph-name="z" unicode="z" horiz-adv-x="1337" 
d="M31 0l641 809h-459v287h1059l-654 -809h572v-287h-1159z" />
    <glyph glyph-name="braceleft" unicode="{" horiz-adv-x="638" 
d="M608 -31q-167 -24 -276 66t-109 260v240q0 53 -34 88.5t-83 29.5v176q51 -6 84 30.5t33 88.5v238q0 173 109 262t276 65v-170q-51 8 -85.5 -1.5t-51.5 -35t-24 -54t-7 -66.5v-238q0 -65 -27 -120t-63 -87q36 -33 63 -87.5t27 -118.5v-240q0 -80 37 -122t131 -30v-174z
" />
    <glyph glyph-name="bar" unicode="|" horiz-adv-x="610" 
d="M168 -178v1603h274v-1603h-274z" />
    <glyph glyph-name="braceright" unicode="}" horiz-adv-x="659" 
d="M53 -31l-22 174q95 -13 141.5 31t46.5 121v240q0 64 27.5 118.5t64.5 87.5q-37 33 -64.5 88t-27.5 119v238q0 77 -46 123t-142 30l22 174q167 24 276 -65t109 -262v-238q0 -52 33 -88.5t84 -30.5v-176q-50 6 -83.5 -29t-33.5 -89v-240q0 -170 -109 -260t-276 -66z" />
    <glyph glyph-name="asciitilde" unicode="~" horiz-adv-x="1521" 
d="M281 567l-179 201q65 106 132.5 164.5t158.5 58.5q42 0 102.5 -18.5t120.5 -43.5t128 -51t134 -38.5t129 -9.5t122.5 38t105.5 103l184 -197q-46 -65 -121 -110t-145.5 -62.5t-136.5 -17.5q-76 0 -168.5 25.5t-162.5 49.5t-143.5 35.5t-139.5 -18t-121 -109.5z" />
    <glyph glyph-name="uni00A0" unicode="&#xa0;" horiz-adv-x="552" 
 />
    <glyph glyph-name="exclamdown" unicode="&#xa1;" horiz-adv-x="460" 
d="M229 840q-51 0 -87 35.5t-36 87.5q0 51 36 85.5t87 34.5t87 -34.5t36 -85.5q0 -52 -36 -87.5t-87 -35.5zM94 -199l51 912h170l52 -912h-273z" />
    <glyph glyph-name="cent" unicode="&#xa2;" horiz-adv-x="1204" 
d="M528 -2v141q-197 40 -329.5 205t-132.5 377q0 121 39 225t105 174.5t147 116.5t171 63v140h226v-140q144 -27 258 -115t155 -210l-235 -131q-34 90 -114.5 144t-166.5 54q-124 0 -216.5 -88.5t-92.5 -232.5q0 -134 90.5 -227t218.5 -93q92 0 172 54t109 139l235 -129
q-41 -124 -154.5 -212.5t-258.5 -115.5v-139h-226z" />
    <glyph glyph-name="sterling" unicode="&#xa3;" horiz-adv-x="1173" 
d="M61 0q56 41 95 122.5t39 188.5v275h-113v239h113v168q0 110 39.5 198t105 141t144 80.5t163.5 27.5q184 0 288.5 -72.5t168.5 -228.5l-225 -150q-70 172 -215 172q-80 0 -138.5 -64t-58.5 -153v-119h440v-239h-440v-314h682v-272h-1088z" />
    <glyph glyph-name="currency" unicode="&#xa4;" horiz-adv-x="1288" 
d="M1083 106l-190 189q-117 -70 -246 -70q-136 0 -256 76l-188 -188l-148 149l187 191q-82 119 -82 262q0 148 84 262l-189 188l150 152l186 -189q117 74 256 74t252 -74l182 185l150 -150l-180 -182q86 -120 86 -266q0 -152 -90 -275l184 -184zM647 469q102 0 174 72
t72 174q0 103 -71.5 174.5t-174.5 71.5t-174.5 -71.5t-71.5 -174.5q0 -102 72 -174t174 -72z" />
    <glyph glyph-name="yen" unicode="&#xa5;" horiz-adv-x="1390" 
d="M535 0v141h-328v150h328v98h-328v150h328l-500 864h317l344 -574l342 574h320l-500 -864h324v-150h-326v-98h326v-150h-326v-141h-321z" />
    <glyph glyph-name="brokenbar" unicode="&#xa6;" horiz-adv-x="610" 
d="M168 737v664h274v-664h-274zM168 -104v663h274v-663h-274z" />
    <glyph glyph-name="section" unicode="&#xa7;" horiz-adv-x="854" 
d="M43 96l76 178q87 -50 191.5 -78t181.5 -16t77 68q0 23 -27 42t-70.5 33.5t-96.5 30t-106.5 37.5t-98 50t-74.5 72.5t-33 100.5q-1 57 28 106t75 71q-89 63 -84 172q7 96 77.5 156.5t172.5 75.5t226.5 -14t232.5 -100l-89 -149q-74 55 -168 76t-158.5 4.5t-66.5 -60.5
q-1 -20 26.5 -38t72 -33t98 -31t107.5 -37.5t98.5 -48t72 -67t27.5 -89.5q0 -66 -37 -119t-86 -69q45 -21 76 -66t31 -94q0 -63 -24.5 -115t-69.5 -89.5t-112.5 -56t-149 -17t-184 30t-212.5 83.5zM479 510q48 -2 87 26.5t16 67.5q-8 11 -17.5 21t-22.5 17.5t-22.5 13
t-27 10.5t-26 8t-28.5 6.5t-26 4.5t-28 4t-24 3q-40 -10 -57.5 -37.5t-3.5 -58.5q6 -20 22.5 -35t47.5 -25t50 -14t60 -12z" />
    <glyph glyph-name="dieresis" unicode="&#xa8;" horiz-adv-x="1062" 
d="M365 1147q-40 0 -69.5 29t-29.5 69t29.5 69t69.5 29t69 -29t29 -69t-29 -69t-69 -29zM698 1147q-40 0 -69 29t-29 69t29 69t69 29t69.5 -29t29.5 -69t-29.5 -69t-69.5 -29z" />
    <glyph glyph-name="copyright" unicode="&#xa9;" horiz-adv-x="1345" 
d="M674 229q-161 0 -298 80t-216.5 217t-79.5 297t79.5 297t216.5 217t298 80q160 0 296.5 -80t216 -217t79.5 -297t-79.5 -297t-216 -217t-296.5 -80zM674 283q111 0 211 42.5t172 115t114.5 172.5t42.5 210q0 148 -71.5 272t-196 195.5t-272.5 71.5q-147 0 -271.5 -71.5
t-197 -195.5t-72.5 -272q0 -147 72.5 -271.5t197 -196.5t271.5 -72zM670 432q-112 0 -200.5 57.5t-134 146t-46.5 187.5q0 162 108 276.5t273 114.5q209 0 317 -172l-125 -114q-59 106 -184 106q-85 0 -143 -62.5t-58 -148.5q0 -85 60.5 -149t140.5 -64q132 0 184 105
l125 -113q-44 -82 -125.5 -126t-191.5 -44z" />
    <glyph glyph-name="ordfeminine" unicode="&#xaa;" horiz-adv-x="778" 
d="M555 809v82q-71 -74 -176 -74q-132 0 -227 93t-95 225q0 139 97 232t225 93q133 0 227 -92.5t94 -232.5v-326h-145zM379 973q72 0 119 47.5t47 114.5t-47.5 118.5t-118.5 51.5t-118.5 -51.5t-47.5 -118.5t47 -114.5t119 -47.5z" />
    <glyph glyph-name="guillemotleft" unicode="&#xab;" horiz-adv-x="1202" 
d="M647 514l316 -436h-191l4 -6h-221l-315 436l315 436h180l4 6h224z" />
    <glyph glyph-name="logicalnot" unicode="&#xac;" horiz-adv-x="1230" 
d="M831 160v379h-704v274h977v-653h-273z" />
    <glyph glyph-name="uni00AD" unicode="&#xad;" horiz-adv-x="925" 
d="M106 410v217h717v-217h-717z" />
    <glyph glyph-name="registered" unicode="&#xae;" horiz-adv-x="1112" 
d="M557 543q-198 0 -337.5 139.5t-139.5 337.5q0 97 37.5 184.5t101.5 151.5t152.5 101.5t185.5 37.5t184.5 -37.5t151.5 -101.5t101.5 -151.5t37.5 -184.5t-37.5 -185.5t-101.5 -152.5t-151.5 -101.5t-184.5 -37.5zM557 596q113 -2 210 55t153.5 155.5t56.5 213.5
q-2 174 -124.5 297.5t-295.5 122.5q-115 -1 -211.5 -57.5t-153 -152.5t-57.5 -210q-1 -174 122.5 -297.5t299.5 -126.5zM352 741v551h228q92 0 152.5 -52t60.5 -146q0 -35 -9.5 -64t-28 -50.5t-33 -33.5t-36.5 -26l115 -179h-127l-99 156h-104v-156h-119zM473 999h109
q30 0 60 28.5t30 66.5q0 44 -30 68t-71 24h-98v-187z" />
    <glyph glyph-name="macron" unicode="&#xaf;" horiz-adv-x="948" 
d="M236 1303v118h477v-118h-477z" />
    <glyph glyph-name="degree" unicode="&#xb0;" horiz-adv-x="700" 
d="M352 860q-118 0 -201 83t-83 200t83 199.5t201 82.5q117 0 199 -82.5t82 -199.5t-82 -200t-199 -83zM352 965q71 0 122.5 52.5t51.5 125.5q-2 72 -53 124t-121 52q-75 0 -126 -51.5t-54 -124.5q0 -74 52 -126t128 -52z" />
    <glyph glyph-name="plusminus" unicode="&#xb1;" horiz-adv-x="1146" 
d="M436 543v309h-309v274h309v310h275v-310h309v-274h-309v-309h-275zM127 51v273h893v-273h-893z" />
    <glyph glyph-name="uni00B2" unicode="&#xb2;" horiz-adv-x="788" 
d="M59 514l-2 109q0 82 27 144.5t70 100t95 66.5t104 51.5t95 46t70 59.5t27 83q0 51 -34.5 85.5t-107.5 34.5q-64 0 -105 -39.5t-56 -97.5l-181 55q20 122 117 195.5t232 73.5q139 0 233 -78t94 -215q0 -73 -26 -131t-67 -94t-90.5 -65t-99.5 -51t-91 -43.5t-67 -51.5
t-26 -68h449v-170h-660z" />
    <glyph glyph-name="uni00B3" unicode="&#xb3;" horiz-adv-x="849" 
d="M414 510q-130 0 -223.5 56t-139.5 153l199 78q15 -51 58 -79t106 -28q73 0 118.5 44.5t45.5 109.5q-1 45 -29 78.5t-66.5 47t-81 8.5t-71.5 -30l-107 148l271 204h-338v175h616v-144l-235 -192q114 -26 184 -108.5t67 -186.5q-2 -142 -107 -238t-267 -96z" />
    <glyph glyph-name="acute" unicode="&#xb4;" horiz-adv-x="86" 
d="M-451 1171l109 279h227l-217 -279h-119z" />
    <glyph glyph-name="uni00B5" unicode="&#xb5;" horiz-adv-x="1265" 
d="M102 -330v1417h260v-573q0 -59 15 -112t46 -100t87 -75t131 -28q51 0 92 15.5t67.5 39.5t46.5 59t30.5 68t16.5 73.5t7.5 68.5t1.5 59v505h260v-1126h-258v139q-30 -74 -99.5 -117.5t-166.5 -43.5q-92 0 -171 38t-106 99v-406h-260z" />
    <glyph glyph-name="paragraph" unicode="&#xb6;" horiz-adv-x="1253" 
d="M465 0v573q-181 0 -308.5 128.5t-127.5 308.5q0 182 127.5 309t308.5 127h618v-193h-47v-1253h-205v1253h-161v-1253h-205z" />
    <glyph glyph-name="periodcentered" unicode="&#xb7;" horiz-adv-x="468" 
d="M236 389q-52 0 -87.5 36t-35.5 87t35.5 87t87.5 36q51 0 85.5 -36t34.5 -87t-34.5 -87t-85.5 -36z" />
    <glyph glyph-name="cedilla" unicode="&#xb8;" horiz-adv-x="1003" 
d="M410 -324l-48 117q89 0 103 51q4 18 -8 28t-25 11.5t-33 1.5l39 105h119l-18 -60q47 -1 65.5 -32.5t7.5 -69.5q-11 -37 -28.5 -63.5t-34.5 -41.5t-44 -25t-45 -13.5t-50 -8.5z" />
    <glyph glyph-name="uni00B9" unicode="&#xb9;" horiz-adv-x="454" 
d="M201 557v750h-150v168h352v-918h-202z" />
    <glyph glyph-name="ordmasculine" unicode="&#xba;" horiz-adv-x="743" 
d="M373 805q-134 -2 -229 89.5t-95 235.5q0 143 98 235.5t226 92.5q134 0 227.5 -91t93.5 -237q0 -144 -94.5 -234.5t-226.5 -90.5zM373 963q71 0 116.5 48.5t45.5 118.5q2 69 -43 119.5t-119 50.5q-70 0 -117 -50.5t-47 -119.5q0 -70 46 -118.5t118 -48.5z" />
    <glyph glyph-name="guillemotright" unicode="&#xbb;" horiz-adv-x="1202" 
d="M102 78l316 436l-316 436h224l315 -436l-315 -436h-224zM561 72l316 436l-316 436h223l316 -436l-316 -436h-223z" />
    <glyph glyph-name="onequarter" unicode="&#xbc;" horiz-adv-x="1824" 
d="M297 557v750h-147v168h350v-918h-203zM365 102l688 1229h188l-688 -1229h-188zM1464 -106v188h-450v170l305 553h223l-305 -553h231v293h187v-293h131v-170h-131v-188h-191z" />
    <glyph glyph-name="onehalf" unicode="&#xbd;" horiz-adv-x="1804" 
d="M297 557v750h-147v168h350v-918h-203zM365 102l688 1229h188l-688 -1229h-188zM1044 -102l-2 108q0 82 27 144.5t70 100t95 66.5t104 51.5t95 46t70 59.5t27 83q0 51 -35 86t-106 35q-64 0 -106.5 -40t-57.5 -97l-178 55q20 122 115.5 195t230.5 73q139 0 233 -77
t94 -216q0 -64 -20 -117t-52.5 -87t-74.5 -63.5t-85.5 -48.5t-85.5 -40.5t-74.5 -40.5t-52.5 -46.5t-20 -61.5h447v-168h-658z" />
    <glyph glyph-name="threequarters" unicode="&#xbe;" horiz-adv-x="2074" 
d="M403 510q-131 0 -223.5 56t-138.5 153l199 78q15 -51 57.5 -79t105.5 -28q72 0 118 45t44 109q0 45 -27.5 78.5t-66.5 47t-82 8.5t-72 -30l-106 148l270 204h-336v175h617v-144l-238 -192q115 -26 185.5 -108t68.5 -187q-2 -141 -107.5 -237.5t-267.5 -96.5zM614 102
l689 1229h188l-688 -1229h-189zM1714 -106v188h-450v170l305 553h223l-305 -553h231v293h187v-293h131v-170h-131v-188h-191z" />
    <glyph glyph-name="questiondown" unicode="&#xbf;" horiz-adv-x="970" 
d="M555 934q-52 0 -87.5 35t-35.5 86q0 53 35 88t88 35q51 0 86 -35.5t35 -87.5q0 -51 -35 -86t-86 -35zM479 -215q-68 0 -128 19t-103.5 51.5t-75 77.5t-47 94.5t-15.5 103.5t17 105q12 46 36.5 83.5t53 63.5t60.5 52.5t61 58.5t52 72t35.5 101.5t10.5 139.5h232
q3 -100 -15 -180t-48.5 -129t-69 -93t-73 -74t-63 -69t-37.5 -80q-8 -63 27.5 -114.5t108.5 -51.5q70 0 114.5 50t44.5 135h232q2 -79 -22 -151.5t-72.5 -132t-130 -95.5t-185.5 -37z" />
    <glyph glyph-name="Agrave" unicode="&#xc0;" horiz-adv-x="1542" 
d="M719 1556l-217 279h227l109 -279h-119zM1229 0l-117 213h-682l-117 -215l-329 2l786 1403l789 -1403h-330zM582 479h376l-188 346z" />
    <glyph glyph-name="Aacute" unicode="&#xc1;" horiz-adv-x="1542" 
d="M705 1538l108 279h227l-217 -279h-118zM1229 0l-117 213h-682l-117 -215l-329 2l786 1403l789 -1403h-330zM582 479h376l-188 346z" />
    <glyph glyph-name="Acircumflex" unicode="&#xc2;" horiz-adv-x="1542" 
d="M543 1567l164 262h129l163 -262h-131l-98 157l-96 -157h-131zM1229 0l-117 213h-682l-117 -215l-329 2l786 1403l789 -1403h-330zM582 479h376l-188 346z" />
    <glyph glyph-name="Atilde" unicode="&#xc3;" horiz-adv-x="1542" 
d="M530 1565q0 37 1 55.5t6.5 46.5t17 42t34.5 25t56 11q24 -1 61 -13t67.5 -24t59.5 -18.5t45.5 5.5t16.5 46h115q0 -36 -1 -54.5t-6.5 -46t-17 -41t-34.5 -24t-56 -10.5q-23 2 -60.5 14t-68 23t-59.5 17t-45.5 -7t-16.5 -47h-115zM1229 0l-117 213h-682l-117 -215l-329 2
l786 1403l789 -1403h-330zM582 479h376l-188 346z" />
    <glyph glyph-name="Adieresis" unicode="&#xc4;" horiz-adv-x="1542" 
d="M602 1524q-40 0 -69 29t-29 69t29 69t69 29t69 -29t29 -69t-29 -69t-69 -29zM936 1524q-40 0 -69 29t-29 69t29 69t69 29t69 -29t29 -69t-29 -69t-69 -29zM1229 0l-117 213h-682l-117 -215l-329 2l786 1403l789 -1403h-330zM582 479h376l-188 346z" />
    <glyph glyph-name="Aring" unicode="&#xc5;" horiz-adv-x="1542" 
d="M770 1577q-55 0 -97 40t-42 99q0 60 42 98.5t97 38.5q57 0 97 -38t40 -99q0 -60 -40 -99.5t-97 -39.5zM770 1647q28 0 48 20t20 49q0 28 -20 48t-48 20q-29 0 -48.5 -20t-19.5 -48q0 -29 19.5 -49t48.5 -20zM1229 0l-117 213h-682l-117 -215l-329 2l786 1403l789 -1403
h-330zM582 479h376l-188 346z" />
    <glyph glyph-name="AE" unicode="&#xc6;" horiz-adv-x="1851" 
d="M-20 0l587 1403h1190v-258h-713v-301h613v-258h-613v-330h713v-256h-1038v324h-287l-127 -324h-325zM526 580h193v487z" />
    <glyph glyph-name="Ccedilla" unicode="&#xc7;" horiz-adv-x="1398" 
d="M809 254q107 0 192.5 41t139.5 113l205 -203q-89 -104 -209.5 -166t-266.5 -72l-14 -43q47 -1 67 -32.5t7 -69.5q-11 -37 -28.5 -63.5t-34 -41.5t-43.5 -25t-45 -13.5t-50 -8.5l-47 117q17 0 28 1t28 5t28.5 15.5t15.5 29.5q5 18 -6.5 28t-24 11.5t-32.5 1.5l33 88
q-191 15 -346 119.5t-240.5 267t-85.5 346.5q0 145 55 279.5t150.5 234.5t232.5 160t291 60q320 0 537 -238l-203 -207q-140 156 -334 156q-127 0 -229 -64t-156.5 -165.5t-54.5 -215.5q0 -183 128 -314.5t312 -131.5z" />
    <glyph glyph-name="Egrave" unicode="&#xc8;" horiz-adv-x="1275" 
d="M621 1538l-218 279h228l108 -279h-118zM168 0v1403h1014v-258h-713v-301h612v-258h-612v-330h713v-256h-1014z" />
    <glyph glyph-name="Eacute" unicode="&#xc9;" horiz-adv-x="1275" 
d="M604 1520l109 278h227l-217 -278h-119zM168 0v1403h1014v-258h-713v-301h612v-258h-612v-330h713v-256h-1014z" />
    <glyph glyph-name="Ecircumflex" unicode="&#xca;" horiz-adv-x="1275" 
d="M442 1548l164 262h129l164 -262h-131l-98 158l-97 -158h-131zM168 0v1403h1014v-258h-713v-301h612v-258h-612v-330h713v-256h-1014z" />
    <glyph glyph-name="Edieresis" unicode="&#xcb;" horiz-adv-x="1275" 
d="M504 1505q-40 0 -69 29.5t-29 69.5t29 69t69 29t69 -29t29 -69t-29 -69.5t-69 -29.5zM838 1505q-40 0 -69.5 29.5t-29.5 69.5t29.5 69t69.5 29t69 -29t29 -69t-29 -69.5t-69 -29.5zM168 0v1403h1014v-258h-713v-301h612v-258h-612v-330h713v-256h-1014z" />
    <glyph glyph-name="Igrave" unicode="&#xcc;" horiz-adv-x="636" 
d="M256 1536l-217 279h227l109 -279h-119zM168 0v1403h301v-1403h-301z" />
    <glyph glyph-name="Iacute" unicode="&#xcd;" horiz-adv-x="636" 
d="M240 1518l108 278h227l-217 -278h-118zM168 0v1403h301v-1403h-301z" />
    <glyph glyph-name="Icircumflex" unicode="&#xce;" horiz-adv-x="636" 
d="M78 1548l164 262h129l164 -262h-132l-98 158l-96 -158h-131zM168 0v1403h301v-1403h-301z" />
    <glyph glyph-name="Idieresis" unicode="&#xcf;" horiz-adv-x="636" 
d="M139 1503q-40 0 -69 29.5t-29 69.5t29 69t69 29t69.5 -29t29.5 -69t-29.5 -69.5t-69.5 -29.5zM473 1503q-40 0 -69 29.5t-29 69.5t29 69t69 29t69 -29t29 -69t-29 -69.5t-69 -29.5zM168 0v1403h301v-1403h-301z" />
    <glyph glyph-name="Eth" unicode="&#xd0;" horiz-adv-x="1558" 
d="M207 0v594h-205v217h205v592h594q145 0 267 -43t214.5 -127.5t144.5 -220.5t52 -312q0 -152 -52.5 -283t-143.5 -222t-216 -143t-266 -52h-594zM532 256h238q169 0 286.5 126t117.5 318q0 205 -116 325t-288 120h-238v-334h261v-217h-261v-338z" />
    <glyph glyph-name="Ntilde" unicode="&#xd1;" horiz-adv-x="1624" 
d="M479 1526q0 37 1 55.5t6.5 46.5t17 42t34.5 25t56 11q24 -1 61 -13t67.5 -24t59.5 -18.5t45.5 5.5t16.5 46h114q0 -31 -0.5 -45.5t-3.5 -40t-10 -38t-19 -26.5t-32.5 -20t-48.5 -6q-23 2 -60.5 14t-68 23t-59.5 17t-45.5 -7t-16.5 -47h-115zM1470 -76l-1015 846v-770
h-301v1401l1015 -846v848h301v-1479z" />
    <glyph glyph-name="Ograve" unicode="&#xd2;" horiz-adv-x="1630" 
d="M766 1561l-217 278h227l109 -278h-119zM817 -33q-151 0 -287.5 58t-235 156t-156.5 234.5t-58 286.5q0 199 98 368t268 268.5t371 99.5q199 0 368 -99.5t267 -269t98 -367.5q0 -201 -98 -370t-266.5 -267t-368.5 -98zM815 266q180 0 307 128t127 308q0 178 -128 305.5
t-306 129.5q-118 0 -218 -58.5t-158 -159t-58 -217.5q0 -180 127 -308t307 -128z" />
    <glyph glyph-name="Oacute" unicode="&#xd3;" horiz-adv-x="1630" 
d="M750 1542l108 279h227l-217 -279h-118zM817 -33q-151 0 -287.5 58t-235 156t-156.5 234.5t-58 286.5q0 199 98 368t268 268.5t371 99.5q199 0 368 -99.5t267 -269t98 -367.5q0 -201 -98 -370t-266.5 -267t-368.5 -98zM815 266q180 0 307 128t127 308q0 178 -128 305.5
t-306 129.5q-118 0 -218 -58.5t-158 -159t-58 -217.5q0 -180 127 -308t307 -128z" />
    <glyph glyph-name="Ocircumflex" unicode="&#xd4;" horiz-adv-x="1630" 
d="M590 1573l164 262h129l164 -262h-132l-98 158l-96 -158h-131zM817 -33q-151 0 -287.5 58t-235 156t-156.5 234.5t-58 286.5q0 199 98 368t268 268.5t371 99.5q199 0 368 -99.5t267 -269t98 -367.5q0 -201 -98 -370t-266.5 -267t-368.5 -98zM815 266q180 0 307 128
t127 308q0 178 -128 305.5t-306 129.5q-118 0 -218 -58.5t-158 -159t-58 -217.5q0 -180 127 -308t307 -128z" />
    <glyph glyph-name="Otilde" unicode="&#xd5;" horiz-adv-x="1630" 
d="M578 1569q0 31 0.5 46t3.5 41t10 38.5t19 27.5t32.5 21t48.5 6q24 -1 61 -13t67.5 -24t59.5 -18.5t45.5 5.5t16.5 46h115q0 -36 -1 -54.5t-6.5 -46t-17 -41t-34.5 -24t-56 -10.5q-23 2 -60.5 14t-68 23t-59.5 17t-45.5 -7t-16.5 -47h-114zM817 -33q-151 0 -287.5 58
t-235 156t-156.5 234.5t-58 286.5q0 199 98 368t268 268.5t371 99.5q199 0 368 -99.5t267 -269t98 -367.5q0 -201 -98 -370t-266.5 -267t-368.5 -98zM815 266q180 0 307 128t127 308q0 178 -128 305.5t-306 129.5q-118 0 -218 -58.5t-158 -159t-58 -217.5q0 -180 127 -308
t307 -128z" />
    <glyph glyph-name="Odieresis" unicode="&#xd6;" horiz-adv-x="1630" 
d="M649 1528q-40 0 -69 29t-29 69t29 69t69 29t69.5 -29t29.5 -69t-29.5 -69t-69.5 -29zM983 1528q-40 0 -69 29t-29 69t29 69t69 29t69 -29t29 -69t-29 -69t-69 -29zM817 -33q-151 0 -287.5 58t-235 156t-156.5 234.5t-58 286.5q0 199 98 368t268 268.5t371 99.5
q199 0 368 -99.5t267 -269t98 -367.5q0 -201 -98 -370t-266.5 -267t-368.5 -98zM815 266q180 0 307 128t127 308q0 178 -128 305.5t-306 129.5q-118 0 -218 -58.5t-158 -159t-58 -217.5q0 -180 127 -308t307 -128z" />
    <glyph glyph-name="multiply" unicode="&#xd7;" horiz-adv-x="1189" 
d="M375 283l-193 192l221 219l-221 219l193 193l221 -219l219 219l193 -193l-220 -219l220 -219l-193 -192l-219 219z" />
    <glyph glyph-name="Oslash" unicode="&#xd8;" horiz-adv-x="1628" 
d="M815 -27q-210 0 -389 117l-76 -88h-252l178 213q-86 97 -134 221.5t-48 261.5q0 164 60 303t160 230.5t230 142.5t271 51q216 0 389 -110l74 88h252l-174 -209q176 -199 176 -496q0 -150 -58 -285.5t-155 -231.5t-229 -152t-275 -56zM485 471l508 586q-80 57 -180 57
q-117 0 -213 -59.5t-147.5 -154t-51.5 -202.5q0 -118 84 -227zM813 287q116 0 212.5 62t148 155.5t51.5 193.5q0 133 -82 234l-510 -588q80 -57 180 -57z" />
    <glyph glyph-name="Ugrave" unicode="&#xd9;" horiz-adv-x="1445" 
d="M664 1534l-218 278h228l108 -278h-118zM725 -23q-166 0 -296.5 76t-201.5 206.5t-71 291.5v850h295v-850q0 -120 73 -197.5t199 -77.5t199 77.5t73 197.5v850h295v-850q0 -161 -71 -292t-200.5 -206.5t-293.5 -75.5z" />
    <glyph glyph-name="Uacute" unicode="&#xda;" horiz-adv-x="1445" 
d="M647 1516l109 278h227l-217 -278h-119zM725 -23q-166 0 -296.5 76t-201.5 206.5t-71 291.5v850h295v-850q0 -120 73 -197.5t199 -77.5t199 77.5t73 197.5v850h295v-850q0 -161 -71 -292t-200.5 -206.5t-293.5 -75.5z" />
    <glyph glyph-name="Ucircumflex" unicode="&#xdb;" horiz-adv-x="1445" 
d="M487 1546l164 262h129l164 -262h-131l-98 158l-97 -158h-131zM725 -23q-166 0 -296.5 76t-201.5 206.5t-71 291.5v850h295v-850q0 -120 73 -197.5t199 -77.5t199 77.5t73 197.5v850h295v-850q0 -161 -71 -292t-200.5 -206.5t-293.5 -75.5z" />
    <glyph glyph-name="Udieresis" unicode="&#xdc;" horiz-adv-x="1445" 
d="M547 1501q-40 0 -69 29t-29 69t29 69.5t69 29.5t69 -29.5t29 -69.5t-29 -69t-69 -29zM881 1501q-40 0 -69.5 29t-29.5 69t29.5 69.5t69.5 29.5t69 -29.5t29 -69.5t-29 -69t-69 -29zM725 -23q-166 0 -296.5 76t-201.5 206.5t-71 291.5v850h295v-850q0 -120 73 -197.5
t199 -77.5t199 77.5t73 197.5v850h295v-850q0 -161 -71 -292t-200.5 -206.5t-293.5 -75.5z" />
    <glyph glyph-name="Yacute" unicode="&#xdd;" horiz-adv-x="1372" 
d="M618 1520l109 278h227l-217 -278h-119zM537 0v541l-512 862h348l313 -524l313 524h349l-512 -866v-537h-299z" />
    <glyph glyph-name="Thorn" unicode="&#xde;" horiz-adv-x="1253" 
d="M168 -2v1436h278v-228h211q127 0 228 -42.5t161.5 -114t91.5 -156.5t31 -176q0 -96 -31 -182.5t-91.5 -156t-161 -110.5t-228.5 -41h-211v-229h-278zM446 467h193q56 0 102 18t74.5 45.5t48 62t27.5 66t8 58.5q0 38 -14 79t-42.5 82t-81.5 67t-122 26h-193v-504z" />
    <glyph glyph-name="germandbls" unicode="&#xdf;" horiz-adv-x="1226" 
d="M684 -16q-54 0 -119 6v233q46 -4 64 -4q119 -7 186.5 46.5t67.5 131.5q0 40 -12 73.5t-31 56.5t-41.5 44.5t-45.5 43.5t-42 47t-31 61t-12 80q0 39 16.5 74t36.5 58t36.5 60.5t16.5 81.5q0 69 -48.5 117.5t-133.5 48.5q-89 0 -130.5 -64.5t-41.5 -160.5v-1018h-273v1034
q0 196 124 326.5t321 130.5q191 0 320.5 -104t129.5 -259q0 -60 -16 -109.5t-35 -77t-35 -61t-16 -63.5q0 -41 12 -73t31.5 -53.5t43 -42t47.5 -45.5t43.5 -55.5t31.5 -79.5t12 -112q0 -64 -32 -129.5t-90.5 -120t-151.5 -89t-203 -33.5z" />
    <glyph glyph-name="agrave" unicode="&#xe0;" horiz-adv-x="1314" 
d="M592 1247l-217 279h227l109 -279h-119zM643 -12q-154 0 -284.5 76t-206.5 206.5t-76 284.5q0 153 76 283t206.5 206t284.5 76q153 0 283 -76t206 -206t76 -283v-575h-286v135q-48 -59 -121.5 -93t-157.5 -34zM643 274q116 0 197.5 82t81.5 199q0 115 -82 197t-197 82
q-117 0 -199 -81.5t-82 -197.5q0 -117 82 -199t199 -82z" />
    <glyph glyph-name="aacute" unicode="&#xe1;" horiz-adv-x="1314" 
d="M575 1229l109 278h227l-217 -278h-119zM643 -12q-154 0 -284.5 76t-206.5 206.5t-76 284.5q0 153 76 283t206.5 206t284.5 76q153 0 283 -76t206 -206t76 -283v-575h-286v135q-48 -59 -121.5 -93t-157.5 -34zM643 274q116 0 197.5 82t81.5 199q0 115 -82 197t-197 82
q-117 0 -199 -81.5t-82 -197.5q0 -117 82 -199t199 -82z" />
    <glyph glyph-name="acircumflex" unicode="&#xe2;" horiz-adv-x="1314" 
d="M416 1257l164 263h129l163 -263h-131l-98 158l-96 -158h-131zM643 -12q-154 0 -284.5 76t-206.5 206.5t-76 284.5q0 153 76 283t206.5 206t284.5 76q153 0 283 -76t206 -206t76 -283v-575h-286v135q-48 -59 -121.5 -93t-157.5 -34zM643 274q116 0 197.5 82t81.5 199
q0 115 -82 197t-197 82q-117 0 -199 -81.5t-82 -197.5q0 -117 82 -199t199 -82z" />
    <glyph glyph-name="atilde" unicode="&#xe3;" horiz-adv-x="1314" 
d="M403 1255q0 26 0.5 39.5t2.5 36t6 34.5t12.5 28t20.5 24t30.5 13.5t42.5 5.5q24 -1 61 -13t67.5 -24t59.5 -18.5t45.5 5.5t16.5 46h115q0 -30 -0.5 -45.5t-3.5 -40.5t-10.5 -38t-19.5 -27t-32.5 -20t-48.5 -6q-23 2 -60.5 14t-68 23t-59.5 17t-45.5 -7t-16.5 -47h-115z
M643 -12q-154 0 -284.5 76t-206.5 206.5t-76 284.5q0 153 76 283t206.5 206t284.5 76q153 0 283 -76t206 -206t76 -283v-575h-286v135q-48 -59 -121.5 -93t-157.5 -34zM643 274q116 0 197.5 82t81.5 199q0 115 -82 197t-197 82q-117 0 -199 -81.5t-82 -197.5q0 -117 82 -199
t199 -82z" />
    <glyph glyph-name="adieresis" unicode="&#xe4;" horiz-adv-x="1314" 
d="M475 1214q-40 0 -69 29.5t-29 69.5t29 69t69 29t69 -29t29 -69t-29 -69.5t-69 -29.5zM809 1214q-40 0 -69 29.5t-29 69.5t29 69t69 29t69 -29t29 -69t-29 -69.5t-69 -29.5zM643 -12q-154 0 -284.5 76t-206.5 206.5t-76 284.5q0 153 76 283t206.5 206t284.5 76
q153 0 283 -76t206 -206t76 -283v-575h-286v135q-48 -59 -121.5 -93t-157.5 -34zM643 274q116 0 197.5 82t81.5 199q0 115 -82 197t-197 82q-117 0 -199 -81.5t-82 -197.5q0 -117 82 -199t199 -82z" />
    <glyph glyph-name="aring" unicode="&#xe5;" horiz-adv-x="1314" 
d="M643 1268q-55 0 -97 40t-42 99q0 60 42 98.5t97 38.5q57 0 97 -38t40 -99q0 -60 -40 -99.5t-97 -39.5zM643 1337q28 0 48 20.5t20 49.5q0 28 -20 48t-48 20q-29 0 -48.5 -20t-19.5 -48q0 -29 19.5 -49.5t48.5 -20.5zM643 -12q-154 0 -284.5 76t-206.5 206.5t-76 284.5
q0 153 76 283t206.5 206t284.5 76q153 0 283 -76t206 -206t76 -283v-575h-286v135q-48 -59 -121.5 -93t-157.5 -34zM643 274q116 0 197.5 82t81.5 199q0 115 -82 197t-197 82q-117 0 -199 -81.5t-82 -197.5q0 -117 82 -199t199 -82z" />
    <glyph glyph-name="ae" unicode="&#xe6;" horiz-adv-x="2234" 
d="M1645 -35q-147 0 -261 64.5t-180 167.5v-211h-243v157q-57 -64 -141 -101.5t-179 -37.5q-151 0 -280.5 72.5t-207 200.5t-77.5 280q0 163 80.5 295.5t209 204t275.5 71.5q159 0 293.5 -84.5t200.5 -224.5q56 143 191.5 229.5t291.5 86.5q139 0 254 -52.5t187.5 -147
t98.5 -225.5t-14 -288h-743q12 -77 91 -136t181 -59q64 0 143 25t105 61l223 -172q-159 -176 -499 -176zM1401 676h454q6 28 -4.5 61t-35 64t-73 52t-112.5 21q-107 0 -168 -61t-61 -137zM641 262q130 0 216.5 86.5t86.5 208.5q0 124 -87 217.5t-216 93.5
q-130 0 -217.5 -93.5t-87.5 -217.5q0 -122 87 -208.5t218 -86.5z" />
    <glyph glyph-name="ccedilla" unicode="&#xe7;" horiz-adv-x="1130" 
d="M639 244q75 0 140 39t95 100l205 -201q-60 -91 -162.5 -150.5t-222.5 -72.5l-16 -47q47 -1 67 -32.5t7 -69.5q-11 -37 -28.5 -63.5t-34 -41.5t-43.5 -25t-45 -13.5t-50 -8.5l-47 117q17 0 28 1t28 5t28.5 15.5t15.5 29.5q5 18 -6.5 28t-24 11.5t-32.5 1.5l34 94
q-216 23 -362.5 188t-146.5 388q0 163 80 296.5t210.5 206t280.5 72.5q135 0 253.5 -61t188.5 -162l-207 -201q-34 67 -100 102t-133 35q-113 0 -200 -80t-87 -208q0 -122 83.5 -207.5t203.5 -85.5z" />
    <glyph glyph-name="egrave" unicode="&#xe8;" horiz-adv-x="1200" 
d="M543 1253l-217 279h227l109 -279h-119zM621 -20q-120 0 -226 50t-177 131.5t-111.5 184.5t-40.5 209q0 111 36 214t102 183t167.5 127.5t222.5 46.5q136 -1 249 -52.5t184 -143.5t96.5 -220t-13.5 -282h-731q11 -76 89.5 -134t180.5 -58q62 -2 140 22.5t104 60.5
l217 -165q-155 -174 -489 -174zM377 676h452q4 30 -6.5 62.5t-35.5 64t-73 51.5t-110 20q-106 0 -166.5 -62t-60.5 -136z" />
    <glyph glyph-name="eacute" unicode="&#xe9;" horiz-adv-x="1200" 
d="M526 1235l109 278h227l-217 -278h-119zM621 -20q-120 0 -226 50t-177 131.5t-111.5 184.5t-40.5 209q0 111 36 214t102 183t167.5 127.5t222.5 46.5q136 -1 249 -52.5t184 -143.5t96.5 -220t-13.5 -282h-731q11 -76 89.5 -134t180.5 -58q62 -2 140 22.5t104 60.5
l217 -165q-155 -174 -489 -174zM377 676h452q4 30 -6.5 62.5t-35.5 64t-73 51.5t-110 20q-106 0 -166.5 -62t-60.5 -136z" />
    <glyph glyph-name="ecircumflex" unicode="&#xea;" horiz-adv-x="1200" 
d="M365 1264l163 262h129l164 -262h-131l-98 157l-96 -157h-131zM621 -20q-120 0 -226 50t-177 131.5t-111.5 184.5t-40.5 209q0 111 36 214t102 183t167.5 127.5t222.5 46.5q136 -1 249 -52.5t184 -143.5t96.5 -220t-13.5 -282h-731q11 -76 89.5 -134t180.5 -58
q62 -2 140 22.5t104 60.5l217 -165q-155 -174 -489 -174zM377 676h452q4 30 -6.5 62.5t-35.5 64t-73 51.5t-110 20q-106 0 -166.5 -62t-60.5 -136z" />
    <glyph glyph-name="edieresis" unicode="&#xeb;" horiz-adv-x="1200" 
d="M426 1221q-40 0 -69 29t-29 69t29 69t69 29t69 -29t29 -69t-29 -69t-69 -29zM760 1221q-40 0 -69 29t-29 69t29 69t69 29t69 -29t29 -69t-29 -69t-69 -29zM621 -20q-120 0 -226 50t-177 131.5t-111.5 184.5t-40.5 209q0 111 36 214t102 183t167.5 127.5t222.5 46.5
q136 -1 249 -52.5t184 -143.5t96.5 -220t-13.5 -282h-731q11 -76 89.5 -134t180.5 -58q62 -2 140 22.5t104 60.5l217 -165q-155 -174 -489 -174zM377 676h452q4 30 -6.5 62.5t-35.5 64t-73 51.5t-110 20q-106 0 -166.5 -62t-60.5 -136z" />
    <glyph glyph-name="igrave" unicode="&#xec;" horiz-adv-x="428" 
d="M102 1225l-217 276h228l108 -276h-119zM29 0v1096h276v-1096h-276z" />
    <glyph glyph-name="iacute" unicode="&#xed;" horiz-adv-x="389" 
d="M129 1239l109 279h227l-217 -279h-119zM55 0v1120h279v-1120h-279z" />
    <glyph glyph-name="icircumflex" unicode="&#xee;" horiz-adv-x="389" 
d="M-33 1268l164 262h129l164 -262h-131l-98 157l-97 -157h-131zM55 0v1120h279v-1120h-279z" />
    <glyph glyph-name="idieresis" unicode="&#xef;" horiz-adv-x="534" 
d="M106 1231q-38 0 -66 28t-28 66t28 66t66 28t66.5 -28t28.5 -66t-28.5 -66t-66.5 -28zM430 1231q-38 0 -67 28t-29 66t29 66t67 28t65 -28t27 -66t-27 -66t-65 -28zM129 0v1096h277v-1096h-277z" />
    <glyph glyph-name="eth" unicode="&#xf0;" horiz-adv-x="1243" 
d="M621 -49q-147 0 -273 67t-204 195t-78 291q0 108 49 210.5t130 176t197 107t240 6.5q-32 44 -127 139l-188 -90l-170 168l217 102l-162 145l237 103l158 -152l234 111l168 -160l-232 -123q208 -214 284.5 -373t76.5 -370q0 -163 -78 -291t-204.5 -195t-274.5 -67z
M621 211q121 0 207.5 82t86.5 211q0 120 -89 201t-201 81q-118 0 -208.5 -82t-90.5 -200q0 -129 88.5 -211t206.5 -82z" />
    <glyph glyph-name="ntilde" unicode="&#xf1;" horiz-adv-x="1351" 
d="M438 1257q0 26 0.5 39.5t2.5 36t6 34.5t12.5 28t20.5 24t30.5 13.5t42.5 5.5q24 -1 61 -13t67.5 -24t59.5 -18.5t45.5 5.5t16.5 46h115q0 -30 -0.5 -45.5t-3.5 -40.5t-10.5 -38t-19.5 -27t-32.5 -20t-48.5 -6q-23 2 -60.5 14t-68 23t-59.5 17t-45.5 -7t-16.5 -47h-115z
M133 0v565q0 241 155 396t390 155q153 0 277.5 -69.5t196 -196t71.5 -285.5v-565h-287v565q0 123 -70.5 193.5t-187.5 70.5t-187.5 -70.5t-70.5 -193.5v-565h-287z" />
    <glyph glyph-name="ograve" unicode="&#xf2;" horiz-adv-x="1269" 
d="M586 1247l-217 279h227l109 -279h-119zM635 -23q-115 0 -220.5 45t-182 121.5t-121.5 182t-45 221.5q0 154 76.5 285t207.5 207.5t285 76.5t285 -76.5t207.5 -207.5t76.5 -285q0 -116 -45 -221.5t-121.5 -182t-182 -121.5t-220.5 -45zM635 264q117 0 200 82.5t83 200.5
q0 117 -83 199.5t-200 82.5t-200 -82.5t-83 -199.5q0 -118 83 -200.5t200 -82.5z" />
    <glyph glyph-name="oacute" unicode="&#xf3;" horiz-adv-x="1269" 
d="M569 1229l109 278h227l-217 -278h-119zM635 -23q-115 0 -220.5 45t-182 121.5t-121.5 182t-45 221.5q0 154 76.5 285t207.5 207.5t285 76.5t285 -76.5t207.5 -207.5t76.5 -285q0 -116 -45 -221.5t-121.5 -182t-182 -121.5t-220.5 -45zM635 264q117 0 200 82.5t83 200.5
q0 117 -83 199.5t-200 82.5t-200 -82.5t-83 -199.5q0 -118 83 -200.5t200 -82.5z" />
    <glyph glyph-name="ocircumflex" unicode="&#xf4;" horiz-adv-x="1269" 
d="M408 1257l163 263h129l164 -263h-131l-98 158l-96 -158h-131zM635 -23q-115 0 -220.5 45t-182 121.5t-121.5 182t-45 221.5q0 154 76.5 285t207.5 207.5t285 76.5t285 -76.5t207.5 -207.5t76.5 -285q0 -116 -45 -221.5t-121.5 -182t-182 -121.5t-220.5 -45zM635 264
q117 0 200 82.5t83 200.5q0 117 -83 199.5t-200 82.5t-200 -82.5t-83 -199.5q0 -118 83 -200.5t200 -82.5z" />
    <glyph glyph-name="otilde" unicode="&#xf5;" horiz-adv-x="1269" 
d="M397 1255q0 26 0.5 39.5t2.5 36t6 34.5t12.5 28t20.5 24t30.5 13.5t42.5 5.5q24 -1 61 -13t67.5 -24t59.5 -18.5t45.5 5.5t16.5 46h115q0 -30 -0.5 -45.5t-3.5 -40.5t-10.5 -38t-19.5 -27t-32.5 -20t-48.5 -6q-23 2 -60.5 14t-68 23t-59.5 17t-45.5 -7t-16.5 -47h-115z
M635 -23q-115 0 -220.5 45t-182 121.5t-121.5 182t-45 221.5q0 154 76.5 285t207.5 207.5t285 76.5t285 -76.5t207.5 -207.5t76.5 -285q0 -116 -45 -221.5t-121.5 -182t-182 -121.5t-220.5 -45zM635 264q117 0 200 82.5t83 200.5q0 117 -83 199.5t-200 82.5t-200 -82.5
t-83 -199.5q0 -118 83 -200.5t200 -82.5z" />
    <glyph glyph-name="odieresis" unicode="&#xf6;" horiz-adv-x="1269" 
d="M469 1214q-40 0 -69 29.5t-29 69.5t29 69t69 29t69 -29t29 -69t-29 -69.5t-69 -29.5zM803 1214q-40 0 -69 29.5t-29 69.5t29 69t69 29t69 -29t29 -69t-29 -69.5t-69 -29.5zM635 -23q-115 0 -220.5 45t-182 121.5t-121.5 182t-45 221.5q0 154 76.5 285t207.5 207.5
t285 76.5t285 -76.5t207.5 -207.5t76.5 -285q0 -116 -45 -221.5t-121.5 -182t-182 -121.5t-220.5 -45zM635 264q117 0 200 82.5t83 200.5q0 117 -83 199.5t-200 82.5t-200 -82.5t-83 -199.5q0 -118 83 -200.5t200 -82.5z" />
    <glyph glyph-name="divide" unicode="&#xf7;" horiz-adv-x="1173" 
d="M588 973q-66 0 -111 44t-45 109t45 109.5t111 44.5q63 0 107 -45t44 -109t-44 -108.5t-107 -44.5zM127 559v275h922v-275h-922zM588 113q-66 0 -111 44t-45 109t45 109.5t111 44.5q63 0 107 -45t44 -109t-44 -108.5t-107 -44.5z" />
    <glyph glyph-name="oslash" unicode="&#xf8;" horiz-adv-x="1261" 
d="M631 -25q-186 0 -334 107l-64 -74h-137l123 142q-153 160 -153 399q0 126 48.5 236t128 183t181 114.5t207.5 41.5q192 0 334 -106l65 78h137l-125 -144q154 -164 154 -403q0 -126 -46 -234.5t-123.5 -182t-180.5 -115.5t-215 -42zM399 358l387 455q-68 45 -155 45
q-128 0 -213.5 -91.5t-85.5 -217.5q0 -108 67 -191zM631 242q131 0 215 89t84 218q0 109 -66 194l-389 -456q67 -45 156 -45z" />
    <glyph glyph-name="ugrave" unicode="&#xf9;" horiz-adv-x="1255" 
d="M565 1233l-217 278h227l109 -278h-119zM629 -20q-235 0 -390 154.5t-155 395.5v566h287v-566q0 -121 71 -192.5t187 -71.5q115 0 186.5 72t71.5 192v566h287v-566q0 -159 -71.5 -285t-196 -195.5t-277.5 -69.5z" />
    <glyph glyph-name="uacute" unicode="&#xfa;" horiz-adv-x="1255" 
d="M549 1214l108 279h228l-217 -279h-119zM629 -20q-235 0 -390 154.5t-155 395.5v566h287v-566q0 -121 71 -192.5t187 -71.5q115 0 186.5 72t71.5 192v566h287v-566q0 -159 -71.5 -285t-196 -195.5t-277.5 -69.5z" />
    <glyph glyph-name="ucircumflex" unicode="&#xfb;" horiz-adv-x="1255" 
d="M389 1243l164 262h129l164 -262h-131l-99 158l-96 -158h-131zM629 -20q-235 0 -390 154.5t-155 395.5v566h287v-566q0 -121 71 -192.5t187 -71.5q115 0 186.5 72t71.5 192v566h287v-566q0 -159 -71.5 -285t-196 -195.5t-277.5 -69.5z" />
    <glyph glyph-name="udieresis" unicode="&#xfc;" horiz-adv-x="1255" 
d="M449 1200q-40 0 -69.5 29t-29.5 69t29.5 69.5t69.5 29.5t69 -29.5t29 -69.5t-29 -69t-69 -29zM782 1200q-40 0 -69 29t-29 69t29 69.5t69 29.5t69.5 -29.5t29.5 -69.5t-29.5 -69t-69.5 -29zM629 -20q-235 0 -390 154.5t-155 395.5v566h287v-566q0 -121 71 -192.5
t187 -71.5q115 0 186.5 72t71.5 192v566h287v-566q0 -159 -71.5 -285t-196 -195.5t-277.5 -69.5z" />
    <glyph glyph-name="yacute" unicode="&#xfd;" horiz-adv-x="1271" 
d="M569 1196l109 279h227l-217 -279h-119zM133 -455v275q61 -13 111.5 -4.5t91 29.5t67.5 54t41 70.5t12 78.5t-20 77l-397 971h303l295 -713l295 713h303l-449 -1096q-21 -46 -41 -84.5t-43.5 -79t-47 -73t-51.5 -64.5t-58 -56t-64 -45t-72.5 -34t-81 -20.5t-91.5 -7
t-103 8.5z" />
    <glyph glyph-name="thorn" unicode="&#xfe;" horiz-adv-x="1038" 
d="M147 -297v1731h246v-357h92q115 0 210 -44.5t154.5 -117.5t91.5 -163.5t32 -186.5q0 -102 -32 -193t-92 -161t-154 -111t-210 -41h-92v-356h-246zM393 295h76q118 0 188 75t70 195q0 126 -69.5 203.5t-188.5 77.5h-76v-551z" />
    <glyph glyph-name="ydieresis" unicode="&#xff;" horiz-adv-x="1271" 
d="M469 1182q-40 0 -69 29t-29 69t29 69t69 29t69 -29t29 -69t-29 -69t-69 -29zM803 1182q-40 0 -69 29t-29 69t29 69t69 29t69 -29t29 -69t-29 -69t-69 -29zM133 -455v275q61 -13 111.5 -4.5t91 29.5t67.5 54t41 70.5t12 78.5t-20 77l-397 971h303l295 -713l295 713h303
l-449 -1096q-21 -46 -41 -84.5t-43.5 -79t-47 -73t-51.5 -64.5t-58 -56t-64 -45t-72.5 -34t-81 -20.5t-91.5 -7t-103 8.5z" />
    <glyph glyph-name="Amacron" unicode="&#x100;" horiz-adv-x="1542" 
d="M530 1579v119h480v-119h-480zM1229 0l-117 213h-682l-117 -215l-329 2l786 1403l789 -1403h-330zM582 479h376l-188 346z" />
    <glyph glyph-name="amacron" unicode="&#x101;" horiz-adv-x="1314" 
d="M403 1270v119h480v-119h-480zM643 -12q-154 0 -284.5 76t-206.5 206.5t-76 284.5q0 153 76 283t206.5 206t284.5 76q153 0 283 -76t206 -206t76 -283v-575h-286v135q-48 -59 -121.5 -93t-157.5 -34zM643 274q116 0 197.5 82t81.5 199q0 115 -82 197t-197 82
q-117 0 -199 -81.5t-82 -197.5q0 -117 82 -199t199 -82z" />
    <glyph glyph-name="Abreve" unicode="&#x102;" horiz-adv-x="1542" 
d="M772 1509q-110 0 -178 55t-68 146h152q0 -39 24.5 -60.5t69.5 -21.5q43 0 67.5 21.5t24.5 60.5h152q0 -91 -67 -146t-177 -55zM1229 0l-117 213h-682l-117 -215l-329 2l786 1403l789 -1403h-330zM582 479h376l-188 346z" />
    <glyph glyph-name="abreve" unicode="&#x103;" horiz-adv-x="1314" 
d="M643 1200q-110 0 -178 55t-68 146h152q0 -39 24.5 -60.5t69.5 -21.5q43 0 67.5 21.5t24.5 60.5h152q0 -91 -67 -146t-177 -55zM643 -12q-154 0 -284.5 76t-206.5 206.5t-76 284.5q0 153 76 283t206.5 206t284.5 76q153 0 283 -76t206 -206t76 -283v-575h-286v135
q-48 -59 -121.5 -93t-157.5 -34zM643 274q116 0 197.5 82t81.5 199q0 115 -82 197t-197 82q-117 0 -199 -81.5t-82 -197.5q0 -117 82 -199t199 -82z" />
    <glyph glyph-name="Aogonek" unicode="&#x104;" horiz-adv-x="1542" 
d="M1542 0q-44 -24 -68 -56t-22.5 -58t31.5 -42t84 -10v-129q-97 -4 -149 20.5t-66 61.5q-42 123 98 213h-221l-117 213h-682l-117 -215l-329 2l786 1403l789 -1403h-17zM582 479h376l-188 346z" />
    <glyph glyph-name="aogonek" unicode="&#x105;" horiz-adv-x="1314" 
d="M1165 -20q-51 -33 -67.5 -72.5t12 -65t96.5 -18.5v-129q-97 -4 -149 20.5t-66 61.5q-37 117 84 203h-153v135q-48 -59 -121.5 -93t-157.5 -34q-154 0 -284.5 76t-206.5 206.5t-76 284.5q0 153 76 283t206.5 206t284.5 76q153 0 283 -76t206 -206t76 -283v-575h-43z
M643 274q116 0 197.5 82t81.5 199q0 115 -82 197t-197 82q-117 0 -199 -81.5t-82 -197.5q0 -117 82 -199t199 -82z" />
    <glyph glyph-name="Cacute" unicode="&#x106;" horiz-adv-x="1398" 
d="M741 1528l109 278h227l-217 -278h-119zM809 -35q-154 0 -291 60.5t-232.5 161t-150.5 234.5t-55 279t55 279.5t150.5 234.5t232.5 160t291 60q320 0 537 -238l-203 -207q-140 156 -334 156q-127 0 -229 -64t-156.5 -165.5t-54.5 -215.5q0 -183 128 -314.5t312 -131.5
q107 0 192.5 41t139.5 113l205 -203q-97 -115 -234 -177.5t-303 -62.5z" />
    <glyph glyph-name="cacute" unicode="&#x107;" horiz-adv-x="1130" 
d="M569 1225l109 278h227l-217 -278h-119zM637 -43q-155 0 -286.5 78t-208 211.5t-76.5 290.5q0 163 80 296.5t210.5 206t280.5 72.5q135 0 253.5 -61t188.5 -162l-207 -201q-34 67 -100 102t-133 35q-113 0 -200 -80t-87 -208q0 -122 83.5 -207.5t203.5 -85.5q75 0 140 39
t95 100l205 -201q-68 -102 -187.5 -163.5t-254.5 -61.5z" />
    <glyph glyph-name="Cdotaccent" unicode="&#x10a;" horiz-adv-x="1398" 
d="M809 1505q-40 0 -69 29.5t-29 69.5t29 69t69 29t68 -29t28 -69t-28.5 -69.5t-67.5 -29.5zM809 -35q-154 0 -291 60.5t-232.5 161t-150.5 234.5t-55 279t55 279.5t150.5 234.5t232.5 160t291 60q320 0 537 -238l-203 -207q-140 156 -334 156q-127 0 -229 -64
t-156.5 -165.5t-54.5 -215.5q0 -183 128 -314.5t312 -131.5q107 0 192.5 41t139.5 113l205 -203q-97 -115 -234 -177.5t-303 -62.5z" />
    <glyph glyph-name="cdotaccent" unicode="&#x10b;" horiz-adv-x="1130" 
d="M637 1202q-40 0 -69 29t-29 69t29 69.5t69 29.5q39 0 67.5 -29.5t28.5 -69.5t-28 -69t-68 -29zM637 -43q-155 0 -286.5 78t-208 211.5t-76.5 290.5q0 163 80 296.5t210.5 206t280.5 72.5q135 0 253.5 -61t188.5 -162l-207 -201q-34 67 -100 102t-133 35q-113 0 -200 -80
t-87 -208q0 -122 83.5 -207.5t203.5 -85.5q75 0 140 39t95 100l205 -201q-68 -102 -187.5 -163.5t-254.5 -61.5z" />
    <glyph glyph-name="Ccaron" unicode="&#x10c;" horiz-adv-x="1398" 
d="M743 1524l-163 262h131l96 -158l98 158h131l-164 -262h-129zM809 -35q-154 0 -291 60.5t-232.5 161t-150.5 234.5t-55 279t55 279.5t150.5 234.5t232.5 160t291 60q320 0 537 -238l-203 -207q-140 156 -334 156q-127 0 -229 -64t-156.5 -165.5t-54.5 -215.5
q0 -183 128 -314.5t312 -131.5q107 0 192.5 41t139.5 113l205 -203q-97 -115 -234 -177.5t-303 -62.5z" />
    <glyph glyph-name="ccaron" unicode="&#x10d;" horiz-adv-x="1130" 
d="M571 1221l-163 262h131l96 -158l98 158h131l-164 -262h-129zM637 -43q-155 0 -286.5 78t-208 211.5t-76.5 290.5q0 163 80 296.5t210.5 206t280.5 72.5q135 0 253.5 -61t188.5 -162l-207 -201q-34 67 -100 102t-133 35q-113 0 -200 -80t-87 -208q0 -122 83.5 -207.5
t203.5 -85.5q75 0 140 39t95 100l205 -201q-68 -102 -187.5 -163.5t-254.5 -61.5z" />
    <glyph glyph-name="Dcaron" unicode="&#x10e;" horiz-adv-x="1474" 
d="M524 1518l-164 262h132l96 -158l98 158h131l-164 -262h-129zM168 0v1403h551q143 0 263.5 -43t214 -127.5t146 -221t52.5 -311.5q0 -151 -53.5 -282.5t-144.5 -222.5t-215 -143t-263 -52h-551zM469 287h217q168 0 286 112.5t118 300.5q0 103 -32.5 184t-89 130.5
t-128.5 75.5t-154 26h-217v-829z" />
    <glyph glyph-name="dcaron" unicode="&#x10f;" horiz-adv-x="1409" 
d="M1296 1214l129 332h234l-260 -332h-103zM653 -35q-115 0 -220.5 45t-182 121.5t-121.5 182t-45 221.5q0 154 76.5 285t207.5 207.5t285 76.5q85 0 160 -35.5t123 -95.5v461h287v-965q0 -82 37 -127t81 -45v-297q-102 0 -171 29.5t-121 122.5q-145 -187 -396 -187z
M653 252q117 0 200 82.5t83 200.5q0 117 -83 199.5t-200 82.5t-199.5 -82.5t-82.5 -199.5q0 -118 82.5 -200.5t199.5 -82.5z" />
    <glyph glyph-name="Dcroat" unicode="&#x110;" horiz-adv-x="1558" 
d="M207 0v594h-205v217h205v592h594q145 0 267 -43t214.5 -127.5t144.5 -220.5t52 -312q0 -152 -52.5 -283t-143.5 -222t-216 -143t-266 -52h-594zM532 256h238q169 0 286.5 126t117.5 318q0 205 -116 325t-288 120h-238v-334h261v-217h-261v-338z" />
    <glyph glyph-name="dcroat" unicode="&#x111;" horiz-adv-x="1431" 
d="M1434 1196h-224v-682q0 -82 37.5 -127t83.5 -45v-342q-103 0 -173 29.5t-120 122.5q-148 -187 -397 -187q-115 0 -220.5 45t-182 121.5t-121.5 182t-45 221.5q0 154 76.5 285t207.5 207.5t285 76.5q85 0 160 -35.5t123 -95.5v223h-226v131h226v107h286v-107h224v-131z
M641 252q119 0 201 82t82 201q0 117 -82.5 199.5t-200.5 82.5q-117 0 -200 -82.5t-83 -199.5q0 -118 83 -200.5t200 -82.5z" />
    <glyph glyph-name="Emacron" unicode="&#x112;" horiz-adv-x="1275" 
d="M430 1561v118h479v-118h-479zM168 0v1403h1014v-258h-713v-301h612v-258h-612v-330h713v-256h-1014z" />
    <glyph glyph-name="emacron" unicode="&#x113;" horiz-adv-x="1200" 
d="M352 1276v119h479v-119h-479zM621 -20q-120 0 -226 50t-177 131.5t-111.5 184.5t-40.5 209q0 111 36 214t102 183t167.5 127.5t222.5 46.5q136 -1 249 -52.5t184 -143.5t96.5 -220t-13.5 -282h-731q11 -76 89.5 -134t180.5 -58q62 -2 140 22.5t104 60.5l217 -165
q-155 -174 -489 -174zM377 676h452q4 30 -6.5 62.5t-35.5 64t-73 51.5t-110 20q-106 0 -166.5 -62t-60.5 -136z" />
    <glyph glyph-name="Edotaccent" unicode="&#x116;" horiz-adv-x="1275" 
d="M672 1497q-40 0 -69.5 29t-29.5 69t29.5 69.5t69.5 29.5q39 0 67.5 -29.5t28.5 -69.5t-28 -69t-68 -29zM168 0v1403h1014v-258h-713v-301h612v-258h-612v-330h713v-256h-1014z" />
    <glyph glyph-name="edotaccent" unicode="&#x117;" horiz-adv-x="1200" 
d="M594 1212q-40 0 -69 29.5t-29 69.5t29 69t69 29t68 -29t28 -69t-28.5 -69.5t-67.5 -29.5zM621 -20q-120 0 -226 50t-177 131.5t-111.5 184.5t-40.5 209q0 111 36 214t102 183t167.5 127.5t222.5 46.5q136 -1 249 -52.5t184 -143.5t96.5 -220t-13.5 -282h-731
q11 -76 89.5 -134t180.5 -58q62 -2 140 22.5t104 60.5l217 -165q-155 -174 -489 -174zM377 676h452q4 30 -6.5 62.5t-35.5 64t-73 51.5t-110 20q-106 0 -166.5 -62t-60.5 -136z" />
    <glyph glyph-name="Eogonek" unicode="&#x118;" horiz-adv-x="1275" 
d="M1163 0q-55 -32 -74.5 -74t9 -69t98.5 -19v-129q-97 -4 -149 20.5t-66 61.5q-37 122 92 209h-905v1403h1014v-258h-713v-301h612v-258h-612v-330h713v-246h2h-2v-10h-19z" />
    <glyph glyph-name="eogonek" unicode="&#x119;" horiz-adv-x="1200" 
d="M1016 74q-23 -42 4 -70.5t100 -21.5v-129q-98 -4 -149.5 20t-65.5 61q-14 46 -6 86q-116 -40 -278 -40q-120 0 -226 50t-177 131.5t-111.5 184.5t-40.5 209q0 111 36 214t102 183t167.5 127.5t222.5 46.5q136 -1 249 -52.5t184 -143.5t96.5 -220t-13.5 -282h-731
q11 -76 89.5 -134t180.5 -58q62 -2 140 22.5t104 60.5l217 -165q-37 -43 -94 -80zM604 874q-106 0 -166.5 -62t-60.5 -136h452q4 30 -6.5 62.5t-35.5 64t-73 51.5t-110 20z" />
    <glyph glyph-name="Ecaron" unicode="&#x11a;" horiz-adv-x="1275" 
d="M606 1516l-164 262h131l97 -158l98 158h131l-164 -262h-129zM168 0v1403h1014v-258h-713v-301h612v-258h-612v-330h713v-256h-1014z" />
    <glyph glyph-name="ecaron" unicode="&#x11b;" horiz-adv-x="1200" 
d="M528 1231l-163 262h131l96 -158l98 158h131l-164 -262h-129zM621 -20q-120 0 -226 50t-177 131.5t-111.5 184.5t-40.5 209q0 111 36 214t102 183t167.5 127.5t222.5 46.5q136 -1 249 -52.5t184 -143.5t96.5 -220t-13.5 -282h-731q11 -76 89.5 -134t180.5 -58
q62 -2 140 22.5t104 60.5l217 -165q-155 -174 -489 -174zM377 676h452q4 30 -6.5 62.5t-35.5 64t-73 51.5t-110 20q-106 0 -166.5 -62t-60.5 -136z" />
    <glyph glyph-name="Gbreve" unicode="&#x11e;" horiz-adv-x="1538" 
d="M809 1505q-110 0 -178 55t-68 146h152q0 -39 24.5 -60.5t69.5 -21.5q43 0 67.5 21.5t24.5 60.5h152q0 -91 -67 -146t-177 -55zM809 -45q-197 0 -364.5 96.5t-266 264.5t-98.5 368q0 155 61 293t161.5 233t233 150t273.5 55q155 0 288.5 -56.5t233.5 -160.5l-203 -203
q-131 131 -319 131q-84 0 -164 -33.5t-141 -91t-98 -141t-37 -176.5t36.5 -176t97.5 -140.5t141 -91.5t165 -34q92 0 183.5 39t150.5 112v387h287v-549q-49 -72 -125.5 -127.5t-162 -86.5t-170 -46.5t-163.5 -15.5z" />
    <glyph glyph-name="gbreve" unicode="&#x11f;" horiz-adv-x="1304" 
d="M637 1176q-111 0 -178.5 55t-67.5 145h152q0 -39 24.5 -60.5t69.5 -21.5q43 0 67.5 21.5t24.5 60.5h152q0 -91 -67 -145.5t-177 -54.5zM635 1104q154 0 285 -76.5t207.5 -207.5t76.5 -285v-541q0 -127 -45 -233.5t-122 -178t-181 -111.5t-221 -40v286q117 0 200 70
t83 197v110q-48 -60 -122.5 -94.5t-160.5 -34.5q-115 0 -220.5 45t-182 121.5t-121.5 182t-45 221.5q0 154 76.5 285t207.5 207.5t285 76.5zM635 252q117 0 200 82.5t83 200.5q0 117 -83 199.5t-200 82.5t-200 -82.5t-83 -199.5q0 -118 83 -200.5t200 -82.5z" />
    <glyph glyph-name="Gdotaccent" unicode="&#x120;" horiz-adv-x="1538" 
d="M809 1511q-40 0 -69 29.5t-29 69.5t29 69t69 29t68 -29t28 -69t-28.5 -69.5t-67.5 -29.5zM809 -45q-197 0 -364.5 96.5t-266 264.5t-98.5 368q0 155 61 293t161.5 233t233 150t273.5 55q155 0 288.5 -56.5t233.5 -160.5l-203 -203q-131 131 -319 131q-84 0 -164 -33.5
t-141 -91t-98 -141t-37 -176.5t36.5 -176t97.5 -140.5t141 -91.5t165 -34q92 0 183.5 39t150.5 112v387h287v-549q-49 -72 -125.5 -127.5t-162 -86.5t-170 -46.5t-163.5 -15.5z" />
    <glyph glyph-name="gdotaccent" unicode="&#x121;" horiz-adv-x="1304" 
d="M637 1182q-40 0 -69 29t-29 69t29 69t69 29t68 -29t28 -69t-28 -69t-68 -29zM635 1104q154 0 285 -76.5t207.5 -207.5t76.5 -285v-541q0 -127 -45 -233.5t-122 -178t-181 -111.5t-221 -40v286q117 0 200 70t83 197v110q-48 -60 -122.5 -94.5t-160.5 -34.5
q-115 0 -220.5 45t-182 121.5t-121.5 182t-45 221.5q0 154 76.5 285t207.5 207.5t285 76.5zM635 252q117 0 200 82.5t83 200.5q0 117 -83 199.5t-200 82.5t-200 -82.5t-83 -199.5q0 -118 83 -200.5t200 -82.5z" />
    <glyph glyph-name="uni0122" unicode="&#x122;" horiz-adv-x="1538" 
d="M809 -45q-197 0 -364.5 96.5t-266 264.5t-98.5 368q0 155 61 293t161.5 233t233 150t273.5 55q155 0 288.5 -56.5t233.5 -160.5l-203 -203q-131 131 -319 131q-84 0 -164 -33.5t-141 -91t-98 -141t-37 -176.5t36.5 -176t97.5 -140.5t141 -91.5t165 -34q92 0 183.5 39
t150.5 112v387h287v-549q-49 -72 -125.5 -127.5t-162 -86.5t-170 -46.5t-163.5 -15.5zM791 -371l-43 11q25 47 28 110q-45 28 -45 80q0 40 27 66t65 26t64 -26t26 -66q0 -28 -12 -57.5t-35 -59t-37 -45t-38 -39.5z" />
    <glyph glyph-name="uni0123" unicode="&#x123;" horiz-adv-x="1304" 
d="M633 1208q-36 0 -62 26t-26 66q0 86 121 201l43 -10q-24 -44 -27 -111q45 -30 45 -80q0 -40 -27.5 -66t-66.5 -26zM635 1104q154 0 285 -76.5t207.5 -207.5t76.5 -285v-541q0 -127 -45 -233.5t-122 -178t-181 -111.5t-221 -40v286q117 0 200 70t83 197v110
q-48 -60 -122.5 -94.5t-160.5 -34.5q-115 0 -220.5 45t-182 121.5t-121.5 182t-45 221.5q0 154 76.5 285t207.5 207.5t285 76.5zM635 252q117 0 200 82.5t83 200.5q0 117 -83 199.5t-200 82.5t-200 -82.5t-83 -199.5q0 -118 83 -200.5t200 -82.5z" />
    <glyph glyph-name="Hbar" unicode="&#x126;" horiz-adv-x="1325" 
d="M102 0v1016h-100v217h100v170h312v-170h499v170h312v-170h100v-217h-100v-1016h-312v586h-499v-586h-312zM414 844h499v172h-499v-172z" />
    <glyph glyph-name="hbar" unicode="&#x127;" horiz-adv-x="1222" 
d="M96 0v1174h-96v204h96v107h281v-107h280v-204h-280v-164q73 55 155.5 79t159.5 17.5t148.5 -42t124.5 -92.5t84.5 -141t31.5 -182v-649h-276l-4 596q0 99 -61.5 162t-147.5 63q-95 0 -155 -63.5t-60 -175.5v-582h-281z" />
    <glyph glyph-name="Imacron" unicode="&#x12a;" horiz-adv-x="636" 
d="M66 1561v118h479v-118h-479zM168 0v1403h301v-1403h-301z" />
    <glyph glyph-name="imacron" unicode="&#x12b;" horiz-adv-x="389" 
d="M-45 1280v119h479v-119h-479zM55 0v1120h279v-1120h-279z" />
    <glyph glyph-name="Iogonek" unicode="&#x12e;" horiz-adv-x="636" 
d="M461 0q-43 -24 -65.5 -55.5t-21 -57.5t31 -41.5t83.5 -9.5v-129q-97 -4 -149 20.5t-66 61.5q-41 120 97 211h-203v1403h301v-1395h8q-1 -1 -4 -2t-4 -2v-4h-8z" />
    <glyph glyph-name="iogonek" unicode="&#x12f;" horiz-adv-x="389" 
d="M197 1217q-40 0 -69.5 29t-29.5 69t29.5 69t69.5 29t68 -29t28 -69t-28 -69t-68 -29zM330 0q-59 -32 -81.5 -75t5.5 -71t100 -20v-129q-97 -4 -149 20.5t-66 61.5q-42 123 99 213h-183v1120h279v-1114h8q-1 -1 -4 -2t-4 -2v-2h-4z" />
    <glyph glyph-name="Idotaccent" unicode="&#x130;" horiz-adv-x="636" 
d="M307 1495q-40 0 -69 29t-29 69t29 69.5t69 29.5q39 0 67.5 -29.5t28.5 -69.5t-28 -69t-68 -29zM168 0v1403h301v-1403h-301z" />
    <glyph glyph-name="dotlessi" unicode="&#x131;" horiz-adv-x="389" 
d="M55 0v1120h279v-1120h-279z" />
    <glyph glyph-name="uni0136" unicode="&#x136;" horiz-adv-x="1460" 
d="M168 0v1403h301v-485l463 485h399l-606 -668l721 -735h-420l-518 518l-39 -41v-477h-301zM680 -338l-43 10q26 49 29 111q-45 28 -45 80q0 40 27 66t65 26t64 -26t26 -66q0 -37 -25.5 -81t-45 -65.5t-52.5 -54.5z" />
    <glyph glyph-name="uni0137" unicode="&#x137;" horiz-adv-x="1224" 
d="M735 641l486 -641h-353l-329 428l-105 -74v-354h-287v1047q0 94 29 180t83.5 156t144 112t200.5 41v-287q-80 0 -125 -56.5t-45 -148.5v-339l340 391h336zM598 -338l-43 10q26 49 29 111q-45 28 -45 80q0 40 27 66t65 26t64 -26t26 -66q0 -37 -25.5 -81t-45 -65.5
t-52.5 -54.5z" />
    <glyph glyph-name="Lacute" unicode="&#x139;" horiz-adv-x="1191" 
d="M246 1522l108 278h228l-217 -278h-119zM168 0v1403h301v-1116h705v-287h-1006z" />
    <glyph glyph-name="lacute" unicode="&#x13a;" horiz-adv-x="688" 
d="M223 1599l109 279h227l-217 -279h-119zM604 0q-202 0 -329.5 139t-127.5 353v1003h287v-997q0 -92 45 -148.5t125 -56.5v-293z" />
    <glyph glyph-name="uni013B" unicode="&#x13b;" horiz-adv-x="1191" 
d="M168 0v1403h301v-1116h705v-287h-1006zM637 -354l-43 10q26 49 29 111q-45 28 -45 79q0 40 27 66.5t65 26.5t64 -26.5t26 -66.5q0 -37 -25.5 -81t-44.5 -64.5t-53 -54.5z" />
    <glyph glyph-name="uni013C" unicode="&#x13c;" horiz-adv-x="688" 
d="M604 0q-202 0 -329.5 139t-127.5 353v1003h287v-997q0 -92 45 -148.5t125 -56.5v-293zM299 -338l-43 10q26 49 29 111q-45 28 -45 80q0 40 27 66t65 26t64 -26t26 -66q0 -37 -25.5 -81t-45 -65.5t-52.5 -54.5z" />
    <glyph glyph-name="Lcaron" unicode="&#x13d;" horiz-adv-x="1191" 
d="M248 1518l-164 262h131l96 -158l99 158h131l-164 -262h-129zM168 0v1403h301v-1116h705v-287h-1006z" />
    <glyph glyph-name="lcaron" unicode="&#x13e;" horiz-adv-x="688" 
d="M225 1595l-164 263h132l96 -158l98 158h131l-164 -263h-129zM604 0q-202 0 -329.5 139t-127.5 353v1003h287v-997q0 -92 45 -148.5t125 -56.5v-293z" />
    <glyph glyph-name="Lslash" unicode="&#x141;" horiz-adv-x="1148" 
d="M96 0v424l-94 -72l-20 219l114 91v481h-100v260h436v-504l268 211l21 -219l-289 -229v-398h701v-264h-1037z" />
    <glyph glyph-name="lslash" unicode="&#x142;" horiz-adv-x="479" 
d="M92 0v522l-141 -102v225l141 103v673h287v-495l149 108v-223l-149 -109v-702h-287z" />
    <glyph glyph-name="Nacute" unicode="&#x143;" horiz-adv-x="1624" 
d="M651 1499l109 279h227l-217 -279h-119zM1470 -76l-1015 846v-770h-301v1401l1015 -846v848h301v-1479z" />
    <glyph glyph-name="nacute" unicode="&#x144;" horiz-adv-x="1351" 
d="M610 1231l109 278h227l-217 -278h-119zM133 0v565q0 241 155 396t390 155q153 0 277.5 -69.5t196 -196t71.5 -285.5v-565h-287v565q0 123 -70.5 193.5t-187.5 70.5t-187.5 -70.5t-70.5 -193.5v-565h-287z" />
    <glyph glyph-name="uni0145" unicode="&#x145;" horiz-adv-x="1624" 
d="M1470 -76l-1015 846v-770h-301v1401l1015 -846v848h301v-1479zM825 -338l-43 10q26 49 29 111q-45 28 -45 80q0 40 27 66t65 26t64 -26t26 -66q0 -37 -25.5 -81t-45 -65.5t-52.5 -54.5z" />
    <glyph glyph-name="uni0146" unicode="&#x146;" horiz-adv-x="1351" 
d="M133 0v565q0 241 155 396t390 155q153 0 277.5 -69.5t196 -196t71.5 -285.5v-565h-287v565q0 123 -70.5 193.5t-187.5 70.5t-187.5 -70.5t-70.5 -193.5v-565h-287zM641 -344l-43 10q26 49 29 111q-45 28 -45 80q0 40 27 66t65 26t64 -26t26 -66q0 -37 -25.5 -81
t-45 -65.5t-52.5 -54.5z" />
    <glyph glyph-name="Ncaron" unicode="&#x147;" horiz-adv-x="1624" 
d="M653 1495l-164 262h132l96 -158l98 158h131l-164 -262h-129zM1470 -76l-1015 846v-770h-301v1401l1015 -846v848h301v-1479z" />
    <glyph glyph-name="ncaron" unicode="&#x148;" horiz-adv-x="1351" 
d="M612 1227l-163 262h131l96 -158l98 158h131l-164 -262h-129zM133 0v565q0 241 155 396t390 155q153 0 277.5 -69.5t196 -196t71.5 -285.5v-565h-287v565q0 123 -70.5 193.5t-187.5 70.5t-187.5 -70.5t-70.5 -193.5v-565h-287z" />
    <glyph glyph-name="Eng" unicode="&#x14a;" horiz-adv-x="1525" 
d="M918 -365v252q43 0 82 9t71.5 36t32.5 68l-639 856v-856h-297v1403h252l639 -856l2 856h297v-1403q0 -365 -440 -365z" />
    <glyph glyph-name="eng" unicode="&#x14b;" horiz-adv-x="1275" 
d="M690 -328v234q81 0 123.5 19t42.5 75v618q0 108 -63.5 166t-143.5 56q-91 0 -153 -56.5t-62 -165.5v-618h-287v649q0 120 42.5 216.5t112 156.5t158.5 92t182 32t182 -32t158.5 -92t112 -156.5t42.5 -216.5v-649q0 -90 -36 -156t-100 -102.5t-141 -53t-170 -16.5z" />
    <glyph glyph-name="Omacron" unicode="&#x14c;" horiz-adv-x="1630" 
d="M578 1585v119h479v-119h-479zM817 -33q-151 0 -287.5 58t-235 156t-156.5 234.5t-58 286.5q0 199 98 368t268 268.5t371 99.5q199 0 368 -99.5t267 -269t98 -367.5q0 -201 -98 -370t-266.5 -267t-368.5 -98zM815 266q180 0 307 128t127 308q0 178 -128 305.5t-306 129.5
q-118 0 -218 -58.5t-158 -159t-58 -217.5q0 -180 127 -308t307 -128z" />
    <glyph glyph-name="omacron" unicode="&#x14d;" horiz-adv-x="1269" 
d="M395 1270v119h479v-119h-479zM635 -23q-115 0 -220.5 45t-182 121.5t-121.5 182t-45 221.5q0 154 76.5 285t207.5 207.5t285 76.5t285 -76.5t207.5 -207.5t76.5 -285q0 -116 -45 -221.5t-121.5 -182t-182 -121.5t-220.5 -45zM635 264q117 0 200 82.5t83 200.5
q0 117 -83 199.5t-200 82.5t-200 -82.5t-83 -199.5q0 -118 83 -200.5t200 -82.5z" />
    <glyph glyph-name="Ohungarumlaut" unicode="&#x150;" horiz-adv-x="1630" 
d="M668 1520l24 278h193l-115 -278h-102zM844 1520l117 278h194l-209 -278h-102zM817 -33q-151 0 -287.5 58t-235 156t-156.5 234.5t-58 286.5q0 199 98 368t268 268.5t371 99.5q199 0 368 -99.5t267 -269t98 -367.5q0 -201 -98 -370t-266.5 -267t-368.5 -98zM815 266
q180 0 307 128t127 308q0 178 -128 305.5t-306 129.5q-118 0 -218 -58.5t-158 -159t-58 -217.5q0 -180 127 -308t307 -128z" />
    <glyph glyph-name="ohungarumlaut" unicode="&#x151;" horiz-adv-x="1269" 
d="M487 1204l25 279h193l-115 -279h-103zM664 1204l116 279h195l-209 -279h-102zM635 -23q-115 0 -220.5 45t-182 121.5t-121.5 182t-45 221.5q0 154 76.5 285t207.5 207.5t285 76.5t285 -76.5t207.5 -207.5t76.5 -285q0 -116 -45 -221.5t-121.5 -182t-182 -121.5
t-220.5 -45zM635 264q117 0 200 82.5t83 200.5q0 117 -83 199.5t-200 82.5t-200 -82.5t-83 -199.5q0 -118 83 -200.5t200 -82.5z" />
    <glyph glyph-name="OE" unicode="&#x152;" horiz-adv-x="1914" 
d="M799 -27q-193 0 -358 95t-263 262t-98 368q0 164 60 303t160 230.5t229.5 142.5t269.5 51h1022v-284h-697v-301h596v-260h-596v-351h697v-256h-1022zM799 287v827q-117 0 -213 -59.5t-147.5 -154t-51.5 -202.5q0 -100 51.5 -193.5t148 -155.5t212.5 -62z" />
    <glyph glyph-name="oe" unicode="&#x153;" horiz-adv-x="2150" 
d="M1561 -37q-163 0 -284.5 73.5t-189.5 190.5q-68 -118 -191 -185t-265 -67q-113 0 -216 42t-180 115.5t-123 182t-46 234.5t48.5 236t128 183t181 114.5t207.5 41.5q143 0 263.5 -65t190.5 -180q65 117 188.5 185.5t260.5 68.5q139 0 254 -52.5t187.5 -147t98.5 -225.5
t-14 -288h-743q12 -77 91 -136t181 -59q64 0 143 25t105 61l223 -172q-159 -176 -499 -176zM1317 674h455q6 28 -4.5 61t-35 64t-73.5 52t-113 21q-105 0 -167 -59t-62 -139zM631 242q131 0 215 89t84 218q0 126 -82 217.5t-217 91.5q-128 0 -213.5 -91.5t-85.5 -217.5
q0 -128 85 -217.5t214 -89.5z" />
    <glyph glyph-name="Racute" unicode="&#x154;" horiz-adv-x="1402" 
d="M567 1526l109 278h227l-217 -278h-119zM168 0v1403h627q124 0 224.5 -42.5t163.5 -114t96.5 -160.5t33.5 -185q0 -154 -75 -277t-212 -180l313 -442h-350l-280 397h-240v-399h-301zM469 1141v-479h309q98 0 169 69t71 170q0 104 -70.5 172t-169.5 68h-309z" />
    <glyph glyph-name="racute" unicode="&#x155;" horiz-adv-x="808" 
d="M279 1221l108 278h227l-217 -278h-118zM147 0v1096h273v-127q36 69 133.5 100.5t206.5 26.5v-287q-128 22 -227 -50t-99 -198v-561h-287z" />
    <glyph glyph-name="uni0156" unicode="&#x156;" horiz-adv-x="1402" 
d="M168 0v1403h627q124 0 224.5 -42.5t163.5 -114t96.5 -160.5t33.5 -185q0 -154 -75 -277t-212 -180l313 -442h-350l-280 397h-240v-399h-301zM469 1141v-479h309q98 0 169 69t71 170q0 104 -70.5 172t-169.5 68h-309zM649 -373l-43 11q26 49 29 110q-45 28 -45 80
q0 40 27 66t65 26t64 -26t26 -66q0 -37 -25.5 -81t-45 -65.5t-52.5 -54.5z" />
    <glyph glyph-name="uni0157" unicode="&#x157;" horiz-adv-x="808" 
d="M147 0v1096h273v-127q36 69 133.5 100.5t206.5 26.5v-287q-128 22 -227 -50t-99 -198v-561h-287zM258 -340l-43 10q26 49 29 111q-45 28 -45 80q0 40 27 66t65 26t64 -26t26 -66q0 -37 -25.5 -81t-45 -65.5t-52.5 -54.5z" />
    <glyph glyph-name="Rcaron" unicode="&#x158;" horiz-adv-x="1402" 
d="M569 1522l-163 262h131l96 -158l98 158h131l-164 -262h-129zM168 0v1403h627q124 0 224.5 -42.5t163.5 -114t96.5 -160.5t33.5 -185q0 -154 -75 -277t-212 -180l313 -442h-350l-280 397h-240v-399h-301zM469 1141v-479h309q98 0 169 69t71 170q0 104 -70.5 172t-169.5 68
h-309z" />
    <glyph glyph-name="rcaron" unicode="&#x159;" horiz-adv-x="808" 
d="M281 1217l-164 262h131l96 -158l98 158h131l-163 -262h-129zM147 0v1096h273v-127q36 69 133.5 100.5t206.5 26.5v-287q-128 22 -227 -50t-99 -198v-561h-287z" />
    <glyph glyph-name="Sacute" unicode="&#x15a;" horiz-adv-x="1310" 
d="M588 1542l108 279h228l-217 -279h-119zM88 119l117 297q87 -59 188 -101t193.5 -58.5t168.5 -10.5t121.5 44t45.5 103q0 31 -29.5 55.5t-78.5 42.5t-113 35.5t-134.5 38t-140.5 45.5t-132.5 63t-109.5 85t-73.5 115.5t-22.5 152.5q4 104 54 187t131.5 133.5t191 72
t227.5 10t247 -59.5t245 -130l-137 -244q-87 66 -182 107t-177 50.5t-149 -2.5t-106.5 -50t-41.5 -94q-1 -38 26.5 -68t75.5 -50.5t110.5 -39t132 -37.5t139 -41t132.5 -54t111.5 -72t77.5 -100t29 -134q0 -132 -54.5 -231t-157 -154t-240 -67.5t-315 28.5t-370.5 133z" />
    <glyph glyph-name="sacute" unicode="&#x15b;" horiz-adv-x="1118" 
d="M467 1251l108 279h228l-217 -279h-119zM43 102l100 238q130 -73 275 -111.5t249.5 -19t104.5 103.5q0 25 -24.5 44.5t-66 34.5t-95 29t-112.5 30.5t-117.5 36.5t-110.5 50t-92 67.5t-61.5 92t-18.5 121.5q7 88 53.5 156t119.5 107t170 54t201 3t215.5 -52t210.5 -106
l-116 -197q-63 48 -140 79.5t-148 39.5t-131 1t-97 -34t-39 -67q-1 -24 22 -44.5t63.5 -36t92.5 -30.5t110 -32t116 -36.5t110.5 -47.5t93 -62t64.5 -82t24 -106q0 -86 -33 -157t-94 -122t-153 -76.5t-203 -23.5t-251 41t-292 114z" />
    <glyph glyph-name="Scedilla" unicode="&#x15e;" horiz-adv-x="1310" 
d="M1225 410q0 -195 -116.5 -314t-322.5 -139l-18 -51q47 -1 67 -33t7 -70q-14 -45 -34.5 -74.5t-51 -44.5t-52.5 -20.5t-63 -11.5l-47 117q17 0 28 1t28 5t28.5 15.5t15.5 29.5q5 18 -6.5 28t-24 11.5t-32.5 1.5l35 94q-259 12 -578 164l117 297q87 -59 188 -101
t193.5 -58.5t168.5 -10.5t121.5 44t45.5 103q0 31 -29.5 55.5t-78.5 42.5t-113 35.5t-134.5 38t-140.5 45.5t-132.5 63t-109.5 85t-73.5 115.5t-22.5 152.5q4 104 54 187t131.5 133.5t191 72t227.5 10t247 -59.5t245 -130l-137 -244q-87 66 -182 107t-177 50.5t-149 -2.5
t-106.5 -50t-41.5 -94q-1 -38 26.5 -68t75.5 -50.5t110.5 -39t132 -37.5t139 -41t132.5 -54t111.5 -72t77.5 -100t29 -134z" />
    <glyph glyph-name="scedilla" unicode="&#x15f;" horiz-adv-x="1118" 
d="M1069 326q0 -166 -117 -270.5t-319 -108.5l-12 -35q47 -1 66.5 -32.5t6.5 -69.5q-11 -37 -28.5 -63.5t-34 -41.5t-43 -25t-44.5 -13.5t-50 -8.5l-48 117q89 0 101 51q5 18 -6.5 28t-24.5 11.5t-33 1.5l33 86q-213 22 -473 149l100 238q130 -73 275 -111.5t249.5 -19
t104.5 103.5q0 25 -24.5 44.5t-66 34.5t-95 29t-112.5 30.5t-117.5 36.5t-110.5 50t-92 67.5t-61.5 92t-18.5 121.5q7 88 53.5 156t119.5 107t170 54t201 3t215.5 -52t210.5 -106l-116 -197q-63 48 -140 79.5t-148 39.5t-131 1t-97 -34t-39 -67q-1 -24 22 -44.5t63.5 -36
t92.5 -30.5t110 -32t116 -36.5t110.5 -47.5t93 -62t64.5 -82t24 -106z" />
    <glyph glyph-name="Scaron" unicode="&#x160;" horiz-adv-x="1310" 
d="M592 1538l-164 262h131l96 -158l99 158h131l-164 -262h-129zM88 119l117 297q87 -59 188 -101t193.5 -58.5t168.5 -10.5t121.5 44t45.5 103q0 31 -29.5 55.5t-78.5 42.5t-113 35.5t-134.5 38t-140.5 45.5t-132.5 63t-109.5 85t-73.5 115.5t-22.5 152.5q4 104 54 187
t131.5 133.5t191 72t227.5 10t247 -59.5t245 -130l-137 -244q-87 66 -182 107t-177 50.5t-149 -2.5t-106.5 -50t-41.5 -94q-1 -38 26.5 -68t75.5 -50.5t110.5 -39t132 -37.5t139 -41t132.5 -54t111.5 -72t77.5 -100t29 -134q0 -132 -54.5 -231t-157 -154t-240 -67.5
t-315 28.5t-370.5 133z" />
    <glyph glyph-name="scaron" unicode="&#x161;" horiz-adv-x="1118" 
d="M469 1247l-164 262h131l96 -157l99 157h131l-164 -262h-129zM43 102l100 238q130 -73 275 -111.5t249.5 -19t104.5 103.5q0 25 -24.5 44.5t-66 34.5t-95 29t-112.5 30.5t-117.5 36.5t-110.5 50t-92 67.5t-61.5 92t-18.5 121.5q7 88 53.5 156t119.5 107t170 54t201 3
t215.5 -52t210.5 -106l-116 -197q-63 48 -140 79.5t-148 39.5t-131 1t-97 -34t-39 -67q-1 -24 22 -44.5t63.5 -36t92.5 -30.5t110 -32t116 -36.5t110.5 -47.5t93 -62t64.5 -82t24 -106q0 -86 -33 -157t-94 -122t-153 -76.5t-203 -23.5t-251 41t-292 114z" />
    <glyph glyph-name="uni0162" unicode="&#x162;" horiz-adv-x="1038" 
d="M8 1403h1022v-287h-360v-1116h-90l-15 -43q47 -1 67 -32.5t7 -69.5q-11 -37 -28.5 -63.5t-34 -41.5t-43.5 -25t-45 -13.5t-50 -8.5l-47 117q89 0 101 51q5 18 -6.5 28t-24.5 11.5t-33 1.5l33 88h-92v1116h-361v287z" />
    <glyph glyph-name="uni0163" unicode="&#x163;" horiz-adv-x="786" 
d="M739 -6q-55 0 -106 4.5t-112 17.5t-112.5 33.5t-101 56.5t-84 82.5t-55.5 114.5t-21 150v356h-100v287h100v227h287v-227h266v-287h-266v-293q0 -52 12 -92t35.5 -65t50 -41t64.5 -24t69.5 -10.5t73.5 -2.5v-287zM334 -326l-47 117q17 0 28 1t28 5t28.5 15.5t15.5 29.5
q5 18 -6.5 28t-24 11.5t-32.5 1.5l38 105h119l-20 -60q47 -1 67 -32.5t7 -69.5q-11 -37 -28.5 -63.5t-34 -41.5t-43.5 -25t-45 -13.5t-50 -8.5z" />
    <glyph glyph-name="Tcaron" unicode="&#x164;" horiz-adv-x="1038" 
d="M453 1524l-164 262h131l96 -158l98 158h131l-163 -262h-129zM369 0v1116h-361v287h1022v-287h-360v-1116h-301z" />
    <glyph glyph-name="tcaron" unicode="&#x165;" horiz-adv-x="786" 
d="M223 1432l-164 262h131l97 -158l98 158h131l-164 -262h-129zM739 -6q-55 0 -106 4.5t-112 17.5t-112.5 33.5t-101 56.5t-84 82.5t-55.5 114.5t-21 150v356h-100v287h100v227h287v-227h266v-287h-266v-293q0 -52 12 -92t35.5 -65t50 -41t64.5 -24t69.5 -10.5t73.5 -2.5
v-287z" />
    <glyph glyph-name="Tbar" unicode="&#x166;" horiz-adv-x="1120" 
d="M412 0v578h-291v235h291v326h-404v264h1104v-264h-401v-326h290v-235h-290v-578h-299z" />
    <glyph glyph-name="tbar" unicode="&#x167;" horiz-adv-x="761" 
d="M717 -47q-590 0 -590 414v215h-100v186h100v66h-100v262h100v227h283v-227h266v-262h-266v-66h266v-186h-258v-187q0 -89 66.5 -124t232.5 -35v-283z" />
    <glyph glyph-name="Umacron" unicode="&#x16a;" horiz-adv-x="1445" 
d="M475 1556v119h479v-119h-479zM725 -23q-166 0 -296.5 76t-201.5 206.5t-71 291.5v850h295v-850q0 -120 73 -197.5t199 -77.5t199 77.5t73 197.5v850h295v-850q0 -161 -71 -292t-200.5 -206.5t-293.5 -75.5z" />
    <glyph glyph-name="umacron" unicode="&#x16b;" horiz-adv-x="1255" 
d="M377 1255v119h479v-119h-479zM629 -20q-235 0 -390 154.5t-155 395.5v566h287v-566q0 -121 71 -192.5t187 -71.5q115 0 186.5 72t71.5 192v566h287v-566q0 -159 -71.5 -285t-196 -195.5t-277.5 -69.5z" />
    <glyph glyph-name="Uring" unicode="&#x16e;" horiz-adv-x="1445" 
d="M715 1554q-55 0 -97.5 40t-42.5 100t42.5 98.5t97.5 38.5q57 0 97 -38t40 -99q0 -60 -40 -100t-97 -40zM715 1624q28 0 47.5 20.5t19.5 49.5q0 28 -19.5 47.5t-47.5 19.5q-29 0 -48.5 -19.5t-19.5 -47.5q0 -29 19.5 -49.5t48.5 -20.5zM725 -23q-166 0 -296.5 76
t-201.5 206.5t-71 291.5v850h295v-850q0 -120 73 -197.5t199 -77.5t199 77.5t73 197.5v850h295v-850q0 -161 -71 -292t-200.5 -206.5t-293.5 -75.5z" />
    <glyph glyph-name="uring" unicode="&#x16f;" horiz-adv-x="1255" 
d="M616 1253q-55 0 -97 40t-42 100t42 98.5t97 38.5q57 0 97.5 -38t40.5 -99q0 -60 -40.5 -100t-97.5 -40zM616 1323q28 0 48 20.5t20 49.5q0 28 -20 47.5t-48 19.5q-29 0 -48 -19.5t-19 -47.5q0 -30 19 -50t48 -20zM629 -20q-235 0 -390 154.5t-155 395.5v566h287v-566
q0 -121 71 -192.5t187 -71.5q115 0 186.5 72t71.5 192v566h287v-566q0 -159 -71.5 -285t-196 -195.5t-277.5 -69.5z" />
    <glyph glyph-name="Uhungarumlaut" unicode="&#x170;" horiz-adv-x="1445" 
d="M565 1491l25 278h192l-114 -278h-103zM741 1491l117 278h195l-209 -278h-103zM725 -23q-166 0 -296.5 76t-201.5 206.5t-71 291.5v850h295v-850q0 -120 73 -197.5t199 -77.5t199 77.5t73 197.5v850h295v-850q0 -161 -71 -292t-200.5 -206.5t-293.5 -75.5z" />
    <glyph glyph-name="uhungarumlaut" unicode="&#x171;" horiz-adv-x="1255" 
d="M467 1190l25 278h192l-115 -278h-102zM643 1190l117 278h194l-209 -278h-102zM629 -20q-235 0 -390 154.5t-155 395.5v566h287v-566q0 -121 71 -192.5t187 -71.5q115 0 186.5 72t71.5 192v566h287v-566q0 -159 -71.5 -285t-196 -195.5t-277.5 -69.5z" />
    <glyph glyph-name="Uogonek" unicode="&#x172;" horiz-adv-x="1445" 
d="M995 1401h295v-850q0 -226 -136.5 -385t-354.5 -184q-65 -31 -91 -75.5t1.5 -74.5t101.5 -22v-129q-98 -4 -149.5 20t-65.5 61q-42 126 102 215q-240 9 -391 172t-151 402v850h295v-850q0 -120 73 -197.5t199 -77.5t199 77.5t73 197.5v850z" />
    <glyph glyph-name="uogonek" unicode="&#x173;" horiz-adv-x="1255" 
d="M887 1096h287v-566q0 -159 -71.5 -285t-196 -195.5t-277.5 -69.5h-19q-44 -33 -55 -70t19 -60t94 -16v-129q-97 -4 -149 20.5t-66 61.5q-37 116 79 201q-199 31 -323.5 179.5t-124.5 362.5v566h287v-566q0 -121 71 -192.5t187 -71.5q115 0 186.5 72t71.5 192v566z" />
    <glyph glyph-name="Wcircumflex" unicode="&#x174;" horiz-adv-x="2217" 
d="M893 1567l164 262h129l164 -262h-131l-99 157l-96 -157h-131zM2175 1403l-782 -1403l-283 512l-285 -512l-780 1403h330l450 -823l119 219l-332 604h330l168 -318l166 318h330l-330 -604l117 -219l452 823h330z" />
    <glyph glyph-name="wcircumflex" unicode="&#x175;" horiz-adv-x="2168" 
d="M856 1227l164 262h129l164 -262h-131l-99 157l-96 -157h-131zM2144 1096l-612 -1096l-447 631l-448 -631l-612 1096h331l320 -574l409 574l410 -574l320 574h329z" />
    <glyph glyph-name="Ycircumflex" unicode="&#x176;" horiz-adv-x="1372" 
d="M459 1548l164 262h129l163 -262h-131l-98 158l-96 -158h-131zM537 0v541l-512 862h348l313 -524l313 524h349l-512 -866v-537h-299z" />
    <glyph glyph-name="ycircumflex" unicode="&#x177;" horiz-adv-x="1271" 
d="M408 1227l163 262h129l164 -262h-131l-98 157l-96 -157h-131zM133 -455v275q61 -13 111.5 -4.5t91 29.5t67.5 54t41 70.5t12 78.5t-20 77l-397 971h303l295 -713l295 713h303l-449 -1096q-21 -46 -41 -84.5t-43.5 -79t-47 -73t-51.5 -64.5t-58 -56t-64 -45t-72.5 -34
t-81 -20.5t-91.5 -7t-103 8.5z" />
    <glyph glyph-name="Ydieresis" unicode="&#x178;" horiz-adv-x="1372" 
d="M518 1505q-40 0 -69 29.5t-29 69.5t29 69t69 29t69 -29t29 -69t-29 -69.5t-69 -29.5zM852 1505q-40 0 -69 29.5t-29 69.5t29 69t69 29t69 -29t29 -69t-29 -69.5t-69 -29.5zM537 0v541l-512 862h348l313 -524l313 524h349l-512 -866v-537h-299z" />
    <glyph glyph-name="Zacute" unicode="&#x179;" horiz-adv-x="1468" 
d="M766 1524l108 278h228l-217 -278h-119zM51 0l793 1102h-568v301h1135l-778 -1102h708v-301h-1290z" />
    <glyph glyph-name="zacute" unicode="&#x17a;" horiz-adv-x="1337" 
d="M641 1221l109 278h227l-217 -278h-119zM31 0l641 809h-459v287h1059l-654 -809h572v-287h-1159z" />
    <glyph glyph-name="Zdotaccent" unicode="&#x17b;" horiz-adv-x="1468" 
d="M834 1501q-40 0 -69.5 29t-29.5 69t29.5 69.5t69.5 29.5q39 0 67.5 -29.5t28.5 -69.5t-28 -69t-68 -29zM51 0l793 1102h-568v301h1135l-778 -1102h708v-301h-1290z" />
    <glyph glyph-name="zdotaccent" unicode="&#x17c;" horiz-adv-x="1337" 
d="M709 1198q-40 0 -69.5 29t-29.5 69t29.5 69.5t69.5 29.5q39 0 67.5 -29.5t28.5 -69.5t-28 -69t-68 -29zM31 0l641 809h-459v287h1059l-654 -809h572v-287h-1159z" />
    <glyph glyph-name="Zcaron" unicode="&#x17d;" horiz-adv-x="1468" 
d="M770 1520l-164 262h131l97 -158l98 158h131l-164 -262h-129zM51 0l793 1102h-568v301h1135l-778 -1102h708v-301h-1290z" />
    <glyph glyph-name="zcaron" unicode="&#x17e;" horiz-adv-x="1337" 
d="M645 1217l-164 262h131l97 -158l98 158h131l-164 -262h-129zM31 0l641 809h-459v287h1059l-654 -809h572v-287h-1159z" />
    <glyph glyph-name="florin" unicode="&#x192;" horiz-adv-x="933" 
d="M6 -240v248q37 0 65.5 4t52.5 15t41.5 24t33 38.5t26 50.5t22 68t20 82.5t20.5 102.5l75 408h-200v254h250l53 266q16 75 65.5 128.5t109 76.5t122 33t104.5 8.5t58 -6.5v-226q-13 6 -41 7.5t-65.5 -4.5t-70.5 -39t-45 -89l-28 -155h180v-254h-231l-78 -418
q-16 -85 -25.5 -129.5t-32 -122.5t-46 -121.5t-64.5 -99t-90.5 -84t-121.5 -48.5t-159 -18z" />
    <glyph glyph-name="uni0218" unicode="&#x218;" horiz-adv-x="1310" 
d="M88 119l117 297q87 -59 188 -101t193.5 -58.5t168.5 -10.5t121.5 44t45.5 103q0 31 -29.5 55.5t-78.5 42.5t-113 35.5t-134.5 38t-140.5 45.5t-132.5 63t-109.5 85t-73.5 115.5t-22.5 152.5q4 104 54 187t131.5 133.5t191 72t227.5 10t247 -59.5t245 -130l-137 -244
q-87 66 -182 107t-177 50.5t-149 -2.5t-106.5 -50t-41.5 -94q-1 -38 26.5 -68t75.5 -50.5t110.5 -39t132 -37.5t139 -41t132.5 -54t111.5 -72t77.5 -100t29 -134q0 -132 -54.5 -231t-157 -154t-240 -67.5t-315 28.5t-370.5 133zM690 -391l-43 10q26 49 29 111q-45 28 -45 80
q0 40 27 66t65 26t64 -26t26 -66q0 -37 -25.5 -81t-45 -65.5t-52.5 -54.5z" />
    <glyph glyph-name="uni0219" unicode="&#x219;" horiz-adv-x="1118" 
d="M43 102l100 238q130 -73 275 -111.5t249.5 -19t104.5 103.5q0 25 -24.5 44.5t-66 34.5t-95 29t-112.5 30.5t-117.5 36.5t-110.5 50t-92 67.5t-61.5 92t-18.5 121.5q7 88 53.5 156t119.5 107t170 54t201 3t215.5 -52t210.5 -106l-116 -197q-63 48 -140 79.5t-148 39.5
t-131 1t-97 -34t-39 -67q-1 -24 22 -44.5t63.5 -36t92.5 -30.5t110 -32t116 -36.5t110.5 -47.5t93 -62t64.5 -82t24 -106q0 -86 -33 -157t-94 -122t-153 -76.5t-203 -23.5t-251 41t-292 114zM543 -385l-43 10q25 46 28 111q-45 28 -45 80q0 40 27 66t65 26t64.5 -26
t26.5 -66q0 -37 -25.5 -81t-45 -65.5t-52.5 -54.5z" />
    <glyph glyph-name="uni021A" unicode="&#x21a;" horiz-adv-x="1038" 
d="M369 0v1116h-361v287h1022v-287h-360v-1116h-301zM487 -338l-43 10q26 49 29 111q-45 28 -45 80q0 40 27 66t65 26t64 -26t26 -66q0 -37 -25.5 -81t-45 -65.5t-52.5 -54.5z" />
    <glyph glyph-name="uni021B" unicode="&#x21b;" horiz-adv-x="786" 
d="M739 -6q-55 0 -106 4.5t-112 17.5t-112.5 33.5t-101 56.5t-84 82.5t-55.5 114.5t-21 150v356h-100v287h100v227h287v-227h266v-287h-266v-293q0 -52 12 -92t35.5 -65t50 -41t64.5 -24t69.5 -10.5t73.5 -2.5v-287zM383 -369l-43 11q26 49 29 110q-45 28 -45 80q0 40 27 66
t65 26t64 -26t26 -66q0 -37 -25.5 -81t-45 -65.5t-52.5 -54.5z" />
    <glyph glyph-name="uni0237" unicode="&#x237;" horiz-adv-x="604" 
d="M49 -426v289q100 0 149.5 68t49.5 186v1003h287v-1003q0 -152 -58 -274.5t-169.5 -195.5t-258.5 -73z" />
    <glyph glyph-name="circumflex" unicode="&#x2c6;" horiz-adv-x="884" 
d="M215 1206l162 262h131l162 -262h-129l-99 158l-98 -158h-129z" />
    <glyph glyph-name="caron" unicode="&#x2c7;" horiz-adv-x="884" 
d="M377 1206l-162 262h129l98 -157l99 157h129l-162 -262h-131z" />
    <glyph glyph-name="breve" unicode="&#x2d8;" horiz-adv-x="966" 
d="M483 1212q-110 0 -176.5 55t-66.5 146h149q0 -39 25.5 -60.5t68.5 -21.5q44 0 68 21t24 61h152q0 -91 -67 -146t-177 -55z" />
    <glyph glyph-name="dotaccent" unicode="&#x2d9;" horiz-adv-x="1077" 
d="M539 1137q-40 0 -69.5 29t-29.5 69t29.5 69t69.5 29t69 -29t29 -69t-29 -69t-69 -29z" />
    <glyph glyph-name="ring" unicode="&#x2da;" horiz-adv-x="997" 
d="M500 1219q-56 0 -98 39.5t-42 99.5q0 61 42 99t98 38q57 0 97 -38t40 -99q0 -60 -40 -99.5t-97 -39.5zM500 1288q28 0 47.5 20.5t19.5 49.5q0 28 -19.5 47.5t-47.5 19.5q-29 0 -48.5 -19.5t-19.5 -47.5q0 -29 19.5 -49.5t48.5 -20.5z" />
    <glyph glyph-name="ogonek" unicode="&#x2db;" horiz-adv-x="968" 
d="M401 -324q-176 -7 -215 82q-37 130 109 219h94q-65 -31 -90.5 -75.5t2 -74.5t100.5 -22v-129z" />
    <glyph glyph-name="tilde" unicode="&#x2dc;" horiz-adv-x="0" 
d="M-887 1194q0 37 1 55.5t6.5 46.5t17.5 42t35 25t57 11q24 -1 61 -13t67.5 -24t59.5 -18.5t45.5 5.5t16.5 46h114q0 -31 -0.5 -45.5t-3.5 -40t-10 -38t-19 -26.5t-32.5 -20t-48.5 -6q-23 2 -60.5 14t-68 23t-59.5 17t-45.5 -7t-16.5 -47h-117z" />
    <glyph glyph-name="hungarumlaut" unicode="&#x2dd;" horiz-adv-x="866" 
d="M295 1194l24 279h195l-117 -279h-102zM473 1194l117 279h192l-209 -279h-100z" />
    <glyph glyph-name="gravecomb" unicode="&#x300;" horiz-adv-x="0" 
d="M-819 1194l-217 279h227l109 -279h-119z" />
    <glyph glyph-name="acutecomb" unicode="&#x301;" horiz-adv-x="0" 
d="M-788 1171l108 279h227l-217 -279h-118z" />
    <glyph glyph-name="uni0302" unicode="&#x302;" horiz-adv-x="0" 
d="M-559 1206l164 262h129l164 -262h-131l-99 158l-96 -158h-131z" />
    <glyph glyph-name="tildecomb" unicode="&#x303;" horiz-adv-x="0" 
d="M-1006 1194q0 37 1 55.5t6.5 46.5t17 42t34.5 25t56 11q24 -1 61 -13t67.5 -24t59.5 -18.5t45.5 5.5t16.5 46h115q0 -36 -1 -54.5t-6.5 -46t-17 -41t-34.5 -24t-56 -10.5q-23 2 -60.5 14t-68 23t-59.5 17t-45.5 -7t-16.5 -47h-115z" />
    <glyph glyph-name="uni0304" unicode="&#x304;" horiz-adv-x="0" 
d="M-582 1206v119h480v-119h-480z" />
    <glyph glyph-name="uni0306" unicode="&#x306;" horiz-adv-x="0" 
d="M-346 1130q-110 0 -178 55t-68 146h152q0 -39 24.5 -60.5t69.5 -21.5q43 0 67.5 21.5t24.5 60.5h152q0 -91 -67 -146t-177 -55z" />
    <glyph glyph-name="uni0307" unicode="&#x307;" horiz-adv-x="0" 
d="M-199 1137q-40 0 -69 29t-29 69t29 69t69 29t68.5 -29t28.5 -69t-28.5 -69t-68.5 -29z" />
    <glyph glyph-name="uni0308" unicode="&#x308;" horiz-adv-x="0" 
d="M-535 1147q-40 0 -69 29t-29 69t29 69t69 29t69.5 -29t29.5 -69t-29.5 -69t-69.5 -29zM-201 1147q-40 0 -69 29t-29 69t29 69t69 29t69.5 -29t29.5 -69t-29.5 -69t-69.5 -29z" />
    <glyph glyph-name="uni030A" unicode="&#x30a;" horiz-adv-x="0" 
d="M-240 1219q-55 0 -97 40t-42 99q0 60 42 98.5t97 38.5q57 0 97.5 -38t40.5 -99q0 -60 -40.5 -99.5t-97.5 -39.5zM-240 1288q28 0 48 20.5t20 49.5q0 28 -20 47.5t-48 19.5q-29 0 -48 -19.5t-19 -47.5q0 -30 19 -50t48 -20z" />
    <glyph glyph-name="uni030B" unicode="&#x30b;" horiz-adv-x="0" 
d="M-590 1143l25 278h192l-114 -278h-103zM-414 1143l117 278h195l-209 -278h-103z" />
    <glyph glyph-name="uni030C" unicode="&#x30c;" horiz-adv-x="0" 
d="M-395 1165l-164 262h131l96 -157l99 157h131l-164 -262h-129z" />
    <glyph glyph-name="uni0312" unicode="&#x312;" horiz-adv-x="0" 
d="M-197 1178q-36 0 -62 26t-26 66q0 85 121 200l43 -10q-23 -43 -26 -110q45 -30 45 -80q0 -40 -28 -66t-67 -26z" />
    <glyph glyph-name="uni0326" unicode="&#x326;" horiz-adv-x="0" 
d="M-225 -375l-43 10q25 46 28 111q-45 28 -45 80q0 40 27 66t65 26t64.5 -26t26.5 -66q0 -37 -25.5 -81t-45 -65.5t-52.5 -54.5z" />
    <glyph glyph-name="uni0327" unicode="&#x327;" horiz-adv-x="0" 
d="M-309 -324l-47 117q17 0 28 1t28 5t28.5 15.5t15.5 29.5q5 18 -6.5 28t-24 11.5t-32.5 1.5l38 105h119l-20 -60q47 -1 66.5 -32.5t6.5 -69.5q-11 -37 -28.5 -63.5t-34 -41.5t-43 -25t-44.5 -13.5t-50 -8.5z" />
    <glyph glyph-name="uni0328" unicode="&#x328;" horiz-adv-x="0" 
d="M-102 -324q-97 -4 -149 20.5t-66 61.5q-42 128 108 219h94q-39 -18 -65 -43.5t-33 -49t0.5 -43.5t36.5 -30.5t74 -5.5v-129z" />
    <glyph glyph-name="uni0394" unicode="&#x394;" horiz-adv-x="1554" 
d="M203 20v246l413 1188h340l394 -1188v-246h-1147zM502 328h551l-269 768z" />
    <glyph glyph-name="uni03A9" unicode="&#x3a9;" horiz-adv-x="1728" 
d="M227 2v299h351q-51 28 -98.5 62.5t-99.5 87t-90 111.5t-62.5 138t-24.5 164q0 119 49.5 228.5t135.5 192t210.5 132t265.5 49.5t266 -49t211 -131t135.5 -191t49.5 -227q0 -66 -14 -127.5t-33 -107t-54.5 -92.5t-61.5 -75.5t-72 -65.5t-68.5 -53t-67.5 -46h344v-299h-491
v305q144 101 201 215t57 252q0 95 -48.5 180.5t-142.5 141t-211 55.5q-173 0 -287 -112t-114 -267q0 -320 262 -465v-305h-498z" />
    <glyph glyph-name="uni03BC" unicode="&#x3bc;" horiz-adv-x="1468" 
d="M203 -330v1417h260v-573q0 -59 14.5 -112t45.5 -100t87 -75t131 -28q59 0 105 19.5t73.5 54t46 72.5t26.5 85.5t11 81t3 70.5v505h258v-1126h-258v139q-28 -74 -98 -117.5t-169 -43.5q-92 0 -170.5 37.5t-105.5 99.5v-406h-260z" />
    <glyph glyph-name="pi" unicode="&#x3c0;" horiz-adv-x="1345" 
d="M1282 -252q-135 -3 -232.5 28.5t-152 91t-79.5 133.5t-25 167v721h-271v-946h-260v946h-237v221h1265v-221h-237v-707q0 -82 62 -133.5t167 -42.5v-258z" />
    <glyph glyph-name="Wgrave" unicode="&#x1e80;" horiz-adv-x="2217" 
d="M1071 1554l-217 279h227l109 -279h-119zM2175 1403l-782 -1403l-283 512l-285 -512l-780 1403h330l450 -823l119 219l-332 604h330l168 -318l166 318h330l-330 -604l117 -219l452 823h330z" />
    <glyph glyph-name="wgrave" unicode="&#x1e81;" horiz-adv-x="2168" 
d="M1034 1214l-217 279h227l109 -279h-119zM2144 1096l-612 -1096l-447 631l-448 -631l-612 1096h331l320 -574l409 574l410 -574l320 574h329z" />
    <glyph glyph-name="Wacute" unicode="&#x1e82;" horiz-adv-x="2217" 
d="M1055 1536l108 279h228l-217 -279h-119zM2175 1403l-782 -1403l-283 512l-285 -512l-780 1403h330l450 -823l119 219l-332 604h330l168 -318l166 318h330l-330 -604l117 -219l452 823h330z" />
    <glyph glyph-name="wacute" unicode="&#x1e83;" horiz-adv-x="2168" 
d="M1018 1196l108 279h228l-217 -279h-119zM2144 1096l-612 -1096l-447 631l-448 -631l-612 1096h331l320 -574l409 574l410 -574l320 574h329z" />
    <glyph glyph-name="Wdieresis" unicode="&#x1e84;" horiz-adv-x="2217" 
d="M954 1522q-40 0 -69 29t-29 69t29 69t69 29t69.5 -29t29.5 -69t-29.5 -69t-69.5 -29zM1288 1522q-40 0 -69 29t-29 69t29 69t69 29t69 -29t29 -69t-29 -69t-69 -29zM2175 1403l-782 -1403l-283 512l-285 -512l-780 1403h330l450 -823l119 219l-332 604h330l168 -318
l166 318h330l-330 -604l117 -219l452 823h330z" />
    <glyph glyph-name="wdieresis" unicode="&#x1e85;" horiz-adv-x="2168" 
d="M918 1182q-40 0 -69.5 29t-29.5 69t29.5 69t69.5 29t69 -29t29 -69t-29 -69t-69 -29zM1251 1182q-40 0 -69 29t-29 69t29 69t69 29t69.5 -29t29.5 -69t-29.5 -69t-69.5 -29zM2144 1096l-612 -1096l-447 631l-448 -631l-612 1096h331l320 -574l409 574l410 -574l320 574
h329z" />
    <glyph glyph-name="uni1E9E" unicode="&#x1e9e;" horiz-adv-x="1376" 
d="M96 -25v977q0 121 38.5 212.5t104.5 145.5t153 85.5t184.5 36t199.5 -8t197 -41t178 -67.5v-213l-236 -256q70 -5 136.5 -36t120 -84t84 -133t26.5 -173q-13 -263 -220 -364t-632 -62l23 272q162 -16 269.5 -13t171 32t90 69t26.5 97q0 51 -55.5 102t-132 68.5
t-156.5 -15.5l-146 180l328 332q-41 26 -103.5 38.5t-131 5.5t-128.5 -32t-99 -82.5t-38 -138.5v-934h-252z" />
    <glyph glyph-name="Ygrave" unicode="&#x1ef2;" horiz-adv-x="1372" 
d="M635 1538l-217 279h227l109 -279h-119zM537 0v541l-512 862h348l313 -524l313 524h349l-512 -866v-537h-299z" />
    <glyph glyph-name="ygrave" unicode="&#x1ef3;" horiz-adv-x="1271" 
d="M586 1214l-217 279h227l109 -279h-119zM133 -455v275q61 -13 111.5 -4.5t91 29.5t67.5 54t41 70.5t12 78.5t-20 77l-397 971h303l295 -713l295 713h303l-449 -1096q-21 -46 -41 -84.5t-43.5 -79t-47 -73t-51.5 -64.5t-58 -56t-64 -45t-72.5 -34t-81 -20.5t-91.5 -7
t-103 8.5z" />
    <glyph glyph-name="endash" unicode="&#x2013;" horiz-adv-x="1024" 
d="M0 410v217h1024v-217h-1024z" />
    <glyph glyph-name="emdash" unicode="&#x2014;" horiz-adv-x="1433" 
d="M0 410v217h1434v-217h-1434z" />
    <glyph glyph-name="quoteleft" unicode="&#x2018;" horiz-adv-x="393" 
d="M197 1180q-52 0 -88.5 36.5t-36.5 92.5q0 40 17 81.5t48.5 81.5t52.5 62.5t52 52.5l57 -12q-31 -63 -37 -156q62 -42 62 -110q0 -56 -37 -92.5t-90 -36.5z" />
    <glyph glyph-name="quoteright" unicode="&#x2019;" horiz-adv-x="393" 
d="M152 1180l-58 14q31 61 37 154q-61 41 -61 110q0 57 36.5 93t90.5 36q52 0 88.5 -36t36.5 -93q0 -40 -17 -81.5t-48.5 -81.5t-52.5 -62.5t-52 -52.5z" />
    <glyph glyph-name="quotesinglbase" unicode="&#x201a;" horiz-adv-x="430" 
d="M172 -166l-59 12q34 62 37 156q-62 39 -62 111q0 56 37.5 91.5t89.5 35.5q53 0 89 -35.5t36 -91.5q0 -117 -168 -279z" />
    <glyph glyph-name="quotedblleft" unicode="&#x201c;" horiz-adv-x="720" 
d="M197 1180q-52 0 -88.5 36.5t-36.5 92.5q0 40 17 81.5t48.5 81.5t52.5 62.5t52 52.5l57 -12q-31 -63 -37 -156q62 -42 62 -110q0 -56 -37 -92.5t-90 -36.5zM524 1180q-52 0 -88.5 36.5t-36.5 92.5q0 40 17 81.5t48.5 81.5t52.5 62.5t52 52.5l58 -12q-31 -63 -37 -156
q61 -41 61 -110q0 -56 -37 -92.5t-90 -36.5z" />
    <glyph glyph-name="quotedblright" unicode="&#x201d;" horiz-adv-x="720" 
d="M154 1077l-60 15q21 38 28 70.5t9 82.5q-61 41 -61 111q0 57 37 93t90 36t89 -35.5t36 -93.5q0 -117 -168 -279zM481 1077l-59 15q34 67 37 153q-62 42 -62 111q0 57 37 93t90 36q52 0 88.5 -36t36.5 -93q0 -40 -16.5 -81.5t-49 -82.5t-51 -61.5t-51.5 -53.5z" />
    <glyph glyph-name="quotedblbase" unicode="&#x201e;" horiz-adv-x="851" 
d="M215 240q53 0 89 -35.5t36 -91.5q0 -117 -168 -279l-59 12q34 62 37 156q-62 39 -62 111q0 56 37.5 91.5t89.5 35.5zM637 240q53 0 89 -35.5t36 -91.5q0 -117 -168 -279l-59 12q33 60 36 156q-61 38 -61 111q0 56 37.5 91.5t89.5 35.5z" />
    <glyph glyph-name="dagger" unicode="&#x2020;" horiz-adv-x="866" 
d="M303 539v440h-244v258h244v244h260v-244h242v-258h-242v-440h-260z" />
    <glyph glyph-name="daggerdbl" unicode="&#x2021;" horiz-adv-x="866" 
d="M303 426v211h-244v260h244v82h-244v258h244v244h260v-244h242v-258h-242v-82h242v-260h-242v-211h-260z" />
    <glyph glyph-name="bullet" unicode="&#x2022;" horiz-adv-x="507" 
d="M252 373q-58 0 -98.5 40.5t-40.5 98.5q0 60 40 100.5t99 40.5q60 0 101.5 -40.5t41.5 -100.5q0 -58 -41.5 -98.5t-101.5 -40.5z" />
    <glyph glyph-name="ellipsis" unicode="&#x2026;" horiz-adv-x="1253" 
d="M225 244q51 0 86 -35t35 -86q0 -52 -35 -87.5t-86 -35.5q-53 0 -88 35t-35 88q0 51 35.5 86t87.5 35zM637 244q51 0 86 -35t35 -86q0 -52 -35 -87.5t-86 -35.5q-53 0 -88 35t-35 88q0 51 35.5 86t87.5 35zM1030 244q51 0 86 -35t35 -86q0 -52 -35 -87.5t-86 -35.5
q-52 0 -87.5 35t-35.5 88q0 51 35.5 86t87.5 35z" />
    <glyph glyph-name="perthousand" unicode="&#x2030;" horiz-adv-x="2447" 
d="M317 0l883 1403h248l-891 -1403h-240zM379 672q-134 0 -229 94t-95 229q0 132 95 226t229 94q132 0 226.5 -94t94.5 -226q0 -135 -94 -229t-227 -94zM379 870q52 0 87.5 36t35.5 89t-35 88t-88 35t-89 -35.5t-36 -87.5q0 -53 36 -89t89 -36zM1380 86q-134 0 -228.5 94.5
t-94.5 227.5t94.5 227t228.5 94q132 0 227 -94t95 -227t-95 -227.5t-227 -94.5zM2071 86q-133 0 -227.5 94t-94.5 228q0 133 94 227t228 94q132 0 226.5 -94t94.5 -227t-94.5 -227.5t-226.5 -94.5zM1380 283q52 0 87.5 37t35.5 90q0 52 -35 86t-88 34t-89 -34t-36 -86
q0 -53 36.5 -90t88.5 -37zM2073 283q52 0 86 37t34 90q0 52 -33.5 86t-86.5 34t-90 -34t-37 -86t37 -89.5t90 -37.5z" />
    <glyph glyph-name="guilsinglleft" unicode="&#x2039;" horiz-adv-x="663" 
d="M389 72l-315 436l315 436h223l-315 -436l315 -436h-223z" />
    <glyph glyph-name="guilsinglright" unicode="&#x203a;" horiz-adv-x="663" 
d="M51 72l316 436l-316 436h223l316 -436l-316 -436h-223z" />
    <glyph glyph-name="fraction" unicode="&#x2044;" horiz-adv-x="393" 
d="M-242 102l688 1229h189l-688 -1229h-189z" />
    <glyph glyph-name="Euro" unicode="&#x20ac;" horiz-adv-x="1474" 
d="M842 -6q-220 0 -378.5 150.5t-195.5 394.5h-166v151h150l-2 55h-148v150h164q24 154 96.5 275.5t197 196.5t282.5 75q168 0 299.5 -90t210.5 -246l-258 -150q-32 97 -98 156t-154 59q-104 0 -180.5 -75.5t-88.5 -200.5h248v-150h-264l2 -55h262v-151h-246
q13 -115 85.5 -195t181.5 -80q97 0 167.5 69t90.5 163l272 -123q-75 -174 -212.5 -276.5t-317.5 -102.5z" />
    <glyph glyph-name="uni2116" unicode="&#x2116;" horiz-adv-x="2111" 
d="M1606 682q-155 2 -265 102t-110 258q0 106 55 191t140 128.5t180 43.5q101 0 185 -44t135 -127.5t52 -191.5q1 -159 -108 -260.5t-264 -99.5zM172 0v1145h-70v258h260l527 -928l2 928h227v-1403h-209l-512 872v-872h-225zM1606 877q75 3 121 51t49 114q2 67 -46.5 117.5
t-123.5 50.5t-122.5 -50t-47.5 -118q0 -66 47.5 -116t122.5 -49zM1260 250v199h698v-199h-698z" />
    <glyph glyph-name="trademark" unicode="&#x2122;" horiz-adv-x="1128" 
d="M485 543q-198 0 -337.5 139.5t-139.5 337.5q0 97 37.5 184.5t101.5 151.5t152.5 101.5t185.5 37.5q129 0 238.5 -63.5t173.5 -173t64 -238.5q0 -130 -64 -240t-173.5 -173.5t-238.5 -63.5zM485 596q113 -2 210 55t153.5 155.5t56.5 213.5q-2 174 -124.5 297.5
t-295.5 122.5q-115 -1 -211.5 -57.5t-153 -152.5t-57.5 -210q-1 -174 122.5 -297.5t299.5 -126.5zM262 864v246h-94v68h342l108 -183l109 183h64v-314h-72v176l-101 -157l-102 151v-170h-72v246h-106v-246h-76z" />
    <glyph glyph-name="estimated" unicode="&#x212e;" horiz-adv-x="1368" 
d="M717 -31q-144 0 -265 46t-201.5 125.5t-125.5 187t-45 229.5q0 121 44 228.5t122.5 186.5t192 125t245.5 46q175 0 314 -79t214.5 -212.5t75.5 -294.5q0 -27 -24 -27h-916q-22 0 -22 -20v-317q0 -19 10 -29q146 -146 381 -146q217 0 377 160q15 15 28 15h62
q16 0 20.5 -10.5t-6.5 -24.5q-80 -91 -203.5 -140t-277.5 -49zM348 582h672q22 0 22 24v314q0 17 -10 30q-55 73 -147 109.5t-201 36.5q-110 0 -201.5 -36.5t-146.5 -109.5q-10 -13 -10 -30v-314q0 -24 22 -24z" />
    <glyph glyph-name="oneeighth" unicode="&#x215b;" horiz-adv-x="1841" 
d="M297 557v750h-147v168h350v-918h-203zM365 102l688 1229h188l-688 -1229h-188zM1419 -113q-166 0 -272.5 75.5t-106.5 203.5q0 76 46.5 134.5t111.5 86.5q-56 29 -89.5 79.5t-33.5 113.5q0 113 105.5 186.5t238.5 73.5q87 0 165 -31.5t128.5 -92t50.5 -136.5
q0 -64 -32 -114.5t-89 -78.5q68 -27 113 -85t45 -136q0 -128 -107.5 -203.5t-273.5 -75.5zM1419 455q60 0 100 34.5t40 85.5q0 50 -40 84.5t-100 34.5q-58 0 -97.5 -34.5t-39.5 -84.5q0 -51 39.5 -85.5t97.5 -34.5zM1419 35q69 0 117.5 42t48.5 97q0 56 -48 96.5t-118 40.5
t-117 -40.5t-47 -96.5q0 -55 47.5 -97t116.5 -42z" />
    <glyph glyph-name="threeeighths" unicode="&#x215c;" horiz-adv-x="2088" 
d="M403 510q-131 0 -223.5 56t-138.5 153l199 78q15 -51 57.5 -79t105.5 -28q72 0 118 45t44 109q0 45 -27.5 78.5t-66.5 47t-82 8.5t-72 -30l-106 148l270 204h-336v175h617v-144l-238 -192q115 -26 185.5 -108t68.5 -187q-2 -141 -107.5 -237.5t-267.5 -96.5zM614 102
l689 1229h188l-688 -1229h-189zM1669 -113q-166 0 -272.5 75.5t-106.5 203.5q0 76 46.5 134.5t111.5 86.5q-56 29 -89.5 79.5t-33.5 113.5q0 113 105.5 186.5t238.5 73.5q87 0 165 -31.5t128.5 -92t50.5 -136.5q0 -64 -32 -114.5t-89 -78.5q68 -27 113 -85t45 -136
q0 -128 -107.5 -203.5t-273.5 -75.5zM1669 455q60 0 99.5 34.5t39.5 85.5q0 50 -40 84.5t-99 34.5q-58 0 -97.5 -34.5t-39.5 -84.5q0 -51 39.5 -85.5t97.5 -34.5zM1669 35q69 0 117.5 42t48.5 97q0 56 -48 96.5t-118 40.5t-117 -40.5t-47 -96.5q0 -55 47.5 -97t116.5 -42z
" />
    <glyph glyph-name="fiveeighths" unicode="&#x215d;" horiz-adv-x="2101" 
d="M395 510q-203 0 -352 90l94 176q132 -80 250 -80q102 0 157.5 35.5t55.5 95.5q0 119 -225 119h-246v529h608v-172h-418v-185h146q326 0 326 -291q0 -146 -110.5 -231.5t-285.5 -85.5zM627 102l688 1229h188l-688 -1229h-188zM1681 -113q-166 0 -272 75.5t-106 203.5
q0 76 46 135t111 86q-56 29 -89.5 79.5t-33.5 113.5q0 113 105.5 186.5t238.5 73.5q87 0 165 -31.5t128.5 -92t50.5 -136.5q0 -64 -31.5 -114.5t-88.5 -78.5q67 -26 112 -84.5t45 -136.5q0 -128 -107.5 -203.5t-273.5 -75.5zM1681 455q60 0 100 34.5t40 85.5q0 50 -40 84.5
t-100 34.5q-58 0 -97.5 -34.5t-39.5 -84.5q0 -51 39.5 -85.5t97.5 -34.5zM1681 35q69 0 117.5 42t48.5 97q0 56 -48 96.5t-118 40.5q-69 0 -116 -40.5t-47 -96.5q0 -55 47 -97t116 -42z" />
    <glyph glyph-name="seveneighths" unicode="&#x215e;" horiz-adv-x="2029" 
d="M109 559l391 735h-443v181h688v-136l-397 -780h-239zM553 102l688 1229h189l-689 -1229h-188zM1608 -113q-166 0 -272.5 75.5t-106.5 203.5q0 76 46 135t111 86q-56 29 -89 79.5t-33 113.5q0 113 105.5 186.5t238.5 73.5q87 0 165 -31.5t128.5 -92t50.5 -136.5
q0 -64 -32 -114.5t-89 -78.5q68 -27 113 -85t45 -136q0 -128 -107.5 -203.5t-273.5 -75.5zM1608 455q60 0 99.5 34.5t39.5 85.5q0 50 -40 84.5t-99 34.5q-58 0 -98 -34.5t-40 -84.5q0 -51 39.5 -85.5t98.5 -34.5zM1608 35q69 0 117.5 42t48.5 97q0 56 -48 96.5t-118 40.5
t-117 -40.5t-47 -96.5q0 -55 47.5 -97t116.5 -42z" />
    <glyph glyph-name="arrowleft" unicode="&#x2190;" horiz-adv-x="1351" 
d="M657 147l-555 558l555 557l174 -175l-245 -245h663v-275h-663l245 -245z" />
    <glyph glyph-name="arrowup" unicode="&#x2191;" horiz-adv-x="1316" 
d="M522 256v664l-246 -248l-174 174l557 557l555 -557l-172 -174l-247 248v-664h-273z" />
    <glyph glyph-name="arrowright" unicode="&#x2192;" horiz-adv-x="1351" 
d="M694 147l-174 175l246 245h-664v275h664l-246 245l174 175l555 -557z" />
    <glyph glyph-name="arrowdown" unicode="&#x2193;" horiz-adv-x="1316" 
d="M659 158l-557 555l174 174l246 -246v664h273v-664l247 246l172 -174z" />
    <glyph glyph-name="arrowboth" unicode="&#x2194;" horiz-adv-x="1763" 
d="M563 381l-461 461l461 463l139 -138l-217 -215h793l-217 215l139 138l461 -463l-461 -461l-139 137l217 217h-793l217 -217z" />
    <glyph glyph-name="arrowupdn" unicode="&#x2195;" horiz-adv-x="1128" 
d="M565 -135l-463 463l138 137l217 -215v692l-217 -215l-138 137l463 463l461 -463l-137 -137l-215 215v-692l215 215l137 -137z" />
    <glyph glyph-name="uni2196" unicode="&#x2196;" horiz-adv-x="1114" 
d="M819 395l-471 469v-348l-246 2v787h787l2 -246h-348l469 -471z" />
    <glyph glyph-name="uni2197" unicode="&#x2197;" horiz-adv-x="1114" 
d="M295 494l-193 192l469 471h-348v246h787l2 -787l-248 -2v349z" />
    <glyph glyph-name="uni2198" unicode="&#x2198;" horiz-adv-x="1112" 
d="M223 395v248h348l-469 469l193 193l469 -469v348h246v-787z" />
    <glyph glyph-name="uni2199" unicode="&#x2199;" horiz-adv-x="1114" 
d="M102 397v787h246v-348l471 469l193 -193l-469 -469h348v-248z" />
    <glyph glyph-name="partialdiff" unicode="&#x2202;" horiz-adv-x="1261" 
d="M569 -51q-214 0 -336 126t-122 318q0 215 126.5 352.5t342.5 137.5q186 0 299 -88q-5 73 -29.5 136.5t-59.5 107t-76 79.5t-81 57.5t-72.5 36t-52.5 20.5l-21 5l117 244q91 -27 170 -69.5t149.5 -109t120.5 -150.5t79.5 -198.5t29.5 -248.5q0 -186 -45 -332t-125 -237.5
t-185 -139t-229 -47.5zM580 195q127 0 201.5 94.5t86.5 261.5q-103 93 -262 90q-77 -1 -131.5 -39t-78 -91t-23.5 -112q0 -85 54.5 -144.5t152.5 -59.5z" />
    <glyph glyph-name="emptyset" unicode="&#x2205;" horiz-adv-x="1239" 
d="M621 -25q-185 0 -336 107l-62 -74h-137l121 142q-152 162 -152 399q0 126 48.5 236t128.5 183t181.5 114.5t207.5 41.5q191 0 333 -106l66 78h135l-123 -144q152 -162 152 -403q0 -126 -46 -234.5t-123.5 -182t-179.5 -115.5t-214 -42zM389 358l387 455q-72 45 -155 45
q-128 0 -215 -92t-87 -217q0 -108 70 -191zM621 242q130 0 214.5 89.5t84.5 217.5q0 110 -68 194l-389 -456q70 -45 158 -45z" />
    <glyph glyph-name="product" unicode="&#x220f;" horiz-adv-x="1525" 
d="M403 -150v1315h-235v273h1188v-273h-236v-1315h-272v1315h-170v-1315h-275z" />
    <glyph glyph-name="summation" unicode="&#x2211;" horiz-adv-x="1294" 
d="M78 -18l401 731l-401 725h1173v-273h-747l252 -452l-252 -457h747v-274h-1173z" />
    <glyph glyph-name="minus" unicode="&#x2212;" horiz-adv-x="1146" 
d="M127 559v275h893v-275h-893z" />
    <glyph glyph-name="radical" unicode="&#x221a;" horiz-adv-x="1603" 
d="M399 -133l-272 717h274l138 -361l405 1528h664v-274h-492l-438 -1610h-279z" />
    <glyph glyph-name="infinity" unicode="&#x221e;" horiz-adv-x="1837" 
d="M514 45q-194 -2 -321 126.5t-127 330.5q0 203 127.5 332t320.5 127q123 -1 240.5 -83t163.5 -194q48 113 165.5 195.5t237.5 81.5q195 -3 323 -128.5t128 -330.5t-128 -329.5t-323 -127.5q-123 -1 -226 66t-177 170q-69 -99 -174.5 -167t-229.5 -69zM526 303
q88 0 152.5 57.5t89.5 141.5q-29 75 -92 135.5t-150 60.5q-78 0 -132 -58.5t-54 -137.5q0 -82 54 -140.5t132 -58.5zM1311 303q78 0 132 58.5t54 140.5q0 79 -54 137.5t-132 58.5q-46 0 -87.5 -18.5t-71.5 -49t-51 -63t-34 -65.5q27 -84 92 -141.5t152 -57.5z" />
    <glyph glyph-name="integral" unicode="&#x222b;" horiz-adv-x="843" 
d="M-63 -305v182q112 -24 161.5 13t69.5 169l164 1094q18 127 66.5 211.5t122 123t171.5 45.5t215 -20v-180q-82 13 -141 6t-97.5 -53t-52.5 -137l-161 -1077q-35 -236 -168 -328.5t-350 -48.5z" />
    <glyph glyph-name="approxequal" unicode="&#x2248;" horiz-adv-x="1521" 
d="M281 942l-179 201q42 68 79.5 112.5t93 76.5t118.5 32q48 0 122 -24t143.5 -55t152.5 -54t154.5 -28t144 29.5t125.5 113.5l184 -197q-68 -96 -183 -144.5t-220 -48.5q-65 0 -142 18t-136 40.5t-125.5 38.5t-120 17t-109 -30t-102.5 -98zM281 332l-179 200
q65 107 132.5 165.5t158.5 58.5q48 0 122 -24t143.5 -55.5t152.5 -55t154.5 -29t144 29t125.5 113.5l184 -196q-46 -65 -121 -110t-145.5 -63t-136.5 -18q-76 0 -168.5 25.5t-162.5 49.5t-143.5 36t-139.5 -17.5t-121 -109.5z" />
    <glyph glyph-name="notequal" unicode="&#x2260;" horiz-adv-x="1173" 
d="M184 117l115 235h-172v273h307l74 151h-381v273h516l115 237h221l-115 -237h185v-273h-322l-72 -151h394v-273h-531l-112 -235h-222z" />
    <glyph glyph-name="lessequal" unicode="&#x2264;" horiz-adv-x="1114" 
d="M987 410l-860 315v276l860 316v-275l-489 -180l489 -178v-274zM127 49v273h860v-273h-860z" />
    <glyph glyph-name="greaterequal" unicode="&#x2265;" horiz-adv-x="1114" 
d="M127 410v274l489 178l-489 180v275l860 -316v-276zM127 49v273h860v-273h-860z" />
    <glyph glyph-name="uni2460" unicode="&#x2460;" horiz-adv-x="1761" 
d="M881 -20q-195 0 -360 95.5t-261 260.5t-96 360q0 146 56.5 279t152.5 229t229 152.5t279 56.5q195 0 360 -96t260.5 -261t95.5 -360q0 -146 -56.5 -279t-152 -228.5t-228.5 -152t-279 -56.5zM881 35q135 0 257.5 52.5t211 141t140.5 210.5t52 257q0 181 -88 333
t-240.5 240t-332.5 87t-331.5 -88.5t-240 -239.5t-88.5 -332q0 -134 52 -256.5t140.5 -211t211 -141t256.5 -52.5zM793 238v727h-140v170h344v-897h-204z" />
    <glyph glyph-name="uni2461" unicode="&#x2461;" horiz-adv-x="1761" 
d="M881 -20q-146 0 -278.5 57t-228.5 152.5t-153 228.5t-57 278q0 146 57 279t153 229t228.5 152.5t278.5 56.5q195 0 360 -96t260.5 -261t95.5 -360q0 -194 -95.5 -359t-260.5 -261t-360 -96zM881 35q135 0 257.5 52.5t211 141t140.5 210.5t52 257q0 181 -88 333
t-240.5 240t-332.5 87t-331.5 -88.5t-240 -239.5t-88.5 -332q0 -134 52 -256.5t140.5 -211t211 -141t256.5 -52.5zM543 225l-2 111q0 72 21 129t55 93t77.5 66t89 48.5t89 40.5t77.5 43t55 54t21 75q0 53 -34 88t-105 35q-64 0 -106.5 -41t-57.5 -99l-180 56
q20 123 116.5 195.5t231.5 72.5q139 0 233.5 -77t94.5 -216q0 -73 -26 -130.5t-67 -93.5t-90.5 -65t-99.5 -51t-91 -44t-67 -52t-26 -68h448v-170h-657z" />
    <glyph glyph-name="uni2462" unicode="&#x2462;" horiz-adv-x="1761" 
d="M881 -20q-146 0 -278.5 57t-228.5 152.5t-153 228.5t-57 278q0 146 57 279t153 229t228.5 152.5t278.5 56.5q195 0 360 -96t260.5 -261t95.5 -360q0 -194 -95.5 -359t-260.5 -261t-360 -96zM881 35q135 0 257.5 52.5t211 141t140.5 210.5t52 257q0 181 -88 333
t-240.5 240t-332.5 87t-331.5 -88.5t-240 -239.5t-88.5 -332q0 -134 52 -256.5t140.5 -211t211 -141t256.5 -52.5zM889 215q-220 0 -383 117l102 172q105 -94 256 -94q78 0 126 35.5t48 97.5q0 34 -30 62t-71.5 41t-88 10.5t-76.5 -23.5l-102 137l254 211h-346v168h624v-143
l-250 -203q129 5 216 -73t87 -208q0 -129 -96.5 -218t-269.5 -89z" />
    <glyph glyph-name="uni2463" unicode="&#x2463;" horiz-adv-x="1761" 
d="M881 -20q-146 0 -278.5 57t-228.5 152.5t-153 228.5t-57 278q0 146 57 279t153 229t228.5 152.5t278.5 56.5q195 0 360 -96t260.5 -261t95.5 -360q0 -194 -95.5 -359t-260.5 -261t-360 -96zM881 35q135 0 257.5 52.5t211 141t140.5 210.5t52 257q0 181 -88 333
t-240.5 240t-332.5 87t-331.5 -88.5t-240 -239.5t-88.5 -332q0 -134 52 -256.5t140.5 -211t211 -141t256.5 -52.5zM903 248v188h-448v170l307 553h221l-305 -553h231v293h187v-293h131v-170h-131v-188h-193z" />
    <glyph glyph-name="uni2464" unicode="&#x2464;" horiz-adv-x="1761" 
d="M881 -20q-146 0 -278.5 57t-228.5 152.5t-153 228.5t-57 278q0 146 57 279t153 229t228.5 152.5t278.5 56.5q195 0 360 -96t260.5 -261t95.5 -360q0 -194 -95.5 -359t-260.5 -261t-360 -96zM881 35q135 0 257.5 52.5t211 141t140.5 210.5t52 257q0 181 -88 333
t-240.5 240t-332.5 87t-331.5 -88.5t-240 -239.5t-88.5 -332q0 -134 52 -256.5t140.5 -211t211 -141t256.5 -52.5zM860 242q-192 0 -321 80l82 159q124 -73 233 -73q97 0 149 33.5t54 90.5q0 115 -213 115h-228v488h560v-156h-388v-176h138q159 0 231 -72.5t72 -198.5
q0 -135 -102 -212.5t-267 -77.5z" />
    <glyph glyph-name="uni2465" unicode="&#x2465;" horiz-adv-x="1761" 
d="M881 -20q-146 0 -278.5 57t-228.5 152.5t-153 228.5t-57 278q0 146 57 279t153 229t228.5 152.5t278.5 56.5q195 0 360 -96t260.5 -261t95.5 -360q0 -194 -95.5 -359t-260.5 -261t-360 -96zM881 35q135 0 257.5 52.5t211 141t140.5 210.5t52 257q0 181 -88 333
t-240.5 240t-332.5 87t-331.5 -88.5t-240 -239.5t-88.5 -332q0 -134 52 -256.5t140.5 -211t211 -141t256.5 -52.5zM868 238q-156 0 -266 110t-110 266q0 114 90 246l239 346h242l-168 -239q107 2 189 -47t123 -129.5t40 -176.5q-2 -157 -112 -266.5t-267 -109.5zM868 444
q69 0 118.5 50t49.5 120q0 65 -46 116.5t-120 51.5q-66 0 -110 -41q-27 -24 -43.5 -59.5t-16.5 -67.5q0 -71 50.5 -120.5t117.5 -49.5z" />
    <glyph glyph-name="uni2466" unicode="&#x2466;" horiz-adv-x="1761" 
d="M881 -20q-146 0 -278.5 57t-228.5 152.5t-153 228.5t-57 278q0 146 57 279t153 229t228.5 152.5t278.5 56.5q195 0 360 -96t260.5 -261t95.5 -360q0 -194 -95.5 -359t-260.5 -261t-360 -96zM881 35q135 0 257.5 52.5t211 141t140.5 210.5t52 257q0 181 -88 333
t-240.5 240t-332.5 87t-331.5 -88.5t-240 -239.5t-88.5 -332q0 -134 52 -256.5t140.5 -211t211 -141t256.5 -52.5zM596 223l389 735h-440v181h688v-138l-397 -778h-240z" />
    <glyph glyph-name="uni2467" unicode="&#x2467;" horiz-adv-x="1761" 
d="M881 -20q-146 0 -278.5 57t-228.5 152.5t-153 228.5t-57 278q0 146 57 279t153 229t228.5 152.5t278.5 56.5q195 0 360 -96t260.5 -261t95.5 -360q0 -194 -95.5 -359t-260.5 -261t-360 -96zM881 35q135 0 257.5 52.5t211 141t140.5 210.5t52 257q0 181 -88 333
t-240.5 240t-332.5 87t-331.5 -88.5t-240 -239.5t-88.5 -332q0 -134 52 -256.5t140.5 -211t211 -141t256.5 -52.5zM879 229q-167 0 -274 76t-107 205q0 75 46.5 134.5t110.5 84.5q-54 29 -87 79.5t-33 113.5q0 76 51 136.5t129 92t164 31.5t164 -31.5t129 -92t51 -136.5
q0 -64 -32.5 -114.5t-90.5 -78.5q67 -25 112 -84t45 -135q0 -129 -106 -205t-272 -76zM879 799q59 0 98 34t39 85q0 50 -39.5 84.5t-97.5 33.5q-60 0 -100 -34t-40 -84q0 -51 40 -85t100 -34zM879 379q68 0 115.5 41t47.5 96q0 57 -47 97t-116 40q-71 0 -118.5 -39.5
t-47.5 -97.5q0 -55 47.5 -96t118.5 -41z" />
    <glyph glyph-name="uni2468" unicode="&#x2468;" horiz-adv-x="1761" 
d="M881 -20q-146 0 -278.5 57t-228.5 152.5t-153 228.5t-57 278q0 146 57 279t153 229t228.5 152.5t278.5 56.5q195 0 360 -96t260.5 -261t95.5 -360q0 -194 -95.5 -359t-260.5 -261t-360 -96zM881 35q135 0 257.5 52.5t211 141t140.5 210.5t52 257q0 181 -88 333
t-240.5 240t-332.5 87t-331.5 -88.5t-240 -239.5t-88.5 -332q0 -134 52 -256.5t140.5 -211t211 -141t256.5 -52.5zM690 186l168 240q-160 -3 -257 99.5t-95 250.5q0 156 110.5 266.5t266.5 110.5t267.5 -110.5t111.5 -266.5q0 -115 -93 -246l-237 -344h-242zM883 608
q66 0 110 41q27 24 42.5 59.5t15.5 67.5q0 71 -50 120.5t-118 49.5t-118 -50t-50 -120q0 -63 47 -115.5t121 -52.5z" />
    <glyph glyph-name="uni24B6" unicode="&#x24b6;" 
d="M821 -18q-146 0 -279.5 57t-229.5 153t-153 229t-57 279t57 279.5t153 229.5t229.5 153t279.5 57t279.5 -57t229.5 -153t153 -229.5t57 -279.5t-57 -279t-153 -229t-229.5 -153t-279.5 -57zM821 41q134 0 256.5 52.5t211 141t140.5 210.5t52 255q0 180 -88 332
t-240.5 240.5t-331.5 87.5q-134 -1 -255.5 -53t-210 -140.5t-141 -210.5t-52.5 -256q0 -133 52.5 -255t141 -210.5t210.5 -141t255 -52.5zM367 371l458 813l459 -813h-201l-65 116h-385l-66 -116h-200zM725 649h201l-101 185z" />
    <glyph glyph-name="uni24B7" unicode="&#x24b7;" 
d="M821 -18q-146 0 -279.5 57t-229.5 153t-153 229t-57 279t57 279.5t153 229.5t229.5 153t279.5 57t279.5 -57t229.5 -153t153 -229.5t57 -279.5t-57 -279t-153 -229t-229.5 -153t-279.5 -57zM821 41q134 0 256.5 52.5t211 141t140.5 210.5t52 255q0 180 -88 332
t-240.5 240.5t-331.5 87.5q-134 -1 -255.5 -53t-210 -140.5t-141 -210.5t-52.5 -256q0 -133 52.5 -255t141 -210.5t210.5 -141t255 -52.5zM506 293v813h360q123 0 200 -57t77 -146q0 -69 -31 -118t-82 -64q80 -16 119 -72.5t39 -132.5q0 -103 -77 -163t-222 -60h-383z
M690 799h162q104 0 104 71q0 39 -36 56.5t-86 17.5h-144v-145zM690 457h176q61 0 96 22t35 66q0 42 -31.5 66t-93.5 24h-182v-178z" />
    <glyph glyph-name="uni24B8" unicode="&#x24b8;" 
d="M821 -18q-146 0 -279.5 57t-229.5 153t-153 229t-57 279t57 279.5t153 229.5t229.5 153t279.5 57t279.5 -57t229.5 -153t153 -229.5t57 -279.5t-57 -279t-153 -229t-229.5 -153t-279.5 -57zM821 41q134 0 256.5 52.5t211 141t140.5 210.5t52 255q0 180 -88 332
t-240.5 240.5t-331.5 87.5q-134 -1 -255.5 -53t-210 -140.5t-141 -210.5t-52.5 -256q0 -133 52.5 -255t141 -210.5t210.5 -141t255 -52.5zM821 256q-99 0 -183 40t-138.5 104.5t-84.5 143.5t-30 161q0 85 30 165t84.5 143.5t138.5 101.5t183 38q71 0 126.5 -12.5t96.5 -38.5
t68.5 -52.5t58.5 -66.5l-139 -133q-75 102 -203 102q-72 0 -127 -39t-80.5 -94t-25.5 -114q0 -99 70 -173.5t163 -74.5q145 0 203 102l139 -131q-112 -172 -350 -172z" />
    <glyph glyph-name="uni24B9" unicode="&#x24b9;" 
d="M821 -18q-146 0 -279.5 57t-229.5 153t-153 229t-57 279t57 279.5t153 229.5t229.5 153t279.5 57t279.5 -57t229.5 -153t153 -229.5t57 -279.5t-57 -279t-153 -229t-229.5 -153t-279.5 -57zM821 41q134 0 256.5 52.5t211 141t140.5 210.5t52 255q0 180 -88 332
t-240.5 240.5t-331.5 87.5q-134 -1 -255.5 -53t-210 -140.5t-141 -210.5t-52.5 -256q0 -133 52.5 -255t141 -210.5t210.5 -141t255 -52.5zM512 1110h317q174 0 285 -103.5t111 -304.5q0 -176 -114.5 -290.5t-281.5 -114.5h-317v813zM811 471q95 0 161 62.5t66 168.5
q0 114 -65 174t-162 60h-115v-465h115z" />
    <glyph glyph-name="uni24BA" unicode="&#x24ba;" 
d="M821 -18q-146 0 -279.5 57t-229.5 153t-153 229t-57 279t57 279.5t153 229.5t229.5 153t279.5 57t279.5 -57t229.5 -153t153 -229.5t57 -279.5t-57 -279t-153 -229t-229.5 -153t-279.5 -57zM821 41q134 0 256.5 52.5t211 141t140.5 210.5t52 255q0 180 -88 332
t-240.5 240.5t-331.5 87.5q-134 -1 -255.5 -53t-210 -140.5t-141 -210.5t-52.5 -256q0 -133 52.5 -255t141 -210.5t210.5 -141t255 -52.5zM528 1110h588v-158h-405v-161h348v-158h-348v-180h405v-156h-588v813z" />
    <glyph glyph-name="uni24BB" unicode="&#x24bb;" 
d="M821 -18q-146 0 -279.5 57t-229.5 153t-153 229t-57 279t57 279.5t153 229.5t229.5 153t279.5 57t279.5 -57t229.5 -153t153 -229.5t57 -279.5t-57 -279t-153 -229t-229.5 -153t-279.5 -57zM821 41q134 0 256.5 52.5t211 141t140.5 210.5t52 255q0 180 -88 332
t-240.5 240.5t-331.5 87.5q-134 -1 -255.5 -53t-210 -140.5t-141 -210.5t-52.5 -256q0 -133 52.5 -255t141 -210.5t210.5 -141t255 -52.5zM530 1083h605v-157h-422v-162h362v-158h-362v-336h-183v813z" />
    <glyph glyph-name="uni24BC" unicode="&#x24bc;" 
d="M821 -18q-146 0 -279.5 57t-229.5 153t-153 229t-57 279t57 279.5t153 229.5t229.5 153t279.5 57t279.5 -57t229.5 -153t153 -229.5t57 -279.5t-57 -279t-153 -229t-229.5 -153t-279.5 -57zM821 41q134 0 256.5 52.5t211 141t140.5 210.5t52 255q0 180 -88 332
t-240.5 240.5t-331.5 87.5q-134 -1 -255.5 -53t-210 -140.5t-141 -210.5t-52.5 -256q0 -133 52.5 -255t141 -210.5t210.5 -141t255 -52.5zM825 287q-174 0 -298 123t-124 299q0 180 126 302t296 122q181 0 303 -125l-124 -125q-70 73 -179 73q-99 0 -173 -71t-74 -176
q0 -104 74 -176t173 -72q51 0 103 21.5t84 62.5v223h174v-322q-55 -81 -157.5 -120t-203.5 -39z" />
    <glyph glyph-name="uni24BD" unicode="&#x24bd;" 
d="M821 -18q-146 0 -279.5 57t-229.5 153t-153 229t-57 279t57 279.5t153 229.5t229.5 153t279.5 57t279.5 -57t229.5 -153t153 -229.5t57 -279.5t-57 -279t-153 -229t-229.5 -153t-279.5 -57zM821 41q134 0 256.5 52.5t211 141t140.5 210.5t52 255q0 180 -88 332
t-240.5 240.5t-331.5 87.5q-134 -1 -255.5 -53t-210 -140.5t-141 -210.5t-52.5 -256q0 -133 52.5 -255t141 -210.5t210.5 -141t255 -52.5zM465 1110h184v-295h359v295h184v-813h-184v344h-359v-344h-184v813z" />
    <glyph glyph-name="uni24BE" unicode="&#x24be;" 
d="M821 -18q-146 0 -279.5 57t-229.5 153t-153 229t-57 279t57 279.5t153 229.5t229.5 153t279.5 57t279.5 -57t229.5 -153t153 -229.5t57 -279.5t-57 -279t-153 -229t-229.5 -153t-279.5 -57zM821 41q134 0 256.5 52.5t211 141t140.5 210.5t52 255q0 180 -88 332
t-240.5 240.5t-331.5 87.5q-134 -1 -255.5 -53t-210 -140.5t-141 -210.5t-52.5 -256q0 -133 52.5 -255t141 -210.5t210.5 -141t255 -52.5zM717 1100h182v-813h-182v813z" />
    <glyph glyph-name="uni24BF" unicode="&#x24bf;" 
d="M821 -18q-146 0 -279.5 57t-229.5 153t-153 229t-57 279t57 279.5t153 229.5t229.5 153t279.5 57t279.5 -57t229.5 -153t153 -229.5t57 -279.5t-57 -279t-153 -229t-229.5 -153t-279.5 -57zM821 41q134 0 256.5 52.5t211 141t140.5 210.5t52 255q0 180 -88 332
t-240.5 240.5t-331.5 87.5q-134 -1 -255.5 -53t-210 -140.5t-141 -210.5t-52.5 -256q0 -133 52.5 -255t141 -210.5t210.5 -141t255 -52.5zM618 438q104 0 145.5 46.5t41.5 133.5v322h-70v158h252v-490q0 -180 -90 -263t-276 -83z" />
    <glyph glyph-name="uni24C0" unicode="&#x24c0;" 
d="M821 -18q-146 0 -279.5 57t-229.5 153t-153 229t-57 279t57 279.5t153 229.5t229.5 153t279.5 57t279.5 -57t229.5 -153t153 -229.5t57 -279.5t-57 -279t-153 -229t-229.5 -153t-279.5 -57zM821 41q134 0 256.5 52.5t211 141t140.5 210.5t52 255q0 180 -88 332
t-240.5 240.5t-331.5 87.5q-134 -1 -255.5 -53t-210 -140.5t-141 -210.5t-52.5 -256q0 -133 52.5 -255t141 -210.5t210.5 -141t255 -52.5zM489 1110h185v-276l258 276h264l-360 -387l397 -426h-256l-283 291l-20 -23v-268h-185v813z" />
    <glyph glyph-name="uni24C1" unicode="&#x24c1;" 
d="M821 -18q-146 0 -279.5 57t-229.5 153t-153 229t-57 279t57 279.5t153 229.5t229.5 153t279.5 57t279.5 -57t229.5 -153t153 -229.5t57 -279.5t-57 -279t-153 -229t-229.5 -153t-279.5 -57zM821 41q134 0 256.5 52.5t211 141t140.5 210.5t52 255q0 180 -88 332
t-240.5 240.5t-331.5 87.5q-134 -1 -255.5 -53t-210 -140.5t-141 -210.5t-52.5 -256q0 -133 52.5 -255t141 -210.5t210.5 -141t255 -52.5zM535 1122h184v-639h403v-174h-587v813z" />
    <glyph glyph-name="uni24C2" unicode="&#x24c2;" 
d="M821 -18q-146 0 -279.5 57t-229.5 153t-153 229t-57 279t57 279.5t153 229.5t229.5 153t279.5 57t279.5 -57t229.5 -153t153 -229.5t57 -279.5t-57 -279t-153 -229t-229.5 -153t-279.5 -57zM821 41q134 0 256.5 52.5t211 141t140.5 210.5t52 255q0 180 -88 332
t-240.5 240.5t-331.5 87.5q-134 -1 -255.5 -53t-210 -140.5t-141 -210.5t-52.5 -256q0 -133 52.5 -255t141 -210.5t210.5 -141t255 -52.5zM371 297v813l444 -410l447 410v-813h-183v410l-264 -261l-262 261v-410h-182z" />
    <glyph glyph-name="uni24C3" unicode="&#x24c3;" 
d="M821 -18q-146 0 -279.5 57t-229.5 153t-153 229t-57 279t57 279.5t153 229.5t229.5 153t279.5 57t279.5 -57t229.5 -153t153 -229.5t57 -279.5t-57 -279t-153 -229t-229.5 -153t-279.5 -57zM821 41q134 0 256.5 52.5t211 141t140.5 210.5t52 255q0 180 -88 332
t-240.5 240.5t-331.5 87.5q-134 -1 -255.5 -53t-210 -140.5t-141 -210.5t-52.5 -256q0 -133 52.5 -255t141 -210.5t210.5 -141t255 -52.5zM606 715v-428h-182v813l577 -475v475h183v-860z" />
    <glyph glyph-name="uni24C4" unicode="&#x24c4;" 
d="M821 -18q-146 0 -279.5 57t-229.5 153t-153 229t-57 279t57 279.5t153 229.5t229.5 153t279.5 57t279.5 -57t229.5 -153t153 -229.5t57 -279.5t-57 -279t-153 -229t-229.5 -153t-279.5 -57zM821 41q134 0 256.5 52.5t211 141t140.5 210.5t52 255q0 180 -88 332
t-240.5 240.5t-331.5 87.5q-134 -1 -255.5 -53t-210 -140.5t-141 -210.5t-52.5 -256q0 -133 52.5 -255t141 -210.5t210.5 -141t255 -52.5zM823 256q-182 0 -311 128.5t-129 315.5q0 100 37 185.5t98 141.5t140.5 87t164.5 31q119 0 218 -52.5t160 -155.5t61 -237
q0 -123 -60.5 -225.5t-161 -160.5t-217.5 -58zM823 463q101 0 170.5 74t69.5 163q0 96 -69 169t-171 73q-103 0 -171 -72.5t-68 -169.5q0 -90 69 -163.5t170 -73.5z" />
    <glyph glyph-name="uni24C5" unicode="&#x24c5;" 
d="M821 -18q-146 0 -279.5 57t-229.5 153t-153 229t-57 279t57 279.5t153 229.5t229.5 153t279.5 57t279.5 -57t229.5 -153t153 -229.5t57 -279.5t-57 -279t-153 -229t-229.5 -153t-279.5 -57zM821 41q134 0 256.5 52.5t211 141t140.5 210.5t52 255q0 180 -88 332
t-240.5 240.5t-331.5 87.5q-134 -1 -255.5 -53t-210 -140.5t-141 -210.5t-52.5 -256q0 -133 52.5 -255t141 -210.5t210.5 -141t255 -52.5zM522 1090h379q142 0 221.5 -86.5t79.5 -204.5q0 -126 -78.5 -210.5t-222.5 -84.5h-194v-225h-185v811zM889 664q56 0 95.5 39t39.5 96
q0 58 -39.5 95.5t-95.5 37.5h-182v-268h182z" />
    <glyph glyph-name="uni24C6" unicode="&#x24c6;" 
d="M821 -18q-146 0 -279.5 57t-229.5 153t-153 229t-57 279t57 279.5t153 229.5t229.5 153t279.5 57t279.5 -57t229.5 -153t153 -229.5t57 -279.5t-57 -279t-153 -229t-229.5 -153t-279.5 -57zM821 41q134 0 256.5 52.5t211 141t140.5 210.5t52 255q0 180 -88 332
t-240.5 240.5t-331.5 87.5q-134 -1 -255.5 -53t-210 -140.5t-141 -210.5t-52.5 -256q0 -133 52.5 -255t141 -210.5t210.5 -141t255 -52.5zM1100 188l-154 131q-56 -36 -133 -36q-178 0 -303 124.5t-125 301.5t125 301.5t303 124.5q175 0 299.5 -124.5t124.5 -301.5
q0 -178 -125 -303l129 -105zM811 465q100 0 172 71.5t72 172.5q0 100 -72 171.5t-172 71.5q-101 0 -172.5 -71.5t-71.5 -171.5q0 -101 71.5 -172.5t172.5 -71.5z" />
    <glyph glyph-name="uni24C7" unicode="&#x24c7;" 
d="M821 -18q-146 0 -279.5 57t-229.5 153t-153 229t-57 279t57 279.5t153 229.5t229.5 153t279.5 57t279.5 -57t229.5 -153t153 -229.5t57 -279.5t-57 -279t-153 -229t-229.5 -153t-279.5 -57zM821 41q134 0 256.5 52.5t211 141t140.5 210.5t52 255q0 180 -88 332
t-240.5 240.5t-331.5 87.5q-134 -1 -255.5 -53t-210 -140.5t-141 -210.5t-52.5 -256q0 -133 52.5 -255t141 -210.5t210.5 -141t255 -52.5zM504 1110h366q142 0 221.5 -87t79.5 -206q0 -90 -41.5 -160.5t-121.5 -103.5l180 -256h-213l-160 227h-127v-227h-184v813zM688 682
h170q55 0 95 39.5t40 95.5q0 57 -40 95t-95 38h-170v-268z" />
    <glyph glyph-name="uni24C8" unicode="&#x24c8;" 
d="M821 -18q-146 0 -279.5 57t-229.5 153t-153 229t-57 279t57 279.5t153 229.5t229.5 153t279.5 57t279.5 -57t229.5 -153t153 -229.5t57 -279.5t-57 -279t-153 -229t-229.5 -153t-279.5 -57zM821 41q134 0 256.5 52.5t211 141t140.5 210.5t52 255q0 180 -88 332
t-240.5 240.5t-331.5 87.5q-134 -1 -255.5 -53t-210 -140.5t-141 -210.5t-52.5 -256q0 -133 52.5 -255t141 -210.5t210.5 -141t255 -52.5zM555 549q79 -53 178.5 -79.5t175.5 -12t84 72.5q2 21 -26 37t-74 28t-102 26t-112 35.5t-101.5 50.5t-73 77.5t-25.5 110.5
q3 72 46 126.5t114 80.5t157 29.5t183 -25.5t184 -86l-90 -150q-76 57 -169.5 77t-158 0.5t-69.5 -66.5q-3 -25 24 -44t72 -32t100.5 -26t111 -32t102 -43.5t75.5 -66.5t29 -96q0 -77 -30.5 -135.5t-91 -92.5t-145 -42.5t-199 16t-245.5 82.5z" />
    <glyph glyph-name="uni24C9" unicode="&#x24c9;" 
d="M821 -18q-146 0 -279.5 57t-229.5 153t-153 229t-57 279t57 279.5t153 229.5t229.5 153t279.5 57t279.5 -57t229.5 -153t153 -229.5t57 -279.5t-57 -279t-153 -229t-229.5 -153t-279.5 -57zM821 41q134 0 256.5 52.5t211 141t140.5 210.5t52 255q0 180 -88 332
t-240.5 240.5t-331.5 87.5q-134 -1 -255.5 -53t-210 -140.5t-141 -210.5t-52.5 -256q0 -133 52.5 -255t141 -210.5t210.5 -141t255 -52.5zM729 920h-203v174h592v-174h-205v-639h-184v639z" />
    <glyph glyph-name="uni24CA" unicode="&#x24ca;" 
d="M821 -18q-146 0 -279.5 57t-229.5 153t-153 229t-57 279t57 279.5t153 229.5t229.5 153t279.5 57t279.5 -57t229.5 -153t153 -229.5t57 -279.5t-57 -279t-153 -229t-229.5 -153t-279.5 -57zM821 41q134 0 256.5 52.5t211 141t140.5 210.5t52 255q0 180 -88 332
t-240.5 240.5t-331.5 87.5q-134 -1 -255.5 -53t-210 -140.5t-141 -210.5t-52.5 -256q0 -133 52.5 -255t141 -210.5t210.5 -141t255 -52.5zM813 264q-163 0 -248.5 98t-85.5 277v459h183v-459q0 -207 151 -207q154 0 154 207v459h178v-459q0 -179 -85.5 -277t-246.5 -98z" />
    <glyph glyph-name="uni24CB" unicode="&#x24cb;" 
d="M821 -18q-146 0 -279.5 57t-229.5 153t-153 229t-57 279t57 279.5t153 229.5t229.5 153t279.5 57t279.5 -57t229.5 -153t153 -229.5t57 -279.5t-57 -279t-153 -229t-229.5 -153t-279.5 -57zM821 41q134 0 256.5 52.5t211 141t140.5 210.5t52 255q0 180 -88 332
t-240.5 240.5t-331.5 87.5q-134 -1 -255.5 -53t-210 -140.5t-141 -210.5t-52.5 -256q0 -133 52.5 -255t141 -210.5t210.5 -141t255 -52.5zM358 1053h201l254 -459l254 459h201l-455 -811z" />
    <glyph glyph-name="uni24CC" unicode="&#x24cc;" 
d="M821 1419q146 0 279.5 -57t229.5 -153t153 -229.5t57 -279.5t-57 -279t-153 -229t-229.5 -153t-279.5 -57t-279.5 57t-229.5 153t-153 229t-57 279t57 279.5t153 229.5t229.5 153t279.5 57zM821 1360q-176 -1 -324.5 -87t-236.5 -231h141l254 -460l66 118l-189 342h201
l88 -168l88 168h201l-188 -342l65 -118l254 460h145q-90 146 -239.5 232.5t-325.5 85.5zM821 41q134 0 256.5 52.5t211 141t140.5 210.5t52 255q0 155 -68 291l-426 -762l-166 297l-166 -297l-424 760q-69 -132 -69 -289q0 -133 52.5 -255t141 -210.5t210.5 -141t255 -52.5z
" />
    <glyph glyph-name="uni24CD" unicode="&#x24cd;" 
d="M821 -18q-146 0 -279.5 57t-229.5 153t-153 229t-57 279t57 279.5t153 229.5t229.5 153t279.5 57t279.5 -57t229.5 -153t153 -229.5t57 -279.5t-57 -279t-153 -229t-229.5 -153t-279.5 -57zM821 41q134 0 256.5 52.5t211 141t140.5 210.5t52 255q0 180 -88 332
t-240.5 240.5t-331.5 87.5q-134 -1 -255.5 -53t-210 -140.5t-141 -210.5t-52.5 -256q0 -133 52.5 -255t141 -210.5t210.5 -141t255 -52.5zM719 709l-273 401h216l167 -250l166 250h205l-268 -395l280 -418h-217l-170 262l-168 -262h-217z" />
    <glyph glyph-name="uni24CE" unicode="&#x24ce;" 
d="M821 -18q-146 0 -279.5 57t-229.5 153t-153 229t-57 279t57 279.5t153 229.5t229.5 153t279.5 57t279.5 -57t229.5 -153t153 -229.5t57 -279.5t-57 -279t-153 -229t-229.5 -153t-279.5 -57zM821 41q134 0 256.5 52.5t211 141t140.5 210.5t52 255q0 180 -88 332
t-240.5 240.5t-331.5 87.5q-134 -1 -255.5 -53t-210 -140.5t-141 -210.5t-52.5 -256q0 -133 52.5 -255t141 -210.5t210.5 -141t255 -52.5zM733 584l-295 501h211l176 -294l174 294h211l-292 -503v-310h-185v312z" />
    <glyph glyph-name="uni24CF" unicode="&#x24cf;" 
d="M821 -18q-146 0 -279.5 57t-229.5 153t-153 229t-57 279t57 279.5t153 229.5t229.5 153t279.5 57t279.5 -57t229.5 -153t153 -229.5t57 -279.5t-57 -279t-153 -229t-229.5 -153t-279.5 -57zM821 41q134 0 256.5 52.5t211 141t140.5 210.5t52 255q0 180 -88 332
t-240.5 240.5t-331.5 87.5q-134 -1 -255.5 -53t-210 -140.5t-141 -210.5t-52.5 -256q0 -133 52.5 -255t141 -210.5t210.5 -141t255 -52.5zM868 926h-321v184h667l-440 -631h397v-182h-751z" />
    <glyph glyph-name="uni24D0" unicode="&#x24d0;" 
d="M821 -18q-146 0 -279.5 57t-229.5 153t-153 229t-57 279t57 279.5t153 229.5t229.5 153t279.5 57t279.5 -57t229.5 -153t153 -229.5t57 -279.5t-57 -279t-153 -229t-229.5 -153t-279.5 -57zM821 41q134 0 256.5 52.5t211 141t140.5 210.5t52 255q0 180 -88 332
t-240.5 240.5t-331.5 87.5q-134 -1 -255.5 -53t-210 -140.5t-141 -210.5t-52.5 -256q0 -133 52.5 -255t141 -210.5t210.5 -141t255 -52.5zM819 375q-137 0 -232 95.5t-95 231.5q0 135 95.5 231.5t231.5 96.5q135 0 231.5 -96.5t96.5 -231.5v-333h-174v71q-59 -65 -154 -65z
M819 549q63 0 108.5 44.5t45.5 108.5q0 63 -45.5 108.5t-108.5 45.5q-64 0 -109.5 -45.5t-45.5 -108.5q0 -64 45 -108.5t110 -44.5z" />
    <glyph glyph-name="uni24D1" unicode="&#x24d1;" 
d="M821 -18q-146 0 -279.5 57t-229.5 153t-153 229t-57 279t57 279.5t153 229.5t229.5 153t279.5 57t279.5 -57t229.5 -153t153 -229.5t57 -279.5t-57 -279t-153 -229t-229.5 -153t-279.5 -57zM821 41q134 0 256.5 52.5t211 141t140.5 210.5t52 255q0 180 -88 332
t-240.5 240.5t-331.5 87.5q-134 -1 -255.5 -53t-210 -140.5t-141 -210.5t-52.5 -256q0 -133 52.5 -255t141 -210.5t210.5 -141t255 -52.5zM829 961q137 0 233.5 -96.5t96.5 -233.5t-96.5 -233.5t-233.5 -96.5q-136 0 -232.5 96.5t-96.5 233.5v520h174v-258q61 68 155 68z
M829 477q65 0 110.5 45t45.5 109t-45.5 109.5t-110.5 45.5t-110 -45t-45 -110q0 -64 45 -109t110 -45z" />
    <glyph glyph-name="uni24D2" unicode="&#x24d2;" 
d="M821 -18q-146 0 -279.5 57t-229.5 153t-153 229t-57 279t57 279.5t153 229.5t229.5 153t279.5 57t279.5 -57t229.5 -153t153 -229.5t57 -279.5t-57 -279t-153 -229t-229.5 -153t-279.5 -57zM821 41q134 0 256.5 52.5t211 141t140.5 210.5t52 255q0 180 -88 332
t-240.5 240.5t-331.5 87.5q-134 -1 -255.5 -53t-210 -140.5t-141 -210.5t-52.5 -256q0 -133 52.5 -255t141 -210.5t210.5 -141t255 -52.5zM823 332q-145 0 -248.5 107.5t-103.5 256.5q0 84 31 154.5t82 115t113 69t126 24.5q106 0 196.5 -57.5t121.5 -145.5l-152 -90
q-20 51 -65.5 82t-96.5 31q-71 0 -123.5 -50t-52.5 -133q0 -77 51.5 -129.5t124.5 -52.5q53 0 98 30t64 79l152 -86q-30 -90 -120.5 -147.5t-197.5 -57.5z" />
    <glyph glyph-name="uni24D3" unicode="&#x24d3;" 
d="M821 -18q-146 0 -279.5 57t-229.5 153t-153 229t-57 279t57 279.5t153 229.5t229.5 153t279.5 57t279.5 -57t229.5 -153t153 -229.5t57 -279.5t-57 -279t-153 -229t-229.5 -153t-279.5 -57zM821 41q134 0 256.5 52.5t211 141t140.5 210.5t52 255q0 180 -88 332
t-240.5 240.5t-331.5 87.5q-134 -1 -255.5 -53t-210 -140.5t-141 -210.5t-52.5 -256q0 -133 52.5 -255t141 -210.5t210.5 -141t255 -52.5zM784 295q-135 0 -231 97t-96 235q0 135 96 232t231 97q96 0 158 -69v258h174v-524q0 -46 20.5 -71.5t45.5 -25.5v-209q-59 0 -99 15.5
t-71 66.5q-85 -102 -228 -102zM784 471q66 0 112 45.5t46 110.5q0 64 -46 108.5t-112 44.5q-63 0 -108 -44.5t-45 -108.5t45 -110t108 -46z" />
    <glyph glyph-name="uni24D4" unicode="&#x24d4;" 
d="M821 -18q-146 0 -279.5 57t-229.5 153t-153 229t-57 279t57 279.5t153 229.5t229.5 153t279.5 57t279.5 -57t229.5 -153t153 -229.5t57 -279.5t-57 -279t-153 -229t-229.5 -153t-279.5 -57zM821 41q134 0 256.5 52.5t211 141t140.5 210.5t52 255q0 180 -88 332
t-240.5 240.5t-331.5 87.5q-134 -1 -255.5 -53t-210 -140.5t-141 -210.5t-52.5 -256q0 -133 52.5 -255t141 -210.5t210.5 -141t255 -52.5zM815 367q-139 0 -230 101t-91 232q0 86 34.5 160t105.5 122t165 48q105 0 184 -51.5t112 -145.5t3 -210h-414q6 -41 48.5 -71
t98.5 -30q35 -2 78.5 11.5t57.5 33.5l131 -102q-88 -98 -283 -98zM928 772q5 35 -27 70t-96 35q-57 0 -89 -32.5t-32 -72.5h244z" />
    <glyph glyph-name="uni24D5" unicode="&#x24d5;" 
d="M821 -18q-146 0 -279.5 57t-229.5 153t-153 229t-57 279t57 279.5t153 229.5t229.5 153t279.5 57t279.5 -57t229.5 -153t153 -229.5t57 -279.5t-57 -279t-153 -229t-229.5 -153t-279.5 -57zM821 41q134 0 256.5 52.5t211 141t140.5 210.5t52 255q0 180 -88 332
t-240.5 240.5t-331.5 87.5q-134 -1 -255.5 -53t-210 -140.5t-141 -210.5t-52.5 -256q0 -133 52.5 -255t141 -210.5t210.5 -141t255 -52.5zM674 713h-76v174h76q0 56 20.5 106t65 90t115.5 47.5t172 -20.5l-35 -160q-63 25 -115.5 7t-52.5 -70h170v-174h-166v-461h-174v461z
" />
    <glyph glyph-name="uni24D6" unicode="&#x24d6;" 
d="M821 -18q-146 0 -279.5 57t-229.5 153t-153 229t-57 279t57 279.5t153 229.5t229.5 153t279.5 57t279.5 -57t229.5 -153t153 -229.5t57 -279.5t-57 -279t-153 -229t-229.5 -153t-279.5 -57zM821 41q134 0 256.5 52.5t211 141t140.5 210.5t52 255q0 180 -88 332
t-240.5 240.5t-331.5 87.5q-134 -1 -255.5 -53t-210 -140.5t-141 -210.5t-52.5 -256q0 -133 52.5 -255t141 -210.5t210.5 -141t255 -52.5zM815 1112q135 0 231.5 -97.5t96.5 -234.5v-311q0 -146 -95 -237t-235 -91v176q65 0 110.5 38t45.5 108v55q-57 -67 -154 -67
q-138 0 -235 96t-97 233t97 234.5t235 97.5zM815 627q63 0 108.5 44.5t45.5 108.5q0 66 -45.5 111t-108.5 45q-65 0 -111.5 -45.5t-46.5 -110.5q0 -64 46.5 -108.5t111.5 -44.5z" />
    <glyph glyph-name="uni24D7" unicode="&#x24d7;" 
d="M821 -18q-146 0 -279.5 57t-229.5 153t-153 229t-57 279t57 279.5t153 229.5t229.5 153t279.5 57t279.5 -57t229.5 -153t153 -229.5t57 -279.5t-57 -279t-153 -229t-229.5 -153t-279.5 -57zM821 41q134 0 256.5 52.5t211 141t140.5 210.5t52 255q0 180 -88 332
t-240.5 240.5t-331.5 87.5q-134 -1 -255.5 -53t-210 -140.5t-141 -210.5t-52.5 -256q0 -133 52.5 -255t141 -210.5t210.5 -141t255 -52.5zM825 944q134 0 225 -91t91 -230v-326h-172v326q0 66 -40.5 105.5t-103.5 39.5q-64 0 -103.5 -39t-39.5 -106v-326h-174v827h174v-235
q52 55 143 55z" />
    <glyph glyph-name="uni24D8" unicode="&#x24d8;" 
d="M821 -18q-146 0 -279.5 57t-229.5 153t-153 229t-57 279t57 279.5t153 229.5t229.5 153t279.5 57t279.5 -57t229.5 -153t153 -229.5t57 -279.5t-57 -279t-153 -229t-229.5 -153t-279.5 -57zM821 41q134 0 256.5 52.5t211 141t140.5 210.5t52 255q0 180 -88 332
t-240.5 240.5t-331.5 87.5q-134 -1 -255.5 -53t-210 -140.5t-141 -210.5t-52.5 -256q0 -133 52.5 -255t141 -210.5t210.5 -141t255 -52.5zM817 958q-36 0 -63 28.5t-27 64.5q0 37 26.5 63.5t63.5 26.5q38 0 65 -26.5t27 -63.5q0 -36 -27.5 -64.5t-64.5 -28.5zM735 903h168
v-635h-168v635z" />
    <glyph glyph-name="uni24D9" unicode="&#x24d9;" 
d="M821 -18q-146 0 -279.5 57t-229.5 153t-153 229t-57 279t57 279.5t153 229.5t229.5 153t279.5 57t279.5 -57t229.5 -153t153 -229.5t57 -279.5t-57 -279t-153 -229t-229.5 -153t-279.5 -57zM821 41q134 0 256.5 52.5t211 141t140.5 210.5t52 255q0 180 -88 332
t-240.5 240.5t-331.5 87.5q-134 -1 -255.5 -53t-210 -140.5t-141 -210.5t-52.5 -256q0 -133 52.5 -255t141 -210.5t210.5 -141t255 -52.5zM836 1071q-38 0 -65.5 28t-27.5 64q0 38 27.5 65t65.5 27t65 -27t27 -65q0 -36 -27 -64t-65 -28zM645 344q54 0 81.5 36.5t27.5 100.5
v512h174v-512q0 -132 -78 -221.5t-205 -89.5v174z" />
    <glyph glyph-name="uni24DA" unicode="&#x24da;" 
d="M821 -18q-146 0 -279.5 57t-229.5 153t-153 229t-57 279t57 279.5t153 229.5t229.5 153t279.5 57t279.5 -57t229.5 -153t153 -229.5t57 -279.5t-57 -279t-153 -229t-229.5 -153t-279.5 -57zM821 41q134 0 256.5 52.5t211 141t140.5 210.5t52 255q0 180 -88 332
t-240.5 240.5t-331.5 87.5q-134 -1 -255.5 -53t-210 -140.5t-141 -210.5t-52.5 -256q0 -133 52.5 -255t141 -210.5t210.5 -141t255 -52.5zM1137 272h-213l-185 238l-55 -37v-201h-174v600q0 119 72 205.5t202 85.5v-174q-45 0 -72.5 -32.5t-27.5 -84.5v-186l190 221h203
l-217 -268z" />
    <glyph glyph-name="uni24DB" unicode="&#x24db;" 
d="M821 -18q-146 0 -279.5 57t-229.5 153t-153 229t-57 279t57 279.5t153 229.5t229.5 153t279.5 57t279.5 -57t229.5 -153t153 -229.5t57 -279.5t-57 -279t-153 -229t-229.5 -153t-279.5 -57zM821 41q134 0 256.5 52.5t211 141t140.5 210.5t52 255q0 180 -88 332
t-240.5 240.5t-331.5 87.5q-134 -1 -255.5 -53t-210 -140.5t-141 -210.5t-52.5 -256q0 -133 52.5 -255t141 -210.5t210.5 -141t255 -52.5zM952 242q-120 0 -196 82t-76 208v574h176v-569q0 -51 26 -83t70 -32v-180z" />
    <glyph glyph-name="uni24DC" unicode="&#x24dc;" 
d="M821 -18q-146 0 -279.5 57t-229.5 153t-153 229t-57 279t57 279.5t153 229.5t229.5 153t279.5 57t279.5 -57t229.5 -153t153 -229.5t57 -279.5t-57 -279t-153 -229t-229.5 -153t-279.5 -57zM821 41q134 0 256.5 52.5t211 141t140.5 210.5t52 255q0 180 -88 332
t-240.5 240.5t-331.5 87.5q-134 -1 -255.5 -53t-210 -140.5t-141 -210.5t-52.5 -256q0 -133 52.5 -255t141 -210.5t210.5 -141t255 -52.5zM1012 1028q131 0 198.5 -82.5t67.5 -230.5v-334h-174v334q0 68 -21 103.5t-71 35.5q-51 0 -72.5 -35t-21.5 -104v-334h-177v334
q0 68 -21 103.5t-71 35.5q-51 0 -72.5 -35t-21.5 -104v-334h-174v334q0 148 68 230.5t200 82.5q120 0 180 -78q60 78 183 78z" />
    <glyph glyph-name="uni24DD" unicode="&#x24dd;" 
d="M821 -18q-146 0 -279.5 57t-229.5 153t-153 229t-57 279t57 279.5t153 229.5t229.5 153t279.5 57t279.5 -57t229.5 -153t153 -229.5t57 -279.5t-57 -279t-153 -229t-229.5 -153t-279.5 -57zM821 41q134 0 256.5 52.5t211 141t140.5 210.5t52 255q0 180 -88 332
t-240.5 240.5t-331.5 87.5q-134 -1 -255.5 -53t-210 -140.5t-141 -210.5t-52.5 -256q0 -133 52.5 -255t141 -210.5t210.5 -141t255 -52.5zM504 715q0 139 90.5 229t226.5 90q135 0 225.5 -90.5t90.5 -228.5v-326h-172v326q0 68 -40 107.5t-104 39.5t-103.5 -40t-39.5 -107
v-326h-174v326z" />
    <glyph glyph-name="uni24DE" unicode="&#x24de;" 
d="M821 -18q-146 0 -279.5 57t-229.5 153t-153 229t-57 279t57 279.5t153 229.5t229.5 153t279.5 57t279.5 -57t229.5 -153t153 -229.5t57 -279.5t-57 -279t-153 -229t-229.5 -153t-279.5 -57zM821 41q134 0 256.5 52.5t211 141t140.5 210.5t52 255q0 180 -88 332
t-240.5 240.5t-331.5 87.5q-134 -1 -255.5 -53t-210 -140.5t-141 -210.5t-52.5 -256q0 -133 52.5 -255t141 -210.5t210.5 -141t255 -52.5zM823 346q-142 0 -244 99.5t-102 250.5q0 152 104 252.5t242 100.5q144 0 245 -99.5t101 -253.5q0 -151 -101 -250.5t-245 -99.5z
M823 520q77 0 125.5 52.5t48.5 123.5q0 72 -48.5 125t-125.5 53q-75 0 -123.5 -53t-48.5 -125q0 -70 48.5 -123t123.5 -53z" />
    <glyph glyph-name="uni24DF" unicode="&#x24df;" 
d="M821 -18q-146 0 -279.5 57t-229.5 153t-153 229t-57 279t57 279.5t153 229.5t229.5 153t279.5 57t279.5 -57t229.5 -153t153 -229.5t57 -279.5t-57 -279t-153 -229t-229.5 -153t-279.5 -57zM821 41q134 0 256.5 52.5t211 141t140.5 210.5t52 255q0 180 -88 332
t-240.5 240.5t-331.5 87.5q-134 -1 -255.5 -53t-210 -140.5t-141 -210.5t-52.5 -256q0 -133 52.5 -255t141 -210.5t210.5 -141t255 -52.5zM829 375q-95 0 -157 69v-260h-172v521q0 137 95.5 233t233.5 96q135 0 231.5 -96.5t96.5 -232.5q0 -135 -96.5 -232.5t-231.5 -97.5z
M829 860q-65 0 -111 -45.5t-46 -109.5t46 -110t111 -46q63 0 108.5 46t45.5 110t-45.5 109.5t-108.5 45.5z" />
    <glyph glyph-name="uni24E0" unicode="&#x24e0;" 
d="M821 -18q-146 0 -279.5 57t-229.5 153t-153 229t-57 279t57 279.5t153 229.5t229.5 153t279.5 57t279.5 -57t229.5 -153t153 -229.5t57 -279.5t-57 -279t-153 -229t-229.5 -153t-279.5 -57zM821 41q134 0 256.5 52.5t211 141t140.5 210.5t52 255q0 180 -88 332
t-240.5 240.5t-331.5 87.5q-134 -1 -255.5 -53t-210 -140.5t-141 -210.5t-52.5 -256q0 -133 52.5 -255t141 -210.5t210.5 -141t255 -52.5zM807 373q-135 0 -231.5 97t-96.5 232q0 136 96.5 233t231.5 97q138 0 234 -96.5t96 -233.5v-520h-172v260q-62 -69 -158 -69zM807 858
q-63 0 -108.5 -46t-45.5 -110t45.5 -109.5t108.5 -45.5q65 0 111.5 45.5t46.5 109.5t-46.5 110t-111.5 46z" />
    <glyph glyph-name="uni24E1" unicode="&#x24e1;" 
d="M821 -18q-146 0 -279.5 57t-229.5 153t-153 229t-57 279t57 279.5t153 229.5t229.5 153t279.5 57t279.5 -57t229.5 -153t153 -229.5t57 -279.5t-57 -279t-153 -229t-229.5 -153t-279.5 -57zM821 41q134 0 256.5 52.5t211 141t140.5 210.5t52 255q0 180 -88 332
t-240.5 240.5t-331.5 87.5q-134 -1 -255.5 -53t-210 -140.5t-141 -210.5t-52.5 -256q0 -133 52.5 -255t141 -210.5t210.5 -141t255 -52.5zM651 999h164v-73q20 39 75.5 57t119.5 16v-176q-72 14 -129.5 -28t-57.5 -115v-318h-172v637z" />
    <glyph glyph-name="uni24E2" unicode="&#x24e2;" 
d="M821 -18q-146 0 -279.5 57t-229.5 153t-153 229t-57 279t57 279.5t153 229.5t229.5 153t279.5 57t279.5 -57t229.5 -153t153 -229.5t57 -279.5t-57 -279t-153 -229t-229.5 -153t-279.5 -57zM821 41q134 0 256.5 52.5t211 141t140.5 210.5t52 255q0 180 -88 332
t-240.5 240.5t-331.5 87.5q-134 -1 -255.5 -53t-210 -140.5t-141 -210.5t-52.5 -256q0 -133 52.5 -255t141 -210.5t210.5 -141t255 -52.5zM575 588q71 -42 154 -64.5t143 -13t60 56.5q0 22 -43 38t-103.5 31t-120 37.5t-99 69.5t-34.5 115q5 77 61.5 125t138 59.5t181 -11.5
t185.5 -79l-70 -121q-59 46 -134 63t-126.5 2.5t-52.5 -50.5q-1 -18 28 -33.5t73 -26.5t96 -28.5t96.5 -38.5t74 -59t29.5 -87q0 -76 -43.5 -130t-119.5 -77.5t-190.5 -5t-244.5 83.5z" />
    <glyph glyph-name="uni24E3" unicode="&#x24e3;" 
d="M821 -18q-146 0 -279.5 57t-229.5 153t-153 229t-57 279t57 279.5t153 229.5t229.5 153t279.5 57t279.5 -57t229.5 -153t153 -229.5t57 -279.5t-57 -279t-153 -229t-229.5 -153t-279.5 -57zM821 41q134 0 256.5 52.5t211 141t140.5 210.5t52 255q0 180 -88 332
t-240.5 240.5t-331.5 87.5q-134 -1 -255.5 -53t-210 -140.5t-141 -210.5t-52.5 -256q0 -133 52.5 -255t141 -210.5t210.5 -141t255 -52.5zM1028 287q-50 -8 -101 -9t-99 15.5t-85.5 44t-60.5 77t-23 113.5v271h-63v172h63v139h185v-139h164v-172h-164v-215q0 -44 16.5 -71.5
t42.5 -37t59 -12t66 3.5v-180z" />
    <glyph glyph-name="uni24E4" unicode="&#x24e4;" 
d="M821 -18q-146 0 -279.5 57t-229.5 153t-153 229t-57 279t57 279.5t153 229.5t229.5 153t279.5 57t279.5 -57t229.5 -153t153 -229.5t57 -279.5t-57 -279t-153 -229t-229.5 -153t-279.5 -57zM821 41q134 0 256.5 52.5t211 141t140.5 210.5t52 255q0 180 -88 332
t-240.5 240.5t-331.5 87.5q-134 -1 -255.5 -53t-210 -140.5t-141 -210.5t-52.5 -256q0 -133 52.5 -255t141 -210.5t210.5 -141t255 -52.5zM821 346q-136 0 -226.5 90.5t-90.5 229.5v327h174v-327q0 -64 40 -105t103 -41q62 0 103 40.5t41 105.5v327h172v-327
q0 -138 -90.5 -229t-225.5 -91z" />
    <glyph glyph-name="uni24E5" unicode="&#x24e5;" 
d="M821 -18q-146 0 -279.5 57t-229.5 153t-153 229t-57 279t57 279.5t153 229.5t229.5 153t279.5 57t279.5 -57t229.5 -153t153 -229.5t57 -279.5t-57 -279t-153 -229t-229.5 -153t-279.5 -57zM821 41q134 0 256.5 52.5t211 141t140.5 210.5t52 255q0 180 -88 332
t-240.5 240.5t-331.5 87.5q-134 -1 -255.5 -53t-210 -140.5t-141 -210.5t-52.5 -256q0 -133 52.5 -255t141 -210.5t210.5 -141t255 -52.5zM819 377l-356 637h201l155 -283l156 283h201z" />
    <glyph glyph-name="uni24E6" unicode="&#x24e6;" 
d="M821 1419q146 0 279.5 -57t229.5 -153t153 -229.5t57 -279.5t-57 -279t-153 -229t-229.5 -153t-279.5 -57t-279.5 57t-229.5 153t-153 229t-57 279t57 279.5t153 229.5t229.5 153t279.5 57zM821 1360q-199 -1 -362 -109.5t-240 -283.5h191l155 -283l156 283h201l155 -283
l156 283h192q-78 178 -241 286t-363 107zM821 41q134 0 256.5 52.5t211 141t140.5 210.5t52 255q0 135 -54 258l-350 -626l-254 461l-258 -461l-350 624q-53 -125 -53 -256q0 -133 52.5 -255t141 -210.5t210.5 -141t255 -52.5z" />
    <glyph glyph-name="uni24E7" unicode="&#x24e7;" 
d="M821 -18q-146 0 -279.5 57t-229.5 153t-153 229t-57 279t57 279.5t153 229.5t229.5 153t279.5 57t279.5 -57t229.5 -153t153 -229.5t57 -279.5t-57 -279t-153 -229t-229.5 -153t-279.5 -57zM821 41q134 0 256.5 52.5t211 141t140.5 210.5t52 255q0 180 -88 332
t-240.5 240.5t-331.5 87.5q-134 -1 -255.5 -53t-210 -140.5t-141 -210.5t-52.5 -256q0 -133 52.5 -255t141 -210.5t210.5 -141t255 -52.5zM467 375l242 332l-238 337h217l127 -186l127 186h217l-237 -327l241 -342h-213l-135 186l-133 -186h-215z" />
    <glyph glyph-name="uni24E8" unicode="&#x24e8;" 
d="M821 -18q-146 0 -279.5 57t-229.5 153t-153 229t-57 279t57 279.5t153 229.5t229.5 153t279.5 57t279.5 -57t229.5 -153t153 -229.5t57 -279.5t-57 -279t-153 -229t-229.5 -153t-279.5 -57zM821 41q134 0 256.5 52.5t211 141t140.5 210.5t52 255q0 180 -88 332
t-240.5 240.5t-331.5 87.5q-134 -1 -255.5 -53t-210 -140.5t-141 -210.5t-52.5 -256q0 -133 52.5 -255t141 -210.5t210.5 -141t255 -52.5zM543 307q51 -10 93 2.5t63.5 40t29 62.5t-11.5 69l-228 561h183l168 -403l166 403h184l-260 -636q-16 -34 -30.5 -61.5t-33 -56.5
t-36.5 -50t-42 -42t-49 -32t-56 -21t-65 -9t-75 5v168z" />
    <glyph glyph-name="uni24E9" unicode="&#x24e9;" 
d="M821 -18q-146 0 -279.5 57t-229.5 153t-153 229t-57 279t57 279.5t153 229.5t229.5 153t279.5 57t279.5 -57t229.5 -153t153 -229.5t57 -279.5t-57 -279t-153 -229t-229.5 -153t-279.5 -57zM821 41q134 0 256.5 52.5t211 141t140.5 210.5t52 255q0 180 -88 332
t-240.5 240.5t-331.5 87.5q-134 -1 -255.5 -53t-210 -140.5t-141 -210.5t-52.5 -256q0 -133 52.5 -255t141 -210.5t210.5 -141t255 -52.5zM809 844h-262v174h627l-371 -461h321v-174h-680z" />
    <glyph glyph-name="uni24EA" unicode="&#x24ea;" horiz-adv-x="1761" 
d="M881 -20q-146 0 -278.5 57t-228.5 152.5t-153 228.5t-57 278q0 146 57 279t153 229t228.5 152.5t278.5 56.5q195 0 360 -96t260.5 -261t95.5 -360q0 -194 -95.5 -359t-260.5 -261t-360 -96zM881 35q135 0 257.5 52.5t211 141t140.5 210.5t52 257q0 181 -88 333
t-240.5 240t-332.5 87t-331.5 -88.5t-240 -239.5t-88.5 -332q0 -134 52 -256.5t140.5 -211t211 -141t256.5 -52.5zM881 203q-120 0 -212.5 67.5t-141 179t-48.5 246.5q0 136 48.5 248t141 180t212.5 68t212.5 -68t140.5 -180t48 -248q0 -135 -48 -246.5t-140.5 -179
t-212.5 -67.5zM881 393q91 0 138.5 86t47.5 217t-47.5 217t-138.5 86t-139 -86t-48 -217t48 -217t139 -86z" />
    <glyph glyph-name="uni24FF" unicode="&#x24ff;" horiz-adv-x="1761" 
d="M881 -20q-146 0 -279 57t-229 152.5t-152.5 228t-56.5 278.5t56.5 279t152.5 229t229 152.5t279 56.5q195 0 360 -96t260.5 -261t95.5 -360q0 -194 -95.5 -359t-260.5 -261t-360 -96zM881 205q120 0 212.5 67t140.5 178.5t48 247.5q0 135 -48 246.5t-140.5 179.5
t-212.5 68t-212.5 -68t-141 -179.5t-48.5 -246.5t48.5 -247t141 -179t212.5 -67zM881 395q-91 0 -140 85.5t-49 217.5q0 129 49 216t140 87q61 0 104 -42.5t62.5 -109.5t19.5 -151q0 -132 -47.5 -217.5t-138.5 -85.5z" />
    <glyph glyph-name="lozenge" unicode="&#x25ca;" horiz-adv-x="1087" 
d="M408 43l-342 657l342 660h272l342 -660l-342 -657h-272zM543 305l205 395l-205 398l-205 -398z" />
    <glyph glyph-name="uni2776" unicode="&#x2776;" horiz-adv-x="1761" 
d="M881 -20q-146 0 -278.5 57t-228.5 152.5t-153 228.5t-57 278q0 146 57 279t153 229t228.5 152.5t278.5 56.5q195 0 360 -96t260.5 -261t95.5 -360q0 -194 -95.5 -359t-260.5 -261t-360 -96zM786 227h203v906h-352v-168h149v-738z" />
    <glyph glyph-name="uni2777" unicode="&#x2777;" horiz-adv-x="1761" 
d="M881 -20q-146 0 -278.5 57t-228.5 152.5t-153 228.5t-57 278q0 146 57 279t153 229t228.5 152.5t278.5 56.5q195 0 360 -96t260.5 -261t95.5 -360q0 -194 -95.5 -359t-260.5 -261t-360 -96zM539 225h657v170h-448q0 38 25.5 68t67 52t91 44t99 51t91 65t67 93.5
t25.5 130.5q0 139 -94 216t-233 77q-135 0 -231.5 -72.5t-116.5 -195.5l180 -56q15 58 57.5 99t106.5 41q71 0 105 -35t34 -88q0 -42 -21 -75t-55 -54t-77.5 -43t-89 -40.5t-89 -48.5t-77.5 -66t-55 -93t-21 -129z" />
    <glyph glyph-name="uni2778" unicode="&#x2778;" horiz-adv-x="1761" 
d="M881 -20q-146 0 -278.5 57t-228.5 152.5t-153 228.5t-57 278q0 146 57 279t153 229t228.5 152.5t278.5 56.5q195 0 360 -96t260.5 -261t95.5 -360q0 -194 -95.5 -359t-260.5 -261t-360 -96zM889 215q173 0 269.5 89t96.5 218q0 130 -87 208t-216 73l250 203v143h-624
v-168h346l-254 -211l102 -137q30 21 76.5 23.5t88 -10.5t71.5 -41t30 -62q0 -62 -48 -97.5t-126 -35.5q-151 0 -256 94l-102 -172q163 -117 383 -117z" />
    <glyph glyph-name="uni2779" unicode="&#x2779;" horiz-adv-x="1761" 
d="M881 -20q-146 0 -278.5 57t-228.5 152.5t-153 228.5t-57 278q0 146 57 279t153 229t228.5 152.5t278.5 56.5q195 0 360 -96t260.5 -261t95.5 -360q0 -194 -95.5 -359t-260.5 -261t-360 -96zM903 248h193v188h131v170h-131v293h-187v-293h-231l305 553h-221l-307 -553
v-170h448v-188z" />
    <glyph glyph-name="uni277A" unicode="&#x277a;" horiz-adv-x="1761" 
d="M881 -20q-146 0 -278.5 57t-228.5 152.5t-153 228.5t-57 278q0 146 57 279t153 229t228.5 152.5t278.5 56.5q195 0 360 -96t260.5 -261t95.5 -360q0 -194 -95.5 -359t-260.5 -261t-360 -96zM864 215q173 0 283 81.5t110 223.5q0 130 -78.5 206.5t-234.5 76.5h-141v182
h395v168h-600v-516h250q99 0 144.5 -34t45.5 -87q0 -51 -49 -80.5t-131 -29.5q-139 0 -244 63l-90 -170q142 -84 340 -84z" />
    <glyph glyph-name="uni277B" unicode="&#x277b;" horiz-adv-x="1761" 
d="M881 -20q-146 0 -278.5 57t-228.5 152.5t-153 228.5t-57 278q0 146 57 279t153 229t228.5 152.5t278.5 56.5q195 0 360 -96t260.5 -261t95.5 -360q0 -194 -95.5 -359t-260.5 -261t-360 -96zM877 240q157 0 266.5 109.5t111.5 266.5q2 148 -95 251t-257 100l168 239h-242
l-239 -344q-90 -132 -90 -246q0 -156 110.5 -266t266.5 -110zM877 446q-67 0 -117.5 49.5t-50.5 120.5q0 32 16 67.5t43 59.5q44 41 111 41q74 0 119.5 -52t45.5 -116q0 -70 -49 -120t-118 -50z" />
    <glyph glyph-name="uni277C" unicode="&#x277c;" horiz-adv-x="1761" 
d="M881 -20q-146 0 -278.5 57t-228.5 152.5t-153 228.5t-57 278q0 146 57 279t153 229t228.5 152.5t278.5 56.5q195 0 360 -96t260.5 -261t95.5 -360q0 -194 -95.5 -359t-260.5 -261t-360 -96zM596 223h240l397 778v138h-688v-181h440z" />
    <glyph glyph-name="uni277D" unicode="&#x277d;" horiz-adv-x="1761" 
d="M881 -20q-146 0 -278.5 57t-228.5 152.5t-153 228.5t-57 278q0 146 57 279t153 229t228.5 152.5t278.5 56.5q195 0 360 -96t260.5 -261t95.5 -360q0 -194 -95.5 -359t-260.5 -261t-360 -96zM879 229q166 0 272 76t106 205q0 76 -45 135t-112 84q58 28 90.5 78.5
t32.5 114.5q0 76 -51 136.5t-129 92t-164 31.5t-164 -31.5t-129 -92t-51 -136.5q0 -63 33 -113.5t87 -79.5q-64 -25 -110.5 -84.5t-46.5 -134.5q0 -129 107 -205t274 -76zM879 799q-60 0 -100 34t-40 85q0 50 40 84t100 34q58 1 97.5 -33.5t39.5 -84.5q0 -51 -39 -85
t-98 -34zM879 379q-71 0 -118.5 41t-47.5 96q0 58 47.5 97.5t118.5 39.5q69 0 116 -40t47 -97q0 -55 -47.5 -96t-115.5 -41z" />
    <glyph glyph-name="uni277E" unicode="&#x277e;" horiz-adv-x="1761" 
d="M881 -20q-146 0 -278.5 57t-228.5 152.5t-153 228.5t-57 278q0 146 57 279t153 229t228.5 152.5t278.5 56.5q195 0 360 -96t260.5 -261t95.5 -360q0 -194 -95.5 -359t-260.5 -261t-360 -96zM692 186h242l237 344q93 131 93 246q0 156 -111.5 266.5t-267.5 110.5
q-102 0 -189 -50.5t-138 -137t-52 -189.5q0 -149 96 -251t256 -99zM885 608q-74 0 -121 52.5t-47 115.5q0 70 50 120t118 50q67 0 117.5 -49.5t50.5 -120.5q0 -32 -15.5 -67.5t-42.5 -59.5q-47 -41 -110 -41z" />
    <glyph glyph-name="i.loclTRK" horiz-adv-x="389" 
d="M197 1217q-40 0 -69.5 29t-29.5 69t29.5 69t69.5 29t68 -29t28 -69t-28 -69t-68 -29zM55 0v1120h279v-1120h-279z" />
    <glyph glyph-name="a.ss05" horiz-adv-x="1351" 
d="M1350 281v-295q-116 0 -180 47.5t-99 132.5q-72 -91 -179.5 -140t-234.5 -49q-115 0 -220.5 45t-182 121.5t-121.5 182t-45 221.5q0 154 76.5 285t207.5 207.5t285 76.5t285.5 -76.5t208 -207.5t76.5 -285v-62q0 -90 31 -147t92 -57zM657 264q117 0 200 82.5t83 200.5
q0 117 -83 199.5t-200 82.5t-199.5 -82.5t-82.5 -199.5q0 -118 82.5 -200.5t199.5 -82.5z" />
    <glyph glyph-name="aacute.ss05" horiz-adv-x="1355" 
d="M618 1225l109 276h227l-217 -276h-119zM1350 281v-295q-116 0 -180 47.5t-99 132.5q-72 -91 -179.5 -140t-234.5 -49q-115 0 -220.5 45t-182 121.5t-121.5 182t-45 221.5q0 154 76.5 285t207.5 207.5t285 76.5t285.5 -76.5t208 -207.5t76.5 -285v-62q0 -90 31 -147
t92 -57zM657 264q117 0 200 82.5t83 200.5q0 117 -83 199.5t-200 82.5t-199.5 -82.5t-82.5 -199.5q0 -118 82.5 -200.5t199.5 -82.5z" />
    <glyph glyph-name="abreve.ss05" horiz-adv-x="1355" 
d="M659 1204q-110 0 -176.5 55t-66.5 146h149q0 -39 25.5 -60.5t68.5 -21.5q44 0 68.5 21t24.5 61h151q0 -91 -67 -146t-177 -55zM1350 281v-295q-116 0 -180 47.5t-99 132.5q-72 -91 -179.5 -140t-234.5 -49q-115 0 -220.5 45t-182 121.5t-121.5 182t-45 221.5
q0 154 76.5 285t207.5 207.5t285 76.5t285.5 -76.5t208 -207.5t76.5 -285v-62q0 -90 31 -147t92 -57zM657 264q117 0 200 82.5t83 200.5q0 117 -83 199.5t-200 82.5t-199.5 -82.5t-82.5 -199.5q0 -118 82.5 -200.5t199.5 -82.5z" />
    <glyph glyph-name="acircumflex.ss05" horiz-adv-x="1355" 
d="M432 1245l164 262h129l164 -262h-131l-99 158l-96 -158h-131zM1350 281v-295q-116 0 -180 47.5t-99 132.5q-72 -91 -179.5 -140t-234.5 -49q-115 0 -220.5 45t-182 121.5t-121.5 182t-45 221.5q0 154 76.5 285t207.5 207.5t285 76.5t285.5 -76.5t208 -207.5t76.5 -285
v-62q0 -90 31 -147t92 -57zM657 264q117 0 200 82.5t83 200.5q0 117 -83 199.5t-200 82.5t-199.5 -82.5t-82.5 -199.5q0 -118 82.5 -200.5t199.5 -82.5z" />
    <glyph glyph-name="adieresis.ss05" horiz-adv-x="1355" 
d="M494 1223q-40 0 -69.5 29t-29.5 69q0 39 29.5 67.5t69.5 28.5t69 -28t29 -68t-29 -69t-69 -29zM827 1223q-40 0 -69 29t-29 69t29 68t69 28t69.5 -28.5t29.5 -67.5q0 -40 -29.5 -69t-69.5 -29zM1350 281v-295q-116 0 -180 47.5t-99 132.5q-72 -91 -179.5 -140t-234.5 -49
q-115 0 -220.5 45t-182 121.5t-121.5 182t-45 221.5q0 154 76.5 285t207.5 207.5t285 76.5t285.5 -76.5t208 -207.5t76.5 -285v-62q0 -90 31 -147t92 -57zM657 264q117 0 200 82.5t83 200.5q0 117 -83 199.5t-200 82.5t-199.5 -82.5t-82.5 -199.5q0 -118 82.5 -200.5
t199.5 -82.5z" />
    <glyph glyph-name="agrave.ss05" horiz-adv-x="1355" 
d="M635 1219l-219 276h229l107 -276h-117zM1350 281v-295q-116 0 -180 47.5t-99 132.5q-72 -91 -179.5 -140t-234.5 -49q-115 0 -220.5 45t-182 121.5t-121.5 182t-45 221.5q0 154 76.5 285t207.5 207.5t285 76.5t285.5 -76.5t208 -207.5t76.5 -285v-62q0 -90 31 -147
t92 -57zM657 264q117 0 200 82.5t83 200.5q0 117 -83 199.5t-200 82.5t-199.5 -82.5t-82.5 -199.5q0 -118 82.5 -200.5t199.5 -82.5z" />
    <glyph glyph-name="amacron.ss05" horiz-adv-x="1355" 
d="M420 1274v121h479v-121h-479zM1350 281v-295q-116 0 -180 47.5t-99 132.5q-72 -91 -179.5 -140t-234.5 -49q-115 0 -220.5 45t-182 121.5t-121.5 182t-45 221.5q0 154 76.5 285t207.5 207.5t285 76.5t285.5 -76.5t208 -207.5t76.5 -285v-62q0 -90 31 -147t92 -57z
M657 264q117 0 200 82.5t83 200.5q0 117 -83 199.5t-200 82.5t-199.5 -82.5t-82.5 -199.5q0 -118 82.5 -200.5t199.5 -82.5z" />
    <glyph glyph-name="aogonek.ss05" horiz-adv-x="1361" 
d="M1315 -12q-51 -34 -67.5 -74t12.5 -65.5t96 -18.5v-129q-176 -7 -215 82q-37 129 104 217q-120 35 -174 166q-72 -91 -179.5 -140t-234.5 -49q-115 0 -220.5 45t-182 121.5t-121.5 182t-45 221.5q0 154 76.5 285t207.5 207.5t285 76.5t285.5 -76.5t208 -207.5t76.5 -285
v-62q0 -90 31 -147t92 -57v-295q-23 0 -35 2zM657 264q117 0 200 82.5t83 200.5q0 117 -83 199.5t-200 82.5t-199.5 -82.5t-82.5 -199.5q0 -118 82.5 -200.5t199.5 -82.5z" />
    <glyph glyph-name="aring.ss05" horiz-adv-x="1355" 
d="M657 1241q-55 0 -97 40t-42 99q0 61 42 99.5t97 38.5q57 0 97.5 -38.5t40.5 -99.5q0 -60 -40.5 -99.5t-97.5 -39.5zM657 1313q29 0 49.5 19.5t20.5 47.5q0 29 -20.5 49.5t-49.5 20.5q-28 0 -46.5 -20.5t-18.5 -49.5q0 -28 18.5 -47.5t46.5 -19.5zM1350 281v-295
q-116 0 -180 47.5t-99 132.5q-72 -91 -179.5 -140t-234.5 -49q-115 0 -220.5 45t-182 121.5t-121.5 182t-45 221.5q0 154 76.5 285t207.5 207.5t285 76.5t285.5 -76.5t208 -207.5t76.5 -285v-62q0 -90 31 -147t92 -57zM657 264q117 0 200 82.5t83 200.5q0 117 -83 199.5
t-200 82.5t-199.5 -82.5t-82.5 -199.5q0 -118 82.5 -200.5t199.5 -82.5z" />
    <glyph glyph-name="atilde.ss05" horiz-adv-x="1355" 
d="M426 1264q0 30 0.5 45t3.5 40t10.5 38.5t19.5 28t32.5 20.5t48.5 6q24 -1 61 -13t67.5 -23.5t59.5 -18t45.5 5t16.5 45.5h116q0 -37 -0.5 -54t-6.5 -45t-17.5 -41t-34.5 -23.5t-57 -10.5q-24 1 -61 13t-67.5 23t-59.5 16.5t-45.5 -6.5t-16.5 -46h-115zM1350 281v-295
q-116 0 -180 47.5t-99 132.5q-72 -91 -179.5 -140t-234.5 -49q-115 0 -220.5 45t-182 121.5t-121.5 182t-45 221.5q0 154 76.5 285t207.5 207.5t285 76.5t285.5 -76.5t208 -207.5t76.5 -285v-62q0 -90 31 -147t92 -57zM657 264q117 0 200 82.5t83 200.5q0 117 -83 199.5
t-200 82.5t-199.5 -82.5t-82.5 -199.5q0 -118 82.5 -200.5t199.5 -82.5z" />
    <glyph glyph-name="zero.osf" horiz-adv-x="1099" 
d="M549 -25q-137 0 -243.5 78.5t-163 208t-56.5 285.5t56.5 285t163 206.5t243.5 77.5q139 0 246 -77.5t163 -206.5t56 -285t-56 -285.5t-163 -208t-246 -78.5zM549 246q91 0 140.5 85.5t49.5 215.5q0 127 -49.5 213t-140.5 86q-90 0 -139.5 -86t-49.5 -213
q0 -130 49.5 -215.5t139.5 -85.5z" />
    <glyph glyph-name="one.osf" horiz-adv-x="636" 
d="M195 0v848h-181v248h455v-1096h-274z" />
    <glyph glyph-name="two.osf" horiz-adv-x="886" 
d="M8 0l-2 123q0 73 18.5 132.5t50.5 99t73 71.5t86 54t90.5 41.5t86.5 39.5t73 43.5t50.5 57t18.5 75.5q0 58 -32.5 93.5t-102.5 35.5q-131 0 -166 -137l-244 66q25 139 142.5 228t275.5 89q107 0 197.5 -40t147 -120t56.5 -186q0 -90 -26.5 -158.5t-68.5 -109t-93 -70
t-101.5 -49t-92.5 -38.5t-68.5 -46t-26.5 -64h447v-231h-789z" />
    <glyph glyph-name="three.osf" horiz-adv-x="1150" 
d="M532 -342q-186 0 -319.5 84t-200.5 227l281 117q25 -75 87 -116.5t152 -41.5q106 0 174 66.5t66 161.5q-1 68 -41 118t-96 69t-118 12t-105 -44l-152 219l391 306h-487v260h876v-215l-333 -287q164 -37 266 -159.5t100 -278.5q-2 -137 -70.5 -250.5t-192.5 -180.5
t-278 -67z" />
    <glyph glyph-name="four.osf" horiz-adv-x="1220" 
d="M725 -299v287h-662v264l451 844h330l-451 -844h342v446h281v-446h188v-264h-188v-287h-291z" />
    <glyph glyph-name="five.osf" horiz-adv-x="1161" 
d="M535 -340q-297 0 -506 131l133 264q183 -118 360 -118q149 0 230.5 53t81.5 141q0 176 -328 176h-354v789h874v-256h-602v-275h211q126 0 219 -32t147 -91t79.5 -136t25.5 -175q0 -145 -73.5 -252.5t-202.5 -163t-295 -55.5z" />
    <glyph glyph-name="six.osf" horiz-adv-x="1173" 
d="M606 -12q-142 0 -263 69.5t-192 190.5t-71 264q0 161 127 342l375 549h327l-276 -404q152 6 267.5 -61.5t173 -179t56.5 -246.5q0 -107 -42 -204.5t-112.5 -167t-167 -111t-202.5 -41.5zM606 268q98 0 170 72t72 172q0 92 -67 167t-175 75q-38 0 -82.5 -16.5t-74.5 -43.5
q-38 -33 -61 -84.5t-23 -97.5q0 -102 72 -173t169 -71z" />
    <glyph glyph-name="seven.osf" horiz-adv-x="1107" 
d="M90 -307l594 1124h-623v279h979v-211l-608 -1192h-342z" />
    <glyph glyph-name="eight.osf" horiz-adv-x="1239" 
d="M621 -20q-157 0 -281 50.5t-196 148.5t-72 229q0 117 67 206.5t160 128.5q-78 45 -126 122.5t-48 172.5q0 116 73 209t185.5 141t237.5 48t236.5 -48t184 -141t72.5 -209q0 -98 -46 -175t-128 -120q96 -38 161.5 -127.5t65.5 -207.5q0 -131 -72 -229t-195 -148.5
t-279 -50.5zM621 850q85 0 142.5 53t57.5 129q0 74 -57.5 127t-142.5 53q-87 -1 -145 -53.5t-58 -126.5q0 -76 58 -129t145 -53zM621 211q99 0 169 63t70 146q0 86 -69.5 147.5t-169.5 61.5q-104 0 -174 -61.5t-70 -147.5q0 -84 70.5 -146.5t173.5 -62.5z" />
    <glyph glyph-name="nine.osf" horiz-adv-x="1173" 
d="M270 -313l271 397q-152 -6 -268 61.5t-174 179t-58 246.5q1 143 71.5 264t191.5 191t263 70q143 0 264.5 -70t192 -191t70.5 -264q0 -155 -127 -344l-371 -540h-326zM565 330q38 0 84 16t76 41q39 36 62.5 87.5t23.5 96.5q0 101 -73.5 172.5t-170.5 71.5
q-99 0 -170 -71.5t-71 -172.5q0 -93 66 -167t173 -74z" />
    <glyph glyph-name="zero.dnom" horiz-adv-x="851" 
d="M426 -113q-115 0 -204 65.5t-136 174t-47 238.5t47 238t136 172.5t204 64.5t204 -64.5t136 -172.5t47 -238t-47 -238.5t-136 -174t-204 -65.5zM426 63q91 0 139.5 85.5t48.5 216.5q0 128 -48.5 213.5t-139.5 85.5t-139.5 -85.5t-48.5 -213.5q0 -131 48.5 -216.5
t139.5 -85.5z" />
    <glyph glyph-name="one.dnom" horiz-adv-x="606" 
d="M297 -102v747h-147v168h350v-915h-203z" />
    <glyph glyph-name="two.dnom" horiz-adv-x="802" 
d="M45 -102l-2 108q0 82 27 144.5t70 100t94.5 66.5t103.5 51.5t95 46t70 59.5t27 83q0 51 -35 86t-106 35q-64 0 -106.5 -40t-57.5 -97l-178 55q20 122 115.5 195t230.5 73q139 0 233.5 -77t94.5 -216q0 -64 -20 -117t-52.5 -87t-74.5 -63.5t-85.5 -48.5t-85.5 -40.5
t-74.5 -40.5t-52.5 -46.5t-20 -61.5h446v-168h-657z" />
    <glyph glyph-name="three.dnom" horiz-adv-x="854" 
d="M403 -113q-130 0 -223 56.5t-139 152.5l199 78q15 -50 57.5 -77t105.5 -27q72 0 118 44t44 107q0 45 -27.5 79t-66.5 47t-82 8.5t-72 -29.5l-106 147l270 205h-336v174h617v-143l-238 -195q115 -25 185.5 -106.5t68.5 -186.5q-2 -141 -108 -237.5t-267 -96.5z" />
    <glyph glyph-name="four.dnom" horiz-adv-x="825" 
d="M465 -106v188h-451v170l305 553h224l-305 -553h231v293h186v-293h131v-170h-131v-188h-190z" />
    <glyph glyph-name="five.dnom" horiz-adv-x="868" 
d="M395 -113q-207 0 -352 88l94 177q132 -80 250 -80q102 0 157.5 36t55.5 95q0 119 -225 119h-246v530h608v-174h-418v-184h146q326 0 326 -291q0 -146 -110.5 -231t-285.5 -85z" />
    <glyph glyph-name="six.dnom" horiz-adv-x="847" 
d="M428 -113q-157 0 -268 110t-111 267q0 122 92 246l238 346h242l-168 -242q160 3 256 -99t96 -251q0 -156 -111.5 -266.5t-265.5 -110.5zM428 94q68 0 118 50t50 120q0 63 -47 115.5t-121 52.5q-62 0 -113 -41q-27 -24 -42 -59.5t-15 -67.5q0 -71 50.5 -120.5t119.5 -49.5
z" />
    <glyph glyph-name="seven.dnom" horiz-adv-x="794" 
d="M109 -102l391 735h-443v180h688v-135l-397 -780h-239z" />
    <glyph glyph-name="eight.dnom" horiz-adv-x="841" 
d="M420 -113q-166 0 -272.5 75.5t-106.5 203.5q0 76 46.5 134.5t111.5 86.5q-56 29 -89.5 79.5t-33.5 113.5q0 113 105.5 186.5t238.5 73.5q87 0 165 -31.5t128.5 -92t50.5 -136.5q0 -64 -32 -114.5t-89 -78.5q68 -27 113 -85t45 -136q0 -128 -107.5 -203.5t-273.5 -75.5z
M420 455q60 0 99.5 34.5t39.5 85.5q0 50 -40 84.5t-99 34.5q-58 0 -97.5 -34.5t-39.5 -84.5q0 -51 39.5 -85.5t97.5 -34.5zM420 35q69 0 117.5 42t48.5 97q0 56 -48 96.5t-118 40.5t-117 -40.5t-47 -96.5q0 -55 47.5 -97t116.5 -42z" />
    <glyph glyph-name="nine.dnom" horiz-adv-x="847" 
d="M229 -102l166 239q-161 -3 -256.5 100t-95.5 252q2 155 113 266t266 111t266 -111t111 -266q0 -123 -92 -247l-238 -344h-240zM420 319q58 0 110 41q28 24 44 59.5t16 69.5q0 71 -50.5 119.5t-117.5 48.5q-70 0 -120 -49t-50 -119q0 -65 47 -117.5t121 -52.5z" />
    <glyph glyph-name="zero.numr" horiz-adv-x="854" 
d="M426 522q-115 0 -204 64.5t-136 172.5t-47 238t47 238.5t136 174t204 65.5q116 0 205 -65.5t135.5 -173.5t46.5 -239t-46.5 -238.5t-135.5 -172t-205 -64.5zM426 698q91 0 139.5 85t48.5 214t-48.5 215t-139.5 86t-139.5 -86t-48.5 -215t48.5 -214t139.5 -85z" />
    <glyph glyph-name="one.numr" horiz-adv-x="606" 
d="M297 557v750h-147v168h350v-918h-203z" />
    <glyph glyph-name="two.numr" horiz-adv-x="804" 
d="M45 514l-2 109q0 82 27 144.5t70 100t94.5 66.5t103.5 51.5t95 46t70 59.5t27 83q0 51 -34 85.5t-107 34.5q-64 0 -105.5 -40t-56.5 -97l-180 55q20 122 116.5 195.5t231.5 73.5q139 0 233.5 -78t94.5 -215q0 -73 -26 -131t-67 -94t-90.5 -65t-99.5 -51t-91 -43.5
t-67 -51.5t-26 -68h449v-170h-660z" />
    <glyph glyph-name="three.numr" horiz-adv-x="856" 
d="M403 510q-131 0 -223.5 56t-138.5 153l199 78q15 -51 57.5 -79t105.5 -28q72 0 118 45t44 109q0 45 -27.5 78.5t-66.5 47t-82 8.5t-72 -30l-106 148l270 204h-336v175h617v-144l-238 -192q115 -26 185.5 -108t68.5 -187q-2 -141 -107.5 -237.5t-267.5 -96.5z" />
    <glyph glyph-name="four.numr" horiz-adv-x="843" 
d="M483 563v189h-448v170l305 553h223l-305 -553h231v292h187v-292h131v-170h-131v-189h-193z" />
    <glyph glyph-name="five.numr" horiz-adv-x="868" 
d="M395 510q-203 0 -352 90l94 176q132 -80 250 -80q102 0 157.5 35.5t55.5 95.5q0 119 -225 119h-246v529h608v-172h-418v-185h146q326 0 326 -291q0 -146 -110.5 -231.5t-285.5 -85.5z" />
    <glyph glyph-name="six.numr" horiz-adv-x="847" 
d="M428 506q-157 0 -268 111t-111 266q0 123 92 247l238 345h242l-168 -240q160 3 256 -100t96 -252q0 -155 -111.5 -266t-265.5 -111zM428 715q68 0 118 49t50 119q0 65 -47 117.5t-121 52.5q-62 0 -113 -41q-27 -24 -42 -59.5t-15 -69.5q0 -71 50.5 -119.5t119.5 -48.5z
" />
    <glyph glyph-name="seven.numr" horiz-adv-x="794" 
d="M109 559l391 735h-443v181h688v-136l-397 -780h-239z" />
    <glyph glyph-name="eight.numr" horiz-adv-x="862" 
d="M432 498q-173 0 -282 77t-109 209q0 78 48 139t112 87q-56 30 -89.5 82t-33.5 116q0 78 52 140.5t132.5 94.5t169.5 32q88 0 168 -32t132 -94.5t52 -140.5q0 -65 -32 -116.5t-90 -81.5q67 -25 113 -86t46 -140q0 -132 -109.5 -209t-279.5 -77zM432 1081q59 0 99 35.5
t40 85.5q0 51 -40 87t-99 36q-61 -1 -101 -36.5t-40 -86.5q0 -50 40 -85.5t101 -35.5zM432 651q69 0 118.5 43t49.5 97q0 59 -49 100t-119 41q-73 0 -121.5 -41t-48.5 -100q0 -54 49.5 -97t120.5 -43z" />
    <glyph glyph-name="nine.numr" horiz-adv-x="847" 
d="M229 506l166 242q-161 -3 -256.5 99t-95.5 251q1 103 52 189.5t138 137t189 50.5q156 0 266.5 -110.5t110.5 -266.5q0 -122 -92 -246l-238 -346h-240zM420 930q62 0 110 41q28 24 44 59.5t16 67.5q0 71 -50.5 120.5t-117.5 49.5q-69 0 -119.5 -50t-50.5 -120
q0 -63 47 -115.5t121 -52.5z" />
    <glyph glyph-name="arrowup.ss03" 
d="M821 -18q-146 0 -279.5 57t-229.5 153t-153 229t-57 279t57 279.5t153 229.5t229.5 153t279.5 57t279.5 -57t229.5 -153t153 -229.5t57 -279.5t-57 -279t-153 -229t-229.5 -153t-279.5 -57zM821 41q134 0 256.5 52.5t211 141t140.5 210.5t52 255q0 180 -88 332
t-240.5 240.5t-331.5 87.5q-134 -1 -255.5 -53t-210 -140.5t-141 -210.5t-52.5 -256q0 -133 52.5 -255t141 -210.5t210.5 -141t255 -52.5zM727 289l-2 502l-193 -195l-112 113l393 393l395 -393l-112 -113l-195 195v-502h-174z" />
    <glyph glyph-name="uni2197.ss03" 
d="M821 -18q-146 0 -279.5 57t-229.5 153t-153 229t-57 279t57 279.5t153 229.5t229.5 153t279.5 57t279.5 -57t229.5 -153t153 -229.5t57 -279.5t-57 -279t-153 -229t-229.5 -153t-279.5 -57zM821 41q134 0 256.5 52.5t211 141t140.5 210.5t52 255q0 180 -88 332
t-240.5 240.5t-331.5 87.5q-134 -1 -255.5 -53t-210 -140.5t-141 -210.5t-52.5 -256q0 -133 52.5 -255t141 -210.5t210.5 -141t255 -52.5zM614 371l-122 125l352 354h-273v158h557v-557h-159l2 274z" />
    <glyph glyph-name="arrowright.ss03" horiz-adv-x="1638" 
d="M819 -20q-146 0 -279 57t-229 152.5t-152.5 228t-56.5 278.5t56.5 279t152.5 229t229 152.5t279 56.5t279 -56.5t229 -152.5t152.5 -229t56.5 -279t-56.5 -278.5t-152.5 -228t-229 -152.5t-279 -57zM819 39q134 0 256 52.5t210 140.5t140 209.5t52 254.5q0 135 -52 256.5
t-140 209.5t-210 139.5t-256 50.5t-255 -52.5t-208.5 -139t-139.5 -209t-52 -255.5q0 -133 52 -254.5t139.5 -209.5t209 -140.5t254.5 -52.5zM846 309l-113 113l195 194h-502v175l502 2l-195 192l113 113l393 -393z" />
    <glyph glyph-name="uni2198.ss03" 
d="M821 -18q-146 0 -279.5 57t-229.5 153t-153 229t-57 279t57 279.5t153 229.5t229.5 153t279.5 57t279.5 -57t229.5 -153t153 -229.5t57 -279.5t-57 -279t-153 -229t-229.5 -153t-279.5 -57zM821 41q134 0 256.5 52.5t211 141t140.5 210.5t52 255q0 180 -88 332
t-240.5 240.5t-331.5 87.5q-134 -1 -255.5 -53t-210 -140.5t-141 -210.5t-52.5 -256q0 -133 52.5 -255t141 -210.5t210.5 -141t255 -52.5zM565 393v160h273l-355 354l125 125l355 -354v272h159l-2 -555z" />
    <glyph glyph-name="arrowdown.ss03" 
d="M821 -18q-146 0 -279.5 57t-229.5 153t-153 229t-57 279t57 279.5t153 229.5t229.5 153t279.5 57t279.5 -57t229.5 -153t153 -229.5t57 -279.5t-57 -279t-153 -229t-229.5 -153t-279.5 -57zM821 41q134 0 256.5 52.5t211 141t140.5 210.5t52 255q0 180 -88 332
t-240.5 240.5t-331.5 87.5q-134 -1 -255.5 -53t-210 -140.5t-141 -210.5t-52.5 -256q0 -133 52.5 -255t141 -210.5t210.5 -141t255 -52.5zM813 303l-393 393l110 113l195 -195v504h176v-504l195 195l110 -113z" />
    <glyph glyph-name="uni2199.ss03" 
d="M821 -18q-146 0 -279.5 57t-229.5 153t-153 229t-57 279t57 279.5t153 229.5t229.5 153t279.5 57t279.5 -57t229.5 -153t153 -229.5t57 -279.5t-57 -279t-153 -229t-229.5 -153t-279.5 -57zM821 41q134 0 256.5 52.5t211 141t140.5 210.5t52 255q0 180 -88 332
t-240.5 240.5t-331.5 87.5q-134 -1 -255.5 -53t-210 -140.5t-141 -210.5t-52.5 -256q0 -133 52.5 -255t141 -210.5t210.5 -141t255 -52.5zM502 369v557h160l-3 -275l357 355l123 -125l-353 -355h273v-157h-557z" />
    <glyph glyph-name="arrowleft.ss03" 
d="M821 -18q-146 0 -279.5 57t-229.5 153t-153 229t-57 279t57 279.5t153 229.5t229.5 153t279.5 57t279.5 -57t229.5 -153t153 -229.5t57 -279.5t-57 -279t-153 -229t-229.5 -153t-279.5 -57zM821 41q134 0 256.5 52.5t211 141t140.5 210.5t52 255q0 180 -88 332
t-240.5 240.5t-331.5 87.5q-134 -1 -255.5 -53t-210 -140.5t-141 -210.5t-52.5 -256q0 -133 52.5 -255t141 -210.5t210.5 -141t255 -52.5zM788 303l-393 393l393 396l113 -113l-194 -195h501v-174l-501 -2l194 -192z" />
    <glyph glyph-name="uni2196.ss03" 
d="M821 -18q-146 0 -279.5 57t-229.5 153t-153 229t-57 279t57 279.5t153 229.5t229.5 153t279.5 57t279.5 -57t229.5 -153t153 -229.5t57 -279.5t-57 -279t-153 -229t-229.5 -153t-279.5 -57zM821 41q134 0 256.5 52.5t211 141t140.5 210.5t52 255q0 180 -88 332
t-240.5 240.5t-331.5 87.5q-134 -1 -255.5 -53t-210 -140.5t-141 -210.5t-52.5 -256q0 -133 52.5 -255t141 -210.5t210.5 -141t255 -52.5zM1014 381l-355 356v-274h-159v557h557v-160h-275l357 -354z" />
    <glyph glyph-name="arrowboth.ss03" 
d="M821 -18q-146 0 -279.5 57t-229.5 153t-153 229t-57 279t57 279.5t153 229.5t229.5 153t279.5 57t279.5 -57t229.5 -153t153 -229.5t57 -279.5t-57 -279t-153 -229t-229.5 -153t-279.5 -57zM821 41q134 0 256.5 52.5t211 141t140.5 210.5t52 255q0 180 -88 332
t-240.5 240.5t-331.5 87.5q-134 -1 -255.5 -53t-210 -140.5t-141 -210.5t-52.5 -256q0 -133 52.5 -255t141 -210.5t210.5 -141t255 -52.5zM598 369l-334 336l334 333l90 -90l-174 -174h625l-176 174l92 90l331 -333l-331 -336l-92 90l176 176h-625l174 -176z" />
    <glyph glyph-name="arrowupdn.ss03" 
d="M821 -18q-146 0 -279.5 57t-229.5 153t-153 229t-57 279t57 279.5t153 229.5t229.5 153t279.5 57t279.5 -57t229.5 -153t153 -229.5t57 -279.5t-57 -279t-153 -229t-229.5 -153t-279.5 -57zM821 41q134 0 256.5 52.5t211 141t140.5 210.5t52 255q0 180 -88 332
t-240.5 240.5t-331.5 87.5q-134 -1 -255.5 -53t-210 -140.5t-141 -210.5t-52.5 -256q0 -133 52.5 -255t141 -210.5t210.5 -141t255 -52.5zM819 168l-334 334l90 92l175 -174v561l-175 -176l-90 90l334 336l336 -336l-90 -90l-174 176v-561l174 174l90 -92z" />
    <glyph glyph-name="arrowup.ss04" horiz-adv-x="1679" 
d="M840 -20q-150 0 -287 58t-235.5 157t-157 235.5t-58.5 286.5t58.5 286.5t157 235.5t235.5 157t287 58t286.5 -58t235.5 -157t157 -235.5t58 -286.5t-58 -286.5t-157 -235.5t-235.5 -157t-286.5 -58zM743 305h175l2 502l192 -195l113 113l-394 393l-395 -393l113 -113
l194 195v-502z" />
    <glyph glyph-name="uni2197.ss04" horiz-adv-x="1679" 
d="M840 -20q-150 0 -287 58t-235.5 157t-157 235.5t-58.5 286.5t58.5 286.5t157 235.5t235.5 157t287 58t286.5 -58t235.5 -157t157 -235.5t58 -286.5t-58 -286.5t-157 -235.5t-235.5 -157t-286.5 -58zM629 391l354 354v-274h158v557h-555l-2 -158h274l-354 -354z" />
    <glyph glyph-name="arrowright.ss04" horiz-adv-x="1679" 
d="M840 -20q-150 0 -287 58t-235.5 157t-157 235.5t-58.5 286.5t58.5 286.5t157 235.5t235.5 157t287 58t286.5 -58t235.5 -157t157 -235.5t58 -286.5t-58 -286.5t-157 -235.5t-235.5 -157t-286.5 -58zM862 322l393 393l-393 395l-112 -113l194 -194h-502v-174l502 -2
l-194 -193z" />
    <glyph glyph-name="uni2198.ss04" horiz-adv-x="1679" 
d="M840 -20q-150 0 -287 58t-235.5 157t-157 235.5t-58.5 286.5t58.5 286.5t157 235.5t235.5 157t287 58t286.5 -58t235.5 -157t157 -235.5t58 -286.5t-58 -286.5t-157 -235.5t-235.5 -157t-286.5 -58zM582 410l557 2v555h-158v-273l-354 355l-125 -125l354 -355h-274v-159z
" />
    <glyph glyph-name="arrowdown.ss04" horiz-adv-x="1679" 
d="M840 -20q-150 0 -287 58t-235.5 157t-157 235.5t-58.5 286.5t58.5 286.5t157 235.5t235.5 157t287 58t286.5 -58t235.5 -157t157 -235.5t58 -286.5t-58 -286.5t-157 -235.5t-235.5 -157t-286.5 -58zM834 311l393 394l-111 112l-194 -194v501h-177v-501l-194 194
l-111 -112z" />
    <glyph glyph-name="uni2199.ss04" horiz-adv-x="1679" 
d="M840 -20q-150 0 -287 58t-235.5 157t-157 235.5t-58.5 286.5t58.5 286.5t157 235.5t235.5 157t287 58t286.5 -58t235.5 -157t157 -235.5t58 -286.5t-58 -286.5t-157 -235.5t-235.5 -157t-286.5 -58zM520 391h557v158h-272l352 354l-123 125l-356 -354l2 274h-160v-557z
" />
    <glyph glyph-name="arrowleft.ss04" horiz-adv-x="1679" 
d="M840 -20q-150 0 -287 58t-235.5 157t-157 235.5t-58.5 286.5t58.5 286.5t157 235.5t235.5 157t287 58t286.5 -58t235.5 -157t157 -235.5t58 -286.5t-58 -286.5t-157 -235.5t-235.5 -157t-286.5 -58zM805 322l113 112l-195 193l502 2v174h-502l195 194l-113 113l-393 -395
z" />
    <glyph glyph-name="uni2196.ss04" horiz-adv-x="1679" 
d="M840 -20q-150 0 -287 58t-235.5 157t-157 235.5t-58.5 286.5t58.5 286.5t157 235.5t235.5 157t287 58t286.5 -58t235.5 -157t157 -235.5t58 -286.5t-58 -286.5t-157 -235.5t-235.5 -157t-286.5 -58zM1034 393l125 125l-354 354h272v158h-555l-2 -555l160 -2v275z" />
    <glyph glyph-name="arrowboth.ss04" horiz-adv-x="1679" 
d="M840 -20q-150 0 -287 58t-235.5 157t-157 235.5t-58.5 286.5t58.5 286.5t157 235.5t235.5 157t287 58t286.5 -58t235.5 -157t157 -235.5t58 -286.5t-58 -286.5t-157 -235.5t-235.5 -157t-286.5 -58zM614 381l93 90l-175 176h623l-174 -176l90 -90l334 336l-334 334
l-90 -90l174 -175h-623l175 175l-93 90l-331 -334z" />
    <glyph glyph-name="arrowupdn.ss04" horiz-adv-x="1679" 
d="M840 -20q-150 0 -287 58t-235.5 157t-157 235.5t-58.5 286.5t58.5 286.5t157 235.5t235.5 157t287 58t286.5 -58t235.5 -157t157 -235.5t58 -286.5t-58 -286.5t-157 -235.5t-235.5 -157t-286.5 -58zM840 182l336 334l-91 92l-174 -174v561l174 -176l91 90l-336 336
l-334 -336l90 -90l174 176v-561l-174 174l-90 -92z" />
    <glyph glyph-name="uni24B6.ss01" 
d="M821 -18q-146 0 -279.5 57t-229.5 153t-153 229t-57 279t57 279.5t153 229.5t229.5 153t279.5 57t279.5 -57t229.5 -153t153 -229.5t57 -279.5t-57 -279t-153 -229t-229.5 -153t-279.5 -57zM367 371h200l66 116h385l65 -116h201l-459 813zM725 649l100 185l101 -185h-201
z" />
    <glyph glyph-name="uni24B7.ss01" 
d="M821 -18q-146 0 -279.5 57t-229.5 153t-153 229t-57 279t57 279.5t153 229.5t229.5 153t279.5 57t279.5 -57t229.5 -153t153 -229.5t57 -279.5t-57 -279t-153 -229t-229.5 -153t-279.5 -57zM506 293h383q145 0 222 60t77 163q0 76 -39 132.5t-119 72.5q51 15 82 64
t31 118q0 89 -77 146t-200 57h-360v-813zM690 799v145h144q50 0 86 -17.5t36 -56.5q0 -71 -104 -71h-162zM690 457v178h182q62 0 93.5 -24t31.5 -66q0 -44 -35 -66t-96 -22h-176z" />
    <glyph glyph-name="uni24B8.ss01" 
d="M821 -18q-146 0 -279.5 57t-229.5 153t-153 229t-57 279t57 279.5t153 229.5t229.5 153t279.5 57t279.5 -57t229.5 -153t153 -229.5t57 -279.5t-57 -279t-153 -229t-229.5 -153t-279.5 -57zM821 256q238 0 350 172l-139 131q-58 -102 -203 -102q-93 0 -163 74.5
t-70 173.5q0 59 25.5 114t80.5 94t127 39q128 0 203 -102l139 133q-31 40 -58.5 66.5t-68.5 52.5t-96.5 38.5t-126.5 12.5q-99 0 -183 -38t-138.5 -101.5t-84.5 -143.5t-30 -165q0 -82 30 -161t84.5 -143.5t138.5 -104.5t183 -40z" />
    <glyph glyph-name="uni24B9.ss01" 
d="M821 -18q-146 0 -279.5 57t-229.5 153t-153 229t-57 279t57 279.5t153 229.5t229.5 153t279.5 57t279.5 -57t229.5 -153t153 -229.5t57 -279.5t-57 -279t-153 -229t-229.5 -153t-279.5 -57zM512 1110v-813h317q167 0 281.5 114.5t114.5 290.5q0 201 -111 304.5
t-285 103.5h-317zM811 471h-115v465h115q97 0 162 -60t65 -174q0 -106 -66 -168.5t-161 -62.5z" />
    <glyph glyph-name="uni24BA.ss01" 
d="M821 -18q-146 0 -279.5 57t-229.5 153t-153 229t-57 279t57 279.5t153 229.5t229.5 153t279.5 57t279.5 -57t229.5 -153t153 -229.5t57 -279.5t-57 -279t-153 -229t-229.5 -153t-279.5 -57zM528 1110v-813h588v156h-405v180h348v158h-348v161h405v158h-588z" />
    <glyph glyph-name="uni24BB.ss01" 
d="M821 -18q-146 0 -279.5 57t-229.5 153t-153 229t-57 279t57 279.5t153 229.5t229.5 153t279.5 57t279.5 -57t229.5 -153t153 -229.5t57 -279.5t-57 -279t-153 -229t-229.5 -153t-279.5 -57zM530 1083v-813h183v336h362v158h-362v162h422v157h-605z" />
    <glyph glyph-name="uni24BC.ss01" 
d="M821 -18q-146 0 -279.5 57t-229.5 153t-153 229t-57 279t57 279.5t153 229.5t229.5 153t279.5 57t279.5 -57t229.5 -153t153 -229.5t57 -279.5t-57 -279t-153 -229t-229.5 -153t-279.5 -57zM825 287q101 0 203.5 39t157.5 120v322h-174v-223q-32 -41 -84 -62.5
t-103 -21.5q-99 0 -173 72t-74 176q0 105 74 176t173 71q109 0 179 -73l124 125q-122 125 -303 125q-170 0 -296 -122t-126 -302q0 -176 124 -299t298 -123z" />
    <glyph glyph-name="uni24BD.ss01" 
d="M821 -18q-146 0 -279.5 57t-229.5 153t-153 229t-57 279t57 279.5t153 229.5t229.5 153t279.5 57t279.5 -57t229.5 -153t153 -229.5t57 -279.5t-57 -279t-153 -229t-229.5 -153t-279.5 -57zM465 1110v-813h184v344h359v-344h184v813h-184v-295h-359v295h-184z" />
    <glyph glyph-name="uni24BE.ss01" 
d="M821 -18q-146 0 -279.5 57t-229.5 153t-153 229t-57 279t57 279.5t153 229.5t229.5 153t279.5 57t279.5 -57t229.5 -153t153 -229.5t57 -279.5t-57 -279t-153 -229t-229.5 -153t-279.5 -57zM717 1100v-813h182v813h-182z" />
    <glyph glyph-name="uni24BF.ss01" 
d="M821 -18q-146 0 -279.5 57t-229.5 153t-153 229t-57 279t57 279.5t153 229.5t229.5 153t279.5 57t279.5 -57t229.5 -153t153 -229.5t57 -279.5t-57 -279t-153 -229t-229.5 -153t-279.5 -57zM618 438l3 -176q186 0 276 83t90 263v490h-252v-158h70v-322
q0 -87 -41.5 -133.5t-145.5 -46.5z" />
    <glyph glyph-name="uni24C0.ss01" 
d="M821 -18q-146 0 -279.5 57t-229.5 153t-153 229t-57 279t57 279.5t153 229.5t229.5 153t279.5 57t279.5 -57t229.5 -153t153 -229.5t57 -279.5t-57 -279t-153 -229t-229.5 -153t-279.5 -57zM489 1110v-813h185v268l20 23l283 -291h256l-397 426l360 387h-264l-258 -276
v276h-185z" />
    <glyph glyph-name="uni24C1.ss01" 
d="M821 -18q-146 0 -279.5 57t-229.5 153t-153 229t-57 279t57 279.5t153 229.5t229.5 153t279.5 57t279.5 -57t229.5 -153t153 -229.5t57 -279.5t-57 -279t-153 -229t-229.5 -153t-279.5 -57zM535 1122v-813h587v174h-403v639h-184z" />
    <glyph glyph-name="uni24C2.ss01" 
d="M821 -18q-146 0 -279.5 57t-229.5 153t-153 229t-57 279t57 279.5t153 229.5t229.5 153t279.5 57t279.5 -57t229.5 -153t153 -229.5t57 -279.5t-57 -279t-153 -229t-229.5 -153t-279.5 -57zM371 297h182v410l262 -261l264 261v-410h183v813l-447 -410l-444 410v-813z" />
    <glyph glyph-name="uni24C3.ss01" 
d="M821 -18q-146 0 -279.5 57t-229.5 153t-153 229t-57 279t57 279.5t153 229.5t229.5 153t279.5 57t279.5 -57t229.5 -153t153 -229.5t57 -279.5t-57 -279t-153 -229t-229.5 -153t-279.5 -57zM606 715l578 -475v860h-183v-475l-577 475v-813h182v428z" />
    <glyph glyph-name="uni24C4.ss01" 
d="M821 -18q-146 0 -279.5 57t-229.5 153t-153 229t-57 279t57 279.5t153 229.5t229.5 153t279.5 57t279.5 -57t229.5 -153t153 -229.5t57 -279.5t-57 -279t-153 -229t-229.5 -153t-279.5 -57zM823 256q117 0 217.5 58t161 160.5t60.5 225.5q0 134 -61 237t-160 155.5
t-218 52.5q-85 0 -164.5 -31t-140.5 -87t-98 -141.5t-37 -185.5q0 -187 129 -315.5t311 -128.5zM823 463q-101 0 -170 73.5t-69 163.5q0 97 68 169.5t171 72.5q102 0 171 -73t69 -169q0 -89 -69.5 -163t-170.5 -74z" />
    <glyph glyph-name="uni24C5.ss01" 
d="M821 -18q-146 0 -279.5 57t-229.5 153t-153 229t-57 279t57 279.5t153 229.5t229.5 153t279.5 57t279.5 -57t229.5 -153t153 -229.5t57 -279.5t-57 -279t-153 -229t-229.5 -153t-279.5 -57zM522 1090v-811h185v225h194q144 0 222.5 84.5t78.5 210.5q0 118 -79.5 204.5
t-221.5 86.5h-379zM889 664h-182v268h182q56 0 95.5 -37.5t39.5 -95.5q0 -57 -39.5 -96t-95.5 -39z" />
    <glyph glyph-name="uni24C6.ss01" 
d="M821 -18q-146 0 -279.5 57t-229.5 153t-153 229t-57 279t57 279.5t153 229.5t229.5 153t279.5 57t279.5 -57t229.5 -153t153 -229.5t57 -279.5t-57 -279t-153 -229t-229.5 -153t-279.5 -57zM1100 188l141 113l-129 105q125 125 125 303q0 177 -124.5 301.5t-299.5 124.5
q-178 0 -303 -124.5t-125 -301.5t125 -301.5t303 -124.5q77 0 133 36zM811 465q-101 0 -172.5 71.5t-71.5 172.5q0 100 71.5 171.5t172.5 71.5q100 0 172 -71.5t72 -171.5q0 -101 -72 -172.5t-172 -71.5z" />
    <glyph glyph-name="uni24C7.ss01" 
d="M821 -18q-146 0 -279.5 57t-229.5 153t-153 229t-57 279t57 279.5t153 229.5t229.5 153t279.5 57t279.5 -57t229.5 -153t153 -229.5t57 -279.5t-57 -279t-153 -229t-229.5 -153t-279.5 -57zM504 1110v-813h184v227h127l160 -227h213l-180 256q80 33 121.5 103.5
t41.5 160.5q0 119 -79.5 206t-221.5 87h-366zM688 682v268h170q55 0 95 -38t40 -95q0 -56 -40 -95.5t-95 -39.5h-170z" />
    <glyph glyph-name="uni24C8.ss01" 
d="M821 -18q-146 0 -279.5 57t-229.5 153t-153 229t-57 279t57 279.5t153 229.5t229.5 153t279.5 57t279.5 -57t229.5 -153t153 -229.5t57 -279.5t-57 -279t-153 -229t-229.5 -153t-279.5 -57zM555 549l-76 -180q131 -58 245.5 -82.5t199 -16t145 42.5t91 92.5t30.5 135.5
q0 54 -29 96t-75.5 66.5t-102 43.5t-111 32t-100.5 26t-72 32t-24 44q5 47 69.5 66.5t158 -0.5t169.5 -77l90 150q-87 57 -184 86t-183 25.5t-157 -29.5t-114 -80.5t-46 -126.5q-2 -62 25.5 -110.5t73 -77.5t101.5 -50.5t112 -35.5t102 -26t74 -28t26 -37q-8 -58 -84 -72.5
t-175.5 12t-178.5 79.5z" />
    <glyph glyph-name="uni24C9.ss01" 
d="M821 -18q-146 0 -279.5 57t-229.5 153t-153 229t-57 279t57 279.5t153 229.5t229.5 153t279.5 57t279.5 -57t229.5 -153t153 -229.5t57 -279.5t-57 -279t-153 -229t-229.5 -153t-279.5 -57zM729 920v-639h184v639h205v174h-592v-174h203z" />
    <glyph glyph-name="uni24CA.ss01" 
d="M821 -18q-146 0 -279.5 57t-229.5 153t-153 229t-57 279t57 279.5t153 229.5t229.5 153t279.5 57t279.5 -57t229.5 -153t153 -229.5t57 -279.5t-57 -279t-153 -229t-229.5 -153t-279.5 -57zM813 264q161 0 246.5 98t85.5 277v459h-178v-459q0 -207 -154 -207
q-151 0 -151 207v459h-183v-459q0 -179 85.5 -277t248.5 -98z" />
    <glyph glyph-name="uni24CB.ss01" 
d="M821 -18q-146 0 -279.5 57t-229.5 153t-153 229t-57 279t57 279.5t153 229.5t229.5 153t279.5 57t279.5 -57t229.5 -153t153 -229.5t57 -279.5t-57 -279t-153 -229t-229.5 -153t-279.5 -57zM358 1053l455 -811l455 811h-201l-254 -459l-254 459h-201z" />
    <glyph glyph-name="uni24CC.ss01" 
d="M821 -18q-146 0 -279.5 57t-229.5 153t-153 229t-57 279t57 279.5t153 229.5t229.5 153t279.5 57t279.5 -57t229.5 -153t153 -229.5t57 -279.5t-57 -279t-153 -229t-229.5 -153t-279.5 -57zM662 297l157 285l160 -285l438 782h-192l-246 -448l-64 117l183 331h-191
l-88 -168l-86 168h-192l184 -331l-63 -117l-248 448h-191z" />
    <glyph glyph-name="uni24CD.ss01" 
d="M821 -18q-146 0 -279.5 57t-229.5 153t-153 229t-57 279t57 279.5t153 229.5t229.5 153t279.5 57t279.5 -57t229.5 -153t153 -229.5t57 -279.5t-57 -279t-153 -229t-229.5 -153t-279.5 -57zM719 709l-279 -412h217l168 262l170 -262h217l-280 418l268 395h-205l-166 -250
l-167 250h-216z" />
    <glyph glyph-name="uni24CE.ss01" 
d="M821 -18q-146 0 -279.5 57t-229.5 153t-153 229t-57 279t57 279.5t153 229.5t229.5 153t279.5 57t279.5 -57t229.5 -153t153 -229.5t57 -279.5t-57 -279t-153 -229t-229.5 -153t-279.5 -57zM733 584v-312h185v310l292 503h-211l-174 -294l-176 294h-211z" />
    <glyph glyph-name="uni24CF.ss01" 
d="M821 -18q-146 0 -279.5 57t-229.5 153t-153 229t-57 279t57 279.5t153 229.5t229.5 153t279.5 57t279.5 -57t229.5 -153t153 -229.5t57 -279.5t-57 -279t-153 -229t-229.5 -153t-279.5 -57zM868 926l-448 -629h751v182h-397l440 631h-667v-184h321z" />
    <glyph glyph-name="uni24D0.ss02" 
d="M821 -18q-146 0 -279.5 57t-229.5 153t-153 229t-57 279t57 279.5t153 229.5t229.5 153t279.5 57t279.5 -57t229.5 -153t153 -229.5t57 -279.5t-57 -279t-153 -229t-229.5 -153t-279.5 -57zM819 375q95 0 154 65v-71h174v333q0 135 -96.5 231.5t-231.5 96.5
q-136 0 -231.5 -96.5t-95.5 -231.5q0 -136 95 -231.5t232 -95.5zM819 549q-65 0 -110 44.5t-45 108.5q0 63 45.5 108.5t109.5 45.5q63 0 108.5 -45.5t45.5 -108.5q0 -64 -45.5 -108.5t-108.5 -44.5z" />
    <glyph glyph-name="uni24D1.ss02" 
d="M821 -18q-146 0 -279.5 57t-229.5 153t-153 229t-57 279t57 279.5t153 229.5t229.5 153t279.5 57t279.5 -57t229.5 -153t153 -229.5t57 -279.5t-57 -279t-153 -229t-229.5 -153t-279.5 -57zM829 961q-94 0 -155 -68v258h-174v-520q0 -137 96.5 -233.5t232.5 -96.5
q137 0 233.5 96.5t96.5 233.5t-96.5 233.5t-233.5 96.5zM829 477q-65 0 -110 45t-45 109q0 65 45 110t110 45t110.5 -45.5t45.5 -109.5t-45.5 -109t-110.5 -45z" />
    <glyph glyph-name="uni24D2.ss02" 
d="M821 -18q-146 0 -279.5 57t-229.5 153t-153 229t-57 279t57 279.5t153 229.5t229.5 153t279.5 57t279.5 -57t229.5 -153t153 -229.5t57 -279.5t-57 -279t-153 -229t-229.5 -153t-279.5 -57zM823 332q107 0 197.5 57.5t120.5 147.5l-152 86q-19 -49 -64 -79t-98 -30
q-73 0 -124.5 52.5t-51.5 129.5q0 83 52.5 133t123.5 50q51 0 96.5 -31t65.5 -82l152 90q-31 88 -121.5 145.5t-196.5 57.5q-64 0 -126 -24.5t-113 -69t-82 -115t-31 -154.5q0 -149 103.5 -256.5t248.5 -107.5z" />
    <glyph glyph-name="uni24D3.ss02" 
d="M821 -18q-146 0 -279.5 57t-229.5 153t-153 229t-57 279t57 279.5t153 229.5t229.5 153t279.5 57t279.5 -57t229.5 -153t153 -229.5t57 -279.5t-57 -279t-153 -229t-229.5 -153t-279.5 -57zM784 295q143 0 228 102q31 -51 71 -66.5t99 -15.5v209q-25 0 -45.5 25.5
t-20.5 71.5v524h-174v-258q-62 69 -158 69q-135 0 -231 -97t-96 -232q0 -138 96 -235t231 -97zM784 471q-63 0 -108 46t-45 110t45 108.5t108 44.5q66 0 112 -44.5t46 -108.5q0 -65 -46 -110.5t-112 -45.5z" />
    <glyph glyph-name="uni24D4.ss02" 
d="M821 -18q-146 0 -279.5 57t-229.5 153t-153 229t-57 279t57 279.5t153 229.5t229.5 153t279.5 57t279.5 -57t229.5 -153t153 -229.5t57 -279.5t-57 -279t-153 -229t-229.5 -153t-279.5 -57zM815 367q195 0 283 98l-131 102q-14 -20 -57.5 -33.5t-78.5 -11.5
q-56 0 -98.5 30t-48.5 71h414q30 116 -3 210t-112 145.5t-184 51.5q-94 0 -165 -48t-105.5 -122t-34.5 -160q0 -131 91 -232t230 -101zM928 772h-244q0 40 32 72.5t89 32.5q64 0 96 -35t27 -70z" />
    <glyph glyph-name="uni24D5.ss02" 
d="M821 -18q-146 0 -279.5 57t-229.5 153t-153 229t-57 279t57 279.5t153 229.5t229.5 153t279.5 57t279.5 -57t229.5 -153t153 -229.5t57 -279.5t-57 -279t-153 -229t-229.5 -153t-279.5 -57zM674 713v-461h174v461h166v174h-170q0 52 52.5 70t115.5 -7l35 160
q-101 28 -172 20.5t-115.5 -47.5t-65 -90t-20.5 -106h-76v-174h76z" />
    <glyph glyph-name="uni24D6.ss02" 
d="M821 -18q-146 0 -279.5 57t-229.5 153t-153 229t-57 279t57 279.5t153 229.5t229.5 153t279.5 57t279.5 -57t229.5 -153t153 -229.5t57 -279.5t-57 -279t-153 -229t-229.5 -153t-279.5 -57zM815 1112q-138 0 -235 -97.5t-97 -234.5t97 -233t235 -96q97 0 154 67v-55
q0 -70 -45.5 -108t-110.5 -38v-176q140 0 235 91t95 237v311q0 137 -96.5 234.5t-231.5 97.5zM815 627q-65 0 -111.5 44.5t-46.5 108.5q0 65 46.5 110.5t111.5 45.5q63 0 108.5 -45t45.5 -111q0 -64 -45.5 -108.5t-108.5 -44.5z" />
    <glyph glyph-name="uni24D7.ss02" 
d="M821 -18q-146 0 -279.5 57t-229.5 153t-153 229t-57 279t57 279.5t153 229.5t229.5 153t279.5 57t279.5 -57t229.5 -153t153 -229.5t57 -279.5t-57 -279t-153 -229t-229.5 -153t-279.5 -57zM825 944q-91 0 -143 -55v235h-174v-827h174v326q0 67 39.5 106t103.5 39
q63 0 103.5 -39.5t40.5 -105.5v-326h172v326q0 139 -91 230t-225 91z" />
    <glyph glyph-name="uni24D8.ss02" 
d="M821 -18q-146 0 -279.5 57t-229.5 153t-153 229t-57 279t57 279.5t153 229.5t229.5 153t279.5 57t279.5 -57t229.5 -153t153 -229.5t57 -279.5t-57 -279t-153 -229t-229.5 -153t-279.5 -57zM817 958q37 0 64.5 28.5t27.5 64.5q0 37 -27 63.5t-65 26.5q-37 0 -63.5 -26.5
t-26.5 -63.5q0 -36 27 -64.5t63 -28.5zM735 903v-635h168v635h-168z" />
    <glyph glyph-name="uni24D9.ss02" 
d="M821 -18q-146 0 -279.5 57t-229.5 153t-153 229t-57 279t57 279.5t153 229.5t229.5 153t279.5 57t279.5 -57t229.5 -153t153 -229.5t57 -279.5t-57 -279t-153 -229t-229.5 -153t-279.5 -57zM836 1071q38 0 65 28t27 64q0 38 -27 65t-65 27t-65.5 -27t-27.5 -65
q0 -36 27.5 -64t65.5 -28zM645 344v-174q127 0 205 89.5t78 221.5v512h-174v-512q0 -64 -27.5 -100.5t-81.5 -36.5z" />
    <glyph glyph-name="uni24DA.ss02" 
d="M821 -18q-146 0 -279.5 57t-229.5 153t-153 229t-57 279t57 279.5t153 229.5t229.5 153t279.5 57t279.5 -57t229.5 -153t153 -229.5t57 -279.5t-57 -279t-153 -229t-229.5 -153t-279.5 -57zM1137 272l-277 367l217 268h-203l-190 -221v186q0 52 27.5 84.5t72.5 32.5v174
q-130 1 -202 -85.5t-72 -205.5v-600h174v201l55 37l185 -238h213z" />
    </font>
</defs>
</svg>
