<?xml version="1.0" standalone="no"?>
<!DOCTYPE svg PUBLIC "-//W3C//DTD SVG 1.1//EN" "http://www.w3.org/Graphics/SVG/1.1/DTD/svg11.dtd" >
<svg xmlns="http://www.w3.org/2000/svg" xmlns:xlink="http://www.w3.org/1999/xlink" version="1.1">
<metadata>
Created by FontForge 20201107 at Mon May 12 20:16:01 2025
 By 
Copylight(c)2020, Brenners Template All rights reserved
</metadata>
<defs>
<font id="AlongSanss2-Regular" horiz-adv-x="1605" >
  <font-face 
    font-family="Along Sans s2"
    font-weight="400"
    font-stretch="normal"
    units-per-em="2048"
    panose-1="0 0 5 0 0 0 0 0 0 0"
    ascent="1638"
    descent="-410"
    x-height="1071"
    cap-height="1370"
    bbox="-965 -614 2609 1987"
    underline-thickness="102"
    underline-position="-204"
    unicode-range="U+0020-FB02"
  />
<missing-glyph horiz-adv-x="1300" 
d="M1067 1987v-2601h-825v2601h825zM866 1812h-430v-86h170v-96h-172v-86h432v86h-172v96h172v86zM694 1477h-260v-271h432v88h-172v183zM606 1389v-95h-86v95h86zM866 1137h-432v-86h172v-97h-172v-86h260v183h172v86zM866 981h-86v-172h-346v-88h432v260zM866 664h-260
v-148h88v62h86v-123h-260v209h-86v-295h432v295zM866 213h-432v-295h432v295zM780 127v-123h-260v123h260zM866 -141h-432v-86h182l-182 -121v-86h432v86h-266l182 121h84v86z" />
    <glyph glyph-name="fi" unicode="fi" horiz-adv-x="1099" 
d="M168 0v922h-129v149h129q0 77 16.5 142.5t59 121.5t107 86t167.5 27.5t234 -45.5l-33 -129q-108 32 -184 30.5t-123 -35.5t-68.5 -83.5t-21.5 -114.5h610v-1071h-150v922h-456v-922h-158zM838 1153q-38 0 -67.5 30.5t-29.5 69.5q0 40 29.5 69.5t67.5 29.5
q41 0 71.5 -29.5t30.5 -69.5q0 -39 -30.5 -69.5t-71.5 -30.5z" />
    <glyph glyph-name="fl" unicode="fl" horiz-adv-x="1153" 
d="M168 0v922h-129v149h129q0 53 13 103.5t42.5 98t73 84t108.5 60t144.5 29t186 -12.5t227.5 -61v-1372h-160v1284q-160 42 -266.5 17.5t-160.5 -85.5t-54 -145h397v-149h-393v-922h-158z" />
    <glyph glyph-name="L_a" unicode="La" horiz-adv-x="1929" 
d="M1335 -4q-208 0 -364.5 137t-184.5 340h-684v897h148v-749h541q23 206 180.5 345.5t363.5 139.5q150 0 277.5 -72.5t203.5 -201.5t76 -285v-512h-145v196q-60 -106 -170.5 -170.5t-241.5 -64.5zM1335 143q172 0 291 118.5t119 285.5q0 166 -119.5 288.5t-290.5 122.5
q-113 0 -207.5 -57t-148 -151t-53.5 -203q0 -167 118.5 -285.5t290.5 -118.5z" />
    <glyph glyph-name="L_e" unicode="Le" horiz-adv-x="1894" 
d="M1352 -25q-118 0 -219.5 44t-168 116t-106 159.5t-45.5 178.5h-711v897h148v-749h563q5 109 50.5 204t117 159t161 100t183.5 36q132 0 240.5 -46t179.5 -130.5t98.5 -204t-2.5 -266.5h-856q6 -138 119 -245t268 -107q78 0 187 39t143 94l129 -98q-79 -91 -204 -136
t-275 -45zM981 621h698q11 32 5.5 70.5t-17.5 77.5t-42 75.5t-68 64.5t-95.5 45t-124.5 17q-104 0 -187.5 -52t-126 -131.5t-42.5 -166.5z" />
    <glyph glyph-name="L_o" unicode="Lo" horiz-adv-x="1949" 
d="M1362 -25q-139 0 -258.5 61t-197 175.5t-91.5 261.5h-713v897h148v-749h569q18 141 100 251.5t198.5 168t244.5 57.5q152 0 277 -68.5t199.5 -198t74.5 -296.5q0 -163 -77 -292.5t-202 -198.5t-272 -69zM1362 129q167 0 282 116t115 290q0 171 -109.5 291t-287.5 120
q-162 0 -281.5 -121t-119.5 -290q0 -172 118 -289t283 -117z" />
    <glyph glyph-name="d_a" unicode="da" horiz-adv-x="2396" 
d="M1845 647q149 0 276 -74t201 -201t74 -276v-551h-164v228q-55 -104 -158.5 -167t-228.5 -63q-201 0 -353 132t-181 327q-184 16 -230 231q-68 -123 -184.5 -193.5t-265.5 -70.5q-113 0 -216.5 44.5t-178.5 119.5t-119.5 178.5t-44.5 216.5t44.5 216t119.5 178t178.5 119
t216.5 44q126 0 232 -64.5t161 -170.5v584h164v-1018q0 -100 37.5 -155t85.5 -66q29 192 181 322t353 130zM631 133q163 0 278 116t115 279t-115 278.5t-278 115.5t-279 -115.5t-116 -278.5t116 -279t279 -116zM1845 -293q160 0 273.5 114t113.5 275q0 160 -113.5 273.5
t-273.5 113.5q-161 0 -275 -113.5t-114 -273.5q0 -161 114 -275t275 -114z" />
    <glyph glyph-name="d_e" unicode="de" horiz-adv-x="2342" 
d="M1845 -475q-107 0 -201 40t-159.5 107t-108.5 151.5t-57 176.5q-193 8 -238 233q-68 -123 -184.5 -193.5t-265.5 -70.5q-113 0 -216.5 44.5t-178.5 119.5t-119.5 178.5t-44.5 216.5t44.5 216t119.5 178t178.5 119t216.5 44q126 0 232 -64.5t161 -170.5v584h164v-1039
q0 -103 39 -156t86 -65q24 208 162.5 345.5t345.5 137.5q128 0 235 -45t177 -128.5t97.5 -201.5t-3.5 -264h-846q5 -90 55.5 -168.5t137.5 -127.5t190 -50q79 0 185 37.5t138 93.5l129 -100q-77 -89 -200.5 -133.5t-270.5 -44.5zM631 133q163 0 278 116t115 279t-115 278.5
t-278 115.5t-279 -115.5t-116 -278.5t116 -279t279 -116zM1481 162h686q10 53 -5 111.5t-52.5 112.5t-112 89t-172.5 35q-104 0 -184.5 -53t-120 -131.5t-39.5 -163.5z" />
    <glyph glyph-name="d_o" unicode="do" horiz-adv-x="2412" 
d="M1855 653q151 0 279.5 -74.5t203.5 -203t75 -279.5q0 -114 -44.5 -217.5t-119 -178.5t-178 -119t-216.5 -44q-204 0 -357 133t-183 330q-189 12 -234 233q-68 -123 -184.5 -193.5t-265.5 -70.5q-113 0 -216.5 44.5t-178.5 119.5t-119.5 178.5t-44.5 216.5t44.5 216
t119.5 178t178.5 119t216.5 44q126 0 232 -64.5t161 -170.5v584h164v-1018q0 -104 40 -159t89 -64q28 195 181 327.5t357 132.5zM631 133q163 0 278 116t115 279t-115 278.5t-278 115.5t-279 -115.5t-116 -278.5t116 -279t279 -116zM1855 -299q163 0 278.5 115.5
t115.5 279.5q0 163 -115.5 278t-278.5 115t-279 -115t-116 -278q0 -164 116 -279.5t279 -115.5z" />
    <glyph glyph-name="m_a" unicode="ma" horiz-adv-x="2496" 
d="M2466 -133q0 -99 38 -170.5t105 -71.5v-166q-104 0 -165 69t-77 179q-68 -123 -190 -194.5t-270 -71.5q-113 0 -216 44t-178 119t-119 178.5t-44 217.5v684q0 103 -62 174.5t-160 71.5t-161.5 -72t-63.5 -174v-684h-164v684q0 104 -61.5 175t-159.5 71t-161.5 -72
t-63.5 -174v-684h-164v684q0 176 108 293.5t281 116.5q99 -1 180 -48t123 -124q44 79 126 126t181 46q114 -1 202.5 -55.5t135.5 -147.5t47 -207v-360q55 105 162 170t232 65q113 0 216.5 -44.5t178.5 -119.5t119.5 -178.5t44.5 -216.5v-133zM1907 -395q163 0 279 116
t116 279t-116 279t-279 116t-278.5 -116t-115.5 -279t115.5 -279t278.5 -116z" />
    <glyph glyph-name="m_e" unicode="me" horiz-adv-x="2387" 
d="M1888 -567q-119 0 -223 49.5t-172.5 130.5t-107.5 182t-39 205v684q0 103 -62 174.5t-160 71.5t-160.5 -72t-62.5 -174v-684h-166v684q0 104 -61.5 175t-159.5 71t-160.5 -72t-62.5 -174v-684h-164v684q0 175 107.5 293t279.5 117q100 -1 181.5 -48.5t123.5 -123.5
q44 79 125 126t180 46q115 -1 204 -55.5t135.5 -147.5t45.5 -207v-344q51 103 144 164t211 61q129 0 236 -45t177 -128.5t97.5 -201.5t-2.5 -264h-846q6 -137 116.5 -240.5t266.5 -103.5q77 -2 183 35.5t140 93.5l129 -98q-77 -90 -201 -135t-272 -45zM1524 70h688
q7 43 0 89.5t-32 93t-64.5 83.5t-104 60.5t-143.5 23.5q-103 0 -184 -53.5t-120.5 -132.5t-39.5 -164z" />
    <glyph glyph-name="m_o" unicode="mo" horiz-adv-x="2461" 
d="M1905 557q113 0 216 -44t178 -119t119 -178t44 -216q0 -114 -44 -217.5t-119 -178.5t-178 -119t-216 -44t-216.5 44t-178.5 119t-119.5 178.5t-44.5 217.5v684q0 103 -62 174.5t-160 71.5t-160.5 -72t-62.5 -174v-684h-166v684q0 104 -61.5 175t-159.5 71t-160.5 -72
t-62.5 -174v-684h-164v684q0 175 107.5 293t279.5 117q100 -1 181.5 -48.5t123.5 -123.5q44 79 125 126t180 46q115 -1 204 -55.5t135.5 -147.5t45.5 -207v-362q56 106 162.5 170.5t233.5 64.5zM1905 -395q163 0 278 115.5t115 279.5q0 163 -115 278t-278 115t-279.5 -115.5
t-116.5 -277.5q0 -164 116.5 -279.5t279.5 -115.5z" />
    <glyph glyph-name="m_u" unicode="mu" horiz-adv-x="2367" 
d="M2204 561h163v-561q0 -241 -140.5 -380.5t-368.5 -139.5t-368 139.5t-140 380.5v684q0 103 -62 174.5t-160 71.5t-161.5 -72t-63.5 -174v-684h-164v684q0 104 -61.5 175t-159.5 71t-161.5 -72t-63.5 -174v-684h-164v684q0 176 108 293.5t281 116.5q99 -1 180 -48
t123 -124q44 79 126 126t181 46q114 -1 202.5 -55.5t135.5 -147.5t47 -207v-684q0 -169 92.5 -262.5t252.5 -93.5t253 93t93 263v561z" />
    <glyph glyph-name="n_a" unicode="na" horiz-adv-x="2136" 
d="M2103 -133q0 -99 38.5 -170.5t105.5 -71.5v-166q-104 0 -165 69t-77 179q-68 -123 -190.5 -194.5t-270.5 -71.5q-113 0 -216 44t-178 119t-119 178.5t-44 217.5v561q0 171 -92.5 264t-253.5 93q-160 0 -252 -94t-92 -263v-561h-164v561q0 240 140.5 380t367.5 140
q228 0 369 -140t141 -380v-237q55 105 161.5 170t231.5 65q113 0 216.5 -44.5t178.5 -119.5t119.5 -178.5t44.5 -216.5v-133zM1544 -395q163 0 279 116t116 279t-116 279t-279 116t-278 -116t-115 -279t115 -279t278 -116z" />
    <glyph glyph-name="n_e" unicode="ne" horiz-adv-x="2027" 
d="M1528 -567q-96 0 -182.5 32.5t-151 88t-112 127.5t-71.5 154t-24 165v561q0 171 -92.5 264t-253.5 93q-160 0 -252 -94t-92 -263v-561h-164v561q0 240 140.5 380t367.5 140q228 0 369 -140t141 -380v-221q48 103 141 164t211 61q129 0 236 -45t177 -128.5t97.5 -201.5
t-2.5 -264h-846q6 -137 117 -240.5t266 -103.5q78 -2 184 35t140 94l129 -98q-77 -91 -200.5 -135.5t-272.5 -44.5zM1163 70h688q9 54 -6 113t-53 113t-112 89t-171 35q-104 0 -185 -53.5t-121 -132.5t-40 -164z" />
    <glyph glyph-name="n_o" unicode="no" horiz-adv-x="2103" 
d="M1544 559q113 0 216.5 -44.5t178.5 -119.5t119.5 -178.5t44.5 -216.5t-44.5 -216.5t-119.5 -178.5t-178.5 -119.5t-216.5 -44.5t-216 44t-178 119t-119 178.5t-44 217.5v561q0 171 -92.5 264t-253.5 93q-160 0 -252 -94t-92 -263v-561h-164v561q0 240 140.5 380
t367.5 140q228 0 369 -140t141 -380v-237q55 105 161.5 170t231.5 65zM1544 -395q163 0 279 116t116 279t-116 279t-279 116t-278 -116t-115 -279t115 -279t278 -116z" />
    <glyph glyph-name="n_u" unicode="nu" horiz-adv-x="2004" 
d="M1841 561h164v-561q0 -241 -141 -380.5t-369 -139.5t-368 139.5t-140 380.5v561q0 171 -92.5 264t-253.5 93q-160 0 -252 -94t-92 -263v-561h-164v561q0 240 140.5 380t367.5 140q228 0 369 -140t141 -380v-561q0 -169 92 -262.5t252 -93.5t253 93t93 263v561z" />
    <glyph glyph-name="t_a" unicode="ta" horiz-adv-x="1738" 
d="M1575 -475v229q-57 -103 -160 -166t-227 -63q-206 0 -359.5 133.5t-181.5 331.5q-485 10 -485 405v512h-99v164h99v223h164v-223h260v-164h-260v-473q0 -72 20.5 -124.5t50 -81.5t75.5 -46t85 -22t90 -6q25 201 179 338t362 137q149 0 276 -74t201 -201t74 -276v-553
h-164zM1188 -311q160 0 273.5 114t113.5 275q0 160 -113.5 273.5t-273.5 113.5q-161 0 -275 -113.5t-114 -273.5q0 -161 114 -275t275 -114z" />
    <glyph glyph-name="t_e" unicode="te" horiz-adv-x="1683" 
d="M1184 -496q-108 0 -203.5 41t-162.5 110t-109.5 155.5t-55.5 179.5q-69 1 -129 9t-129.5 34t-118.5 68.5t-81.5 118t-32.5 175.5v512h-99v164h99v223h164v-223h260v-164h-260v-473q0 -73 21 -126t51.5 -82t78 -45.5t86 -21t90.5 -5.5q24 209 162 346t344 137
q129 -1 236 -46.5t177 -129t97.5 -201.5t-2.5 -264h-846q6 -137 116.5 -240.5t266.5 -103.5q78 0 184 37t140 92l129 -98q-76 -90 -200.5 -134.5t-272.5 -44.5zM819 141h688q7 42 0 88t-32 92.5t-64.5 83.5t-104 60.5t-143.5 23.5q-104 0 -184.5 -53t-120 -131.5
t-39.5 -163.5z" />
    <glyph glyph-name="t_h" unicode="th" horiz-adv-x="1648" 
d="M752 -299v1219h-414v-519q0 -62 15 -109t40.5 -74.5t59.5 -46.5t71.5 -24.5t77 -8.5t76.5 1v-155q-47 -4 -95.5 -6t-98 7.5t-94.5 24.5t-84 45.5t-68 69.5t-45.5 97t-16.5 128v570h-98v151h98v223h162v-223h575v-444q99 155 308 155q75 0 150 -28t137.5 -79.5
t101.5 -133.5t39 -181v-659h-160l-2 633q0 70 -26.5 126t-69 89t-91 50t-98.5 17q-40 -1 -79.5 -11.5t-77.5 -34t-67.5 -56t-47 -81.5t-17.5 -107v-625h-161z" />
    <glyph glyph-name="t_o" unicode="to" horiz-adv-x="1746" 
d="M1190 631q113 0 216 -44t178 -119t119 -178t44 -216q0 -114 -44 -217.5t-119 -178.5t-178 -119t-216 -44q-209 0 -365 137t-182 338q-481 10 -481 405v512h-99v164h99v223h164v-223h260v-164h-260v-473q0 -72 20 -124.5t49.5 -81t75 -46t83.5 -22.5t89 -6
q17 133 93.5 242t196 172t257.5 63zM1190 -322q163 0 278 116t115 280q0 163 -115 278t-278 115q-164 0 -279.5 -115t-115.5 -278q0 -164 115.5 -280t279.5 -116z" />
    <glyph glyph-name="t_t" unicode="tt" horiz-adv-x="1230" 
d="M678 -16q-47 -4 -95.5 -6t-98 7.5t-94.5 24.5t-84 45.5t-68 69.5t-45.5 97t-16.5 128v570h-98v151h98v223h162v-223h354v223h162v-223h260v-151h-260v-519q0 -62 15 -109t40.5 -74.5t59.5 -46.5t71.5 -24.5t77 -8.5t76.5 1v-155q-47 -4 -95.5 -6t-98 7.5t-94.5 24.5
t-84 45.5t-68 69.5t-45.5 97t-16.5 128v570h-354v-519q0 -62 15 -109t40.5 -74.5t59.5 -46.5t71.5 -24.5t77 -8.5t76.5 1v-155z" />
    <glyph glyph-name=".notdef" horiz-adv-x="1300" 
d="M1067 1987v-2601h-825v2601h825zM866 1812h-430v-86h170v-96h-172v-86h432v86h-172v96h172v86zM694 1477h-260v-271h432v88h-172v183zM606 1389v-95h-86v95h86zM866 1137h-432v-86h172v-97h-172v-86h260v183h172v86zM866 981h-86v-172h-346v-88h432v260zM866 664h-260
v-148h88v62h86v-123h-260v209h-86v-295h432v295zM866 213h-432v-295h432v295zM780 127v-123h-260v123h260zM866 -141h-432v-86h182l-182 -121v-86h432v86h-266l182 121h84v86z" />
    <glyph glyph-name=".null" horiz-adv-x="0" 
 />
    <glyph glyph-name="nonmarkingreturn" horiz-adv-x="682" 
 />
    <glyph glyph-name="space" unicode=" " horiz-adv-x="552" 
 />
    <glyph glyph-name="exclam" unicode="!" horiz-adv-x="497" 
d="M197 309l-52 912h207l-51 -912h-104zM248 6q-38 0 -64 27t-26 65q0 37 26 63.5t64 26.5t64 -26.5t26 -63.5q0 -38 -26 -65t-64 -27z" />
    <glyph glyph-name="quotedbl" unicode="&#x22;" horiz-adv-x="696" 
d="M195 1184l-43 8q23 45 26 115q-45 30 -45 84q0 41 27.5 67.5t66.5 26.5t65.5 -26.5t26.5 -67.5q0 -89 -124 -207zM438 1184l-43 8q24 53 27 115q-45 30 -45 84q0 41 27.5 67.5t66.5 26.5q38 0 65 -27t27 -67q0 -29 -12 -60t-36.5 -61.5t-38 -45.5t-38.5 -40z" />
    <glyph glyph-name="numbersign" unicode="#" horiz-adv-x="1284" 
d="M201 -2l49 254h-193v129h217l60 305h-197v131h221l48 252h131l-50 -252h390l47 252h131l-49 -252h219v-131h-244l-59 -305h223v-129h-248l-49 -254h-129l49 254h-389l-49 -254h-129zM403 381h390l59 305h-389z" />
    <glyph glyph-name="dollar" unicode="$" horiz-adv-x="1320" 
d="M551 -180v178q-217 37 -463 145l47 162q168 -76 327 -114.5t286 -35t204 62t78 169.5q0 48 -32 85t-86 62t-124 45.5t-146.5 41t-153.5 43.5t-145.5 56.5t-121 77t-82 109.5t-26.5 148q6 155 126.5 248.5t311.5 105.5v168h158v-168q246 -22 479 -170l-60 -156
q-130 89 -276 131t-262 34t-194.5 -63.5t-82.5 -148.5q-3 -67 46 -117.5t130 -82t179.5 -59t197.5 -59t181.5 -71t134 -106t51.5 -154.5q0 -196 -138 -303.5t-386 -95.5v-168h-158z" />
    <glyph glyph-name="percent" unicode="%" horiz-adv-x="1650" 
d="M322 2l866 1368h147l-870 -1368h-143zM371 674q-121 0 -206 85.5t-85 205.5t85 205t206 85q119 0 203.5 -85t84.5 -205t-84.5 -205.5t-203.5 -85.5zM373 793q71 0 119.5 50.5t48.5 123.5q0 72 -48 120t-120 48q-73 0 -123.5 -48.5t-50.5 -119.5q0 -72 51 -123t123 -51z
M1282 113q-121 0 -206 85.5t-85 207.5q0 119 85 203.5t206 84.5q119 0 204 -85t85 -203q0 -121 -85 -207t-204 -86zM1284 233q72 0 120 50.5t48 122.5t-48 120.5t-120 48.5t-123 -48.5t-51 -120.5t51 -122.5t123 -50.5z" />
    <glyph glyph-name="ampersand" unicode="&#x26;" horiz-adv-x="1259" 
d="M643 649l-88 127q184 27 252 146q52 89 19 186q-28 85 -103 119q-36 16 -76 16q-80 0 -134.5 -37t-74 -94t-9.5 -125.5t50 -130.5l-117 -74q-48 70 -69 144.5t-15 141.5t35.5 127t78 103.5t117 69t148.5 25.5q82 0 152 -34.5t112 -91.5t66.5 -127.5t12.5 -145.5
t-48 -142.5t-116.5 -122t-192.5 -80.5zM987 -84l-94 125q-84 -55 -151 -75.5t-175 -20.5q-97 0 -177 43.5t-127 112.5t-65.5 156t-3.5 171t71.5 159.5t148.5 119.5l88 -123q-76 -38 -115.5 -103t-38 -135.5t38.5 -130.5q39 -64 102.5 -96t148 -21.5t171.5 70.5
q102 69 332 221l86 -117l-209 -147l94 -119z" />
    <glyph glyph-name="quotesingle" unicode="'" horiz-adv-x="450" 
d="M193 1184l-43 8q22 43 28 115q-45 28 -45 84q0 41 27 67.5t67 26.5q38 0 65 -27t27 -67q0 -87 -126 -207z" />
    <glyph glyph-name="parenleft" unicode="(" horiz-adv-x="724" 
d="M569 0q-112 44 -199 160.5t-130 263t-39 293.5q4 149 47.5 293.5t128 261.5t192.5 162l66 -58q-80 -56 -139 -140t-89.5 -176t-44.5 -176.5t-14 -166.5q1 -83 16 -170t46.5 -179t89.5 -174.5t135 -136.5z" />
    <glyph glyph-name="parenright" unicode=")" horiz-adv-x="724" 
d="M156 0l-66 57q77 54 135 136.5t89 174.5t45.5 179t15.5 170q1 81 -12.5 166t-44 177t-89.5 176t-139 140l66 58q108 -45 192.5 -162t128 -261.5t47.5 -293.5q4 -147 -39 -293.5t-130 -263t-199 -160.5z" />
    <glyph glyph-name="asterisk" unicode="*" horiz-adv-x="819" 
d="M346 623v278l-240 -137l-65 110l240 140l-240 137l65 113l240 -140v275h129v-275l240 140l63 -113l-237 -137l237 -140l-63 -110l-240 137v-278h-129z" />
    <glyph glyph-name="plus" unicode="+" horiz-adv-x="1146" 
d="M496 266v355h-357v157h357v355h155v-355h357v-157h-357v-355h-155z" />
    <glyph glyph-name="comma" unicode="," horiz-adv-x="387" 
d="M160 -125l-45 10q25 45 28 115q-45 28 -45 82q0 42 28 69t67 27t65.5 -27t26.5 -69q0 -88 -125 -207z" />
    <glyph glyph-name="hyphen" unicode="-" horiz-adv-x="956" 
d="M119 453v131h717v-131h-717z" />
    <glyph glyph-name="period" unicode="." horiz-adv-x="387" 
d="M193 0q-37 0 -64 26.5t-27 63.5q0 38 27 65t64 27q38 0 65 -27t27 -65q0 -37 -27 -63.5t-65 -26.5z" />
    <glyph glyph-name="slash" unicode="/" horiz-adv-x="647" 
d="M-55 -160l630 1585h148l-631 -1585h-147z" />
    <glyph glyph-name="zero" unicode="0" horiz-adv-x="1349" 
d="M674 -27q-170 0 -302.5 97t-202 257.5t-69.5 354.5t69.5 354.5t202 257.5t302.5 97q129 0 238 -56.5t182 -153t114 -225.5t41 -274t-41 -274t-114 -225.5t-182 -153t-238 -56.5zM674 131q125 0 218 78t138 201t45 272q0 147 -45 270.5t-138 203t-218 79.5
q-124 0 -217 -79.5t-138 -203t-45 -270.5q0 -148 45 -271.5t138 -201.5t217 -78z" />
    <glyph glyph-name="one" unicode="1" horiz-adv-x="614" 
d="M229 0v1221h-198v149h362v-1370h-164z" />
    <glyph glyph-name="two" unicode="2" horiz-adv-x="1101" 
d="M68 0l-2 106q0 90 27 164t73 125t105.5 92.5t125.5 74t132 62.5t125.5 64t105.5 73t73 95t27 125q0 116 -76 187t-223 71q-123 0 -202.5 -66t-116.5 -163l-152 57q36 139 163 234.5t312 95.5q94 0 176 -25t145.5 -73.5t100.5 -127t37 -178.5q0 -87 -26.5 -159t-71.5 -122
t-103.5 -92t-123 -74t-129 -62t-123 -62.5t-103.5 -70t-71.5 -89.5t-26.5 -115h753v-147h-931z" />
    <glyph glyph-name="three" unicode="3" horiz-adv-x="1165" 
d="M535 -35q-125 0 -222 34t-160.5 90.5t-115.5 141.5l166 72q95 -182 332 -182q153 0 242 94.5t87 230.5q0 66 -28 121.5t-74.5 91t-103.5 55.5t-118.5 18t-115.5 -25l-92 133l477 381h-631v149h875v-127l-451 -369q194 -9 318.5 -134.5t121.5 -293.5q-2 -207 -139.5 -344
t-367.5 -137z" />
    <glyph glyph-name="four" unicode="4" horiz-adv-x="1204" 
d="M774 0v328h-696v151l561 875h197l-560 -875h502v490h166v-490h227v-151h-227v-328h-170z" />
    <glyph glyph-name="five" unicode="5" horiz-adv-x="1163" 
d="M541 -33q-258 0 -480 133l80 152q202 -127 394 -127q195 0 290 77.5t95 200.5q0 38 -7 70t-31 69.5t-64.5 63t-114.5 43t-173 17.5h-342v704h811v-147h-647v-408h246q137 0 233.5 -30t150.5 -87.5t77.5 -129t23.5 -165.5q0 -140 -70 -239.5t-191 -148t-281 -48.5z" />
    <glyph glyph-name="six" unicode="6" horiz-adv-x="1220" 
d="M625 -39q-143 0 -265.5 70.5t-194 192t-71.5 265.5q0 168 127 349l369 532h205l-277 -397q152 35 271 6.5t200.5 -103t124 -175.5t41.5 -212q0 -144 -71.5 -265.5t-193.5 -192t-265 -70.5zM625 135q142 0 248 103.5t106 250.5q0 63 -24 125.5t-67 114t-111.5 83.5
t-149.5 32q-51 0 -120 -23t-112 -59q-57 -49 -91 -127t-34 -146q0 -149 108.5 -251.5t246.5 -102.5z" />
    <glyph glyph-name="seven" unicode="7" horiz-adv-x="1105" 
d="M164 0l643 1210h-737v160h954v-125l-651 -1245h-209z" />
    <glyph glyph-name="eight" unicode="8" horiz-adv-x="1251" 
d="M627 -8q-228 0 -381.5 112t-153.5 287q0 119 83 212t206 130q-103 41 -166 122.5t-63 182.5q0 104 67 190t175.5 132.5t232.5 46.5q123 0 231 -46.5t175 -132.5t67 -190q0 -102 -62 -183.5t-166 -121.5q124 -36 205.5 -129.5t81.5 -212.5q0 -116 -70.5 -207.5
t-191.5 -141.5t-270 -50zM627 797q125 0 210 68t85 169t-85.5 170t-209.5 68q-126 0 -210.5 -68.5t-84.5 -169.5t84.5 -169t210.5 -68zM627 127q144 0 245 79t101 189q0 113 -100.5 191t-245.5 78q-146 0 -247 -78t-101 -191q0 -110 101.5 -189t246.5 -79z" />
    <glyph glyph-name="nine" unicode="9" horiz-adv-x="1226" 
d="M426 2l274 397q-151 -35 -269.5 -6.5t-200 103t-124.5 175.5t-43 212q0 144 71.5 265.5t194 192t265.5 70.5t265.5 -70.5t194.5 -192t72 -265.5q0 -164 -129 -348l-368 -533h-203zM592 528q53 0 120 22.5t111 59.5q58 49 92.5 127t34.5 146q0 149 -108 251.5t-248 102.5
q-141 0 -247.5 -103.5t-106.5 -250.5q0 -63 24 -125.5t67 -114t111.5 -83.5t149.5 -32z" />
    <glyph glyph-name="colon" unicode=":" horiz-adv-x="387" 
d="M193 633q-37 0 -64 26t-27 64t27 64t64 26q38 0 65 -26t27 -64t-27 -64t-65 -26zM193 211q-37 0 -64 26t-27 64t27 64t64 26q38 0 65 -26t27 -64t-27 -64t-65 -26z" />
    <glyph glyph-name="semicolon" unicode=";" horiz-adv-x="387" 
d="M188 590q-38 0 -64 26.5t-26 63.5q0 38 26 65t64 27t64.5 -27t26.5 -65q0 -37 -26.5 -63.5t-64.5 -26.5zM160 43l-45 10q25 45 28 115q-45 28 -45 82q0 42 28 69t67 27t65.5 -27t26.5 -69q0 -88 -125 -207z" />
    <glyph glyph-name="less" unicode="&#x3c;" horiz-adv-x="1081" 
d="M942 322l-803 292v164l803 293v-160l-588 -215l588 -215v-159z" />
    <glyph glyph-name="equal" unicode="=" horiz-adv-x="1202" 
d="M139 801v157h922v-157h-922zM139 426v156h922v-156h-922z" />
    <glyph glyph-name="greater" unicode="&#x3e;" horiz-adv-x="1081" 
d="M139 322v159l588 215l-588 215v160l803 -293v-164z" />
    <glyph glyph-name="question" unicode="?" horiz-adv-x="1110" 
d="M360 365q-7 95 12.5 174.5t55.5 135t82 103t94 88t88.5 80t68.5 89.5t32 106q3 106 -67.5 188t-195.5 82q-113 0 -191.5 -89.5t-78.5 -227.5h-172q-3 211 119 351t325 140q105 1 192 -36t141.5 -99t80.5 -142.5t17 -166.5q-5 -71 -33 -132t-68.5 -105.5t-88 -87
t-93 -86.5t-81.5 -93.5t-55 -119t-12 -152.5h-172zM455 -18q-54 0 -89.5 36.5t-37.5 90.5q0 53 36.5 90t90.5 37q53 0 90 -36.5t37 -90.5q0 -53 -37 -89t-90 -38z" />
    <glyph glyph-name="at" unicode="@" horiz-adv-x="1560" 
d="M799 -76q-136 0 -261.5 49t-219.5 134.5t-150.5 211.5t-56.5 271q0 139 50 261t137.5 210t212.5 139t269 51q151 0 277.5 -49t212 -134t133 -201.5t47.5 -250.5q0 -385 -248 -385q-99 0 -158 121q-37 -58 -112.5 -95.5t-157.5 -37.5q-95 0 -178 44.5t-135.5 130
t-52.5 194.5q0 159 97.5 263.5t252.5 104.5q33 0 68 -5.5t79.5 -20t82 -48t56.5 -81.5v112h103v-329q0 -145 25 -207t75 -64q69 0 111.5 71.5t42.5 229.5q0 126 -45.5 235.5t-126 187.5t-197 122.5t-252.5 44.5q-123 0 -236 -45t-198 -124.5t-136 -196t-52 -250.5
q-1 -114 38 -215t104 -173t148.5 -125t173.5 -78.5t177 -25.5q156 0 288 74l15 -51q-137 -70 -303 -70zM776 340q117 1 183.5 71.5t68.5 174.5q0 40 -15 82t-44 80t-80 62t-115 24q-117 0 -181.5 -74t-64.5 -172q0 -99 74 -174t174 -74z" />
    <glyph glyph-name="A" unicode="A" horiz-adv-x="1497" 
d="M1309 0l-166 307h-789l-166 -307h-188l750 1370l747 -1370h-188zM442 461h615l-307 577z" />
    <glyph glyph-name="B" unicode="B" horiz-adv-x="1435" 
d="M221 0v1370h586q208 0 328 -95.5t120 -246.5q0 -117 -52 -197.5t-136 -107.5q133 -28 197.5 -123t64.5 -225q0 -173 -123.5 -274t-363.5 -101h-621zM391 795h461q101 0 165 51t64 155q0 57 -26.5 100.5t-71 68t-96.5 37t-109 12.5h-387v-424zM391 154h424q157 0 247.5 63
t90.5 182q0 111 -75 176.5t-240 65.5h-447v-487z" />
    <glyph glyph-name="C" unicode="C" horiz-adv-x="1431" 
d="M805 -33q-155 0 -289.5 61.5t-224 162t-140.5 229.5t-51 264q0 139 50.5 268.5t140.5 229t224 159.5t290 60q186 0 313 -66.5t232 -187.5l-119 -119q-34 41 -68 72.5t-86 65.5t-121.5 52.5t-150.5 18.5q-97 0 -184 -31.5t-151 -86t-111 -125t-71 -150t-24 -160.5
q0 -145 70.5 -272t195.5 -204t275 -77q145 0 255 55t171 152l119 -119q-191 -252 -545 -252z" />
    <glyph glyph-name="D" unicode="D" horiz-adv-x="1511" 
d="M221 0v1370h527q138 0 256 -42t210 -123.5t144.5 -214.5t52.5 -304q0 -148 -53 -277t-143 -218t-211.5 -140t-255.5 -51h-527zM391 164h330q108 0 203.5 39.5t164 108t108.5 165.5t40 209q0 127 -39.5 227t-109.5 163.5t-163.5 96.5t-203.5 33h-330v-1042z" />
    <glyph glyph-name="E" unicode="E" horiz-adv-x="1314" 
d="M221 0v1370h977v-147h-807v-455h709v-152h-709v-466h807v-150h-977z" />
    <glyph glyph-name="F" unicode="F" horiz-adv-x="1323" 
d="M221 0v1370h1028v-147h-858v-455h760v-152h-760v-616h-170z" />
    <glyph glyph-name="G" unicode="G" horiz-adv-x="1562" 
d="M809 -37q-142 0 -272 55t-226 149.5t-153.5 227t-57.5 279.5q0 159 62 295t163 225t227 139.5t257 50.5q311 0 512 -210l-119 -115q-163 160 -393 160q-101 0 -198.5 -40.5t-174 -110.5t-123.5 -173.5t-47 -220.5t46.5 -220.5t123 -173.5t174 -110.5t199.5 -40.5
q114 0 233 50.5t187 150.5v391h164v-481q-61 -93 -165.5 -158t-210 -92t-208.5 -27z" />
    <glyph glyph-name="H" unicode="H" horiz-adv-x="1460" 
d="M178 0v1370h170v-582h764v582h170v-1370h-170v625h-764v-625h-170z" />
    <glyph glyph-name="I" unicode="I" horiz-adv-x="612" 
d="M221 0v1370h170v-1370h-170z" />
    <glyph glyph-name="J" unicode="J" horiz-adv-x="714" 
d="M23 -33v166q168 0 240.5 83.5t72.5 254.5v748h-117v151h287v-909q0 -259 -119.5 -376.5t-363.5 -117.5z" />
    <glyph glyph-name="K" unicode="K" horiz-adv-x="1376" 
d="M221 0v1370h170v-555l576 557h235l-647 -647l799 -725h-246l-684 600l-33 -35v-565h-170z" />
    <glyph glyph-name="L" unicode="L" horiz-adv-x="1146" 
d="M221 0v1370h170v-1206h737v-164h-907z" />
    <glyph glyph-name="M" unicode="M" horiz-adv-x="1902" 
d="M193 0v1370l759 -788l758 788l2 -1370h-172v985l-588 -641l-590 641v-985h-169z" />
    <glyph glyph-name="N" unicode="N" horiz-adv-x="1671" 
d="M1479 -47l-1117 1048v-1001h-169v1370l1116 -1048v1048h170v-1417z" />
    <glyph glyph-name="O" unicode="O" horiz-adv-x="1638" 
d="M821 -31q-196 0 -362 96.5t-262.5 262t-96.5 360.5t96.5 360.5t262.5 262t362 96.5q146 0 278.5 -57t228.5 -153t153 -229.5t57 -279.5t-57 -279.5t-153 -229.5t-228.5 -153t-278.5 -57zM819 141q148 0 274.5 73.5t200.5 199.5t74 274q-1 111 -45.5 213t-118.5 175.5
t-175 117t-210 43.5q-148 0 -274.5 -73.5t-200.5 -200t-74 -275.5q0 -148 74 -274t200.5 -199.5t274.5 -73.5z" />
    <glyph glyph-name="P" unicode="P" horiz-adv-x="1433" 
d="M221 0v1370h635q142 0 250.5 -64.5t163.5 -169t55 -229.5q0 -95 -32.5 -179.5t-91.5 -147.5t-148.5 -99.5t-196.5 -36.5h-463v-444h-172zM393 596h455q127 0 218 89t91 222q0 135 -91 223.5t-218 88.5h-455v-623z" />
    <glyph glyph-name="Q" unicode="Q" horiz-adv-x="1648" 
d="M1587 -266l-403 366q-157 -131 -363 -131q-196 0 -362 96.5t-262.5 262t-96.5 360.5t96.5 360.5t262.5 262t362 96.5q146 0 278.5 -57t228.5 -153t153 -229.5t57 -279.5q0 -144 -54 -273t-151 -229l254 -237v-215zM819 141q149 0 275.5 73.5t200 199.5t73.5 274
q0 149 -75 275.5t-201.5 200t-272.5 73.5q-149 0 -275.5 -73.5t-200 -200t-73.5 -275.5q0 -148 73.5 -274t200 -199.5t275.5 -73.5z" />
    <glyph glyph-name="R" unicode="R" horiz-adv-x="1400" 
d="M221 0v1370h586q141 0 249 -64.5t163 -169t55 -229.5q0 -152 -80.5 -270t-218.5 -162l330 -473h-199l-311 447l-404 -5v-444h-170zM391 1219v-623h406q128 0 218.5 89t90.5 222q0 136 -90 224t-219 88h-406z" />
    <glyph glyph-name="S" unicode="S" horiz-adv-x="1255" 
d="M109 139l65 172q95 -70 207.5 -116.5t216.5 -59t190.5 3t139 71.5t53.5 144q0 45 -30.5 80.5t-82.5 60.5t-119 46.5t-141 43t-148 46t-140 59.5t-116 78.5t-78 108.5t-24 145q4 97 51.5 173.5t123.5 122t178.5 63t212 4.5t229 -61.5t225.5 -127.5l-82 -141
q-80 64 -169.5 106.5t-172 58.5t-159.5 10.5t-134 -32t-92.5 -74.5t-38.5 -112q-3 -68 43.5 -118.5t124 -82t171.5 -58t189 -58t173.5 -71t128 -106.5t49.5 -156q0 -99 -37 -177.5t-103 -130.5t-162 -75.5t-209.5 -16t-251 52t-281.5 124.5z" />
    <glyph glyph-name="T" unicode="T" horiz-adv-x="1017" 
d="M424 0v1206h-416v164h1002v-164h-416v-1206h-170z" />
    <glyph glyph-name="U" unicode="U" horiz-adv-x="1462" 
d="M731 -29q-243 0 -382.5 151.5t-139.5 389.5v858h166v-858q0 -169 93.5 -270t262.5 -101t262.5 101t93.5 270v858h166v-858q0 -238 -139.5 -389.5t-382.5 -151.5z" />
    <glyph glyph-name="V" unicode="V" horiz-adv-x="1466" 
d="M733 0l-733 1370h188l545 -1036l545 1036h188z" />
    <glyph glyph-name="W" unicode="W" horiz-adv-x="2144" 
d="M2075 1370l-732 -1370l-272 508l-270 -508l-733 1370h188l545 -1036l176 342l-367 694h189l272 -530l275 530h188l-369 -694l178 -342l543 1036h189z" />
    <glyph glyph-name="X" unicode="X" horiz-adv-x="1218" 
d="M29 0l483 694l-477 676h203l374 -528l373 528h197l-477 -670l485 -700h-205l-377 547l-375 -547h-204z" />
    <glyph glyph-name="Y" unicode="Y" horiz-adv-x="1290" 
d="M559 0v555l-526 815h200l412 -622l412 622h200l-526 -817v-553h-172z" />
    <glyph glyph-name="Z" unicode="Z" horiz-adv-x="1398" 
d="M76 0l925 1200h-651v170h981l-919 -1200h880v-170h-1216z" />
    <glyph glyph-name="bracketleft" unicode="[" horiz-adv-x="690" 
d="M221 -47v1603h428v-137h-287v-1329h287v-137h-428z" />
    <glyph glyph-name="backslash" unicode="\" horiz-adv-x="647" 
d="M555 -160l-631 1585h148l630 -1585h-147z" />
    <glyph glyph-name="bracketright" unicode="]" horiz-adv-x="690" 
d="M41 -47v137h287v1329h-287v137h428v-1603h-428z" />
    <glyph glyph-name="asciicircum" unicode="^" horiz-adv-x="1239" 
d="M160 700l379 670h161l379 -670h-159l-299 529l-299 -529h-162z" />
    <glyph glyph-name="underscore" unicode="_" horiz-adv-x="909" 
d="M0 -135v129h909v-129h-909z" />
    <glyph glyph-name="grave" unicode="`" horiz-adv-x="47" 
d="M-627 1223l-174 221h183l88 -221h-97z" />
    <glyph glyph-name="a" unicode="a" horiz-adv-x="1351" 
d="M657 0q-112 0 -214.5 44t-176.5 118t-118 176.5t-44 214.5q0 149 74 276t201.5 201t277.5 74q149 0 276 -74t201 -201t74 -276v-553h-164v229q-55 -103 -159 -166t-228 -63zM657 164q160 0 273.5 114t113.5 275q0 160 -113.5 273.5t-273.5 113.5q-161 0 -275 -113.5
t-114 -273.5q0 -161 114 -275t275 -114z" />
    <glyph glyph-name="b" unicode="b" horiz-adv-x="1351" 
d="M707 1085q113 0 216 -44t178 -119t119 -178t44 -216t-44 -216.5t-119 -178.5t-178 -119.5t-216 -44.5q-114 0 -217.5 44.5t-178.5 119.5t-119.5 178.5t-44.5 216.5v906h164v-584q56 106 162.5 170.5t233.5 64.5zM707 133q163 0 278 116t115 279t-115 278.5t-278 115.5
q-164 0 -280 -115.5t-116 -278.5t116 -279t280 -116z" />
    <glyph glyph-name="c" unicode="c" horiz-adv-x="1200" 
d="M647 -43q-150 0 -279 77.5t-204.5 209.5t-75.5 286q0 128 48 237.5t127 181.5t179 112.5t205 40.5q154 0 284.5 -77t188.5 -198l-121 -110q-25 58 -67 102.5t-89.5 69.5t-95 37t-92.5 12q-74 0 -145.5 -27.5t-129 -77.5t-93 -129t-35.5 -174q0 -168 118 -288.5
t285 -120.5q114 0 212 63.5t134 155.5l121 -109q-59 -123 -189.5 -198.5t-285.5 -75.5z" />
    <glyph glyph-name="d" unicode="d" horiz-adv-x="1427" 
d="M649 -31q-113 0 -216 44.5t-178 119.5t-119 178.5t-44 216.5t44 216t119 178t178 119t216 44q127 0 232.5 -64.5t162.5 -170.5v584h164v-1041q0 -60 15 -106t38 -70.5t46 -36.5t43 -12v-168q-203 0 -250 233q-66 -122 -184 -193t-267 -71zM649 133q163 0 279 116t116 279
t-116 278.5t-279 115.5t-278 -115.5t-115 -278.5t115 -279t278 -116z" />
    <glyph glyph-name="e" unicode="e" horiz-adv-x="1216" 
d="M631 -23q-120 0 -223.5 49.5t-172.5 130t-108 182t-39 206.5q0 153 63 281t182.5 206t272.5 78q128 0 235 -45t177 -128.5t97.5 -201.5t-3.5 -264h-846q5 -90 55.5 -168.5t137.5 -127.5t190 -50q79 0 185.5 37.5t138.5 93.5l129 -100q-77 -89 -200.5 -134t-270.5 -45z
M266 614h686q9 34 2.5 73t-19 77.5t-42 74.5t-67 63.5t-93.5 44t-123 16.5q-104 0 -184.5 -53.5t-120 -132t-39.5 -163.5z" />
    <glyph glyph-name="f" unicode="f" horiz-adv-x="835" 
d="M209 0v907h-127v164h127q0 77 17.5 144.5t61 126t109 91.5t169.5 33.5t235 -41.5l-35 -151q-108 32 -184 30.5t-123 -35.5t-68.5 -83.5t-21.5 -114.5h397v-164h-393v-907h-164z" />
    <glyph glyph-name="g" unicode="g" horiz-adv-x="1316" 
d="M647 1085q113 0 216 -44t178 -119t119 -178t44 -216v-532q0 -134 -44 -240t-121.5 -171.5t-177.5 -99.5t-216 -34v164q81 0 150.5 21.5t125 65t87.5 118t32 172.5v213q-55 -105 -161.5 -170.5t-231.5 -65.5q-114 0 -217.5 44.5t-178.5 119.5t-119 178.5t-44 216.5t44 216
t119 178t178.5 119t217.5 44zM647 133q163 0 278 116t115 279t-115 278.5t-278 115.5q-164 0 -279.5 -115.5t-115.5 -278.5t115.5 -279t279.5 -116z" />
    <glyph glyph-name="h" unicode="h" horiz-adv-x="1380" 
d="M690 1081q228 0 369 -140t141 -380v-561h-164v561q0 170 -93 263.5t-253 93.5q-159 0 -251.5 -94.5t-92.5 -262.5v-561h-164v1434h164v-533q94 180 344 180z" />
    <glyph glyph-name="i" unicode="i" horiz-adv-x="505" 
d="M250 1214q-38 0 -67 31t-29 68q0 41 28.5 69.5t67.5 28.5q42 0 72 -28.5t30 -69.5q0 -37 -31 -68t-71 -31zM174 0v1071h154v-1071h-154z" />
    <glyph glyph-name="j" unicode="j" horiz-adv-x="550" 
d="M291 1214q-38 0 -67 31t-29 68q0 41 28.5 69.5t67.5 28.5q42 0 72 -28.5t30 -69.5q0 -37 -30.5 -68t-71.5 -31zM4 -260v160q120 0 166.5 81.5t46.5 239.5v850h158v-846q0 -107 -20.5 -193t-63.5 -152.5t-115.5 -103t-171.5 -36.5z" />
    <glyph glyph-name="k" unicode="k" horiz-adv-x="1187" 
d="M641 680l524 -680h-202l-437 561l-172 -151v-410h-164v1081q0 83 20 155t59.5 128t104.5 88.5t148 32.5v-164q-84 0 -126 -65.5t-42 -174.5v-465l447 455h198z" />
    <glyph glyph-name="l" unicode="l" horiz-adv-x="612" 
d="M522 0q-157 0 -244.5 110.5t-87.5 292.5v1092h164v-1087q0 -109 42 -174.5t126 -65.5v-168z" />
    <glyph glyph-name="m" unicode="m" horiz-adv-x="1728" 
d="M174 0v684q0 176 107 293.5t280 116.5q99 -1 180 -48t125 -124q44 79 125 126t180 46q115 -1 204 -55.5t135.5 -147.5t45.5 -207v-684h-163v684q0 103 -62 174.5t-160 71.5t-160.5 -72t-62.5 -174v-684h-166v684q0 104 -61.5 175t-159.5 71t-160.5 -72t-62.5 -174v-684
h-164z" />
    <glyph glyph-name="n" unicode="n" horiz-adv-x="1341" 
d="M162 0v561q0 240 141 380t369 140q227 0 367.5 -140t140.5 -380v-561h-164v561q0 171 -92 264t-252 93t-253 -94t-93 -263v-561h-164z" />
    <glyph glyph-name="o" unicode="o" horiz-adv-x="1292" 
d="M647 -25q-114 0 -217.5 44.5t-178.5 120t-119 179t-44 216.5t44 216t119 178t178.5 119t217.5 44q113 0 216 -44t178 -119t119 -178t44 -216q0 -151 -74.5 -280t-203 -204.5t-279.5 -75.5zM647 139q162 0 277.5 116.5t115.5 279.5t-115 278t-278 115q-164 0 -279.5 -115
t-115.5 -278t115.5 -279.5t279.5 -116.5z" />
    <glyph glyph-name="p" unicode="p" horiz-adv-x="1366" 
d="M721 -49q-126 0 -232 65t-163 170v-581h-164v905q0 113 44.5 216t119.5 178t178.5 119t216.5 44t216 -44t178 -119t119 -178t44 -216t-44 -216.5t-119 -178.5t-178 -119.5t-216 -44.5zM721 903q-163 0 -279 -115t-116 -278t116 -279t279 -116t278 116t115 279t-115 278
t-278 115z" />
    <glyph glyph-name="q" unicode="q" horiz-adv-x="1366" 
d="M645 -49q-113 0 -216 44.5t-178 119.5t-119 178.5t-44 216.5t44 216t119 178t178 119t216 44q114 0 217.5 -44t178.5 -119t119 -178t44 -216v-905h-164v581q-57 -105 -163 -170t-232 -65zM645 903q-163 0 -278 -115t-115 -278t115 -279t278 -116q164 0 279.5 116
t115.5 279t-115.5 278t-279.5 115z" />
    <glyph glyph-name="r" unicode="r" horiz-adv-x="782" 
d="M190 0v1071h158v-133q43 75 143 109.5t220 23.5v-166q-141 19 -249 -49t-108 -190v-666h-164z" />
    <glyph glyph-name="s" unicode="s" horiz-adv-x="1062" 
d="M55 100l58 142q125 -66 252 -102t230.5 -36.5t169 44.5t66.5 133q0 47 -42 81.5t-109.5 57.5t-149 44t-162 49t-146 65t-104.5 99t-34 144q6 97 64 166.5t152 100t207 30t237.5 -42.5t234.5 -119l-68 -118q-75 60 -166 96.5t-174.5 43t-154.5 -7.5t-115 -55.5t-47 -101.5
q-3 -50 36.5 -88.5t105 -63t145.5 -47t160.5 -49t147 -60t108.5 -89t42 -127.5q0 -77 -29 -140.5t-83.5 -109.5t-138 -68t-185.5 -19t-233 40.5t-275 107.5z" />
    <glyph glyph-name="t" unicode="t" horiz-adv-x="741" 
d="M670 -10q-48 0 -92 3.5t-96.5 14.5t-95.5 29t-85 49.5t-71 72.5t-46.5 101.5t-17.5 134.5v512h-98v164h98v223h164v-223h260v-164h-260v-473q0 -54 11.5 -97.5t29.5 -72.5t47 -50t56.5 -32.5t64.5 -18t65.5 -8t65.5 -1.5v-164z" />
    <glyph glyph-name="u" unicode="u" horiz-adv-x="1212" 
d="M606 -10q-228 0 -369 140t-141 380v561h164v-561q0 -167 93 -261.5t253 -94.5t252 93t92 263v561h164v-561q0 -240 -140.5 -380t-367.5 -140z" />
    <glyph glyph-name="v" unicode="v" horiz-adv-x="1210" 
d="M1180 1071l-576 -1071l-575 1071h190l385 -735l387 735h189z" />
    <glyph glyph-name="w" unicode="w" horiz-adv-x="2164" 
d="M2140 1071l-575 -1071l-484 795l-481 -795l-575 1071h188l405 -764l463 764l463 -764l406 764h190z" />
    <glyph glyph-name="x" unicode="x" horiz-adv-x="1050" 
d="M45 0l385 535l-381 536h193l284 -403l283 403h192l-380 -530l385 -541h-191l-289 403l-290 -403h-191z" />
    <glyph glyph-name="y" unicode="y" horiz-adv-x="1173" 
d="M152 -406v158q53 -11 103.5 1.5t87 41.5t67.5 67.5t45.5 80t20 78t-8.5 61.5l-414 989h176l357 -844l356 844h176l-448 -1071q-50 -104 -89.5 -169t-101.5 -133t-143.5 -93.5t-183.5 -10.5z" />
    <glyph glyph-name="z" unicode="z" horiz-adv-x="1202" 
d="M43 0l733 907h-534v164h878l-739 -907h696v-164h-1034z" />
    <glyph glyph-name="braceleft" unicode="{" horiz-adv-x="661" 
d="M621 -31q-167 -24 -276 66t-109 260v240q0 53 -39 104t-78 47v111q39 -4 78 48t39 103v238q0 173 109 262t276 65v-106q-70 12 -121.5 -4t-79 -51.5t-40.5 -77t-13 -88.5v-238q0 -32 -13 -67.5t-26.5 -57.5t-33 -49.5t-22.5 -32.5q3 -6 22.5 -32.5t33.5 -48.5t26.5 -57
t12.5 -68v-240q0 -47 13 -88t41 -75t79.5 -49t120.5 -5v-109z" />
    <glyph glyph-name="bar" unicode="|" horiz-adv-x="598" 
d="M221 -88v1466h156v-1466h-156z" />
    <glyph glyph-name="braceright" unicode="}" horiz-adv-x="673" 
d="M51 -31l-10 109q69 -10 122.5 5t83.5 49t45 75.5t15 87.5v240q0 33 12.5 68.5t25.5 56.5t32 48.5t22 32.5q-2 4 -22 32.5t-32.5 50t-25 57t-12.5 67.5v238q0 36 -9 70t-28 66.5t-50 53t-75.5 30.5t-103.5 -1l10 108q167 24 276 -65t109 -262v-238q0 -51 39 -103t78 -48
v-111q-38 4 -77.5 -47t-39.5 -104v-240q0 -170 -109 -260t-276 -66z" />
    <glyph glyph-name="asciitilde" unicode="~" horiz-adv-x="1449" 
d="M225 637l-104 113q42 68 77 109.5t87.5 70t115.5 28.5q48 0 120.5 -25t140 -57.5t148.5 -57.5t150.5 -31t140 29t122.5 116l106 -115q-121 -172 -348 -172q-57 0 -122.5 17.5t-120 40.5t-112.5 46t-109.5 33.5t-102 5t-98.5 -43t-91 -107.5z" />
    <glyph glyph-name="uni00A0" unicode="&#xa0;" horiz-adv-x="552" 
 />
    <glyph glyph-name="exclamdown" unicode="&#xa1;" horiz-adv-x="497" 
d="M248 893q-38 0 -64 26.5t-26 63.5q0 38 26 65t64 27t64 -27t26 -65q0 -37 -26 -63.5t-64 -26.5zM145 -139l52 911h104l51 -911h-207z" />
    <glyph glyph-name="cent" unicode="&#xa2;" horiz-adv-x="1236" 
d="M584 31v114q-208 25 -352 191.5t-144 386.5q0 125 43 230.5t114.5 175.5t159 113t181.5 54v111h133v-111q154 -17 278 -107.5t168 -217.5l-135 -78q-32 82 -97.5 141.5t-135.5 85t-138 25.5q-76 0 -148.5 -28.5t-131.5 -80t-95 -133.5t-36 -180q0 -177 120.5 -301.5
t290.5 -124.5q123 0 228.5 71.5t142.5 176.5l135 -74q-44 -131 -168.5 -221t-279.5 -105v-114h-133z" />
    <glyph glyph-name="sterling" unicode="&#xa3;" horiz-adv-x="1163" 
d="M61 0q56 39 94 119t38 186v316h-111v141h111v217q0 105 39 190t103 137.5t142.5 80.5t161.5 28q183 0 281.5 -67.5t164.5 -227.5l-127 -84q-27 66 -63 111.5t-78 68.5t-82.5 32t-89.5 9t-100 -20t-95 -56.5t-72 -96.5t-28 -132v-190h545v-141h-545v-463h783v-158h-1072z
" />
    <glyph glyph-name="currency" unicode="&#xa4;" horiz-adv-x="1193" 
d="M1034 162l-162 162q-121 -91 -272 -91q-158 0 -281 93l-159 -158l-88 88l157 158q-108 127 -108 299q0 174 108 297l-157 157l90 88l157 -157q124 94 281 94q153 0 279 -92l153 155l90 -90l-153 -153q110 -126 110 -299t-114 -303l157 -158zM600 377q138 0 237 98.5
t99 237.5q0 138 -99 238t-237 100q-139 0 -238.5 -100t-99.5 -238q0 -139 99 -237.5t239 -98.5z" />
    <glyph glyph-name="yen" unicode="&#xa5;" horiz-adv-x="1308" 
d="M563 0v217h-303v96h303v146h-303v96h303l-522 815h186l426 -647l428 647h185l-521 -815h302v-96h-302v-146h302v-96h-302v-217h-182z" />
    <glyph glyph-name="brokenbar" unicode="&#xa6;" horiz-adv-x="598" 
d="M221 780v586h156v-586h-156zM221 -51v586h156v-586h-156z" />
    <glyph glyph-name="section" unicode="&#xa7;" horiz-adv-x="806" 
d="M55 92l45 113q106 -59 221 -83t195 1t80 100q0 31 -29 54.5t-75.5 40t-102.5 33t-112 37t-102 47t-74.5 69t-28.5 96.5q0 64 33 111.5t90 66.5q-55 32 -81 71t-22 99q7 114 109.5 171t250 38t277.5 -110l-57 -93q-64 47 -143 71t-144.5 21.5t-111.5 -29.5t-48 -75
q-2 -32 26 -57t74.5 -42t102.5 -33.5t112.5 -36t103 -44.5t75.5 -64.5t29 -89.5q-1 -68 -41 -120t-97 -70q119 -51 119 -158q0 -66 -29.5 -118t-88 -82.5t-138 -38t-188.5 18.5t-230 85zM463 442q46 -7 103 33t46 100q-7 27 -26 48t-53.5 35.5t-60.5 22.5t-76 19.5t-70 16.5
q-56 -9 -89.5 -44.5t-27.5 -82.5q1 -20 9 -37t25 -30t31.5 -22.5t43 -18.5t45 -14t51 -13.5t49.5 -12.5z" />
    <glyph glyph-name="dieresis" unicode="&#xa8;" horiz-adv-x="1087" 
d="M410 1167q-32 0 -56 23t-24 55t24 55t56 23q31 0 54 -23t23 -55t-23 -55t-54 -23zM678 1167q-31 0 -54.5 23t-23.5 55t23.5 55t54.5 23q32 0 56 -23t24 -55t-24 -55t-56 -23z" />
    <glyph glyph-name="copyright" unicode="&#xa9;" horiz-adv-x="1353" 
d="M676 248q-155 0 -287.5 77t-210.5 209.5t-78 288.5t77.5 288.5t210.5 210t288 77.5q156 0 289 -77.5t210.5 -210t77.5 -288.5q0 -117 -46 -223.5t-123.5 -183.5t-184 -122.5t-223.5 -45.5zM676 293q145 0 267 71t192.5 193t70.5 266q0 145 -70.5 267t-192.5 192t-267 70
q-144 0 -265 -70t-191 -192t-70 -267q0 -144 70 -266t191 -193t265 -71zM670 457q-150 0 -251.5 109.5t-101.5 254.5q-1 157 103.5 260t249.5 103q109 0 188.5 -49.5t118.5 -130.5l-82 -70q-33 72 -92 105.5t-127 33.5q-98 0 -171 -71t-73 -181q0 -98 73.5 -175t170.5 -77
q77 0 135.5 36t83.5 100l82 -66q-37 -83 -120 -132.5t-187 -49.5z" />
    <glyph glyph-name="ordfeminine" unicode="&#xaa;" horiz-adv-x="829" 
d="M614 825v127q-35 -55 -94 -88.5t-127 -32.5q-129 2 -222 92.5t-93 219.5q0 134 94 225.5t221 91.5q129 0 221.5 -91t92.5 -226v-318h-93zM393 932q90 0 152.5 61.5t62.5 149.5q0 89 -62.5 154t-152.5 65t-152.5 -65t-62.5 -154q0 -88 62.5 -149.5t152.5 -61.5z" />
    <glyph glyph-name="guillemotleft" unicode="&#xab;" horiz-adv-x="1091" 
d="M829 944l-315 -436l315 -436h-139l-2 2h-108l-316 436l316 436h137l-2 -2h114z" />
    <glyph glyph-name="logicalnot" unicode="&#xac;" horiz-adv-x="1243" 
d="M946 219v379h-807v156h965v-535h-158z" />
    <glyph glyph-name="uni00AD" unicode="&#xad;" horiz-adv-x="937" 
d="M119 453v131h717v-131h-717z" />
    <glyph glyph-name="registered" unicode="&#xae;" horiz-adv-x="1153" 
d="M578 543q-130 0 -240 63.5t-174 173.5t-64 240q0 129 64 238.5t174 173t240 63.5q196 0 335.5 -139.5t139.5 -335.5q0 -97 -37.5 -185.5t-101.5 -152.5t-151.5 -101.5t-184.5 -37.5zM578 588q176 -3 302 125t126 307q-2 178 -127 303.5t-301 124.5q-178 -1 -303.5 -126
t-127.5 -302q-1 -178 125.5 -303.5t305.5 -128.5zM377 739v559h227q85 0 146 -48.5t61 -143.5q0 -30 -9 -57t-19.5 -43.5t-31 -34t-30 -24t-29.5 -19.5l129 -189h-84l-121 176h-161v-176h-78zM455 983h163q34 0 74.5 37t40.5 86q0 62 -40.5 91.5t-98.5 29.5h-139v-244z" />
    <glyph glyph-name="macron" unicode="&#xaf;" horiz-adv-x="956" 
d="M285 1313v98h387v-98h-387z" />
    <glyph glyph-name="degree" unicode="&#xb0;" horiz-adv-x="737" 
d="M369 834q-113 0 -193 80t-80 194q0 110 80.5 190t192.5 80q113 0 192.5 -79.5t79.5 -190.5q0 -114 -79 -194t-193 -80zM369 907q80 0 139 59t59 142q-3 82 -61 140.5t-137 58.5q-84 0 -141.5 -58t-59.5 -141q0 -84 58.5 -142.5t142.5 -58.5z" />
    <glyph glyph-name="plusminus" unicode="&#xb1;" horiz-adv-x="1146" 
d="M496 557v356h-357v156h357v356h155v-356h357v-156h-357v-356h-155zM139 137v158h869v-158h-869z" />
    <glyph glyph-name="uni00B2" unicode="&#xb2;" horiz-adv-x="747" 
d="M55 539v73q0 77 29.5 136t76.5 95.5t103.5 66t113.5 55.5t104 55t76.5 74t29.5 104q0 78 -51.5 126t-149.5 48q-82 0 -136 -44.5t-79 -110.5l-100 38q25 95 109.5 158.5t207.5 63.5q86 0 153.5 -28.5t110.5 -91t43 -151.5q0 -65 -22.5 -118t-59 -87t-83 -64.5t-95.5 -51
t-96 -46t-83.5 -51t-59.5 -64t-23 -85.5h508v-100h-627z" />
    <glyph glyph-name="uni00B3" unicode="&#xb3;" horiz-adv-x="796" 
d="M385 530q-123 0 -201 46t-133 135l111 49q66 -123 223 -123q103 0 163 63t58 156q0 55 -29 98.5t-72.5 64.5t-95.5 26t-98 -17l-63 90l321 256h-422v101h586v-86l-303 -248q130 -4 214.5 -88.5t82.5 -196.5q-2 -141 -94 -233.5t-248 -92.5z" />
    <glyph glyph-name="acute" unicode="&#xb4;" horiz-adv-x="169" 
d="M-369 1200l86 221h185l-176 -221h-95z" />
    <glyph glyph-name="uni00B5" unicode="&#xb5;" horiz-adv-x="1103" 
d="M102 -299v1356h150v-662q0 -49 22 -98.5t61 -92t100.5 -69t133.5 -26.5q66 0 118.5 27.5t82 68t49.5 91t26.5 90.5t6.5 73v598h149v-1075h-149v165q-31 -79 -101.5 -134.5t-183.5 -55.5q-109 0 -199.5 51t-115.5 115v-422h-150z" />
    <glyph glyph-name="paragraph" unicode="&#xb6;" horiz-adv-x="1157" 
d="M461 0v547q-175 0 -298.5 123.5t-123.5 296.5q0 175 123.5 298.5t298.5 123.5h477v-115h-45v-1274h-123v1274h-186v-1274h-123z" />
    <glyph glyph-name="periodcentered" unicode="&#xb7;" horiz-adv-x="468" 
d="M233 422q-37 0 -63.5 26t-26.5 64t26.5 64t63.5 26q39 0 66 -26t27 -64t-27 -64t-66 -26z" />
    <glyph glyph-name="cedilla" unicode="&#xb8;" horiz-adv-x="1026" 
d="M434 -293l-37 92q70 0 80 43q4 15 -5 23t-18.5 9t-27.5 1l33 84h94l-16 -49q38 0 54 -25.5t5 -56.5q-9 -30 -23 -51t-27.5 -33t-34.5 -20t-36.5 -11t-40.5 -6z" />
    <glyph glyph-name="uni00B9" unicode="&#xb9;" horiz-adv-x="368" 
d="M203 567v809h-152v99h266v-908h-114z" />
    <glyph glyph-name="ordmasculine" unicode="&#xba;" horiz-adv-x="761" 
d="M381 819q-129 0 -222 90.5t-93 229.5t95.5 230t219.5 91q132 0 222.5 -89.5t90.5 -231.5q0 -139 -91.5 -228.5t-221.5 -91.5zM381 922q91 0 151 61.5t62 155.5q0 91 -59 155t-154 64q-88 0 -150.5 -64t-62.5 -155q0 -93 62 -155t151 -62z" />
    <glyph glyph-name="guillemotright" unicode="&#xbb;" horiz-adv-x="1091" 
d="M102 74l316 436l-316 436h138l315 -436l-315 -436h-138zM537 72l315 436l-315 436h137l315 -436l-315 -436h-137z" />
    <glyph glyph-name="onequarter" unicode="&#xbc;" horiz-adv-x="1724" 
d="M319 567v809h-153v99h268v-908h-115zM328 102l688 1229h114l-688 -1229h-114zM1407 -109v218h-461v98l373 581h129l-373 -581h336v325h107v-325h151v-98h-151v-218h-111z" />
    <glyph glyph-name="onehalf" unicode="&#xbd;" horiz-adv-x="1708" 
d="M319 567v809h-153v99h268v-908h-115zM328 102l688 1229h114l-688 -1229h-114zM965 -102v71q0 61 18 110.5t49 83t70.5 61.5t83.5 49.5t88 42t83.5 43t70.5 48.5t49 64t18 84q0 78 -50.5 126t-148.5 48q-84 0 -137 -44.5t-78 -111.5l-102 39q25 95 109.5 158.5t209.5 63.5
q86 0 154 -28.5t111 -91t43 -151.5q0 -74 -29 -132t-75 -94t-102 -66t-111.5 -55.5t-101.5 -54t-75 -70t-29 -95.5h506v-98h-624z" />
    <glyph glyph-name="threequarters" unicode="&#xbe;" horiz-adv-x="2027" 
d="M395 530q-122 0 -200.5 46.5t-133.5 134.5l111 49q66 -123 223 -123q104 0 163.5 63t59.5 156q-1 55 -30 98.5t-72.5 64.5t-95 26t-96.5 -17l-64 90l322 256h-424v101h585v-86l-301 -248q129 -4 213.5 -89t81.5 -196q-2 -141 -94 -233.5t-248 -92.5zM631 102l688 1229
h115l-689 -1229h-114zM1710 -109v218h-461v98l373 581h129l-373 -581h336v325h107v-325h151v-98h-151v-218h-111z" />
    <glyph glyph-name="questiondown" unicode="&#xbf;" horiz-adv-x="923" 
d="M588 995q-37 0 -63.5 27t-26.5 65q0 37 26.5 64t63.5 27q38 0 65 -27t27 -64q0 -38 -27 -65t-65 -27zM494 -145q-91 0 -163.5 34.5t-114 90t-58 123.5t-4.5 135q6 55 31 101t59 79t74 65.5t77 68t66.5 77.5t44.5 102.5t10 134.5h137q5 -80 -11 -147.5t-45.5 -114.5
t-67 -87t-77 -74t-73.5 -67t-57.5 -74.5t-28.5 -88.5q-5 -89 51 -156t160 -67q94 0 158.5 72.5t64.5 187.5h135q2 -75 -21 -145t-68 -126t-117.5 -90t-161.5 -34z" />
    <glyph glyph-name="Agrave" unicode="&#xc0;" horiz-adv-x="1497" 
d="M709 1485l-177 221h185l86 -221h-94zM1309 0l-166 307h-789l-166 -307h-188l750 1370l747 -1370h-188zM442 461h615l-307 577z" />
    <glyph glyph-name="Aacute" unicode="&#xc1;" horiz-adv-x="1497" 
d="M694 1470l86 222h185l-177 -222h-94zM1309 0l-166 307h-789l-166 -307h-188l750 1370l747 -1370h-188zM442 461h615l-307 577z" />
    <glyph glyph-name="Acircumflex" unicode="&#xc2;" horiz-adv-x="1497" 
d="M565 1493l131 213h105l131 -213h-105l-77 127l-80 -127h-105zM1309 0l-166 307h-789l-166 -307h-188l750 1370l747 -1370h-188zM442 461h615l-307 577z" />
    <glyph glyph-name="Atilde" unicode="&#xc3;" horiz-adv-x="1497" 
d="M555 1491q0 29 0.5 44t5.5 37.5t14.5 33.5t28 19.5t45.5 8.5q19 -1 49 -10.5t54.5 -18.5t47.5 -14t36.5 4.5t13.5 36.5h94q0 -29 -0.5 -44t-5.5 -37t-14.5 -32.5t-28 -19t-45.5 -8.5q-19 1 -49 11t-54.5 18.5t-47.5 13t-36.5 -5.5t-13.5 -37h-94zM1309 0l-166 307h-789
l-166 -307h-188l750 1370l747 -1370h-188zM442 461h615l-307 577z" />
    <glyph glyph-name="Adieresis" unicode="&#xc4;" horiz-adv-x="1497" 
d="M614 1458q-32 0 -55.5 23t-23.5 55t23.5 55t55.5 23q31 0 54.5 -23t23.5 -55t-23.5 -55t-54.5 -23zM883 1458q-31 0 -54.5 23t-23.5 55t23.5 55t54.5 23q32 0 56 -23t24 -55t-24 -55t-56 -23zM1309 0l-166 307h-789l-166 -307h-188l750 1370l747 -1370h-188zM442 461h615
l-307 577z" />
    <glyph glyph-name="Aring" unicode="&#xc5;" horiz-adv-x="1497" 
d="M750 1501q-45 0 -79 32t-34 81t34 79.5t79 30.5q46 0 78 -30.5t32 -79.5q0 -50 -32 -81.5t-78 -31.5zM750 1559q23 0 39 16t16 39t-16 39t-39 16t-38.5 -16t-15.5 -39t15.5 -39t38.5 -16zM1309 0l-166 307h-789l-166 -307h-188l750 1370l747 -1370h-188zM442 461h615
l-307 577z" />
    <glyph glyph-name="AE" unicode="&#xc6;" horiz-adv-x="1769" 
d="M0 0l573 1370h1080v-147h-807v-455h708v-152h-708v-466h807v-150h-989v395h-316l-164 -395h-184zM403 545h261v635z" />
    <glyph glyph-name="Ccedilla" unicode="&#xc7;" horiz-adv-x="1431" 
d="M805 131q145 0 255 55t171 152l119 -119q-181 -236 -496 -250l-10 -39q38 0 53.5 -25t5.5 -57q-11 -37 -28 -60.5t-41.5 -35t-43.5 -16t-51 -8.5l-37 92q70 0 82 43q3 15 -6.5 23t-19 9t-27.5 1l29 73q-146 8 -271.5 72.5t-209.5 163.5t-131.5 223.5t-47.5 255.5
q0 139 50.5 268.5t140.5 229t224 159.5t290 60q186 0 313 -66.5t232 -187.5l-119 -119q-34 41 -68 72.5t-86 65.5t-121.5 52.5t-150.5 18.5q-97 0 -184 -31.5t-151 -86t-111 -125t-71 -150t-24 -160.5q0 -145 70.5 -272t195.5 -204t275 -77z" />
    <glyph glyph-name="Egrave" unicode="&#xc8;" horiz-adv-x="1314" 
d="M647 1499l-176 221h184l86 -221h-94zM221 0v1370h977v-147h-807v-455h709v-152h-709v-466h807v-150h-977z" />
    <glyph glyph-name="Eacute" unicode="&#xc9;" horiz-adv-x="1314" 
d="M635 1485l86 221h184l-176 -221h-94zM221 0v1370h977v-147h-807v-455h709v-152h-709v-466h807v-150h-977z" />
    <glyph glyph-name="Ecircumflex" unicode="&#xca;" horiz-adv-x="1314" 
d="M506 1507l131 213h104l131 -213h-104l-78 127l-80 -127h-104zM221 0v1370h977v-147h-807v-455h709v-152h-709v-466h807v-150h-977z" />
    <glyph glyph-name="Edieresis" unicode="&#xcb;" horiz-adv-x="1314" 
d="M553 1473q-33 0 -56.5 22.5t-23.5 54.5t24 55t56 23q31 0 54.5 -23t23.5 -55t-23.5 -54.5t-54.5 -22.5zM821 1473q-31 0 -54.5 22.5t-23.5 54.5t23.5 55t54.5 23q32 0 56 -23t24 -55t-23.5 -54.5t-56.5 -22.5zM221 0v1370h977v-147h-807v-455h709v-152h-709v-466h807
v-150h-977z" />
    <glyph glyph-name="Igrave" unicode="&#xcc;" horiz-adv-x="612" 
d="M258 1499l-176 221h184l86 -221h-94zM221 0v1370h170v-1370h-170z" />
    <glyph glyph-name="Iacute" unicode="&#xcd;" horiz-adv-x="612" 
d="M246 1485l86 221h184l-176 -221h-94zM221 0v1370h170v-1370h-170z" />
    <glyph glyph-name="Icircumflex" unicode="&#xce;" horiz-adv-x="612" 
d="M117 1505l131 213h104l131 -213h-104l-78 127l-80 -127h-104zM221 0v1370h170v-1370h-170z" />
    <glyph glyph-name="Idieresis" unicode="&#xcf;" horiz-adv-x="612" 
d="M164 1473q-33 0 -56.5 22.5t-23.5 54.5t24 55t56 23q31 0 54.5 -23t23.5 -55t-23.5 -54.5t-54.5 -22.5zM432 1473q-31 0 -54.5 22.5t-23.5 54.5t23.5 55t54.5 23q32 0 56 -23t24 -55t-23.5 -54.5t-56.5 -22.5zM221 0v1370h170v-1370h-170z" />
    <glyph glyph-name="Eth" unicode="&#xd0;" horiz-adv-x="1576" 
d="M233 0v621h-213v131h213v618h582q113 0 212 -26t182 -80.5t142.5 -134t92.5 -192.5t33 -251q0 -148 -51 -276.5t-139.5 -218t-211 -140.5t-260.5 -51h-582zM416 150h370q150 0 268.5 70.5t183.5 193t65 272.5q0 254 -141.5 395.5t-375.5 141.5h-370v-471h370v-131h-370
v-471z" />
    <glyph glyph-name="Ntilde" unicode="&#xd1;" horiz-adv-x="1671" 
d="M590 1473q0 29 0.5 44t5.5 37.5t14.5 33.5t28 19.5t45.5 8.5q19 -1 49 -10.5t54.5 -18.5t47.5 -14t36.5 4.5t13.5 36.5h94q0 -29 -0.5 -44t-5.5 -37t-14.5 -32.5t-28 -19t-45.5 -8.5q-19 1 -49 11t-54.5 18.5t-47.5 13t-36.5 -5.5t-13.5 -37h-94zM1479 -47l-1117 1048
v-1001h-169v1370l1116 -1048v1048h170v-1417z" />
    <glyph glyph-name="Ograve" unicode="&#xd2;" horiz-adv-x="1638" 
d="M780 1516l-176 221h184l86 -221h-94zM821 -31q-196 0 -362 96.5t-262.5 262t-96.5 360.5t96.5 360.5t262.5 262t362 96.5q146 0 278.5 -57t228.5 -153t153 -229.5t57 -279.5t-57 -279.5t-153 -229.5t-228.5 -153t-278.5 -57zM819 141q148 0 274.5 73.5t200.5 199.5
t74 274q-1 111 -45.5 213t-118.5 175.5t-175 117t-210 43.5q-148 0 -274.5 -73.5t-200.5 -200t-74 -275.5q0 -148 74 -274t200.5 -199.5t274.5 -73.5z" />
    <glyph glyph-name="Oacute" unicode="&#xd3;" horiz-adv-x="1638" 
d="M768 1501l86 221h184l-176 -221h-94zM821 -31q-196 0 -362 96.5t-262.5 262t-96.5 360.5t96.5 360.5t262.5 262t362 96.5q146 0 278.5 -57t228.5 -153t153 -229.5t57 -279.5t-57 -279.5t-153 -229.5t-228.5 -153t-278.5 -57zM819 141q148 0 274.5 73.5t200.5 199.5
t74 274q-1 111 -45.5 213t-118.5 175.5t-175 117t-210 43.5q-148 0 -274.5 -73.5t-200.5 -200t-74 -275.5q0 -148 74 -274t200.5 -199.5t274.5 -73.5z" />
    <glyph glyph-name="Ocircumflex" unicode="&#xd4;" horiz-adv-x="1638" 
d="M637 1522l131 213h104l132 -213h-105l-78 127l-80 -127h-104zM821 -31q-196 0 -362 96.5t-262.5 262t-96.5 360.5t96.5 360.5t262.5 262t362 96.5q146 0 278.5 -57t228.5 -153t153 -229.5t57 -279.5t-57 -279.5t-153 -229.5t-228.5 -153t-278.5 -57zM819 141
q148 0 274.5 73.5t200.5 199.5t74 274q-1 111 -45.5 213t-118.5 175.5t-175 117t-210 43.5q-148 0 -274.5 -73.5t-200.5 -200t-74 -275.5q0 -148 74 -274t200.5 -199.5t274.5 -73.5z" />
    <glyph glyph-name="Otilde" unicode="&#xd5;" horiz-adv-x="1638" 
d="M627 1522q0 29 0.5 44t5.5 37.5t14.5 33.5t28 19.5t45.5 8.5q19 -1 49 -10.5t54.5 -18.5t47.5 -14t36.5 4.5t13.5 36.5h94q0 -29 -0.5 -44t-5.5 -37t-14.5 -32.5t-28 -19t-45.5 -8.5q-19 1 -49 11t-54.5 18.5t-47.5 13t-36.5 -5.5t-13.5 -37h-94zM821 -31
q-196 0 -362 96.5t-262.5 262t-96.5 360.5t96.5 360.5t262.5 262t362 96.5q146 0 278.5 -57t228.5 -153t153 -229.5t57 -279.5t-57 -279.5t-153 -229.5t-228.5 -153t-278.5 -57zM819 141q148 0 274.5 73.5t200.5 199.5t74 274q-1 111 -45.5 213t-118.5 175.5t-175 117
t-210 43.5q-148 0 -274.5 -73.5t-200.5 -200t-74 -275.5q0 -148 74 -274t200.5 -199.5t274.5 -73.5z" />
    <glyph glyph-name="Odieresis" unicode="&#xd6;" horiz-adv-x="1638" 
d="M686 1489q-32 0 -56 23t-24 55t24 55t56 23q31 0 54.5 -23t23.5 -55t-23.5 -55t-54.5 -23zM954 1489q-31 0 -54 23t-23 55t23 55t54 23q32 0 56 -23t24 -55t-24 -55t-56 -23zM821 -31q-196 0 -362 96.5t-262.5 262t-96.5 360.5t96.5 360.5t262.5 262t362 96.5
q146 0 278.5 -57t228.5 -153t153 -229.5t57 -279.5t-57 -279.5t-153 -229.5t-228.5 -153t-278.5 -57zM819 141q148 0 274.5 73.5t200.5 199.5t74 274q-1 111 -45.5 213t-118.5 175.5t-175 117t-210 43.5q-148 0 -274.5 -73.5t-200.5 -200t-74 -275.5q0 -148 74 -274
t200.5 -199.5t274.5 -73.5z" />
    <glyph glyph-name="multiply" unicode="&#xd7;" horiz-adv-x="1169" 
d="M334 332l-111 110l250 252l-250 252l111 111l250 -252l252 252l110 -111l-252 -252l252 -252l-110 -110l-252 252z" />
    <glyph glyph-name="Oslash" unicode="&#xd8;" horiz-adv-x="1638" 
d="M819 -27q-233 0 -422 142l-102 -113h-156l166 191q-196 209 -196 495q0 204 98 369t260 255.5t352 90.5q238 0 424 -143l100 110h156l-164 -186q93 -96 144 -223.5t51 -272.5q0 -147 -57 -280t-153 -228t-227 -151t-274 -56zM424 336l700 778q-133 111 -305 111
q-148 0 -272 -73.5t-194 -197t-70 -266.5q0 -100 37 -191t104 -161zM819 152q148 0 272.5 75t194.5 198t70 263q0 98 -36.5 189t-102.5 161l-703 -782q132 -104 305 -104z" />
    <glyph glyph-name="Ugrave" unicode="&#xd9;" horiz-adv-x="1462" 
d="M686 1493l-176 221h184l86 -221h-94zM731 -29q-243 0 -382.5 151.5t-139.5 389.5v858h166v-858q0 -169 93.5 -270t262.5 -101t262.5 101t93.5 270v858h166v-858q0 -238 -139.5 -389.5t-382.5 -151.5z" />
    <glyph glyph-name="Uacute" unicode="&#xda;" horiz-adv-x="1462" 
d="M674 1479l86 221h184l-176 -221h-94zM731 -29q-243 0 -382.5 151.5t-139.5 389.5v858h166v-858q0 -169 93.5 -270t262.5 -101t262.5 101t93.5 270v858h166v-858q0 -238 -139.5 -389.5t-382.5 -151.5z" />
    <glyph glyph-name="Ucircumflex" unicode="&#xdb;" horiz-adv-x="1462" 
d="M543 1499l131 213h104l131 -213h-104l-78 127l-80 -127h-104zM731 -29q-243 0 -382.5 151.5t-139.5 389.5v858h166v-858q0 -169 93.5 -270t262.5 -101t262.5 101t93.5 270v858h166v-858q0 -238 -139.5 -389.5t-382.5 -151.5z" />
    <glyph glyph-name="Udieresis" unicode="&#xdc;" horiz-adv-x="1462" 
d="M592 1466q-32 0 -56 23t-24 55t24 55t56 23q31 0 54.5 -23t23.5 -55t-23.5 -55t-54.5 -23zM860 1466q-31 0 -54.5 23t-23.5 55t23.5 55t54.5 23q32 0 56 -23t24 -55t-24 -55t-56 -23zM731 -29q-243 0 -382.5 151.5t-139.5 389.5v858h166v-858q0 -169 93.5 -270
t262.5 -101t262.5 101t93.5 270v858h166v-858q0 -238 -139.5 -389.5t-382.5 -151.5z" />
    <glyph glyph-name="Yacute" unicode="&#xdd;" horiz-adv-x="1290" 
d="M592 1485l86 221h184l-176 -221h-94zM559 0v555l-526 815h200l412 -622l412 622h200l-526 -817v-553h-172z" />
    <glyph glyph-name="Thorn" unicode="&#xde;" horiz-adv-x="1275" 
d="M221 -2v1436h158v-228h274q127 0 228 -42.5t161.5 -114t91.5 -156.5t31 -176q0 -94 -31 -179.5t-91.5 -156t-161 -112.5t-228.5 -42h-274v-229h-158zM379 367h262q88 0 157 28.5t107.5 69.5t64 92t34 90t8.5 70q0 33 -8.5 73t-33.5 90.5t-64 90.5t-108 68t-157 28h-262
v-700z" />
    <glyph glyph-name="germandbls" unicode="&#xdf;" horiz-adv-x="1218" 
d="M653 -10q-53 0 -118 6v139q16 -3 63 -8q155 -13 264 66t109 184q0 56 -16 100.5t-40.5 70.5t-53 54.5l-53 53t-40.5 64.5t-16 91q0 34 11 62.5t26.5 50.5t31 45t26.5 57.5t11 77.5q0 108 -74.5 176t-193.5 68q-52 0 -94 -18t-69 -49t-45.5 -73.5t-26 -89.5t-7.5 -100
v-1018h-158v1034q0 130 46 232.5t137.5 163.5t216.5 61q188 0 305 -103t117 -260q0 -60 -16 -109.5t-35.5 -75.5t-35.5 -59.5t-16 -66.5q0 -39 12 -70t31.5 -53t43.5 -42.5t47.5 -46t43 -56.5t31.5 -80.5t12 -112.5t-32.5 -127.5t-91.5 -119t-151.5 -87.5t-201.5 -32z" />
    <glyph glyph-name="agrave" unicode="&#xe0;" horiz-adv-x="1351" 
d="M616 1212l-176 222h185l86 -222h-95zM657 0q-112 0 -214.5 44t-176.5 118t-118 176.5t-44 214.5q0 149 74 276t201.5 201t277.5 74q149 0 276 -74t201 -201t74 -276v-553h-164v229q-55 -103 -159 -166t-228 -63zM657 164q160 0 273.5 114t113.5 275q0 160 -113.5 273.5
t-273.5 113.5q-161 0 -275 -113.5t-114 -273.5q0 -161 114 -275t275 -114z" />
    <glyph glyph-name="aacute" unicode="&#xe1;" horiz-adv-x="1351" 
d="M604 1198l86 221h184l-176 -221h-94zM657 0q-112 0 -214.5 44t-176.5 118t-118 176.5t-44 214.5q0 149 74 276t201.5 201t277.5 74q149 0 276 -74t201 -201t74 -276v-553h-164v229q-55 -103 -159 -166t-228 -63zM657 164q160 0 273.5 114t113.5 275q0 160 -113.5 273.5
t-273.5 113.5q-161 0 -275 -113.5t-114 -273.5q0 -161 114 -275t275 -114z" />
    <glyph glyph-name="acircumflex" unicode="&#xe2;" horiz-adv-x="1351" 
d="M473 1221l131 213h105l131 -213h-105l-78 127l-79 -127h-105zM657 0q-112 0 -214.5 44t-176.5 118t-118 176.5t-44 214.5q0 149 74 276t201.5 201t277.5 74q149 0 276 -74t201 -201t74 -276v-553h-164v229q-55 -103 -159 -166t-228 -63zM657 164q160 0 273.5 114
t113.5 275q0 160 -113.5 273.5t-273.5 113.5q-161 0 -275 -113.5t-114 -273.5q0 -161 114 -275t275 -114z" />
    <glyph glyph-name="atilde" unicode="&#xe3;" horiz-adv-x="1351" 
d="M463 1219q0 29 0.5 44t5.5 37.5t14.5 33.5t28 19.5t45.5 8.5q19 -1 49 -10.5t54.5 -18.5t47.5 -14t36.5 4.5t13.5 36.5h94q0 -29 -0.5 -44t-5.5 -37t-14.5 -32.5t-28 -19t-45.5 -8.5q-19 1 -49 11t-54.5 18.5t-47.5 13t-36.5 -5.5t-13.5 -37h-94zM657 0q-112 0 -214.5 44
t-176.5 118t-118 176.5t-44 214.5q0 149 74 276t201.5 201t277.5 74q149 0 276 -74t201 -201t74 -276v-553h-164v229q-55 -103 -159 -166t-228 -63zM657 164q160 0 273.5 114t113.5 275q0 160 -113.5 273.5t-273.5 113.5q-161 0 -275 -113.5t-114 -273.5q0 -161 114 -275
t275 -114z" />
    <glyph glyph-name="adieresis" unicode="&#xe4;" horiz-adv-x="1351" 
d="M522 1186q-32 0 -56 23t-24 55t23.5 54.5t56.5 22.5q31 0 54.5 -22.5t23.5 -54.5t-23.5 -55t-54.5 -23zM791 1186q-31 0 -54.5 23t-23.5 55t23.5 54.5t54.5 22.5q32 0 55.5 -22.5t23.5 -54.5t-23.5 -55t-55.5 -23zM657 0q-112 0 -214.5 44t-176.5 118t-118 176.5
t-44 214.5q0 149 74 276t201.5 201t277.5 74q149 0 276 -74t201 -201t74 -276v-553h-164v229q-55 -103 -159 -166t-228 -63zM657 164q160 0 273.5 114t113.5 275q0 160 -113.5 273.5t-273.5 113.5q-161 0 -275 -113.5t-114 -273.5q0 -161 114 -275t275 -114z" />
    <glyph glyph-name="aring" unicode="&#xe5;" horiz-adv-x="1351" 
d="M657 1229q-45 0 -78.5 31.5t-33.5 80.5t33.5 80t78.5 31q46 0 78.5 -31t32.5 -80q0 -50 -32.5 -81t-78.5 -31zM657 1286q23 0 39.5 16t16.5 39t-16.5 39.5t-39.5 16.5t-38 -16t-15 -40q0 -23 15 -39t38 -16zM657 0q-112 0 -214.5 44t-176.5 118t-118 176.5t-44 214.5
q0 149 74 276t201.5 201t277.5 74q149 0 276 -74t201 -201t74 -276v-553h-164v229q-55 -103 -159 -166t-228 -63zM657 164q160 0 273.5 114t113.5 275q0 160 -113.5 273.5t-273.5 113.5q-161 0 -275 -113.5t-114 -273.5q0 -161 114 -275t275 -114z" />
    <glyph glyph-name="ae" unicode="&#xe6;" horiz-adv-x="2273" 
d="M1681 -27q-170 0 -294.5 90t-180.5 228v-297h-141v248q-61 -107 -171 -171.5t-239 -64.5q-148 0 -275 73t-201.5 199t-74.5 275q0 154 76.5 282t203 199.5t271.5 71.5q177 0 317.5 -103t192.5 -264q45 171 183.5 275t304.5 104q132 0 241 -46t180 -130.5t98.5 -204
t-3.5 -266.5h-852q6 -137 117.5 -241.5t267.5 -104.5q79 0 185 37.5t138 93.5l134 -102q-79 -91 -204.5 -136t-273.5 -45zM1315 618h688q11 33 6 71.5t-17 77t-41 75t-66.5 64t-94.5 44.5t-123 17q-79 0 -147 -30.5t-112 -80t-68.5 -111.5t-24.5 -127zM655 158
q168 0 285 116t117 279t-117.5 283t-284.5 120t-284 -120t-117 -283q0 -164 116.5 -279.5t284.5 -115.5z" />
    <glyph glyph-name="ccedilla" unicode="&#xe7;" horiz-adv-x="1200" 
d="M1122 231q-54 -113 -169 -186.5t-257 -85.5l-12 -43q38 0 53.5 -25t5.5 -57q-11 -37 -28 -60.5t-41 -35.5t-43 -16.5t-51 -8.5l-37 92q70 0 82 43q3 15 -7 23t-19.5 9t-27.5 1l31 78q-105 9 -200 58t-164 125t-109.5 177.5t-40.5 210.5q0 128 48 237.5t127 181.5
t179 112.5t205 40.5q154 0 284.5 -77t188.5 -198l-121 -110q-25 58 -67 102.5t-89.5 69.5t-95 37t-92.5 12q-74 0 -145.5 -27.5t-129 -77.5t-93 -129t-35.5 -174q0 -168 118 -288.5t285 -120.5q114 0 212 63.5t134 155.5z" />
    <glyph glyph-name="egrave" unicode="&#xe8;" horiz-adv-x="1216" 
d="M561 1221l-176 221h184l86 -221h-94zM631 -23q-120 0 -223.5 49.5t-172.5 130t-108 182t-39 206.5q0 153 63 281t182.5 206t272.5 78q128 0 235 -45t177 -128.5t97.5 -201.5t-3.5 -264h-846q5 -90 55.5 -168.5t137.5 -127.5t190 -50q79 0 185.5 37.5t138.5 93.5l129 -100
q-77 -89 -200.5 -134t-270.5 -45zM266 614h686q9 34 2.5 73t-19 77.5t-42 74.5t-67 63.5t-93.5 44t-123 16.5q-104 0 -184.5 -53.5t-120 -132t-39.5 -163.5z" />
    <glyph glyph-name="eacute" unicode="&#xe9;" horiz-adv-x="1216" 
d="M549 1206l86 221h184l-176 -221h-94zM631 -23q-120 0 -223.5 49.5t-172.5 130t-108 182t-39 206.5q0 153 63 281t182.5 206t272.5 78q128 0 235 -45t177 -128.5t97.5 -201.5t-3.5 -264h-846q5 -90 55.5 -168.5t137.5 -127.5t190 -50q79 0 185.5 37.5t138.5 93.5l129 -100
q-77 -89 -200.5 -134t-270.5 -45zM266 614h686q9 34 2.5 73t-19 77.5t-42 74.5t-67 63.5t-93.5 44t-123 16.5q-104 0 -184.5 -53.5t-120 -132t-39.5 -163.5z" />
    <glyph glyph-name="ecircumflex" unicode="&#xea;" horiz-adv-x="1216" 
d="M420 1229l131 213h104l131 -213h-104l-78 127l-80 -127h-104zM631 -23q-120 0 -223.5 49.5t-172.5 130t-108 182t-39 206.5q0 153 63 281t182.5 206t272.5 78q128 0 235 -45t177 -128.5t97.5 -201.5t-3.5 -264h-846q5 -90 55.5 -168.5t137.5 -127.5t190 -50
q79 0 185.5 37.5t138.5 93.5l129 -100q-77 -89 -200.5 -134t-270.5 -45zM266 614h686q9 34 2.5 73t-19 77.5t-42 74.5t-67 63.5t-93.5 44t-123 16.5q-104 0 -184.5 -53.5t-120 -132t-39.5 -163.5z" />
    <glyph glyph-name="edieresis" unicode="&#xeb;" horiz-adv-x="1216" 
d="M467 1194q-32 0 -56 23t-24 55t24 55t56 23q31 0 54.5 -23t23.5 -55t-23.5 -55t-54.5 -23zM735 1194q-31 0 -54.5 23t-23.5 55t23.5 55t54.5 23q32 0 56 -23t24 -55t-24 -55t-56 -23zM631 -23q-120 0 -223.5 49.5t-172.5 130t-108 182t-39 206.5q0 153 63 281t182.5 206
t272.5 78q128 0 235 -45t177 -128.5t97.5 -201.5t-3.5 -264h-846q5 -90 55.5 -168.5t137.5 -127.5t190 -50q79 0 185.5 37.5t138.5 93.5l129 -100q-77 -89 -200.5 -134t-270.5 -45zM266 614h686q9 34 2.5 73t-19 77.5t-42 74.5t-67 63.5t-93.5 44t-123 16.5
q-104 0 -184.5 -53.5t-120 -132t-39.5 -163.5z" />
    <glyph glyph-name="igrave" unicode="&#xec;" horiz-adv-x="389" 
d="M109 1237l-177 223h185l86 -223h-94zM84 0v1071h160v-1071h-160z" />
    <glyph glyph-name="iacute" unicode="&#xed;" horiz-adv-x="251" 
d="M74 1239l86 221h184l-176 -221h-94zM47 0v1120h160v-1120h-160z" />
    <glyph glyph-name="icircumflex" unicode="&#xee;" horiz-adv-x="251" 
d="M-55 1262l131 213h104l131 -213h-104l-78 127l-80 -127h-104zM47 0v1120h160v-1120h-160z" />
    <glyph glyph-name="idieresis" unicode="&#xef;" horiz-adv-x="491" 
d="M123 1227q-29 0 -50.5 21t-21.5 50t21 49.5t51 22.5q29 1 51.5 -21t22.5 -51t-22 -50t-52 -21zM369 1227q-29 0 -50.5 21t-21.5 50t21 49.5t51 22.5q29 1 50 -20.5t21 -51.5q0 -29 -21 -50t-50 -21zM164 0v1071h160v-1071h-160z" />
    <glyph glyph-name="eth" unicode="&#xf0;" horiz-adv-x="1255" 
d="M629 -49q-107 0 -205 38.5t-172.5 107t-119 170.5t-44.5 222q0 114 56.5 222t155 181.5t231 95.5t284.5 -36q-30 56 -174 195l-199 -98l-100 98l215 106l-158 148l138 63l155 -153l226 110l98 -98l-221 -113q216 -215 294 -366.5t78 -354.5q0 -159 -75 -283.5
t-197 -189.5t-266 -65zM629 102q161 0 275 110.5t114 276.5q0 102 -55.5 189.5t-143.5 136.5t-184 49q-159 0 -277 -112.5t-118 -262.5q0 -167 115.5 -277t273.5 -110z" />
    <glyph glyph-name="ntilde" unicode="&#xf1;" horiz-adv-x="1341" 
d="M475 1214q0 29 0.5 44t5.5 37.5t14.5 34t28 20t45.5 8.5q19 -1 49 -10.5t54.5 -18.5t47.5 -14t36.5 4.5t13.5 36.5h94q0 -29 -0.5 -44t-5.5 -37t-14.5 -33t-28 -19.5t-45.5 -8.5q-19 1 -49 11t-54.5 18.5t-47.5 13t-36.5 -5.5t-13.5 -37h-94zM162 0v561q0 240 141 380
t369 140q227 0 367.5 -140t140.5 -380v-561h-164v561q0 171 -92 264t-252 93t-253 -94t-93 -263v-561h-164z" />
    <glyph glyph-name="ograve" unicode="&#xf2;" horiz-adv-x="1292" 
d="M606 1212l-176 222h184l86 -222h-94zM647 -25q-114 0 -217.5 44.5t-178.5 120t-119 179t-44 216.5t44 216t119 178t178.5 119t217.5 44q113 0 216 -44t178 -119t119 -178t44 -216q0 -151 -74.5 -280t-203 -204.5t-279.5 -75.5zM647 139q162 0 277.5 116.5t115.5 279.5
t-115 278t-278 115q-164 0 -279.5 -115t-115.5 -278t115.5 -279.5t279.5 -116.5z" />
    <glyph glyph-name="oacute" unicode="&#xf3;" horiz-adv-x="1292" 
d="M594 1198l86 221h184l-176 -221h-94zM647 -25q-114 0 -217.5 44.5t-178.5 120t-119 179t-44 216.5t44 216t119 178t178.5 119t217.5 44q113 0 216 -44t178 -119t119 -178t44 -216q0 -151 -74.5 -280t-203 -204.5t-279.5 -75.5zM647 139q162 0 277.5 116.5t115.5 279.5
t-115 278t-278 115q-164 0 -279.5 -115t-115.5 -278t115.5 -279.5t279.5 -116.5z" />
    <glyph glyph-name="ocircumflex" unicode="&#xf4;" horiz-adv-x="1292" 
d="M465 1221l131 213h104l131 -213h-104l-78 127l-80 -127h-104zM647 -25q-114 0 -217.5 44.5t-178.5 120t-119 179t-44 216.5t44 216t119 178t178.5 119t217.5 44q113 0 216 -44t178 -119t119 -178t44 -216q0 -151 -74.5 -280t-203 -204.5t-279.5 -75.5zM647 139
q162 0 277.5 116.5t115.5 279.5t-115 278t-278 115q-164 0 -279.5 -115t-115.5 -278t115.5 -279.5t279.5 -116.5z" />
    <glyph glyph-name="otilde" unicode="&#xf5;" horiz-adv-x="1292" 
d="M453 1219q0 29 0.5 44t5.5 37.5t14.5 33.5t28 19.5t45.5 8.5q19 -1 49 -10.5t54.5 -18.5t47.5 -14t36.5 4.5t13.5 36.5h94q0 -29 -0.5 -44t-5.5 -37t-14.5 -32.5t-28 -19t-45.5 -8.5q-19 1 -49 11t-54.5 18.5t-47.5 13t-36.5 -5.5t-13.5 -37h-94zM647 -25
q-114 0 -217.5 44.5t-178.5 120t-119 179t-44 216.5t44 216t119 178t178.5 119t217.5 44q113 0 216 -44t178 -119t119 -178t44 -216q0 -151 -74.5 -280t-203 -204.5t-279.5 -75.5zM647 139q162 0 277.5 116.5t115.5 279.5t-115 278t-278 115q-164 0 -279.5 -115t-115.5 -278
t115.5 -279.5t279.5 -116.5z" />
    <glyph glyph-name="odieresis" unicode="&#xf6;" horiz-adv-x="1292" 
d="M512 1186q-32 0 -56 23t-24 55t23.5 54.5t56.5 22.5q31 0 54.5 -22.5t23.5 -54.5t-23.5 -55t-54.5 -23zM780 1186q-31 0 -54.5 23t-23.5 55t23.5 54.5t54.5 22.5q33 0 56.5 -22.5t23.5 -54.5t-24 -55t-56 -23zM647 -25q-114 0 -217.5 44.5t-178.5 120t-119 179t-44 216.5
t44 216t119 178t178.5 119t217.5 44q113 0 216 -44t178 -119t119 -178t44 -216q0 -151 -74.5 -280t-203 -204.5t-279.5 -75.5zM647 139q162 0 277.5 116.5t115.5 279.5t-115 278t-278 115q-164 0 -279.5 -115t-115.5 -278t115.5 -279.5t279.5 -116.5z" />
    <glyph glyph-name="divide" unicode="&#xf7;" horiz-adv-x="1202" 
d="M600 973q-47 0 -81 33.5t-34 80.5q0 46 34 80.5t81 34.5t81 -34.5t34 -80.5q0 -47 -34 -80.5t-81 -33.5zM139 618v156h922v-156h-922zM600 190q-47 0 -81 35t-34 82q0 46 34 79.5t81 33.5t81 -33.5t34 -79.5q0 -47 -34 -82t-81 -35z" />
    <glyph glyph-name="oslash" unicode="&#xf8;" horiz-adv-x="1280" 
d="M641 -25q-187 0 -336 109l-57 -68h-96l98 117q-162 162 -162 402q0 124 47.5 231.5t125.5 179t177 112t203 40.5q195 0 338 -109l59 68h97l-99 -117q74 -74 115 -178t41 -227q0 -163 -77 -292.5t-202 -198.5t-272 -69zM356 254l521 614q-99 74 -236 74q-161 0 -280 -119
t-119 -288q0 -164 114 -281zM641 129q167 0 282 116t115 290q0 171 -108 282l-520 -612q107 -76 231 -76z" />
    <glyph glyph-name="ugrave" unicode="&#xf9;" horiz-adv-x="1212" 
d="M559 1202l-176 221h184l86 -221h-94zM606 -10q-228 0 -369 140t-141 380v561h164v-561q0 -167 93 -261.5t253 -94.5t252 93t92 263v561h164v-561q0 -240 -140.5 -380t-367.5 -140z" />
    <glyph glyph-name="uacute" unicode="&#xfa;" horiz-adv-x="1212" 
d="M547 1188l86 221h184l-176 -221h-94zM606 -10q-228 0 -369 140t-141 380v561h164v-561q0 -167 93 -261.5t253 -94.5t252 93t92 263v561h164v-561q0 -240 -140.5 -380t-367.5 -140z" />
    <glyph glyph-name="ucircumflex" unicode="&#xfb;" horiz-adv-x="1212" 
d="M416 1210l131 213h104l131 -213h-104l-78 127l-80 -127h-104zM606 -10q-228 0 -369 140t-141 380v561h164v-561q0 -167 93 -261.5t253 -94.5t252 93t92 263v561h164v-561q0 -240 -140.5 -380t-367.5 -140z" />
    <glyph glyph-name="udieresis" unicode="&#xfc;" horiz-adv-x="1212" 
d="M465 1176q-33 0 -56.5 22.5t-23.5 54.5t24 55t56 23q31 0 54.5 -23t23.5 -55t-23.5 -54.5t-54.5 -22.5zM733 1176q-31 0 -54.5 22.5t-23.5 54.5t23.5 55t54.5 23q32 0 56 -23t24 -55t-23.5 -54.5t-56.5 -22.5zM606 -10q-228 0 -369 140t-141 380v561h164v-561
q0 -167 93 -261.5t253 -94.5t252 93t92 263v561h164v-561q0 -240 -140.5 -380t-367.5 -140z" />
    <glyph glyph-name="yacute" unicode="&#xfd;" horiz-adv-x="1173" 
d="M532 1155l86 221h185l-176 -221h-95zM152 -406v158q53 -11 103.5 1.5t87 41.5t67.5 67.5t45.5 80t20 78t-8.5 61.5l-414 989h176l357 -844l356 844h176l-448 -1071q-50 -104 -89.5 -169t-101.5 -133t-143.5 -93.5t-183.5 -10.5z" />
    <glyph glyph-name="thorn" unicode="&#xfe;" horiz-adv-x="1001" 
d="M190 -297v1731h144v-357h92q154 0 266.5 -72.5t166.5 -187t54 -252.5q0 -107 -31.5 -198.5t-91.5 -160.5t-153.5 -108t-210.5 -39h-92v-356h-144zM334 199h76q177 0 268.5 102t91.5 264q0 78 -22 145t-65 119.5t-113.5 82.5t-159.5 30h-76v-743z" />
    <glyph glyph-name="ydieresis" unicode="&#xff;" horiz-adv-x="1173" 
d="M451 1143q-32 0 -56 23t-24 55t23.5 54.5t56.5 22.5q31 0 54 -22.5t23 -54.5t-23 -55t-54 -23zM719 1143q-31 0 -54.5 23t-23.5 55t23.5 54.5t54.5 22.5q33 0 56.5 -22.5t23.5 -54.5t-24 -55t-56 -23zM152 -406v158q53 -11 103.5 1.5t87 41.5t67.5 67.5t45.5 80t20 78
t-8.5 61.5l-414 989h176l357 -844l356 844h176l-448 -1071q-50 -104 -89.5 -169t-101.5 -133t-143.5 -93.5t-183.5 -10.5z" />
    <glyph glyph-name="Amacron" unicode="&#x100;" horiz-adv-x="1497" 
d="M555 1501v98h385v-98h-385zM1309 0l-166 307h-789l-166 -307h-188l750 1370l747 -1370h-188zM442 461h615l-307 577z" />
    <glyph glyph-name="amacron" unicode="&#x101;" horiz-adv-x="1351" 
d="M463 1229v98h385v-98h-385zM657 0q-112 0 -214.5 44t-176.5 118t-118 176.5t-44 214.5q0 149 74 276t201.5 201t277.5 74q149 0 276 -74t201 -201t74 -276v-553h-164v229q-55 -103 -159 -166t-228 -63zM657 164q160 0 273.5 114t113.5 275q0 160 -113.5 273.5
t-273.5 113.5q-161 0 -275 -113.5t-114 -273.5q0 -161 114 -275t275 -114z" />
    <glyph glyph-name="Abreve" unicode="&#x102;" horiz-adv-x="1497" 
d="M748 1446q-89 0 -143 45t-54 119h121q0 -32 20 -49t56 -17q73 0 73 66h123q0 -74 -53.5 -119t-142.5 -45zM1309 0l-166 307h-789l-166 -307h-188l750 1370l747 -1370h-188zM442 461h615l-307 577z" />
    <glyph glyph-name="abreve" unicode="&#x103;" horiz-adv-x="1351" 
d="M657 1174q-89 0 -142.5 44.5t-53.5 118.5h121q0 -65 75 -65q74 0 74 65h123q0 -74 -54 -118.5t-143 -44.5zM657 0q-112 0 -214.5 44t-176.5 118t-118 176.5t-44 214.5q0 149 74 276t201.5 201t277.5 74q149 0 276 -74t201 -201t74 -276v-553h-164v229q-55 -103 -159 -166
t-228 -63zM657 164q160 0 273.5 114t113.5 275q0 160 -113.5 273.5t-273.5 113.5q-161 0 -275 -113.5t-114 -273.5q0 -161 114 -275t275 -114z" />
    <glyph glyph-name="Aogonek" unicode="&#x104;" horiz-adv-x="1497" 
d="M1491 0q-30 -15 -50 -35t-25.5 -38.5t1 -34t29 -23t57.5 -4.5v-105q-140 -7 -172 68q-30 104 84 172h-106l-166 307h-789l-166 -307h-188l750 1370l747 -1370h-6zM442 461h615l-307 577z" />
    <glyph glyph-name="aogonek" unicode="&#x105;" horiz-adv-x="1351" 
d="M1186 0q-42 -26 -55.5 -58t9.5 -52.5t77 -14.5v-104q-77 -4 -118.5 16.5t-54.5 50.5q-27 98 68 162h-68v229q-55 -103 -159 -166t-228 -63q-112 0 -214.5 44t-176.5 118t-118 176.5t-44 214.5q0 149 74 276t201.5 201t277.5 74q149 0 276 -74t201 -201t74 -276v-553h-22z
M657 164q160 0 273.5 114t113.5 275q0 160 -113.5 273.5t-273.5 113.5q-161 0 -275 -113.5t-114 -273.5q0 -161 114 -275t275 -114z" />
    <glyph glyph-name="Cacute" unicode="&#x106;" horiz-adv-x="1431" 
d="M752 1473l86 221h184l-176 -221h-94zM805 -33q-155 0 -289.5 61.5t-224 162t-140.5 229.5t-51 264q0 139 50.5 268.5t140.5 229t224 159.5t290 60q186 0 313 -66.5t232 -187.5l-119 -119q-34 41 -68 72.5t-86 65.5t-121.5 52.5t-150.5 18.5q-97 0 -184 -31.5t-151 -86
t-111 -125t-71 -150t-24 -160.5q0 -145 70.5 -272t195.5 -204t275 -77q145 0 255 55t171 152l119 -119q-191 -252 -545 -252z" />
    <glyph glyph-name="cacute" unicode="&#x107;" horiz-adv-x="1200" 
d="M594 1212l86 222h184l-176 -222h-94zM647 -43q-150 0 -279 77.5t-204.5 209.5t-75.5 286q0 128 48 237.5t127 181.5t179 112.5t205 40.5q154 0 284.5 -77t188.5 -198l-121 -110q-25 58 -67 102.5t-89.5 69.5t-95 37t-92.5 12q-74 0 -145.5 -27.5t-129 -77.5t-93 -129
t-35.5 -174q0 -168 118 -288.5t285 -120.5q114 0 212 63.5t134 155.5l121 -109q-59 -123 -189.5 -198.5t-285.5 -75.5z" />
    <glyph glyph-name="Cdotaccent" unicode="&#x10a;" horiz-adv-x="1431" 
d="M805 1454q-32 0 -55 23t-23 55t23 55t55 23t56 -23t24 -55t-24 -55t-56 -23zM805 -33q-155 0 -289.5 61.5t-224 162t-140.5 229.5t-51 264q0 139 50.5 268.5t140.5 229t224 159.5t290 60q186 0 313 -66.5t232 -187.5l-119 -119q-34 41 -68 72.5t-86 65.5t-121.5 52.5
t-150.5 18.5q-97 0 -184 -31.5t-151 -86t-111 -125t-71 -150t-24 -160.5q0 -145 70.5 -272t195.5 -204t275 -77q145 0 255 55t171 152l119 -119q-191 -252 -545 -252z" />
    <glyph glyph-name="cdotaccent" unicode="&#x10b;" horiz-adv-x="1200" 
d="M647 1194q-32 0 -55 23t-23 55t23 55t55 23t56 -23t24 -55t-24 -55t-56 -23zM647 -43q-150 0 -279 77.5t-204.5 209.5t-75.5 286q0 128 48 237.5t127 181.5t179 112.5t205 40.5q154 0 284.5 -77t188.5 -198l-121 -110q-25 58 -67 102.5t-89.5 69.5t-95 37t-92.5 12
q-74 0 -145.5 -27.5t-129 -77.5t-93 -129t-35.5 -174q0 -168 118 -288.5t285 -120.5q114 0 212 63.5t134 155.5l121 -109q-59 -123 -189.5 -198.5t-285.5 -75.5z" />
    <glyph glyph-name="Ccaron" unicode="&#x10c;" horiz-adv-x="1431" 
d="M754 1466l-131 213h104l80 -127l78 127h104l-131 -213h-104zM805 -33q-155 0 -289.5 61.5t-224 162t-140.5 229.5t-51 264q0 139 50.5 268.5t140.5 229t224 159.5t290 60q186 0 313 -66.5t232 -187.5l-119 -119q-34 41 -68 72.5t-86 65.5t-121.5 52.5t-150.5 18.5
q-97 0 -184 -31.5t-151 -86t-111 -125t-71 -150t-24 -160.5q0 -145 70.5 -272t195.5 -204t275 -77q145 0 255 55t171 152l119 -119q-191 -252 -545 -252z" />
    <glyph glyph-name="ccaron" unicode="&#x10d;" horiz-adv-x="1200" 
d="M596 1206l-131 213h104l80 -127l78 127h104l-131 -213h-104zM647 -43q-150 0 -279 77.5t-204.5 209.5t-75.5 286q0 128 48 237.5t127 181.5t179 112.5t205 40.5q154 0 284.5 -77t188.5 -198l-121 -110q-25 58 -67 102.5t-89.5 69.5t-95 37t-92.5 12q-74 0 -145.5 -27.5
t-129 -77.5t-93 -129t-35.5 -174q0 -168 118 -288.5t285 -120.5q114 0 212 63.5t134 155.5l121 -109q-59 -123 -189.5 -198.5t-285.5 -75.5z" />
    <glyph glyph-name="Dcaron" unicode="&#x10e;" horiz-adv-x="1511" 
d="M610 1485l-131 213h105l80 -127l77 127h105l-131 -213h-105zM221 0v1370h527q138 0 256 -42t210 -123.5t144.5 -214.5t52.5 -304q0 -148 -53 -277t-143 -218t-211.5 -140t-255.5 -51h-527zM391 164h330q108 0 203.5 39.5t164 108t108.5 165.5t40 209q0 127 -39.5 227
t-109.5 163.5t-163.5 96.5t-203.5 33h-330v-1042z" />
    <glyph glyph-name="dcaron" unicode="&#x10f;" horiz-adv-x="1472" 
d="M1278 1233l129 332h197l-261 -332h-65zM668 -31q-113 0 -216 44.5t-178 119.5t-119 178.5t-44 216.5t44 216t119 178t178 119t216 44q127 0 232.5 -64.5t162.5 -170.5v584h164v-1041q0 -60 15 -106t38 -70.5t46 -36.5t44 -12v-168q-206 0 -250 233q-68 -123 -185 -193.5
t-267 -70.5zM668 133q164 0 279.5 116t115.5 279t-115.5 278.5t-279.5 115.5q-163 0 -278.5 -115.5t-115.5 -278.5t115.5 -279t278.5 -116z" />
    <glyph glyph-name="Dcroat" unicode="&#x110;" horiz-adv-x="1576" 
d="M233 0v621h-213v131h213v618h582q113 0 212 -26t182 -80.5t142.5 -134t92.5 -192.5t33 -251q0 -148 -51 -276.5t-139.5 -218t-211 -140.5t-260.5 -51h-582zM416 150h370q150 0 268.5 70.5t183.5 193t65 272.5q0 254 -141.5 395.5t-375.5 141.5h-370v-471h370v-131h-370
v-471z" />
    <glyph glyph-name="dcroat" unicode="&#x111;" horiz-adv-x="1447" 
d="M1448 1198h-240v-782q0 -60 15 -106.5t38 -71t46 -36.5t43 -12v-190q-203 0 -250 233q-66 -122 -184 -193t-267 -71q-113 0 -216 44.5t-178 119.5t-119 178.5t-44 216.5t44 216t119 178t178 119t216 44q127 0 232.5 -64.5t162.5 -170.5v348h-245v88h245v148h164v-148h240
v-88zM649 133q163 0 279 116t116 279t-116 278.5t-279 115.5t-278 -115.5t-115 -278.5t115 -279t278 -116z" />
    <glyph glyph-name="Emacron" unicode="&#x112;" horiz-adv-x="1314" 
d="M496 1516v98h385v-98h-385zM221 0v1370h977v-147h-807v-455h709v-152h-709v-466h807v-150h-977z" />
    <glyph glyph-name="emacron" unicode="&#x113;" horiz-adv-x="1216" 
d="M410 1237v98h385v-98h-385zM631 -23q-120 0 -223.5 49.5t-172.5 130t-108 182t-39 206.5q0 153 63 281t182.5 206t272.5 78q128 0 235 -45t177 -128.5t97.5 -201.5t-3.5 -264h-846q5 -90 55.5 -168.5t137.5 -127.5t190 -50q79 0 185.5 37.5t138.5 93.5l129 -100
q-77 -89 -200.5 -134t-270.5 -45zM266 614h686q9 34 2.5 73t-19 77.5t-42 74.5t-67 63.5t-93.5 44t-123 16.5q-104 0 -184.5 -53.5t-120 -132t-39.5 -163.5z" />
    <glyph glyph-name="Edotaccent" unicode="&#x116;" horiz-adv-x="1314" 
d="M688 1466q-32 0 -55 23t-23 55t23 55t55 23t56 -23t24 -55t-24 -55t-56 -23zM221 0v1370h977v-147h-807v-455h709v-152h-709v-466h807v-150h-977z" />
    <glyph glyph-name="edotaccent" unicode="&#x117;" horiz-adv-x="1216" 
d="M602 1188q-32 0 -55 23t-23 55t23 54.5t55 22.5q33 0 56.5 -22.5t23.5 -54.5t-24 -55t-56 -23zM631 -23q-120 0 -223.5 49.5t-172.5 130t-108 182t-39 206.5q0 153 63 281t182.5 206t272.5 78q128 0 235 -45t177 -128.5t97.5 -201.5t-3.5 -264h-846q5 -90 55.5 -168.5
t137.5 -127.5t190 -50q79 0 185.5 37.5t138.5 93.5l129 -100q-77 -89 -200.5 -134t-270.5 -45zM266 614h686q9 34 2.5 73t-19 77.5t-42 74.5t-67 63.5t-93.5 44t-123 16.5q-104 0 -184.5 -53.5t-120 -132t-39.5 -163.5z" />
    <glyph glyph-name="Eogonek" unicode="&#x118;" horiz-adv-x="1314" 
d="M1192 0q-49 -25 -67 -59t4 -57t79 -17v-105q-140 -7 -172 68q-31 101 82 170h-897v1370h977v-147h-807v-455h709v-152h-709v-466h807v-146h2h-2v-4h-6z" />
    <glyph glyph-name="eogonek" unicode="&#x119;" horiz-adv-x="1216" 
d="M606 1110q128 0 235 -45t177 -128.5t97.5 -201.5t-3.5 -264h-846q5 -90 55.5 -168.5t137.5 -127.5t190 -50q79 0 185.5 37.5t138.5 93.5l129 -100q-33 -39 -78 -70q-13 -33 9.5 -53.5t76.5 -14.5v-104q-140 -7 -172 68q-8 33 -6 53q-134 -58 -301 -58q-120 0 -223.5 49.5
t-172.5 130t-108 182t-39 206.5q0 153 63 281t182.5 206t272.5 78zM952 614q9 34 2.5 73t-19 77.5t-42 74.5t-67 63.5t-93.5 44t-123 16.5q-104 0 -184.5 -53.5t-120 -132t-39.5 -163.5h686z" />
    <glyph glyph-name="Ecaron" unicode="&#x11a;" horiz-adv-x="1314" 
d="M637 1479l-131 213h104l80 -127l78 127h104l-131 -213h-104zM221 0v1370h977v-147h-807v-455h709v-152h-709v-466h807v-150h-977z" />
    <glyph glyph-name="ecaron" unicode="&#x11b;" horiz-adv-x="1216" 
d="M551 1200l-131 213h104l80 -127l78 127h104l-131 -213h-104zM631 -23q-120 0 -223.5 49.5t-172.5 130t-108 182t-39 206.5q0 153 63 281t182.5 206t272.5 78q128 0 235 -45t177 -128.5t97.5 -201.5t-3.5 -264h-846q5 -90 55.5 -168.5t137.5 -127.5t190 -50
q79 0 185.5 37.5t138.5 93.5l129 -100q-77 -89 -200.5 -134t-270.5 -45zM266 614h686q9 34 2.5 73t-19 77.5t-42 74.5t-67 63.5t-93.5 44t-123 16.5q-104 0 -184.5 -53.5t-120 -132t-39.5 -163.5z" />
    <glyph glyph-name="Gbreve" unicode="&#x11e;" horiz-adv-x="1562" 
d="M807 1473q-89 0 -143 44.5t-54 118.5h121q0 -65 76 -65q74 0 74 65h123q0 -74 -54 -118.5t-143 -44.5zM809 -37q-142 0 -272 55t-226 149.5t-153.5 227t-57.5 279.5q0 159 62 295t163 225t227 139.5t257 50.5q311 0 512 -210l-119 -115q-163 160 -393 160
q-101 0 -198.5 -40.5t-174 -110.5t-123.5 -173.5t-47 -220.5t46.5 -220.5t123 -173.5t174 -110.5t199.5 -40.5q114 0 233 50.5t187 150.5v391h164v-481q-61 -93 -165.5 -158t-210 -92t-208.5 -27z" />
    <glyph glyph-name="gbreve" unicode="&#x11f;" horiz-adv-x="1316" 
d="M645 1145q-89 0 -142.5 45t-53.5 119h120q0 -32 20 -49t56 -17q74 0 74 66h123q0 -74 -54 -119t-143 -45zM647 1085q113 0 216 -44t178 -119t119 -178t44 -216v-532q0 -134 -44 -240t-121.5 -171.5t-177.5 -99.5t-216 -34v164q81 0 150.5 21.5t125 65t87.5 118t32 172.5
v213q-55 -105 -161.5 -170.5t-231.5 -65.5q-114 0 -217.5 44.5t-178.5 119.5t-119 178.5t-44 216.5t44 216t119 178t178.5 119t217.5 44zM647 133q163 0 278 116t115 279t-115 278.5t-278 115.5q-164 0 -279.5 -115.5t-115.5 -278.5t115.5 -279t279.5 -116z" />
    <glyph glyph-name="Gdotaccent" unicode="&#x120;" horiz-adv-x="1562" 
d="M807 1479q-32 0 -55 22.5t-23 54.5t23 55t55 23t56 -23t24 -55t-23.5 -54.5t-56.5 -22.5zM809 -37q-142 0 -272 55t-226 149.5t-153.5 227t-57.5 279.5q0 159 62 295t163 225t227 139.5t257 50.5q311 0 512 -210l-119 -115q-163 160 -393 160q-101 0 -198.5 -40.5
t-174 -110.5t-123.5 -173.5t-47 -220.5t46.5 -220.5t123 -173.5t174 -110.5t199.5 -40.5q114 0 233 50.5t187 150.5v391h164v-481q-61 -93 -165.5 -158t-210 -92t-208.5 -27z" />
    <glyph glyph-name="gdotaccent" unicode="&#x121;" horiz-adv-x="1316" 
d="M645 1151q-32 0 -55 23t-23 55t23 55t55 23t56 -23t24 -55t-24 -55t-56 -23zM647 1085q113 0 216 -44t178 -119t119 -178t44 -216v-532q0 -134 -44 -240t-121.5 -171.5t-177.5 -99.5t-216 -34v164q81 0 150.5 21.5t125 65t87.5 118t32 172.5v213q-55 -105 -161.5 -170.5
t-231.5 -65.5q-114 0 -217.5 44.5t-178.5 119.5t-119 178.5t-44 216.5t44 216t119 178t178.5 119t217.5 44zM647 133q163 0 278 116t115 279t-115 278.5t-278 115.5q-164 0 -279.5 -115.5t-115.5 -278.5t115.5 -279t279.5 -116z" />
    <glyph glyph-name="uni0122" unicode="&#x122;" horiz-adv-x="1562" 
d="M809 -37q-142 0 -272 55t-226 149.5t-153.5 227t-57.5 279.5q0 159 62 295t163 225t227 139.5t257 50.5q311 0 512 -210l-119 -115q-163 160 -393 160q-101 0 -198.5 -40.5t-174 -110.5t-123.5 -173.5t-47 -220.5t46.5 -220.5t123 -173.5t174 -110.5t199.5 -40.5
q114 0 233 50.5t187 150.5v391h164v-481q-61 -93 -165.5 -158t-210 -92t-208.5 -27zM793 -303l-35 8q20 39 20 90q-35 21 -35 64q0 32 22.5 52.5t53.5 20.5q29 0 49.5 -21t20.5 -52q0 -66 -96 -162z" />
    <glyph glyph-name="uni0123" unicode="&#x123;" horiz-adv-x="1316" 
d="M645 1171q-30 0 -51 21t-21 53q0 69 99 162l33 -8q-21 -47 -21 -88q35 -24 35 -66q0 -32 -22 -53t-52 -21zM647 1085q113 0 216 -44t178 -119t119 -178t44 -216v-532q0 -134 -44 -240t-121.5 -171.5t-177.5 -99.5t-216 -34v164q81 0 150.5 21.5t125 65t87.5 118t32 172.5
v213q-55 -105 -161.5 -170.5t-231.5 -65.5q-114 0 -217.5 44.5t-178.5 119.5t-119 178.5t-44 216.5t44 216t119 178t178.5 119t217.5 44zM647 133q163 0 278 116t115 279t-115 278.5t-278 115.5q-164 0 -279.5 -115.5t-115.5 -278.5t115.5 -279t279.5 -116z" />
    <glyph glyph-name="Hbar" unicode="&#x126;" horiz-adv-x="1286" 
d="M119 0v1010h-99v131h99v229h176v-229h696v229h174v-229h99v-131h-99v-1010h-174v616h-696v-616h-176zM295 768h696v242h-696v-242z" />
    <glyph glyph-name="hbar" unicode="&#x127;" horiz-adv-x="1167" 
d="M90 0v1165h-90v123h90v123h162v-123h280v-123h-280v-235q60 72 140.5 110.5t160.5 42t159 -25t139.5 -81.5t98 -136t37.5 -181v-659h-160l-2 633q0 85 -45 154t-109.5 102.5t-129.5 32.5q-52 -1 -102 -19.5t-92.5 -53t-68.5 -92.5t-26 -130v-627h-162z" />
    <glyph glyph-name="Imacron" unicode="&#x12a;" horiz-adv-x="612" 
d="M106 1513v99h386v-99h-386zM221 0v1370h170v-1370h-170z" />
    <glyph glyph-name="imacron" unicode="&#x12b;" horiz-adv-x="251" 
d="M-66 1270v98h385v-98h-385zM47 0v1120h160v-1120h-160z" />
    <glyph glyph-name="Iogonek" unicode="&#x12e;" horiz-adv-x="612" 
d="M403 4q-53 -25 -73.5 -60t1.5 -59t81 -18v-105q-140 -7 -172 68q-31 101 82 170h-101v1370h170v-1366h12z" />
    <glyph glyph-name="iogonek" unicode="&#x12f;" horiz-adv-x="251" 
d="M127 1221q-32 0 -55 22.5t-23 54.5t23 55t55 23t56 -23t24 -55t-23.5 -54.5t-56.5 -22.5zM217 2q-53 -25 -74 -60t1 -59t81 -18v-105q-140 -7 -172 68q-30 104 84 172h-90v1120h160v-1118h10z" />
    <glyph glyph-name="Idotaccent" unicode="&#x130;" horiz-adv-x="612" 
d="M299 1466q-32 0 -55 23t-23 55t23 55t55 23t56 -23t24 -55t-24 -55t-56 -23zM221 0v1370h170v-1370h-170z" />
    <glyph glyph-name="dotlessi" unicode="&#x131;" horiz-adv-x="251" 
d="M47 0v1120h160v-1120h-160z" />
    <glyph glyph-name="uni0136" unicode="&#x136;" horiz-adv-x="1376" 
d="M221 0v1370h170v-555l576 557h235l-647 -647l799 -725h-246l-684 600l-33 -35v-565h-170zM664 -272l-35 8q20 39 20 90q-35 21 -35 63q0 32 22.5 53t53.5 21q28 0 49 -21t21 -53q0 -30 -19.5 -65t-35 -52.5t-41.5 -43.5z" />
    <glyph glyph-name="uni0137" unicode="&#x137;" horiz-adv-x="1187" 
d="M641 680l524 -680h-202l-437 561l-172 -151v-410h-164v1081q0 83 20 155t59.5 128t104.5 88.5t148 32.5v-164q-84 0 -126 -65.5t-42 -174.5v-465l447 455h198zM608 -272l-35 8q21 41 21 90q-35 21 -35 63q0 32 22.5 53t53.5 21q28 0 49 -21t21 -53q0 -30 -20 -65.5
t-35 -52t-42 -43.5z" />
    <glyph glyph-name="Lacute" unicode="&#x139;" horiz-adv-x="1146" 
d="M246 1491l86 221h184l-176 -221h-94zM221 0v1370h170v-1206h737v-164h-907z" />
    <glyph glyph-name="lacute" unicode="&#x13a;" horiz-adv-x="612" 
d="M219 1587l86 221h184l-176 -221h-94zM522 0q-157 0 -244.5 110.5t-87.5 292.5v1092h164v-1087q0 -109 42 -174.5t126 -65.5v-168z" />
    <glyph glyph-name="uni013B" unicode="&#x13b;" horiz-adv-x="1146" 
d="M221 0v1370h170v-1206h737v-164h-907zM649 -303l-35 8q21 41 21 90q-35 21 -35 64q0 32 22.5 52.5t53.5 20.5q28 0 48.5 -20.5t20.5 -52.5q0 -66 -96 -162z" />
    <glyph glyph-name="uni013C" unicode="&#x13c;" horiz-adv-x="612" 
d="M522 0q-157 0 -244.5 110.5t-87.5 292.5v1092h164v-1087q0 -109 42 -174.5t126 -65.5v-168zM287 -272l-35 8q20 39 20 90q-34 20 -34 63q0 32 22 53t53 21q28 0 49 -21t21 -53q0 -30 -19.5 -65t-35 -52.5t-41.5 -43.5z" />
    <glyph glyph-name="Lcaron" unicode="&#x13d;" horiz-adv-x="1146" 
d="M248 1485l-131 213h104l80 -127l78 127h104l-131 -213h-104zM221 0v1370h170v-1206h737v-164h-907z" />
    <glyph glyph-name="lcaron" unicode="&#x13e;" horiz-adv-x="612" 
d="M221 1581l-131 213h105l79 -127l78 127h105l-131 -213h-105zM522 0q-157 0 -244.5 110.5t-87.5 292.5v1092h164v-1087q0 -109 42 -174.5t126 -65.5v-168z" />
    <glyph glyph-name="Lslash" unicode="&#x141;" horiz-adv-x="1124" 
d="M164 0v492l-90 -76l-41 108l131 115v582h-98v149h286v-594l285 246l41 -109l-326 -284v-477h752v-152h-940z" />
    <glyph glyph-name="lslash" unicode="&#x142;" horiz-adv-x="440" 
d="M133 0v543l-135 -113v141l135 113v725h164v-614l145 125v-142l-145 -125v-653h-164z" />
    <glyph glyph-name="Nacute" unicode="&#x143;" horiz-adv-x="1671" 
d="M731 1452l86 221h184l-176 -221h-94zM1479 -47l-1117 1048v-1001h-169v1370l1116 -1048v1048h170v-1417z" />
    <glyph glyph-name="nacute" unicode="&#x144;" horiz-adv-x="1341" 
d="M616 1194l86 221h185l-176 -221h-95zM162 0v561q0 240 141 380t369 140q227 0 367.5 -140t140.5 -380v-561h-164v561q0 171 -92 264t-252 93t-253 -94t-93 -263v-561h-164z" />
    <glyph glyph-name="uni0145" unicode="&#x145;" horiz-adv-x="1671" 
d="M1479 -47l-1117 1048v-1001h-169v1370l1116 -1048v1048h170v-1417zM838 -272l-35 8q20 39 20 90q-35 21 -35 63q0 32 22.5 53t53.5 21q28 0 49 -21t21 -53q0 -30 -19.5 -65t-35 -52.5t-41.5 -43.5z" />
    <glyph glyph-name="uni0146" unicode="&#x146;" horiz-adv-x="1341" 
d="M162 0v561q0 240 141 380t369 140q227 0 367.5 -140t140.5 -380v-561h-164v561q0 171 -92 264t-252 93t-253 -94t-93 -263v-561h-164zM645 -285l-35 9q21 41 21 90q-35 21 -35 63q0 32 22.5 53t53.5 21q28 0 48.5 -21t20.5 -53q0 -66 -96 -162z" />
    <glyph glyph-name="Ncaron" unicode="&#x147;" horiz-adv-x="1671" 
d="M733 1446l-131 213h105l79 -127l78 127h105l-131 -213h-105zM1479 -47l-1117 1048v-1001h-169v1370l1116 -1048v1048h170v-1417z" />
    <glyph glyph-name="ncaron" unicode="&#x148;" horiz-adv-x="1341" 
d="M618 1188l-131 213h105l80 -127l78 127h104l-131 -213h-105zM162 0v561q0 240 141 380t369 140q227 0 367.5 -140t140.5 -380v-561h-164v561q0 171 -92 264t-252 93t-253 -94t-93 -263v-561h-164z" />
    <glyph glyph-name="Eng" unicode="&#x14a;" horiz-adv-x="1548" 
d="M969 -322v150q81 0 145 44.5t64 127.5l-789 1061v-1061h-168v1370h146l788 -1061l2 1061h170v-1370q0 -76 -23.5 -134.5t-59.5 -93t-85.5 -56.5t-95.5 -30t-94 -8z" />
    <glyph glyph-name="eng" unicode="&#x14b;" horiz-adv-x="1271" 
d="M764 -258v135q73 0 119.5 29t46.5 96v643q0 72 -27 129t-70.5 89.5t-91.5 49.5t-96 17q-51 -1 -100.5 -18t-93 -49.5t-70.5 -89t-27 -128.5v-643h-164v660q0 106 38.5 191.5t102 138.5t144.5 81.5t165 28.5t165 -28.5t144.5 -81.5t102 -138.5t38.5 -191.5v-660
q0 -128 -87.5 -194t-238.5 -66z" />
    <glyph glyph-name="Omacron" unicode="&#x14c;" horiz-adv-x="1638" 
d="M627 1530v98h385v-98h-385zM821 -31q-196 0 -362 96.5t-262.5 262t-96.5 360.5t96.5 360.5t262.5 262t362 96.5q146 0 278.5 -57t228.5 -153t153 -229.5t57 -279.5t-57 -279.5t-153 -229.5t-228.5 -153t-278.5 -57zM819 141q148 0 274.5 73.5t200.5 199.5t74 274
q-1 111 -45.5 213t-118.5 175.5t-175 117t-210 43.5q-148 0 -274.5 -73.5t-200.5 -200t-74 -275.5q0 -148 74 -274t200.5 -199.5t274.5 -73.5z" />
    <glyph glyph-name="omacron" unicode="&#x14d;" horiz-adv-x="1292" 
d="M455 1229v98h385v-98h-385zM647 -25q-114 0 -217.5 44.5t-178.5 120t-119 179t-44 216.5t44 216t119 178t178.5 119t217.5 44q113 0 216 -44t178 -119t119 -178t44 -216q0 -151 -74.5 -280t-203 -204.5t-279.5 -75.5zM647 139q162 0 277.5 116.5t115.5 279.5t-115 278
t-278 115q-164 0 -279.5 -115t-115.5 -278t115.5 -279.5t279.5 -116.5z" />
    <glyph glyph-name="Ohungarumlaut" unicode="&#x150;" horiz-adv-x="1638" 
d="M700 1481l19 221h158l-95 -221h-82zM844 1481l94 221h156l-170 -221h-80zM821 -31q-196 0 -362 96.5t-262.5 262t-96.5 360.5t96.5 360.5t262.5 262t362 96.5q146 0 278.5 -57t228.5 -153t153 -229.5t57 -279.5t-57 -279.5t-153 -229.5t-228.5 -153t-278.5 -57zM819 141
q148 0 274.5 73.5t200.5 199.5t74 274q-1 111 -45.5 213t-118.5 175.5t-175 117t-210 43.5q-148 0 -274.5 -73.5t-200.5 -200t-74 -275.5q0 -148 74 -274t200.5 -199.5t274.5 -73.5z" />
    <glyph glyph-name="ohungarumlaut" unicode="&#x151;" horiz-adv-x="1292" 
d="M526 1180l19 221h157l-94 -221h-82zM670 1180l94 221h156l-170 -221h-80zM647 -25q-114 0 -217.5 44.5t-178.5 120t-119 179t-44 216.5t44 216t119 178t178.5 119t217.5 44q113 0 216 -44t178 -119t119 -178t44 -216q0 -151 -74.5 -280t-203 -204.5t-279.5 -75.5z
M647 139q162 0 277.5 116.5t115.5 279.5t-115 278t-278 115q-164 0 -279.5 -115t-115.5 -278t115.5 -279.5t279.5 -116.5z" />
    <glyph glyph-name="OE" unicode="&#x152;" horiz-adv-x="1886" 
d="M811 -27q-144 0 -275.5 56t-227 151t-152 227.5t-56.5 280.5q0 123 37 234.5t103.5 198t155 150.5t195.5 98t220 34h958v-164h-776v-455h678v-149h-678v-512h776v-150h-958zM811 152v1073q-148 0 -272 -73.5t-194.5 -197t-70.5 -266.5q0 -140 70 -263t194.5 -198
t272.5 -75z" />
    <glyph glyph-name="oe" unicode="&#x153;" horiz-adv-x="2209" 
d="M1618 -37q-176 0 -305 94t-185 236q-61 -147 -193.5 -232.5t-293.5 -85.5q-149 0 -274.5 69t-202 198.5t-76.5 292.5q0 124 47.5 231.5t125.5 179t177 112t203 40.5q165 0 294 -83t189 -229q57 148 186.5 235t278.5 87q132 0 241 -46t180 -130.5t98.5 -204t-3.5 -266.5
h-852q6 -137 117.5 -241.5t267.5 -104.5q79 0 185.5 37.5t138.5 93.5l133 -103q-79 -91 -203.5 -135.5t-273.5 -44.5zM1253 608h686q11 33 6 71.5t-17 77t-41 74.5t-66.5 64t-94 44.5t-122.5 16.5q-152 0 -251.5 -102t-99.5 -246zM641 129q167 0 282 116t115 290
q0 171 -109.5 289t-287.5 118q-161 0 -280 -119t-119 -288q0 -173 117 -289.5t282 -116.5z" />
    <glyph glyph-name="Racute" unicode="&#x154;" horiz-adv-x="1400" 
d="M578 1497l86 221h184l-176 -221h-94zM221 0v1370h586q141 0 249 -64.5t163 -169t55 -229.5q0 -152 -80.5 -270t-218.5 -162l330 -473h-199l-311 447l-404 -5v-444h-170zM391 1219v-623h406q128 0 218.5 89t90.5 222q0 136 -90 224t-219 88h-406z" />
    <glyph glyph-name="racute" unicode="&#x155;" horiz-adv-x="782" 
d="M322 1204l86 221h184l-176 -221h-94zM190 0v1071h158v-133q43 75 143 109.5t220 23.5v-166q-141 19 -249 -49t-108 -190v-666h-164z" />
    <glyph glyph-name="uni0156" unicode="&#x156;" horiz-adv-x="1400" 
d="M221 0v1370h586q141 0 249 -64.5t163 -169t55 -229.5q0 -152 -80.5 -270t-218.5 -162l330 -473h-199l-311 447l-404 -5v-444h-170zM391 1219v-623h406q128 0 218.5 89t90.5 222q0 136 -90 224t-219 88h-406zM690 -297l-35 8q21 41 21 90q-35 21 -35 64q0 32 22.5 53
t53.5 21q28 0 48.5 -21t20.5 -53q0 -66 -96 -162z" />
    <glyph glyph-name="uni0157" unicode="&#x157;" horiz-adv-x="782" 
d="M190 0v1071h158v-133q43 75 143 109.5t220 23.5v-166q-141 19 -249 -49t-108 -190v-666h-164zM250 -274l-35 8q21 41 21 90q-35 21 -35 63q0 32 22 53t53 21q28 0 49 -21t21 -53q0 -30 -19.5 -65t-35 -52.5t-41.5 -43.5z" />
    <glyph glyph-name="Rcaron" unicode="&#x158;" horiz-adv-x="1400" 
d="M580 1491l-131 213h104l80 -127l78 127h104l-131 -213h-104zM221 0v1370h586q141 0 249 -64.5t163 -169t55 -229.5q0 -152 -80.5 -270t-218.5 -162l330 -473h-199l-311 447l-404 -5v-444h-170zM391 1219v-623h406q128 0 218.5 89t90.5 222q0 136 -90 224t-219 88h-406z
" />
    <glyph glyph-name="rcaron" unicode="&#x159;" horiz-adv-x="782" 
d="M324 1198l-131 213h104l80 -127l78 127h104l-131 -213h-104zM190 0v1071h158v-133q43 75 143 109.5t220 23.5v-166q-141 19 -249 -49t-108 -190v-666h-164z" />
    <glyph glyph-name="Sacute" unicode="&#x15a;" horiz-adv-x="1255" 
d="M586 1497l86 221h184l-176 -221h-94zM109 139l65 172q95 -70 207.5 -116.5t216.5 -59t190.5 3t139 71.5t53.5 144q0 45 -30.5 80.5t-82.5 60.5t-119 46.5t-141 43t-148 46t-140 59.5t-116 78.5t-78 108.5t-24 145q4 97 51.5 173.5t123.5 122t178.5 63t212 4.5t229 -61.5
t225.5 -127.5l-82 -141q-80 64 -169.5 106.5t-172 58.5t-159.5 10.5t-134 -32t-92.5 -74.5t-38.5 -112q-3 -68 43.5 -118.5t124 -82t171.5 -58t189 -58t173.5 -71t128 -106.5t49.5 -156q0 -99 -37 -177.5t-103 -130.5t-162 -75.5t-209.5 -16t-251 52t-281.5 124.5z" />
    <glyph glyph-name="sacute" unicode="&#x15b;" horiz-adv-x="1062" 
d="M453 1223l86 221h184l-176 -221h-94zM55 100l58 142q125 -66 252 -102t230.5 -36.5t169 44.5t66.5 133q0 47 -42 81.5t-109.5 57.5t-149 44t-162 49t-146 65t-104.5 99t-34 144q6 97 64 166.5t152 100t207 30t237.5 -42.5t234.5 -119l-68 -118q-75 60 -166 96.5
t-174.5 43t-154.5 -7.5t-115 -55.5t-47 -101.5q-3 -50 36.5 -88.5t105 -63t145.5 -47t160.5 -49t147 -60t108.5 -89t42 -127.5q0 -77 -29 -140.5t-83.5 -109.5t-138 -68t-185.5 -19t-233 40.5t-275 107.5z" />
    <glyph glyph-name="Scedilla" unicode="&#x15e;" horiz-adv-x="1255" 
d="M1153 362q0 -172 -107.5 -278.5t-291.5 -120.5l-15 -47q38 0 54 -25.5t6 -56.5q-11 -37 -28 -60.5t-41.5 -35.5t-43.5 -16.5t-51 -8.5l-37 92q70 0 82 43q3 15 -6.5 23t-19 9t-27.5 1l30 82q-255 13 -548 176l65 172q95 -70 207.5 -116.5t216.5 -59t190.5 3t139 71.5
t53.5 144q0 45 -30.5 80.5t-82.5 60.5t-119 46.5t-141 43t-148 46t-140 59.5t-116 78.5t-78 108.5t-24 145q4 97 51.5 173.5t123.5 122t178.5 63t212 4.5t229 -61.5t225.5 -127.5l-82 -141q-80 64 -169.5 106.5t-172 58.5t-159.5 10.5t-134 -32t-92.5 -74.5t-38.5 -112
q-3 -68 43.5 -118.5t124 -82t171.5 -58t189 -58t173.5 -71t128 -106.5t49.5 -156z" />
    <glyph glyph-name="scedilla" unicode="&#x15f;" horiz-adv-x="1062" 
d="M999 289q0 -151 -105.5 -244t-293.5 -94l-8 -27q38 0 53.5 -25t5.5 -57q-11 -37 -28 -60.5t-41.5 -35.5t-43.5 -16.5t-51 -8.5l-36 93q69 0 81 43q3 15 -6.5 22.5t-18.5 8.5t-28 1l27 68q-203 22 -451 143l58 142q125 -66 252 -102t230.5 -36.5t169 44.5t66.5 133
q0 47 -42 81.5t-109.5 57.5t-149 44t-162 49t-146 65t-104.5 99t-34 144q6 97 64 166.5t152 100t207 30t237.5 -42.5t234.5 -119l-68 -118q-75 60 -166 96.5t-174.5 43t-154.5 -7.5t-115 -55.5t-47 -101.5q-3 -50 36.5 -88.5t105 -63t145.5 -47t160.5 -49t147 -60t108.5 -89
t42 -127.5z" />
    <glyph glyph-name="Scaron" unicode="&#x160;" horiz-adv-x="1255" 
d="M586 1491l-131 213h104l80 -127l78 127h104l-131 -213h-104zM109 139l65 172q95 -70 207.5 -116.5t216.5 -59t190.5 3t139 71.5t53.5 144q0 45 -30.5 80.5t-82.5 60.5t-119 46.5t-141 43t-148 46t-140 59.5t-116 78.5t-78 108.5t-24 145q4 97 51.5 173.5t123.5 122
t178.5 63t212 4.5t229 -61.5t225.5 -127.5l-82 -141q-80 64 -169.5 106.5t-172 58.5t-159.5 10.5t-134 -32t-92.5 -74.5t-38.5 -112q-3 -68 43.5 -118.5t124 -82t171.5 -58t189 -58t173.5 -71t128 -106.5t49.5 -156q0 -99 -37 -177.5t-103 -130.5t-162 -75.5t-209.5 -16
t-251 52t-281.5 124.5z" />
    <glyph glyph-name="scaron" unicode="&#x161;" horiz-adv-x="1062" 
d="M455 1217l-131 213h104l80 -127l78 127h104l-131 -213h-104zM55 100l58 142q125 -66 252 -102t230.5 -36.5t169 44.5t66.5 133q0 47 -42 81.5t-109.5 57.5t-149 44t-162 49t-146 65t-104.5 99t-34 144q6 97 64 166.5t152 100t207 30t237.5 -42.5t234.5 -119l-68 -118
q-75 60 -166 96.5t-174.5 43t-154.5 -7.5t-115 -55.5t-47 -101.5q-3 -50 36.5 -88.5t105 -63t145.5 -47t160.5 -49t147 -60t108.5 -89t42 -127.5q0 -77 -29 -140.5t-83.5 -109.5t-138 -68t-185.5 -19t-233 40.5t-275 107.5z" />
    <glyph glyph-name="uni0162" unicode="&#x162;" horiz-adv-x="1017" 
d="M594 0h-35l-10 -35q38 0 53.5 -25t5.5 -57q-11 -37 -28 -60.5t-41.5 -35.5t-43.5 -16.5t-51 -8.5l-36 93q69 0 81 43q3 15 -6.5 22.5t-18.5 8.5t-28 1l27 70h-39v1206h-416v164h1002v-164h-416v-1206z" />
    <glyph glyph-name="uni0163" unicode="&#x163;" horiz-adv-x="741" 
d="M670 -10q-48 0 -92 3.5t-96.5 14.5t-95.5 29t-85 49.5t-71 72.5t-46.5 101.5t-17.5 134.5v512h-98v164h98v223h164v-223h260v-164h-260v-473q0 -54 11.5 -97.5t29.5 -72.5t47 -50t56.5 -32.5t64.5 -18t65.5 -8t65.5 -1.5v-164zM336 -281l-37 93q70 0 82 43
q3 15 -6.5 22.5t-18.5 8.5t-28 1l32 84h95l-15 -49q38 0 54 -25.5t6 -56.5q-11 -37 -28 -60.5t-41.5 -35.5t-43.5 -16.5t-51 -8.5z" />
    <glyph glyph-name="Tcaron" unicode="&#x164;" horiz-adv-x="1017" 
d="M453 1495l-131 213h104l80 -127l78 127h104l-131 -213h-104zM424 0v1206h-416v164h1002v-164h-416v-1206h-170z" />
    <glyph glyph-name="tcaron" unicode="&#x165;" horiz-adv-x="741" 
d="M193 1403l-132 213h105l80 -127l78 127h104l-131 -213h-104zM670 -10q-48 0 -92 3.5t-96.5 14.5t-95.5 29t-85 49.5t-71 72.5t-46.5 101.5t-17.5 134.5v512h-98v164h98v223h164v-223h260v-164h-260v-473q0 -54 11.5 -97.5t29.5 -72.5t47 -50t56.5 -32.5t64.5 -18t65.5 -8
t65.5 -1.5v-164z" />
    <glyph glyph-name="Tbar" unicode="&#x166;" horiz-adv-x="1060" 
d="M446 0v674h-342v137h342v408h-438v151h1045v-151h-439v-408h342v-137h-342v-674h-168z" />
    <glyph glyph-name="tbar" unicode="&#x167;" horiz-adv-x="710" 
d="M641 -31q-61 0 -112.5 5t-112.5 18.5t-107.5 40.5t-86.5 67.5t-61.5 104t-21.5 145.5v379h-98v113h98v78h-98v151h98v223h164v-223h260v-151h-260v-78h260v-113h-258v-362q0 -132 84 -183t252 -51v-164z" />
    <glyph glyph-name="Umacron" unicode="&#x16a;" horiz-adv-x="1462" 
d="M532 1509v99h386v-99h-386zM731 -29q-243 0 -382.5 151.5t-139.5 389.5v858h166v-858q0 -169 93.5 -270t262.5 -101t262.5 101t93.5 270v858h166v-858q0 -238 -139.5 -389.5t-382.5 -151.5z" />
    <glyph glyph-name="umacron" unicode="&#x16b;" horiz-adv-x="1212" 
d="M406 1219v98h385v-98h-385zM606 -10q-228 0 -369 140t-141 380v561h164v-561q0 -167 93 -261.5t253 -94.5t252 93t92 263v561h164v-561q0 -240 -140.5 -380t-367.5 -140z" />
    <glyph glyph-name="Uring" unicode="&#x16e;" horiz-adv-x="1462" 
d="M727 1509q-45 0 -79 32t-34 81t34 80t79 31q46 0 78.5 -31t32.5 -80q0 -50 -32.5 -81.5t-78.5 -31.5zM727 1567q23 0 39 16t16 39t-16 39t-39 16t-38 -16t-15 -39t15 -39t38 -16zM731 -29q-243 0 -382.5 151.5t-139.5 389.5v858h166v-858q0 -169 93.5 -270t262.5 -101
t262.5 101t93.5 270v858h166v-858q0 -238 -139.5 -389.5t-382.5 -151.5z" />
    <glyph glyph-name="uring" unicode="&#x16f;" horiz-adv-x="1212" 
d="M600 1219q-45 0 -79 31.5t-34 80.5t34 80t79 31q46 0 78.5 -31t32.5 -80q0 -50 -32.5 -81t-78.5 -31zM600 1276q23 0 39 16t16 39t-16 39t-39 16t-38 -16t-15 -39t15 -39t38 -16zM606 -10q-228 0 -369 140t-141 380v561h164v-561q0 -167 93 -261.5t253 -94.5t252 93
t92 263v561h164v-561q0 -240 -140.5 -380t-367.5 -140z" />
    <glyph glyph-name="Uhungarumlaut" unicode="&#x170;" horiz-adv-x="1462" 
d="M606 1460l19 221h157l-94 -221h-82zM750 1460l94 221h155l-170 -221h-79zM731 -29q-243 0 -382.5 151.5t-139.5 389.5v858h166v-858q0 -169 93.5 -270t262.5 -101t262.5 101t93.5 270v858h166v-858q0 -238 -139.5 -389.5t-382.5 -151.5z" />
    <glyph glyph-name="uhungarumlaut" unicode="&#x171;" horiz-adv-x="1212" 
d="M479 1169l19 222h157l-94 -222h-82zM623 1169l94 222h155l-170 -222h-79zM606 -10q-228 0 -369 140t-141 380v561h164v-561q0 -167 93 -261.5t253 -94.5t252 93t92 263v561h164v-561q0 -240 -140.5 -380t-367.5 -140z" />
    <glyph glyph-name="Uogonek" unicode="&#x172;" horiz-adv-x="1462" 
d="M1087 1370h166v-858q0 -222 -122.5 -370.5t-337.5 -168.5q-34 -19 -52 -43.5t-16.5 -45t25 -32.5t65.5 -8v-104q-140 -7 -172 67q-30 96 72 164q-236 6 -371 157t-135 384v858h166v-858q0 -169 93.5 -270t262.5 -101t262.5 101t93.5 270v858z" />
    <glyph glyph-name="uogonek" unicode="&#x173;" horiz-adv-x="1212" 
d="M950 1071h164v-561q0 -238 -138.5 -378t-363.5 -142q-42 -26 -55.5 -58t9.5 -52.5t77 -14.5v-105q-140 -7 -172 68q-31 99 74 164q-203 21 -326 158.5t-123 359.5v561h164v-561q0 -167 93 -261.5t253 -94.5t252 93t92 263v561z" />
    <glyph glyph-name="Wcircumflex" unicode="&#x174;" horiz-adv-x="2144" 
d="M913 1538l131 213h105l131 -213h-104l-78 127l-80 -127h-105zM2075 1370l-732 -1370l-272 508l-270 -508l-733 1370h188l545 -1036l176 342l-367 694h189l272 -530l275 530h188l-369 -694l178 -342l543 1036h189z" />
    <glyph glyph-name="wcircumflex" unicode="&#x175;" horiz-adv-x="2164" 
d="M899 1176l131 213h105l131 -213h-105l-78 127l-79 -127h-105zM2140 1071l-575 -1071l-484 795l-481 -795l-575 1071h188l405 -764l463 764l463 -764l406 764h190z" />
    <glyph glyph-name="Ycircumflex" unicode="&#x176;" horiz-adv-x="1290" 
d="M461 1507l131 213h104l131 -213h-104l-78 127l-80 -127h-104zM559 0v555l-526 815h200l412 -622l412 622h200l-526 -817v-553h-172z" />
    <glyph glyph-name="ycircumflex" unicode="&#x177;" horiz-adv-x="1173" 
d="M403 1176l132 213h104l131 -213h-104l-78 127l-80 -127h-105zM152 -406v158q53 -11 103.5 1.5t87 41.5t67.5 67.5t45.5 80t20 78t-8.5 61.5l-414 989h176l357 -844l356 844h176l-448 -1071q-50 -104 -89.5 -169t-101.5 -133t-143.5 -93.5t-183.5 -10.5z" />
    <glyph glyph-name="Ydieresis" unicode="&#x178;" horiz-adv-x="1290" 
d="M510 1473q-33 0 -56.5 22.5t-23.5 54.5t24 55t56 23q31 0 54.5 -23t23.5 -55t-23.5 -54.5t-54.5 -22.5zM778 1473q-31 0 -54.5 22.5t-23.5 54.5t23.5 55t54.5 23q32 0 56 -23t24 -55t-23.5 -54.5t-56.5 -22.5zM559 0v555l-526 815h200l412 -622l412 622h200l-526 -817
v-553h-172z" />
    <glyph glyph-name="Zacute" unicode="&#x179;" horiz-adv-x="1398" 
d="M762 1495l86 221h184l-176 -221h-94zM76 0l925 1200h-651v170h981l-919 -1200h880v-170h-1216z" />
    <glyph glyph-name="zacute" unicode="&#x17a;" horiz-adv-x="1202" 
d="M596 1186l86 221h184l-176 -221h-94zM43 0l733 907h-534v164h878l-739 -907h696v-164h-1034z" />
    <glyph glyph-name="Zdotaccent" unicode="&#x17b;" horiz-adv-x="1398" 
d="M815 1477q-32 0 -55 22.5t-23 54.5t23 55t55 23t56 -23t24 -55t-23.5 -54.5t-56.5 -22.5zM76 0l925 1200h-651v170h981l-919 -1200h880v-170h-1216z" />
    <glyph glyph-name="zdotaccent" unicode="&#x17c;" horiz-adv-x="1202" 
d="M649 1167q-32 0 -55 23t-23 55t23 55t55 23t56 -23t24 -55t-24 -55t-56 -23zM43 0l733 907h-534v164h878l-739 -907h696v-164h-1034z" />
    <glyph glyph-name="Zcaron" unicode="&#x17d;" horiz-adv-x="1398" 
d="M762 1489l-131 213h104l80 -127l78 127h104l-131 -213h-104zM76 0l925 1200h-651v170h981l-919 -1200h880v-170h-1216z" />
    <glyph glyph-name="zcaron" unicode="&#x17e;" horiz-adv-x="1202" 
d="M596 1180l-131 213h104l80 -127l78 127h104l-131 -213h-104zM43 0l733 907h-534v164h878l-739 -907h696v-164h-1034z" />
    <glyph glyph-name="florin" unicode="&#x192;" horiz-adv-x="858" 
d="M6 -121v146q140 0 207.5 78.5t103.5 289.5l74 449h-237v147h266l55 299q10 53 39.5 93.5t68 62.5t80.5 36.5t81 17.5t66 3t38 -4v-135q-11 6 -43 6t-71 -9t-73.5 -41.5t-44.5 -82.5l-43 -246h240v-147h-270l-76 -461q-13 -77 -29 -136t-40 -119.5t-58.5 -103t-80.5 -77
t-110 -51t-143 -15.5z" />
    <glyph glyph-name="uni0218" unicode="&#x218;" horiz-adv-x="1255" 
d="M109 139l65 172q95 -70 207.5 -116.5t216.5 -59t190.5 3t139 71.5t53.5 144q0 45 -30.5 80.5t-82.5 60.5t-119 46.5t-141 43t-148 46t-140 59.5t-116 78.5t-78 108.5t-24 145q4 97 51.5 173.5t123.5 122t178.5 63t212 4.5t229 -61.5t225.5 -127.5l-82 -141
q-80 64 -169.5 106.5t-172 58.5t-159.5 10.5t-134 -32t-92.5 -74.5t-38.5 -112q-3 -68 43.5 -118.5t124 -82t171.5 -58t189 -58t173.5 -71t128 -106.5t49.5 -156q0 -99 -37 -177.5t-103 -130.5t-162 -75.5t-209.5 -16t-251 52t-281.5 124.5zM676 -319l-35 8q21 41 21 90
q-35 21 -35 63q0 32 22 53t53 21q28 0 49 -21t21 -53q0 -30 -19.5 -65t-35 -52.5t-41.5 -43.5z" />
    <glyph glyph-name="uni0219" unicode="&#x219;" horiz-adv-x="1062" 
d="M55 100l58 142q125 -66 252 -102t230.5 -36.5t169 44.5t66.5 133q0 47 -42 81.5t-109.5 57.5t-149 44t-162 49t-146 65t-104.5 99t-34 144q6 97 64 166.5t152 100t207 30t237.5 -42.5t234.5 -119l-68 -118q-75 60 -166 96.5t-174.5 43t-154.5 -7.5t-115 -55.5t-47 -101.5
q-3 -50 36.5 -88.5t105 -63t145.5 -47t160.5 -49t147 -60t108.5 -89t42 -127.5q0 -77 -29 -140.5t-83.5 -109.5t-138 -68t-185.5 -19t-233 40.5t-275 107.5zM528 -311l-34 8q20 39 20 90q-35 21 -35 63q0 32 22.5 53t53.5 21q28 0 49 -21t21 -53q0 -30 -20 -65.5t-35 -52
t-42 -43.5z" />
    <glyph glyph-name="uni021A" unicode="&#x21a;" horiz-adv-x="1017" 
d="M424 0v1206h-416v164h1002v-164h-416v-1206h-170zM485 -272l-34 8q20 39 20 90q-35 21 -35 63q0 32 22.5 53t53.5 21q28 0 49 -21t21 -53q0 -30 -20 -65.5t-35 -52t-42 -43.5z" />
    <glyph glyph-name="uni021B" unicode="&#x21b;" horiz-adv-x="741" 
d="M670 -10q-48 0 -92 3.5t-96.5 14.5t-95.5 29t-85 49.5t-71 72.5t-46.5 101.5t-17.5 134.5v512h-98v164h98v223h164v-223h260v-164h-260v-473q0 -54 11.5 -97.5t29.5 -72.5t47 -50t56.5 -32.5t64.5 -18t65.5 -8t65.5 -1.5v-164zM377 -313l-35 8q20 39 20 90q-34 20 -34 63
q0 32 22 53t53 21q28 0 49 -21t21 -53q0 -30 -19.5 -65t-35 -52.5t-41.5 -43.5z" />
    <glyph glyph-name="uni0237" unicode="&#x237;" horiz-adv-x="497" 
d="M35 -270v164q65 0 109.5 23.5t69 70t34.5 104.5t10 139v889h164v-884q0 -112 -21 -201.5t-66 -159t-121 -107.5t-179 -38z" />
    <glyph glyph-name="circumflex" unicode="&#x2c6;" horiz-adv-x="913" 
d="M272 1231l134 213h102l133 -213h-106l-78 127l-78 -127h-107z" />
    <glyph glyph-name="caron" unicode="&#x2c7;" horiz-adv-x="913" 
d="M406 1231l-134 213h107l78 -127l78 127h106l-133 -213h-102z" />
    <glyph glyph-name="breve" unicode="&#x2d8;" horiz-adv-x="976" 
d="M489 1231q-89 0 -143.5 45t-54.5 119h123q0 -66 75 -66q74 0 74 66h123q0 -74 -54 -119t-143 -45z" />
    <glyph glyph-name="dotaccent" unicode="&#x2d9;" horiz-adv-x="1159" 
d="M580 1157q-32 0 -55 23t-23 55t23 55t55 23t54.5 -23t22.5 -55t-22.5 -55t-54.5 -23z" />
    <glyph glyph-name="ring" unicode="&#x2da;" horiz-adv-x="1007" 
d="M504 1245q-44 0 -78.5 32t-34.5 81t34.5 79.5t78.5 30.5q46 0 78 -30.5t32 -79.5q0 -50 -32 -81.5t-78 -31.5zM504 1303q23 0 39 16t16 39t-16 39t-39 16t-38 -16t-15 -39t15 -39t38 -16z" />
    <glyph glyph-name="ogonek" unicode="&#x2db;" horiz-adv-x="997" 
d="M426 -295q-78 -4 -119.5 17t-52.5 51q-34 104 88 174h76q-53 -25 -74.5 -60t0.5 -59t82 -18v-105z" />
    <glyph glyph-name="tilde" unicode="&#x2dc;" horiz-adv-x="0" 
d="M-772 1212q0 29 0.5 44t5.5 37.5t14 34t27 20t45 8.5q19 -1 49 -10.5t54.5 -18.5t47.5 -14t36.5 4.5t13.5 36.5h94q0 -29 -0.5 -44t-5.5 -37t-14.5 -33t-28 -19.5t-45.5 -8.5q-19 1 -49 11t-54.5 18.5t-47.5 13t-36.5 -5.5t-13.5 -37h-92z" />
    <glyph glyph-name="hungarumlaut" unicode="&#x2dd;" horiz-adv-x="905" 
d="M371 1223l18 221h156l-92 -221h-82zM512 1223l94 221h158l-170 -221h-82z" />
    <glyph glyph-name="gravecomb" unicode="&#x300;" horiz-adv-x="0" 
d="M-788 1223l-177 221h185l86 -221h-94z" />
    <glyph glyph-name="acutecomb" unicode="&#x301;" horiz-adv-x="0" 
d="M-748 1200l86 221h185l-176 -221h-95z" />
    <glyph glyph-name="uni0302" unicode="&#x302;" horiz-adv-x="0" 
d="M-469 1231l131 213h105l131 -213h-105l-78 127l-80 -127h-104z" />
    <glyph glyph-name="tildecomb" unicode="&#x303;" horiz-adv-x="0" 
d="M-950 1212q0 29 0.5 44t5.5 37.5t14.5 34t28 20t45.5 8.5q19 -1 49 -10.5t54.5 -18.5t47.5 -14t36.5 4.5t13.5 36.5h94q0 -29 -0.5 -44t-5.5 -37t-14.5 -33t-28 -19.5t-45.5 -8.5q-19 1 -49 11t-54.5 18.5t-47.5 13t-36.5 -5.5t-13.5 -37h-94z" />
    <glyph glyph-name="uni0304" unicode="&#x304;" horiz-adv-x="0" 
d="M-487 1217v98h385v-98h-385z" />
    <glyph glyph-name="uni0306" unicode="&#x306;" horiz-adv-x="0" 
d="M-299 1149q-89 0 -143 45t-54 119h121q0 -32 20 -49t56 -17q74 0 74 66h123q0 -74 -54 -119t-143 -45z" />
    <glyph glyph-name="uni0307" unicode="&#x307;" horiz-adv-x="0" 
d="M-182 1157q-32 0 -55 23t-23 55t23 55t55 23t56 -23t24 -55t-24 -55t-56 -23z" />
    <glyph glyph-name="uni0308" unicode="&#x308;" horiz-adv-x="0" 
d="M-451 1167q-32 0 -55.5 23t-23.5 55t23.5 55t55.5 23q31 0 54.5 -23t23.5 -55t-23.5 -55t-54.5 -23zM-182 1167q-31 0 -54.5 23t-23.5 55t23.5 55t54.5 23q32 0 56 -23t24 -55t-24 -55t-56 -23z" />
    <glyph glyph-name="uni030A" unicode="&#x30a;" horiz-adv-x="0" 
d="M-213 1245q-45 0 -79 32t-34 81t34 79.5t79 30.5q46 0 78.5 -30.5t32.5 -79.5q0 -50 -32.5 -81.5t-78.5 -31.5zM-213 1303q23 0 39 16t16 39t-16 39t-39 16t-38 -16t-15 -39t15 -39t38 -16z" />
    <glyph glyph-name="uni030B" unicode="&#x30b;" horiz-adv-x="0" 
d="M-496 1171l19 222h158l-95 -222h-82zM-352 1171l94 222h156l-170 -222h-80z" />
    <glyph glyph-name="uni030C" unicode="&#x30c;" horiz-adv-x="0" 
d="M-338 1190l-131 213h104l80 -127l78 127h105l-131 -213h-105z" />
    <glyph glyph-name="uni0312" unicode="&#x312;" horiz-adv-x="0" 
d="M-176 1206q-30 0 -51 21t-21 53q0 70 98 162l33 -8q-20 -44 -20 -88q35 -24 35 -66q0 -32 -22 -53t-52 -21z" />
    <glyph glyph-name="uni0326" unicode="&#x326;" horiz-adv-x="0" 
d="M-199 -346l-34 8q20 39 20 90q-35 21 -35 64q0 32 22.5 52.5t53.5 20.5q28 0 49 -20.5t21 -52.5q0 -30 -20 -65.5t-35.5 -53t-41.5 -43.5z" />
    <glyph glyph-name="uni0327" unicode="&#x327;" horiz-adv-x="0" 
d="M-270 -293l-37 92q70 0 82 43q3 15 -7 23t-19.5 9t-27.5 1l33 84h94l-14 -49q38 0 54 -25.5t6 -56.5q-11 -37 -28 -60.5t-41.5 -35.5t-43.5 -16.5t-51 -8.5z" />
    <glyph glyph-name="uni0328" unicode="&#x328;" horiz-adv-x="0" 
d="M-102 -295q-140 -7 -172 68q-31 106 88 174h75q-53 -25 -73.5 -60t1.5 -59t81 -18v-105z" />
    <glyph glyph-name="uni0394" unicode="&#x394;" horiz-adv-x="1550" 
d="M203 20v144l485 1290h184l478 -1290v-144h-1147zM375 195h801l-398 1034z" />
    <glyph glyph-name="uni03A9" unicode="&#x3a9;" horiz-adv-x="1667" 
d="M225 6v170h363q-160 62 -272.5 232.5t-112.5 369.5q0 168 79.5 310t225 227.5t326.5 85.5q136 0 254.5 -49.5t200 -133.5t128.5 -197t47 -237q0 -416 -383 -608h359v-170h-471v174q180 94 263 231.5t83 327.5q0 131 -63 242t-174 176.5t-244 65.5q-202 0 -342 -142
t-140 -350q0 -80 19.5 -159.5t59.5 -156t109 -138.5t160 -97v-174h-475z" />
    <glyph glyph-name="uni03BC" unicode="&#x3bc;" horiz-adv-x="1302" 
d="M203 -299v1356h149v-662q0 -66 36.5 -130.5t111.5 -110t170 -45.5q66 0 118 28t81.5 68t48.5 90.5t25.5 90.5t6.5 73v598h152v-1075h-150v165q-33 -80 -103 -135t-181 -55q-109 0 -200 51t-116 115v-422h-149z" />
    <glyph glyph-name="pi" unicode="&#x3c0;" horiz-adv-x="1273" 
d="M1174 -137q-188 -8 -274.5 79.5t-86.5 233.5v793h-369v-1000h-149v1000h-270v129h1208v-129h-270v-787q0 -78 56 -131t155 -37v-151z" />
    <glyph glyph-name="Wgrave" unicode="&#x1e80;" horiz-adv-x="2144" 
d="M1055 1532l-176 221h184l86 -221h-94zM2075 1370l-732 -1370l-272 508l-270 -508l-733 1370h188l545 -1036l176 342l-367 694h189l272 -530l275 530h188l-369 -694l178 -342l543 1036h189z" />
    <glyph glyph-name="wgrave" unicode="&#x1e81;" horiz-adv-x="2164" 
d="M1040 1169l-176 222h185l86 -222h-95zM2140 1071l-575 -1071l-484 795l-481 -795l-575 1071h188l405 -764l463 764l463 -764l406 764h190z" />
    <glyph glyph-name="Wacute" unicode="&#x1e82;" horiz-adv-x="2144" 
d="M1042 1518l86 221h185l-176 -221h-95zM2075 1370l-732 -1370l-272 508l-270 -508l-733 1370h188l545 -1036l176 342l-367 694h189l272 -530l275 530h188l-369 -694l178 -342l543 1036h189z" />
    <glyph glyph-name="wacute" unicode="&#x1e83;" horiz-adv-x="2164" 
d="M1028 1155l86 221h184l-176 -221h-94zM2140 1071l-575 -1071l-484 795l-481 -795l-575 1071h188l405 -764l463 764l463 -764l406 764h190z" />
    <glyph glyph-name="Wdieresis" unicode="&#x1e84;" horiz-adv-x="2144" 
d="M961 1505q-32 0 -56 23t-24 55t24 55t56 23q31 0 54 -23t23 -55t-23 -55t-54 -23zM1229 1505q-31 0 -54.5 23t-23.5 55t23.5 55t54.5 23q32 0 56 -23t24 -55t-24 -55t-56 -23zM2075 1370l-732 -1370l-272 508l-270 -508l-733 1370h188l545 -1036l176 342l-367 694h189
l272 -530l275 530h188l-369 -694l178 -342l543 1036h189z" />
    <glyph glyph-name="wdieresis" unicode="&#x1e85;" horiz-adv-x="2164" 
d="M946 1143q-32 0 -56 23t-24 55t23.5 54.5t56.5 22.5q31 0 54.5 -22.5t23.5 -54.5t-23.5 -55t-54.5 -23zM1214 1143q-31 0 -54 23t-23 55t23 54.5t54 22.5q33 0 56.5 -22.5t23.5 -54.5t-24 -55t-56 -23zM2140 1071l-575 -1071l-484 795l-481 -795l-575 1071h188l405 -764
l463 764l463 -764l406 764h190z" />
    <glyph glyph-name="uni1E9E" unicode="&#x1e9e;" horiz-adv-x="1259" 
d="M88 -25v973q0 107 31 188.5t84 130t123 78.5t150 37t161.5 2t161 -23.5t146.5 -42.5t118 -52v-131l-270 -299q72 -2 141 -32.5t124 -83t87.5 -133t30.5 -175.5q-6 -249 -216.5 -352t-640.5 -56l13 160q348 -43 518 26t170 238q0 54 -29.5 108t-78.5 94t-119 59.5
t-144 6.5l-88 101l328 356q-23 17 -69 34t-106.5 28.5t-126 14.5t-128.5 -12.5t-113 -47.5t-80 -95t-30 -151v-949h-148z" />
    <glyph glyph-name="Ygrave" unicode="&#x1ef2;" horiz-adv-x="1290" 
d="M604 1499l-176 221h184l86 -221h-94zM559 0v555l-526 815h200l412 -622l412 622h200l-526 -817v-553h-172z" />
    <glyph glyph-name="ygrave" unicode="&#x1ef3;" horiz-adv-x="1173" 
d="M545 1169l-176 222h184l86 -222h-94zM152 -406v158q53 -11 103.5 1.5t87 41.5t67.5 67.5t45.5 80t20 78t-8.5 61.5l-414 989h176l357 -844l356 844h176l-448 -1071q-50 -104 -89.5 -169t-101.5 -133t-143.5 -93.5t-183.5 -10.5z" />
    <glyph glyph-name="endash" unicode="&#x2013;" horiz-adv-x="1024" 
d="M0 453v131h1024v-131h-1024z" />
    <glyph glyph-name="emdash" unicode="&#x2014;" horiz-adv-x="1433" 
d="M0 453v131h1434v-131h-1434z" />
    <glyph glyph-name="quoteleft" unicode="&#x2018;" horiz-adv-x="387" 
d="M195 1286q-39 0 -66 26t-27 68q0 88 125 207l45 -10q-25 -42 -28 -115q45 -25 45 -82q0 -42 -27.5 -68t-66.5 -26z" />
    <glyph glyph-name="quoteright" unicode="&#x2019;" horiz-adv-x="387" 
d="M160 1286l-45 8q25 42 28 115q-45 28 -45 84q0 40 28 67t67 27t65.5 -26.5t26.5 -67.5q0 -88 -125 -207z" />
    <glyph glyph-name="quotesinglbase" unicode="&#x201a;" horiz-adv-x="376" 
d="M156 -125l-43 10q22 45 28 115q-45 28 -45 82q0 42 27 69t67 27q38 0 65.5 -27t27.5 -69q0 -86 -127 -207z" />
    <glyph glyph-name="quotedblleft" unicode="&#x201c;" horiz-adv-x="632" 
d="M197 1286q-39 0 -67 26t-28 68q0 29 12 60t36.5 61.5t38 45.5t38.5 40l45 -10q-25 -49 -28 -115q47 -26 47 -82q0 -41 -28 -67.5t-66 -26.5zM440 1286q-40 0 -67 26t-27 68q0 88 125 207l45 -10q-26 -44 -29 -115q48 -26 48 -82q0 -41 -28.5 -67.5t-66.5 -26.5z" />
    <glyph glyph-name="quotedblright" unicode="&#x201d;" horiz-adv-x="632" 
d="M160 1184l-43 8q22 43 28 115q-47 29 -47 84q0 40 28 67t67 27t66.5 -26.5t27.5 -67.5q0 -86 -127 -207zM403 1184l-43 8q23 45 29 115q-47 29 -47 84q0 41 27.5 67.5t66.5 26.5t66.5 -26.5t27.5 -67.5q0 -86 -127 -207z" />
    <glyph glyph-name="quotedblbase" unicode="&#x201e;" horiz-adv-x="798" 
d="M190 178q38 0 65.5 -27t27.5 -69q0 -86 -127 -207l-43 10q22 45 28 115q-45 28 -45 82q0 42 27 69t67 27zM612 178q38 0 65.5 -27t27.5 -69q0 -86 -127 -207l-43 10q22 45 28 115q-45 28 -45 82q0 42 27 69t67 27z" />
    <glyph glyph-name="dagger" unicode="&#x2020;" horiz-adv-x="841" 
d="M346 500v471h-285v151h285v285h150v-285h286v-151h-286v-471h-150z" />
    <glyph glyph-name="daggerdbl" unicode="&#x2021;" horiz-adv-x="841" 
d="M346 444v279h-285v149h285v99h-285v151h285v285h150v-285h286v-151h-286v-99h286v-149h-286v-279h-150z" />
    <glyph glyph-name="bullet" unicode="&#x2022;" horiz-adv-x="495" 
d="M248 408q-43 0 -74 30.5t-31 73.5q0 44 31 75t74 31q44 0 74 -31t30 -75q0 -43 -30 -73.5t-74 -30.5z" />
    <glyph glyph-name="ellipsis" unicode="&#x2026;" horiz-adv-x="1191" 
d="M193 182q38 0 65 -27t27 -65q0 -37 -27 -63.5t-65 -26.5q-37 0 -64 26.5t-27 63.5q0 38 27 65t64 27zM604 182q38 0 65 -27t27 -65q0 -37 -27 -63.5t-65 -26.5q-37 0 -63.5 26.5t-26.5 63.5q0 38 26.5 65t63.5 27zM997 182q38 0 65.5 -27t27.5 -65q0 -37 -27.5 -63.5
t-65.5 -26.5q-37 0 -63.5 26.5t-26.5 63.5q0 38 26.5 65t63.5 27z" />
    <glyph glyph-name="perthousand" unicode="&#x2030;" horiz-adv-x="2289" 
d="M322 2l866 1368h147l-870 -1368h-143zM371 674q-121 0 -206 85.5t-85 205.5t85 205t206 85q119 0 203.5 -85t84.5 -205t-84.5 -205.5t-203.5 -85.5zM373 793q71 0 119.5 50.5t48.5 123.5q0 72 -48 120t-120 48q-73 0 -123.5 -48.5t-50.5 -119.5q0 -72 51 -123t123 -51z
M1282 113q-121 0 -206 85.5t-85 207.5q0 119 85 203.5t206 84.5q119 0 204 -85t85 -203q0 -121 -85 -207t-204 -86zM1921 113q-121 0 -207 85.5t-86 207.5q0 119 86 203.5t207 84.5q119 0 204 -85t85 -203q0 -121 -85 -207t-204 -86zM1284 233q72 0 120 50.5t48 122.5
t-48 120.5t-120 48.5t-123 -48.5t-51 -120.5t51 -122.5t123 -50.5zM1921 233q72 0 121 50.5t49 122.5t-49 120.5t-121 48.5t-122 -48.5t-50 -120.5t50 -122.5t122 -50.5z" />
    <glyph glyph-name="guilsinglleft" unicode="&#x2039;" horiz-adv-x="620" 
d="M412 72l-316 436l316 436h137l-316 -436l316 -436h-137z" />
    <glyph glyph-name="guilsinglright" unicode="&#x203a;" horiz-adv-x="620" 
d="M72 72l315 436l-315 436h137l315 -436l-315 -436h-137z" />
    <glyph glyph-name="fraction" unicode="&#x2044;" horiz-adv-x="344" 
d="M-229 102l688 1229h114l-688 -1229h-114z" />
    <glyph glyph-name="Euro" unicode="&#x20ac;" horiz-adv-x="1497" 
d="M872 18q-144 0 -267 69t-203 202t-91 305h-209v94h199v66h-199v96h207q9 113 49.5 214.5t109.5 181t173.5 126.5t230.5 47q167 0 296.5 -89t205.5 -243l-145 -86q-46 113 -142.5 187t-214.5 74q-154 0 -268.5 -114t-120.5 -298h273v-96h-281v-66h281v-94h-271
q4 -107 51.5 -201.5t136.5 -155.5t199 -61q136 0 239 91.5t126 197.5l158 -74q-71 -170 -208 -271.5t-315 -101.5z" />
    <glyph glyph-name="uni2116" unicode="&#x2116;" horiz-adv-x="2045" 
d="M1579 707q-145 0 -247.5 93.5t-102.5 241.5q0 99 51 177.5t130.5 119.5t168.5 41q92 0 170.5 -41t126.5 -119t49 -178q1 -148 -101 -242.5t-245 -92.5zM166 0v1221h-64v149h177l686 -1096l2 1096h131v-1370h-123l-678 1069v-1069h-131zM1579 825q96 1 158.5 65.5
t64.5 149.5q5 90 -60 157t-163 67q-97 0 -163 -67t-66 -157q0 -85 66.5 -151.5t162.5 -63.5zM1243 246v121h682v-121h-682z" />
    <glyph glyph-name="trademark" unicode="&#x2122;" horiz-adv-x="1181" 
d="M485 543q-198 0 -337.5 139.5t-139.5 337.5q0 97 37.5 184.5t101.5 151.5t152.5 101.5t185.5 37.5q129 0 238.5 -63.5t173.5 -173t64 -238.5q0 -130 -64 -240t-173.5 -173.5t-238.5 -63.5zM485 588q176 -3 302 125t126 307q-2 178 -127 303.5t-301 124.5
q-178 -1 -303 -126t-127 -302q-1 -178 125 -303.5t305 -128.5zM270 862v258h-102v54h326l122 -193l123 193h49l3 -312h-56v209l-119 -180l-118 176v-205h-56v258h-114v-258h-58z" />
    <glyph glyph-name="estimated" unicode="&#x212e;" horiz-adv-x="1409" 
d="M737 -31q-144 0 -265 46t-201.5 125.5t-125.5 187t-45 229.5q0 121 44.5 228.5t122.5 186.5t192 125t246 46q175 0 314 -79t214.5 -212.5t75.5 -294.5q0 -27 -25 -27h-915q-23 0 -23 -20v-317q0 -19 10 -29q146 -146 381 -146q217 0 377 160q15 15 29 15h61
q16 0 21 -10.5t-6 -24.5q-80 -91 -204 -140t-278 -49zM369 582h671q23 0 23 24v314q0 17 -10 30q-55 73 -147 109.5t-201 36.5q-110 0 -202 -36.5t-147 -109.5q-10 -13 -10 -30v-314q0 -24 23 -24z" />
    <glyph glyph-name="oneeighth" unicode="&#x215b;" horiz-adv-x="1722" 
d="M319 567v809h-153v99h268v-908h-115zM328 102l688 1229h114l-688 -1229h-114zM1313 -113q-152 0 -253.5 74t-101.5 191q0 77 56 139t137 86q-68 27 -110 81.5t-42 121.5q0 103 94 173t220 70t219.5 -70t93.5 -173q0 -68 -41.5 -122t-111.5 -81q84 -24 138 -85.5
t54 -139.5q0 -117 -100.5 -191t-251.5 -74zM1313 420q83 0 139.5 45.5t56.5 112.5q0 68 -56.5 113.5t-139.5 45.5q-85 -2 -142 -47t-57 -112t57 -112.5t142 -45.5zM1313 -25q95 0 163 52.5t68 126.5q0 75 -67.5 126.5t-163.5 51.5q-98 0 -166 -51.5t-68 -126.5
q0 -74 68 -126.5t166 -52.5z" />
    <glyph glyph-name="threeeighths" unicode="&#x215c;" horiz-adv-x="2027" 
d="M395 530q-122 0 -200.5 46.5t-133.5 134.5l111 49q66 -123 223 -123q104 0 163.5 63t59.5 156q-1 55 -30 98.5t-72.5 64.5t-95 26t-96.5 -17l-64 90l322 256h-424v101h585v-86l-301 -248q129 -4 213.5 -89t81.5 -196q-2 -141 -94 -233.5t-248 -92.5zM631 102l688 1229
h115l-689 -1229h-114zM1616 -113q-151 0 -252.5 74t-101.5 191q0 77 55.5 139t136.5 86q-68 27 -109.5 81.5t-41.5 121.5q0 103 93.5 173t219.5 70t219.5 -70t93.5 -173q0 -68 -41.5 -122t-111.5 -81q84 -24 138 -85.5t54 -139.5q0 -117 -100.5 -191t-251.5 -74zM1616 420
q83 0 139.5 45.5t56.5 112.5q0 68 -56.5 113.5t-139.5 45.5q-85 -2 -142 -47t-57 -112t57 -112.5t142 -45.5zM1616 -25q95 0 163 52.5t68 126.5q0 75 -67.5 126.5t-163.5 51.5q-98 0 -166 -51.5t-68 -126.5q0 -74 68 -126.5t166 -52.5z" />
    <glyph glyph-name="fiveeighths" unicode="&#x215d;" horiz-adv-x="2025" 
d="M393 532q-172 0 -321 91l53 100q135 -84 264 -84t193.5 52.5t64.5 133.5q0 26 -4.5 47t-20.5 46.5t-42.5 42.5t-76 28.5t-116.5 11.5h-231v474h544v-99h-434v-276h166q177 0 251.5 -72.5t74.5 -202.5q0 -141 -100 -217t-265 -76zM629 102l688 1229h115l-689 -1229h-114z
M1614 -113q-151 0 -252.5 74t-101.5 191q0 77 55.5 139t136.5 86q-68 27 -110 81.5t-42 121.5q0 103 94 173t220 70t219.5 -70t93.5 -173q0 -68 -41.5 -122t-111.5 -81q84 -24 138 -85.5t54 -139.5q0 -117 -100.5 -191t-251.5 -74zM1614 420q83 0 139.5 45.5t56.5 112.5
q0 68 -56.5 113.5t-139.5 45.5q-85 -2 -142 -47t-57 -112t57 -112.5t142 -45.5zM1614 -25q95 0 163 52.5t68 126.5q0 75 -67.5 126.5t-163.5 51.5q-98 0 -166 -51.5t-68 -126.5q0 -74 68 -126.5t166 -52.5z" />
    <glyph glyph-name="seveneighths" unicode="&#x215e;" horiz-adv-x="1935" 
d="M139 567l426 805h-489v103h631v-82l-433 -826h-135zM541 102l688 1229h114l-688 -1229h-114zM1526 -113q-152 0 -253.5 74t-101.5 191q0 77 56 139t137 86q-68 27 -110 81.5t-42 121.5q0 103 94 173t220 70t219.5 -70t93.5 -173q0 -68 -41.5 -122t-111.5 -81
q84 -24 138 -85.5t54 -139.5q0 -117 -100.5 -191t-251.5 -74zM1526 420q83 0 139.5 45.5t56.5 112.5q0 68 -56.5 113.5t-139.5 45.5q-85 -2 -142 -47t-57 -112t57 -112.5t142 -45.5zM1526 -25q95 0 163 52.5t68 126.5q0 75 -67.5 126.5t-163.5 51.5q-98 0 -166 -51.5
t-68 -126.5q0 -74 68 -126.5t166 -52.5z" />
    <glyph glyph-name="arrowleft" unicode="&#x2190;" horiz-adv-x="1167" 
d="M563 231l-461 461l461 461l103 -100l-283 -283h682v-156h-682l283 -282z" />
    <glyph glyph-name="arrowup" unicode="&#x2191;" horiz-adv-x="1128" 
d="M485 408v682l-282 -281l-101 102l461 459l463 -459l-102 -102l-281 281v-682h-158z" />
    <glyph glyph-name="arrowright" unicode="&#x2192;" horiz-adv-x="1167" 
d="M604 231l-102 101l282 282h-682v156h682l-282 283l102 100l461 -461z" />
    <glyph glyph-name="arrowdown" unicode="&#x2193;" horiz-adv-x="1128" 
d="M563 213l-461 461l101 102l282 -282v682h158v-682l281 282l102 -102z" />
    <glyph glyph-name="arrowboth" unicode="&#x2194;" horiz-adv-x="1579" 
d="M516 346l-414 416l414 414l84 -84l-266 -267h911l-266 267l84 84l414 -414l-414 -416l-84 84l266 266h-911l266 -266z" />
    <glyph glyph-name="arrowupdn" unicode="&#x2195;" horiz-adv-x="1034" 
d="M516 -104l-414 411l84 86l267 -266v862l-267 -268l-84 86l414 412l416 -412l-84 -86l-266 268v-862l266 266l84 -86z" />
    <glyph glyph-name="uni2196" unicode="&#x2196;" horiz-adv-x="942" 
d="M729 438l-481 482v-398h-146l2 652l652 2v-146h-398l482 -481z" />
    <glyph glyph-name="uni2197" unicode="&#x2197;" horiz-adv-x="942" 
d="M213 635l-111 110l482 482h-398l2 145l652 -2v-651h-144v397z" />
    <glyph glyph-name="uni2198" unicode="&#x2198;" horiz-adv-x="942" 
d="M186 438v144h398l-482 483l111 111l483 -482v398h144v-654h-654z" />
    <glyph glyph-name="uni2199" unicode="&#x2199;" horiz-adv-x="942" 
d="M104 438l-2 654h146v-398l481 482l111 -111l-482 -483h398v-144h-652z" />
    <glyph glyph-name="partialdiff" unicode="&#x2202;" horiz-adv-x="1302" 
d="M596 -27q-138 0 -240.5 59t-153 155t-50.5 216q0 209 122.5 341.5t331.5 132.5q264 0 385 -127q-3 76 -19.5 144t-42.5 118.5t-59 94t-69 73.5t-71.5 54.5t-68 38.5t-57 23.5t-38.5 13.5l-15 3l67 141q88 -25 164 -66t144.5 -105.5t117 -145.5t77 -191.5t28.5 -240.5
q0 -179 -42 -320t-117 -230t-175 -135.5t-219 -46.5zM602 119q171 0 272.5 128.5t110.5 354.5q-133 133 -364 133q-70 0 -126.5 -22.5t-90.5 -57.5t-57.5 -80t-32.5 -86.5t-9 -80.5q0 -52 17 -101.5t51 -92.5t93.5 -69t135.5 -26z" />
    <glyph glyph-name="emptyset" unicode="&#x2205;" horiz-adv-x="1261" 
d="M631 -25q-188 0 -334 109l-59 -68h-97l101 117q-164 161 -164 402q0 124 47.5 231.5t125.5 179t177 112t203 40.5q195 0 338 -109l59 68h98l-100 -117q74 -74 116 -178t42 -227q0 -163 -77 -292.5t-202.5 -198.5t-273.5 -69zM346 254l520 614q-96 74 -235 74
q-161 0 -279.5 -119t-118.5 -288q0 -161 113 -281zM631 129q168 0 282.5 116t114.5 290q0 170 -106 282l-521 -612q102 -76 230 -76z" />
    <glyph glyph-name="product" unicode="&#x220f;" horiz-adv-x="1587" 
d="M506 -74v1305h-285v158h1147v-158h-285v-1305h-157v1305h-264v-1305h-156z" />
    <glyph glyph-name="summation" unicode="&#x2211;" horiz-adv-x="1271" 
d="M90 -8l389 698l-389 699h1120v-158h-870l301 -541l-303 -543h872v-155h-1120z" />
    <glyph glyph-name="minus" unicode="&#x2212;" horiz-adv-x="1146" 
d="M139 618v156h869v-156h-869z" />
    <glyph glyph-name="radical" unicode="&#x221a;" horiz-adv-x="1431" 
d="M393 -68l-254 658h164l174 -459l418 1481h561v-156h-459l-436 -1524h-168z" />
    <glyph glyph-name="infinity" unicode="&#x221e;" horiz-adv-x="1832" 
d="M524 59q-186 -3 -311 123.5t-125 319.5q0 194 124.5 320.5t311.5 123.5q126 -1 242.5 -87t151.5 -202q34 116 150.5 203t238.5 86q191 -2 314.5 -123.5t123.5 -320.5t-123.5 -320t-314.5 -123q-133 -1 -237 76.5t-152 183.5q-30 -67 -83.5 -123.5t-136 -96t-174.5 -40.5z
M518 209q71 0 129.5 26t95.5 69t59.5 93.5t28.5 104.5q-5 31 -18 67.5t-39 77.5t-60 74t-85.5 54.5t-110.5 21.5q-114 0 -193 -89t-79 -206q0 -119 80 -206t192 -87zM1315 209q112 0 192 87t80 206q0 117 -79 206t-193 89q-73 0 -133 -32t-95.5 -80.5t-56 -95t-26.5 -87.5
q5 -54 27 -104.5t59 -93.5t95.5 -69t129.5 -26z" />
    <glyph glyph-name="integral" unicode="&#x222b;" horiz-adv-x="745" 
d="M-70 -272v110q109 -27 153 19t71 221l155 1057q17 122 61 203t109 118t150.5 46t185.5 -13v-113q-65 13 -121 9t-99.5 -26t-74.5 -79t-45 -150l-158 -1040q-36 -234 -122.5 -317t-264.5 -45z" />
    <glyph glyph-name="approxequal" unicode="&#x2248;" horiz-adv-x="1449" 
d="M225 973l-104 112q64 105 126 158t154 53q42 0 101.5 -19.5t118 -45.5t125 -53.5t130.5 -41.5t125 -11.5t119 38t103 105.5l106 -115q-120 -170 -348 -170q-65 0 -142.5 22.5t-138 51t-129 49t-124 22.5t-114.5 -35.5t-108 -119.5zM225 483l-104 113q42 69 76.5 110
t87.5 70t116 29q42 0 101.5 -19.5t118 -45t125 -53t130.5 -41.5t125 -11.5t119 38t103 105.5l106 -114q-121 -172 -348 -172q-65 0 -142.5 22.5t-138 51t-129 49t-124 22.5t-114.5 -35.5t-108 -118.5z" />
    <glyph glyph-name="notequal" unicode="&#x2260;" horiz-adv-x="1202" 
d="M256 152l141 294h-258v158h336l94 199h-430v158h508l144 299h133l-144 -299h281v-158h-356l-97 -199h453v-158h-529l-143 -294h-133z" />
    <glyph glyph-name="lessequal" unicode="&#x2264;" horiz-adv-x="1081" 
d="M942 406l-803 292v162l803 293v-160l-588 -213l588 -215v-159zM139 131v158h803v-158h-803z" />
    <glyph glyph-name="greaterequal" unicode="&#x2265;" horiz-adv-x="1081" 
d="M139 406v159l588 215l-588 213v160l803 -293v-162zM139 131v158h803v-158h-803z" />
    <glyph glyph-name="uni2460" unicode="&#x2460;" horiz-adv-x="1720" 
d="M860 -20q-142 0 -271 55t-222 148t-148 222t-55 271t55 271t148 222t222 148t271 55t271 -55t222 -148t148 -222t55 -271t-55 -271t-148 -222t-222 -148t-271 -55zM860 23q177 0 327.5 88t238 238.5t87.5 326.5q0 133 -52 253.5t-139.5 208t-208 139t-253.5 50.5
q-176 -1 -326 -88t-237.5 -236.5t-87.5 -326.5q0 -176 87.5 -326.5t237.5 -238.5t326 -88zM811 233v768h-133v101h252v-869h-119z" />
    <glyph glyph-name="uni2461" unicode="&#x2461;" horiz-adv-x="1722" 
d="M860 -20q-142 0 -271 55t-222 148t-148 222t-55 271t55 271t148 222.5t222 149t271 55.5q189 0 350 -93.5t255 -254.5t94 -350t-94 -349.5t-255 -253.5t-350 -93zM860 23q177 0 327.5 88t238 238.5t87.5 326.5q0 133 -52 253.5t-139.5 208t-208 139t-253.5 50.5
q-176 -1 -326 -88t-237.5 -236.5t-87.5 -326.5q0 -176 87.5 -326.5t237.5 -238.5t326 -88zM537 215v70q0 77 29.5 136.5t76.5 96t103.5 66t113 55.5t103.5 55.5t76.5 74t29.5 103.5q0 77 -51.5 124.5t-149.5 47.5q-84 0 -137 -43.5t-78 -109.5l-100 39q25 94 109 157.5
t208 63.5q133 0 220.5 -69.5t87.5 -200.5q0 -66 -22.5 -119t-59 -87.5t-83.5 -64.5t-95.5 -51t-95.5 -46.5t-83.5 -51t-59 -64t-22.5 -86.5h504v-96h-624z" />
    <glyph glyph-name="uni2462" unicode="&#x2462;" horiz-adv-x="1722" 
d="M860 -20q-142 0 -271 55t-222 148t-148 222t-55 271t55 271t148 222.5t222 149t271 55.5q189 0 350 -93.5t255 -254.5t94 -350t-94 -349.5t-255 -253.5t-350 -93zM860 23q133 0 254 52t208.5 140t139 208.5t51.5 252.5q0 133 -51.5 254t-139 208.5t-208.5 138.5t-254 50
q-132 -1 -252.5 -52t-208 -138t-139 -207.5t-51.5 -253.5q0 -176 87.5 -326.5t237.5 -238.5t326 -88zM860 199q-108 0 -188 32t-156 103l62 92q106 -115 268 -115q106 0 166.5 58.5t60.5 150.5q0 48 -30 89t-75.5 62.5t-99 28t-100.5 -13.5l-59 86l313 256h-430v100h592v-88
l-307 -249q137 7 229 -75t90 -206q-2 -134 -89 -222.5t-247 -88.5z" />
    <glyph glyph-name="uni2463" unicode="&#x2463;" horiz-adv-x="1722" 
d="M860 -20q-142 0 -271 55t-222 148t-148 222t-55 271t55 271t148 222.5t222 149t271 55.5q189 0 350 -93.5t255 -254.5t94 -350t-94 -349.5t-255 -253.5t-350 -93zM860 23q133 0 254 52t208.5 140t139 208.5t51.5 252.5q0 133 -51.5 254t-139 208.5t-208.5 138.5t-254 50
q-132 -1 -252.5 -52t-208 -138t-139 -207.5t-51.5 -253.5q0 -176 87.5 -326.5t237.5 -238.5t326 -88zM907 233v216h-461v100l371 579h129l-373 -579h336v325h109v-325h149v-100h-149v-216h-111z" />
    <glyph glyph-name="uni2464" unicode="&#x2464;" horiz-adv-x="1722" 
d="M860 -20q-142 0 -271 55t-222 148t-148 222t-55 271t55 271t148 222.5t222 149t271 55.5q189 0 350 -93.5t255 -254.5t94 -350t-94 -349.5t-255 -253.5t-350 -93zM860 23q133 0 254 52t208.5 140t139 208.5t51.5 252.5q0 133 -51.5 254t-139 208.5t-208.5 138.5t-254 50
q-132 -1 -252.5 -52t-208 -138t-139 -207.5t-51.5 -253.5q0 -176 87.5 -326.5t237.5 -238.5t326 -88zM840 217q-165 0 -310 86l50 92q127 -80 256 -80q127 0 189 51.5t62 131.5q1 25 -3 46t-19.5 46t-41.5 42t-74.5 28.5t-114.5 11.5h-222v452h523v-92h-420v-270h159
q172 0 243 -69t71 -195q0 -136 -95.5 -208.5t-252.5 -72.5z" />
    <glyph glyph-name="uni2465" unicode="&#x2465;" horiz-adv-x="1722" 
d="M860 -20q-142 0 -271 55t-222 148t-148 222t-55 271t55 271t148 222.5t222 149t271 55.5q189 0 350 -93.5t255 -254.5t94 -350t-94 -349.5t-255 -253.5t-350 -93zM860 23q133 0 254 52t208.5 140t139 208.5t51.5 252.5q0 133 -51.5 254t-139 208.5t-208.5 138.5t-254 50
q-132 -1 -252.5 -52t-208 -138t-139 -207.5t-51.5 -253.5q0 -176 87.5 -326.5t237.5 -238.5t326 -88zM854 227q-147 0 -252.5 104t-105.5 251q0 110 88 233l245 356h138l-185 -266q101 24 180.5 5t134.5 -68.5t84 -117.5t29 -142q0 -147 -104.5 -251t-251.5 -104zM854 344
q94 0 166 70t72 168q0 91 -65.5 164t-172.5 73q-35 0 -80 -15t-76 -40q-38 -32 -60 -84t-22 -98q0 -100 72 -169t166 -69z" />
    <glyph glyph-name="uni2466" unicode="&#x2466;" horiz-adv-x="1722" 
d="M860 -20q-142 0 -271 55t-222 148t-148 222t-55 271t55 271t148 222.5t222 149t271 55.5q189 0 350 -93.5t255 -254.5t94 -350t-94 -349.5t-255 -253.5t-350 -93zM860 23q133 0 254 52t208.5 140t139 208.5t51.5 252.5q0 133 -51.5 254t-139 208.5t-208.5 138.5t-254 50
q-132 -1 -252.5 -52t-208 -138t-139 -207.5t-51.5 -253.5q0 -176 87.5 -326.5t237.5 -238.5t326 -88zM616 199l428 802h-489v105h629v-82l-430 -825h-138z" />
    <glyph glyph-name="uni2467" unicode="&#x2467;" horiz-adv-x="1722" 
d="M860 -20q-142 0 -271 55t-222 148t-148 222t-55 271t55 271t148 222.5t222 149t271 55.5q189 0 350 -93.5t255 -254.5t94 -350t-94 -349.5t-255 -253.5t-350 -93zM860 23q133 0 254 52t208.5 140t139 208.5t51.5 252.5q0 133 -51.5 254t-139 208.5t-208.5 138.5t-254 50
q-132 -1 -252.5 -52t-208 -138t-139 -207.5t-51.5 -253.5q0 -176 87.5 -326.5t237.5 -238.5t326 -88zM858 215q-151 0 -251.5 74t-100.5 188q0 80 55 142t137 86q-69 27 -110 80.5t-41 121.5q0 104 92.5 174t218.5 70q127 0 220 -70t93 -174q0 -68 -40.5 -121.5
t-110.5 -80.5q84 -24 138 -85.5t54 -142.5q0 -114 -101.5 -188t-252.5 -74zM858 745q85 0 142 46t57 114t-57 114t-142 46q-84 -2 -140 -47.5t-56 -112.5q0 -68 56.5 -114t139.5 -46zM858 303q96 0 165 53t69 125q0 74 -68.5 126t-165.5 52q-96 0 -163.5 -52t-67.5 -126
q0 -73 67.5 -125.5t163.5 -52.5z" />
    <glyph glyph-name="uni2468" unicode="&#x2468;" horiz-adv-x="1722" 
d="M860 -20q-142 0 -271 55t-222 148t-148 222t-55 271t55 271t148 222.5t222 149t271 55.5q189 0 350 -93.5t255 -254.5t94 -350t-94 -349.5t-255 -253.5t-350 -93zM860 23q133 0 254 52t208.5 140t139 208.5t51.5 252.5q0 133 -51.5 254t-139 208.5t-208.5 138.5t-254 50
q-132 -1 -252.5 -52t-208 -138t-139 -207.5t-51.5 -253.5q0 -176 87.5 -326.5t237.5 -238.5t326 -88zM750 168l184 266q-101 -24 -180.5 -4.5t-134.5 69.5t-84 118.5t-29 142.5q1 97 49 178.5t130 128.5t179 47q147 0 252 -103.5t105 -250.5q0 -108 -86 -234l-248 -358h-137
zM862 522q34 0 79.5 15.5t76.5 40.5q38 32 61 84.5t23 97.5q0 100 -72.5 168.5t-165.5 68.5q-95 0 -166 -69.5t-71 -167.5q0 -92 64 -165t171 -73z" />
    <glyph glyph-name="uni24B6" unicode="&#x24b6;" 
d="M803 -14q-190 0 -351.5 93.5t-255.5 255t-94 351.5t94 351.5t255.5 255t351.5 93.5q143 0 272.5 -55.5t223 -149t149 -223t55.5 -272.5t-55.5 -272.5t-149 -223t-223 -149t-272.5 -55.5zM803 35q176 0 326 88t237.5 238t87.5 325q0 176 -87.5 326t-237.5 237t-326 86
q-175 -1 -324.5 -88t-237 -236t-87.5 -325q0 -175 87.5 -325t237 -238t324.5 -88zM367 352l438 799l438 -799h-129l-88 164h-442l-88 -164h-129zM643 621h324l-162 301z" />
    <glyph glyph-name="uni24B7" unicode="&#x24b7;" 
d="M803 -14q-190 0 -351.5 93.5t-255.5 255t-94 351.5t94 351.5t255.5 255t351.5 93.5q143 0 272.5 -55.5t223 -149t149 -223t55.5 -272.5t-55.5 -272.5t-149 -223t-223 -149t-272.5 -55.5zM803 35q176 0 326 88t237.5 238t87.5 325q0 176 -87.5 326t-237.5 237t-326 86
q-175 -1 -324.5 -88t-237 -236t-87.5 -325q0 -175 87.5 -325t237 -238t324.5 -88zM502 287v796h342q121 0 192.5 -56t71.5 -144q0 -67 -31 -113.5t-80 -62.5q79 -18 116.5 -73t37.5 -128q0 -103 -72 -161t-213 -58h-364zM618 756h244q55 0 90 26.5t35 81.5q0 58 -48 86.5
t-116 28.5h-205v-223zM618 391h232q84 0 132 33.5t48 97.5q0 59 -41 94t-129 35h-242v-260z" />
    <glyph glyph-name="uni24B8" unicode="&#x24b8;" 
d="M803 -14q-190 0 -351.5 93.5t-255.5 255t-94 351.5t94 351.5t255.5 255t351.5 93.5q143 0 272.5 -55.5t223 -149t149 -223t55.5 -272.5t-55.5 -272.5t-149 -223t-223 -149t-272.5 -55.5zM803 35q176 0 326 88t237.5 238t87.5 325q0 176 -87.5 326t-237.5 237t-326 86
q-175 -1 -324.5 -88t-237 -236t-87.5 -325q0 -175 87.5 -325t237 -238t324.5 -88zM803 260q-95 0 -176 37.5t-132.5 99t-80.5 137t-29 154.5q0 81 28.5 157.5t80.5 137t132.5 97t176.5 36.5q85 0 151.5 -24.5t103 -55.5t79.5 -82l-88 -86q-28 35 -54 58t-76.5 44t-111.5 21
q-131 0 -212 -94t-81 -209q0 -122 86 -212.5t207 -90.5q171 0 240 119l90 -84q-111 -160 -334 -160z" />
    <glyph glyph-name="uni24B9" unicode="&#x24b9;" 
d="M803 -14q-190 0 -351.5 93.5t-255.5 255t-94 351.5t94 351.5t255.5 255t351.5 93.5q143 0 272.5 -55.5t223 -149t149 -223t55.5 -272.5t-55.5 -272.5t-149 -223t-223 -149t-272.5 -55.5zM803 35q176 0 326 88t237.5 238t87.5 325q0 176 -87.5 326t-237.5 237t-326 86
q-175 -1 -324.5 -88t-237 -236t-87.5 -325q0 -175 87.5 -325t237 -238t324.5 -88zM500 1087h309q167 0 276 -101.5t109 -295.5q0 -174 -112.5 -286.5t-272.5 -112.5h-309v796zM793 403q119 0 200.5 81.5t81.5 205.5q0 137 -79.5 211t-202.5 74h-175v-572h175z" />
    <glyph glyph-name="uni24BA" unicode="&#x24ba;" 
d="M803 -14q-190 0 -351.5 93.5t-255.5 255t-94 351.5t94 351.5t255.5 255t351.5 93.5q143 0 272.5 -55.5t223 -149t149 -223t55.5 -272.5t-55.5 -272.5t-149 -223t-223 -149t-272.5 -55.5zM803 35q176 0 326 88t237.5 238t87.5 325q0 176 -87.5 326t-237.5 237t-326 86
q-175 -1 -324.5 -88t-237 -236t-87.5 -325q0 -175 87.5 -325t237 -238t324.5 -88zM522 1087h570v-100h-453v-242h395v-102h-395v-250h453v-102h-570v796z" />
    <glyph glyph-name="uni24BB" unicode="&#x24bb;" 
d="M803 -14q-190 0 -351.5 93.5t-255.5 255t-94 351.5t94 351.5t255.5 255t351.5 93.5q143 0 272.5 -55.5t223 -149t149 -223t55.5 -272.5t-55.5 -272.5t-149 -223t-223 -149t-272.5 -55.5zM803 35q176 0 326 88t237.5 238t87.5 325q0 176 -87.5 326t-237.5 237t-326 86
q-175 -1 -324.5 -88t-237 -236t-87.5 -325q0 -175 87.5 -325t237 -238t324.5 -88zM518 1063h598v-100h-479v-242h422v-103h-422v-352h-119v797z" />
    <glyph glyph-name="uni24BC" unicode="&#x24bc;" 
d="M803 -14q-190 0 -351.5 93.5t-255.5 255t-94 351.5t94 351.5t255.5 255t351.5 93.5q143 0 272.5 -55.5t223 -149t149 -223t55.5 -272.5t-55.5 -272.5t-149 -223t-223 -149t-272.5 -55.5zM803 35q176 0 326 88t237.5 238t87.5 325q0 176 -87.5 326t-237.5 237t-326 86
q-175 -1 -324.5 -88t-237 -236t-87.5 -325q0 -175 87.5 -325t237 -238t324.5 -88zM811 274q-169 0 -291.5 120.5t-122.5 293.5q0 121 61 217.5t155 146.5t198 50q181 0 295 -123l-78 -80q-90 90 -217 90q-117 0 -208 -86.5t-91 -214.5t90.5 -213.5t208.5 -85.5
q62 0 126.5 27.5t102.5 81.5v225h113v-289q-53 -80 -149.5 -120t-192.5 -40z" />
    <glyph glyph-name="uni24BD" unicode="&#x24bd;" 
d="M803 -14q-190 0 -351.5 93.5t-255.5 255t-94 351.5t94 351.5t255.5 255t351.5 93.5q143 0 272.5 -55.5t223 -149t149 -223t55.5 -272.5t-55.5 -272.5t-149 -223t-223 -149t-272.5 -55.5zM803 35q176 0 326 88t237.5 238t87.5 325q0 176 -87.5 326t-237.5 237t-326 86
q-175 -1 -324.5 -88t-237 -236t-87.5 -325q0 -175 87.5 -325t237 -238t324.5 -88zM475 1087h119v-327h422v327h119v-796h-119v358h-422v-358h-119v796z" />
    <glyph glyph-name="uni24BE" unicode="&#x24be;" 
d="M803 -14q-190 0 -351.5 93.5t-255.5 255t-94 351.5t94 351.5t255.5 255t351.5 93.5q143 0 272.5 -55.5t223 -149t149 -223t55.5 -272.5t-55.5 -272.5t-149 -223t-223 -149t-272.5 -55.5zM803 35q176 0 326 88t237.5 238t87.5 325q0 176 -87.5 326t-237.5 237t-326 86
q-175 -1 -324.5 -88t-237 -236t-87.5 -325q0 -175 87.5 -325t237 -238t324.5 -88zM731 1073h119v-797h-119v797z" />
    <glyph glyph-name="uni24BF" unicode="&#x24bf;" 
d="M803 -14q-190 0 -351.5 93.5t-255.5 255t-94 351.5t94 351.5t255.5 255t351.5 93.5q143 0 272.5 -55.5t223 -149t149 -223t55.5 -272.5t-55.5 -272.5t-149 -223t-223 -149t-272.5 -55.5zM803 35q176 0 326 88t237.5 238t87.5 325q0 176 -87.5 326t-237.5 237t-326 86
q-175 -1 -324.5 -88t-237 -236t-87.5 -325q0 -175 87.5 -325t237 -238t324.5 -88zM629 373q99 0 139.5 47t40.5 143v410h-68v102h187v-518q0 -157 -73.5 -228t-225.5 -71v115z" />
    <glyph glyph-name="uni24C0" unicode="&#x24c0;" 
d="M803 -14q-190 0 -351.5 93.5t-255.5 255t-94 351.5t94 351.5t255.5 255t351.5 93.5q143 0 272.5 -55.5t223 -149t149 -223t55.5 -272.5t-55.5 -272.5t-149 -223t-223 -149t-272.5 -55.5zM803 35q176 0 326 88t237.5 238t87.5 325q0 176 -87.5 326t-237.5 237t-326 86
q-175 -1 -324.5 -88t-237 -236t-87.5 -325q0 -175 87.5 -325t237 -238t324.5 -88zM516 1087h117v-311l317 311h172l-379 -378l437 -420h-170l-359 334l-18 -19v-315h-117v798z" />
    <glyph glyph-name="uni24C1" unicode="&#x24c1;" 
d="M803 -14q-190 0 -351.5 93.5t-255.5 255t-94 351.5t94 351.5t255.5 255t351.5 93.5q143 0 272.5 -55.5t223 -149t149 -223t55.5 -272.5t-55.5 -272.5t-149 -223t-223 -149t-272.5 -55.5zM803 35q176 0 326 88t237.5 238t87.5 325q0 176 -87.5 326t-237.5 237t-326 86
q-175 -1 -324.5 -88t-237 -236t-87.5 -325q0 -175 87.5 -325t237 -238t324.5 -88zM543 1094h116v-684h422v-113h-538v797z" />
    <glyph glyph-name="uni24C2" unicode="&#x24c2;" 
d="M803 -14q-190 0 -351.5 93.5t-255.5 255t-94 351.5t94 351.5t255.5 255t351.5 93.5q143 0 272.5 -55.5t223 -149t149 -223t55.5 -272.5t-55.5 -272.5t-149 -223t-223 -149t-272.5 -55.5zM803 35q176 0 326 88t237.5 238t87.5 325q0 176 -87.5 326t-237.5 237t-326 86
q-175 -1 -324.5 -88t-237 -236t-87.5 -325q0 -175 87.5 -325t237 -238t324.5 -88zM356 291v796l443 -444l438 444l2 -796h-119v532l-321 -346l-324 346v-532h-119z" />
    <glyph glyph-name="uni24C3" unicode="&#x24c3;" 
d="M803 -14q-190 0 -351.5 93.5t-255.5 255t-94 351.5t94 351.5t255.5 255t351.5 93.5q143 0 272.5 -55.5t223 -149t149 -223t55.5 -272.5t-55.5 -272.5t-149 -223t-223 -149t-272.5 -55.5zM803 35q176 0 326 88t237.5 238t87.5 325q0 176 -87.5 326t-237.5 237t-326 86
q-175 -1 -324.5 -88t-237 -236t-87.5 -325q0 -175 87.5 -325t237 -238t324.5 -88zM535 838v-547h-117v796l631 -577v580h116v-830z" />
    <glyph glyph-name="uni24C4" unicode="&#x24c4;" 
d="M803 -14q-190 0 -351.5 93.5t-255.5 255t-94 351.5t94 351.5t255.5 255t351.5 93.5q143 0 272.5 -55.5t223 -149t149 -223t55.5 -272.5t-55.5 -272.5t-149 -223t-223 -149t-272.5 -55.5zM803 35q176 0 326 88t237.5 238t87.5 325q0 176 -87.5 326t-237.5 237t-326 86
q-175 -1 -324.5 -88t-237 -236t-87.5 -325q0 -175 87.5 -325t237 -238t324.5 -88zM811 264q-115 0 -213 56.5t-155.5 154.5t-57.5 215q0 184 125.5 306t300.5 122q176 0 300 -121.5t124 -306.5q0 -177 -125 -301.5t-299 -124.5zM809 391q125 0 212 90t87 209
q0 122 -87.5 210.5t-211.5 88.5q-125 0 -211 -88t-86 -211q0 -119 86.5 -209t210.5 -90z" />
    <glyph glyph-name="uni24C5" unicode="&#x24c5;" 
d="M803 -14q-190 0 -351.5 93.5t-255.5 255t-94 351.5t94 351.5t255.5 255t351.5 93.5q143 0 272.5 -55.5t223 -149t149 -223t55.5 -272.5t-55.5 -272.5t-149 -223t-223 -149t-272.5 -55.5zM803 35q176 0 326 88t237.5 238t87.5 325q0 176 -87.5 326t-237.5 237t-326 86
q-175 -1 -324.5 -88t-237 -236t-87.5 -325q0 -175 87.5 -325t237 -238t324.5 -88zM520 1063h373q126 0 201 -80.5t75 -194.5q0 -116 -74.5 -194t-201.5 -78h-252v-252h-121v799zM885 618q69 0 118.5 49t49.5 121q0 73 -49.5 121.5t-118.5 48.5h-244v-340h244z" />
    <glyph glyph-name="uni24C6" unicode="&#x24c6;" 
d="M803 -14q-190 0 -351.5 93.5t-255.5 255t-94 351.5t94 351.5t255.5 255t351.5 93.5q143 0 272.5 -55.5t223 -149t149 -223t55.5 -272.5t-55.5 -272.5t-149 -223t-223 -149t-272.5 -55.5zM803 35q176 0 326 88t237.5 238t87.5 325q0 176 -87.5 326t-237.5 237t-326 86
q-175 -1 -324.5 -88t-237 -236t-87.5 -325q0 -175 87.5 -325t237 -238t324.5 -88zM1133 209l-148 129q-88 -68 -192 -68q-173 0 -295.5 123t-122.5 295q0 173 122.5 295.5t295.5 122.5q172 0 294.5 -122.5t122.5 -295.5q0 -166 -118 -291l127 -116zM793 389q124 0 211.5 88
t87.5 211q0 125 -88.5 214t-210.5 89q-125 0 -213 -88.5t-88 -214.5q0 -123 88.5 -211t212.5 -88z" />
    <glyph glyph-name="uni24C7" unicode="&#x24c7;" 
d="M803 -14q-190 0 -351.5 93.5t-255.5 255t-94 351.5t94 351.5t255.5 255t351.5 93.5q143 0 272.5 -55.5t223 -149t149 -223t55.5 -272.5t-55.5 -272.5t-149 -223t-223 -149t-272.5 -55.5zM803 35q176 0 326 88t237.5 238t87.5 325q0 176 -87.5 326t-237.5 237t-326 86
q-175 -1 -324.5 -88t-237 -236t-87.5 -325q0 -175 87.5 -325t237 -238t324.5 -88zM514 1087h346q127 0 202 -79.5t75 -192.5q0 -89 -45.5 -157.5t-124.5 -96.5l188 -268h-137l-176 250l-209 -2v-250h-119v796zM633 645h221q69 0 118.5 49t49.5 121q0 73 -49.5 121.5
t-118.5 48.5h-221v-340z" />
    <glyph glyph-name="uni24C8" unicode="&#x24c8;" 
d="M803 -14q-190 0 -351.5 93.5t-255.5 255t-94 351.5t94 351.5t255.5 255t351.5 93.5q143 0 272.5 -55.5t223 -149t149 -223t55.5 -272.5t-55.5 -272.5t-149 -223t-223 -149t-272.5 -55.5zM803 35q176 0 326 88t237.5 238t87.5 325q0 176 -87.5 326t-237.5 237t-326 86
q-175 -1 -324.5 -88t-237 -236t-87.5 -325q0 -175 87.5 -325t237 -238t324.5 -88zM532 485q89 -63 202 -89t196.5 0.5t87.5 103.5q2 31 -27.5 54t-77.5 38.5t-106.5 30t-117 35t-106 47.5t-76 72t-26.5 104q4 86 66.5 142t154.5 71t206 -12t214 -95l-57 -96
q-52 41 -115 65.5t-121 28.5t-107.5 -6t-80.5 -38t-35 -67q-3 -36 24.5 -62t75 -43t105 -31.5t116 -33t107 -42t79 -63.5t30.5 -93q0 -71 -30 -124t-88.5 -82.5t-137.5 -35t-183.5 20.5t-220.5 84z" />
    <glyph glyph-name="uni24C9" unicode="&#x24c9;" 
d="M803 -14q-190 0 -351.5 93.5t-255.5 255t-94 351.5t94 351.5t255.5 255t351.5 93.5q143 0 272.5 -55.5t223 -149t149 -223t55.5 -272.5t-55.5 -272.5t-149 -223t-223 -149t-272.5 -55.5zM803 35q176 0 326 88t237.5 238t87.5 325q0 176 -87.5 326t-237.5 237t-326 86
q-175 -1 -324.5 -88t-237 -236t-87.5 -325q0 -175 87.5 -325t237 -238t324.5 -88zM745 952h-231v113h582v-113h-232v-684h-119v684z" />
    <glyph glyph-name="uni24CA" unicode="&#x24ca;" 
d="M803 -14q-190 0 -351.5 93.5t-255.5 255t-94 351.5t94 351.5t255.5 255t351.5 93.5q143 0 272.5 -55.5t223 -149t149 -223t55.5 -272.5t-55.5 -272.5t-149 -223t-223 -149t-272.5 -55.5zM803 35q176 0 326 88t237.5 238t87.5 325q0 176 -87.5 326t-237.5 237t-326 86
q-175 -1 -324.5 -88t-237 -236t-87.5 -325q0 -175 87.5 -325t237 -238t324.5 -88zM799 262q-153 0 -231.5 95t-78.5 270v450h117v-450q0 -258 195 -258q97 0 144.5 67t47.5 191v450h115v-450q0 -175 -78 -270t-231 -95z" />
    <glyph glyph-name="uni24CB" unicode="&#x24cb;" 
d="M803 -14q-190 0 -351.5 93.5t-255.5 255t-94 351.5t94 351.5t255.5 255t351.5 93.5q143 0 272.5 -55.5t223 -149t149 -223t55.5 -272.5t-55.5 -272.5t-149 -223t-223 -149t-272.5 -55.5zM803 35q176 0 326 88t237.5 238t87.5 325q0 176 -87.5 326t-237.5 237t-326 86
q-175 -1 -324.5 -88t-237 -236t-87.5 -325q0 -175 87.5 -325t237 -238t324.5 -88zM371 1030h129l301 -569l301 569h129l-430 -799z" />
    <glyph glyph-name="uni24CC" unicode="&#x24cc;" 
d="M803 1386q143 0 272.5 -55.5t223 -149t149 -223t55.5 -272.5t-55.5 -272.5t-149 -223t-223 -149t-272.5 -55.5q-190 0 -351.5 93.5t-255.5 255t-94 351.5t94 351.5t255.5 255t351.5 93.5zM803 1335q-166 -1 -308.5 -79.5t-230.5 -211.5h74l301 -567l94 178l-207 389h129
l144 -276l141 276h129l-205 -389l92 -178l301 567h86q-88 135 -230.5 213.5t-309.5 77.5zM803 35q176 0 326 88t237.5 238t87.5 325q0 170 -88 320l-410 -758l-157 295l-160 -295l-403 747q-82 -139 -82 -309q0 -175 87.5 -325t237 -238t324.5 -88z" />
    <glyph glyph-name="uni24CD" unicode="&#x24cd;" 
d="M803 -14q-190 0 -351.5 93.5t-255.5 255t-94 351.5t94 351.5t255.5 255t351.5 93.5q143 0 272.5 -55.5t223 -149t149 -223t55.5 -272.5t-55.5 -272.5t-149 -223t-223 -149t-272.5 -55.5zM803 35q176 0 326 88t237.5 238t87.5 325q0 176 -87.5 326t-237.5 237t-326 86
q-175 -1 -324.5 -88t-237 -236t-87.5 -325q0 -175 87.5 -325t237 -238t324.5 -88zM735 694l-274 393h139l205 -292l205 292h133l-275 -389l283 -407h-141l-209 305l-205 -305h-139z" />
    <glyph glyph-name="uni24CE" unicode="&#x24ce;" 
d="M803 -14q-190 0 -351.5 93.5t-255.5 255t-94 351.5t94 351.5t255.5 255t351.5 93.5q143 0 272.5 -55.5t223 -149t149 -223t55.5 -272.5t-55.5 -272.5t-149 -223t-223 -149t-272.5 -55.5zM803 35q176 0 326 88t237.5 238t87.5 325q0 176 -87.5 326t-237.5 237t-326 86
q-175 -1 -324.5 -88t-237 -236t-87.5 -325q0 -175 87.5 -325t237 -238t324.5 -88zM745 578l-301 479h138l223 -346l225 346h137l-303 -479v-318h-119v318z" />
    <glyph glyph-name="uni24CF" unicode="&#x24cf;" 
d="M803 -14q-190 0 -351.5 93.5t-255.5 255t-94 351.5t94 351.5t255.5 255t351.5 93.5q143 0 272.5 -55.5t223 -149t149 -223t55.5 -272.5t-55.5 -272.5t-149 -223t-223 -149t-272.5 -55.5zM803 35q176 0 326 88t237.5 238t87.5 325q0 176 -87.5 326t-237.5 237t-326 86
q-175 -1 -324.5 -88t-237 -236t-87.5 -325q0 -175 87.5 -325t237 -238t324.5 -88zM942 971h-364v116h589l-510 -677h484v-119h-715z" />
    <glyph glyph-name="uni24D0" unicode="&#x24d0;" 
d="M803 -14q-190 0 -351.5 93.5t-255.5 255t-94 351.5t94 351.5t255.5 255t351.5 93.5q143 0 272.5 -55.5t223 -149t149 -223t55.5 -272.5t-55.5 -272.5t-149 -223t-223 -149t-272.5 -55.5zM803 35q176 0 326 88t237.5 238t87.5 325q0 176 -87.5 326t-237.5 237t-326 86
q-175 -1 -324.5 -88t-237 -236t-87.5 -325q0 -175 87.5 -325t237 -238t324.5 -88zM803 365q-132 0 -227 95t-95 228q0 130 95 224t227 94t225.5 -93.5t93.5 -224.5v-323h-110v116q-32 -52 -87.5 -84t-121.5 -32zM803 477q86 0 147.5 61.5t61.5 149.5q0 85 -61.5 146
t-147.5 61t-147.5 -61t-61.5 -146q0 -88 61.5 -149.5t147.5 -61.5z" />
    <glyph glyph-name="uni24D1" unicode="&#x24d1;" 
d="M803 -14q-190 0 -351.5 93.5t-255.5 255t-94 351.5t94 351.5t255.5 255t351.5 93.5q143 0 272.5 -55.5t223 -149t149 -223t55.5 -272.5t-55.5 -272.5t-149 -223t-223 -149t-272.5 -55.5zM803 35q176 0 326 88t237.5 238t87.5 325q0 176 -87.5 326t-237.5 237t-326 86
q-175 -1 -324.5 -88t-237 -236t-87.5 -325q0 -175 87.5 -325t237 -238t324.5 -88zM809 940q133 0 227 -95.5t94 -228.5q0 -135 -94 -230t-227 -95q-135 0 -229.5 95t-94.5 230v523h111v-322q32 55 88.5 89t124.5 34zM809 403q86 0 148.5 62.5t62.5 150.5q0 87 -62 149
t-149 62q-88 0 -150.5 -61.5t-62.5 -149.5t62.5 -150.5t150.5 -62.5z" />
    <glyph glyph-name="uni24D2" unicode="&#x24d2;" 
d="M803 -14q-190 0 -351.5 93.5t-255.5 255t-94 351.5t94 351.5t255.5 255t351.5 93.5q143 0 272.5 -55.5t223 -149t149 -223t55.5 -272.5t-55.5 -272.5t-149 -223t-223 -149t-272.5 -55.5zM803 35q176 0 326 88t237.5 238t87.5 325q0 176 -87.5 326t-237.5 237t-326 86
q-175 -1 -324.5 -88t-237 -236t-87.5 -325q0 -175 87.5 -325t237 -238t324.5 -88zM799 336q-138 0 -237 102.5t-99 245.5q0 80 30 146.5t78.5 109t107.5 65.5t120 23q101 0 185.5 -54t115.5 -136l-96 -60q-26 65 -83.5 100t-115.5 35q-89 0 -157 -62t-68 -167
q0 -97 65.5 -165t159.5 -68q66 0 122.5 38t76.5 95l96 -60q-30 -84 -114.5 -136t-186.5 -52z" />
    <glyph glyph-name="uni24D3" unicode="&#x24d3;" 
d="M803 -14q-190 0 -351.5 93.5t-255.5 255t-94 351.5t94 351.5t255.5 255t351.5 93.5q143 0 272.5 -55.5t223 -149t149 -223t55.5 -272.5t-55.5 -272.5t-149 -223t-223 -149t-272.5 -55.5zM803 35q176 0 326 88t237.5 238t87.5 325q0 176 -87.5 326t-237.5 237t-326 86
q-175 -1 -324.5 -88t-237 -236t-87.5 -325q0 -175 87.5 -325t237 -238t324.5 -88zM768 289q-134 0 -229 95t-95 228q0 134 95 229t229 95q68 0 124 -33t87 -88v322h113v-576q0 -61 25 -91t54 -30v-133q-118 0 -151 123q-38 -66 -103 -103.5t-149 -37.5zM768 401
q88 0 149.5 61.5t61.5 149.5t-61.5 150.5t-149.5 62.5t-149.5 -62.5t-61.5 -150.5t61.5 -149.5t149.5 -61.5z" />
    <glyph glyph-name="uni24D4" unicode="&#x24d4;" 
d="M803 -14q-190 0 -351.5 93.5t-255.5 255t-94 351.5t94 351.5t255.5 255t351.5 93.5q143 0 272.5 -55.5t223 -149t149 -223t55.5 -272.5t-55.5 -272.5t-149 -223t-223 -149t-272.5 -55.5zM803 35q176 0 326 88t237.5 238t87.5 325q0 176 -87.5 326t-237.5 237t-326 86
q-175 -1 -324.5 -88t-237 -236t-87.5 -325q0 -175 87.5 -325t237 -238t324.5 -88zM795 356q-91 0 -165 49t-112.5 123.5t-38.5 155.5q0 136 83.5 232t217.5 96q157 0 244.5 -105.5t50.5 -271.5h-473q6 -71 65 -124t140 -54q43 0 101 19.5t77 49.5l86 -67q-90 -103 -276 -103
zM965 733q5 28 -3 58t-28 58t-59 46t-91 18q-83 0 -132.5 -55.5t-49.5 -124.5h363z" />
    <glyph glyph-name="uni24D5" unicode="&#x24d5;" 
d="M803 -14q-190 0 -351.5 93.5t-255.5 255t-94 351.5t94 351.5t255.5 255t351.5 93.5q143 0 272.5 -55.5t223 -149t149 -223t55.5 -272.5t-55.5 -272.5t-149 -223t-223 -149t-272.5 -55.5zM803 35q176 0 326 88t237.5 238t87.5 325q0 176 -87.5 326t-237.5 237t-326 86
q-175 -1 -324.5 -88t-237 -236t-87.5 -325q0 -175 87.5 -325t237 -238t324.5 -88zM672 748h-76v112h76q0 56 17 103t57.5 85t107 43.5t164.5 -22.5l-23 -104q-104 33 -160.5 0.5t-56.5 -105.5h217v-112h-213v-512h-110v512z" />
    <glyph glyph-name="uni24D6" unicode="&#x24d6;" 
d="M803 -14q-190 0 -351.5 93.5t-255.5 255t-94 351.5t94 351.5t255.5 255t351.5 93.5q143 0 272.5 -55.5t223 -149t149 -223t55.5 -272.5t-55.5 -272.5t-149 -223t-223 -149t-272.5 -55.5zM803 35q176 0 326 88t237.5 238t87.5 325q0 176 -87.5 326t-237.5 237t-326 86
q-175 -1 -324.5 -88t-237 -236t-87.5 -325q0 -175 87.5 -325t237 -238t324.5 -88zM795 1094q133 0 228 -95t95 -229v-309q0 -151 -92.5 -234.5t-232.5 -83.5v113q92 0 152.5 50.5t60.5 150.5v110q-31 -55 -87 -88t-124 -33q-133 0 -228.5 95t-95.5 229t95.5 229t228.5 95z
M795 559q87 0 149 62t62 149q0 88 -62.5 150.5t-148.5 62.5q-88 0 -149.5 -62.5t-61.5 -150.5t61.5 -149.5t149.5 -61.5z" />
    <glyph glyph-name="uni24D7" unicode="&#x24d7;" 
d="M803 -14q-190 0 -351.5 93.5t-255.5 255t-94 351.5t94 351.5t255.5 255t351.5 93.5q143 0 272.5 -55.5t223 -149t149 -223t55.5 -272.5t-55.5 -272.5t-149 -223t-223 -149t-272.5 -55.5zM803 35q176 0 326 88t237.5 238t87.5 325q0 176 -87.5 326t-237.5 237t-326 86
q-175 -1 -324.5 -88t-237 -236t-87.5 -325q0 -175 87.5 -325t237 -238t324.5 -88zM805 920q132 0 215.5 -84t83.5 -222v-325h-113v325q0 91 -50 142t-136 51q-87 0 -138 -51.5t-51 -141.5v-325h-112v827h112v-291q58 95 189 95z" />
    <glyph glyph-name="uni24D8" unicode="&#x24d8;" 
d="M803 -14q-190 0 -351.5 93.5t-255.5 255t-94 351.5t94 351.5t255.5 255t351.5 93.5q143 0 272.5 -55.5t223 -149t149 -223t55.5 -272.5t-55.5 -272.5t-149 -223t-223 -149t-272.5 -55.5zM803 35q176 0 326 88t237.5 238t87.5 325q0 176 -87.5 326t-237.5 237t-326 86
q-175 -1 -324.5 -88t-237 -236t-87.5 -325q0 -175 87.5 -325t237 -238t324.5 -88zM801 977q-26 0 -45 19t-19 44q0 28 19 47t45 19q28 0 46.5 -19t18.5 -47q0 -25 -19 -44t-46 -19zM748 901h108v-622h-108v622z" />
    <glyph glyph-name="uni24D9" unicode="&#x24d9;" 
d="M803 -14q-190 0 -351.5 93.5t-255.5 255t-94 351.5t94 351.5t255.5 255t351.5 93.5q143 0 272.5 -55.5t223 -149t149 -223t55.5 -272.5t-55.5 -272.5t-149 -223t-223 -149t-272.5 -55.5zM803 35q176 0 326 88t237.5 238t87.5 325q0 176 -87.5 326t-237.5 237t-326 86
q-175 -1 -324.5 -88t-237 -236t-87.5 -325q0 -175 87.5 -325t237 -238t324.5 -88zM831 1051q-26 0 -44.5 20t-18.5 47q0 25 18.5 43.5t44.5 18.5t46 -18.5t20 -43.5q0 -26 -20 -46.5t-46 -20.5zM659 311q67 0 94 45t27 129v480h111v-478q0 -129 -58.5 -207.5t-173.5 -78.5
v110z" />
    <glyph glyph-name="uni24DA" unicode="&#x24da;" 
d="M803 -14q-190 0 -351.5 93.5t-255.5 255t-94 351.5t94 351.5t255.5 255t351.5 93.5q143 0 272.5 -55.5t223 -149t149 -223t55.5 -272.5t-55.5 -272.5t-149 -223t-223 -149t-272.5 -55.5zM803 35q176 0 326 88t237.5 238t87.5 325q0 176 -87.5 326t-237.5 237t-326 86
q-175 -1 -324.5 -88t-237 -236t-87.5 -325q0 -175 87.5 -325t237 -238t324.5 -88zM1102 276h-139l-238 304l-90 -76v-228h-111v619q0 104 53.5 174.5t155.5 69.5v-111q-48 0 -73 -36.5t-25 -96.5v-252l242 256h137l-211 -235z" />
    <glyph glyph-name="uni24DB" unicode="&#x24db;" 
d="M803 -14q-190 0 -351.5 93.5t-255.5 255t-94 351.5t94 351.5t255.5 255t351.5 93.5q143 0 272.5 -55.5t223 -149t149 -223t55.5 -272.5t-55.5 -272.5t-149 -223t-223 -149t-272.5 -55.5zM803 35q176 0 326 88t237.5 238t87.5 325q0 176 -87.5 326t-237.5 237t-326 86
q-175 -1 -324.5 -88t-237 -236t-87.5 -325q0 -175 87.5 -325t237 -238t324.5 -88zM909 227q-98 0 -154.5 68.5t-56.5 177.5v619h113v-617q0 -60 24.5 -96.5t73.5 -36.5v-115z" />
    <glyph glyph-name="uni24DC" unicode="&#x24dc;" 
d="M803 -14q-190 0 -351.5 93.5t-255.5 255t-94 351.5t94 351.5t255.5 255t351.5 93.5q143 0 272.5 -55.5t223 -149t149 -223t55.5 -272.5t-55.5 -272.5t-149 -223t-223 -149t-272.5 -55.5zM803 35q176 0 326 88t237.5 238t87.5 325q0 176 -87.5 326t-237.5 237t-326 86
q-175 -1 -324.5 -88t-237 -236t-87.5 -325q0 -175 87.5 -325t237 -238t324.5 -88zM991 1001q120 0 181 -74.5t61 -217.5v-336h-113v336q0 91 -30.5 136.5t-98.5 45.5q-66 0 -96.5 -45.5t-30.5 -136.5v-336h-112v336q0 91 -30.5 136.5t-96.5 45.5q-68 0 -98.5 -45.5
t-30.5 -136.5v-336h-111v336q0 143 61 217.5t179 74.5q134 0 184 -108q47 108 182 108z" />
    <glyph glyph-name="uni24DD" unicode="&#x24dd;" 
d="M803 -14q-190 0 -351.5 93.5t-255.5 255t-94 351.5t94 351.5t255.5 255t351.5 93.5q143 0 272.5 -55.5t223 -149t149 -223t55.5 -272.5t-55.5 -272.5t-149 -223t-223 -149t-272.5 -55.5zM803 35q176 0 326 88t237.5 238t87.5 325q0 176 -87.5 326t-237.5 237t-326 86
q-175 -1 -324.5 -88t-237 -236t-87.5 -325q0 -175 87.5 -325t237 -238t324.5 -88zM498 700q0 139 83.5 222.5t217.5 83.5q132 0 215.5 -83.5t83.5 -222.5v-325h-113v325q0 91 -50 142t-136 51q-87 0 -138 -51t-51 -142v-325h-112v325z" />
    <glyph glyph-name="uni24DE" unicode="&#x24de;" 
d="M803 -14q-190 0 -351.5 93.5t-255.5 255t-94 351.5t94 351.5t255.5 255t351.5 93.5q143 0 272.5 -55.5t223 -149t149 -223t55.5 -272.5t-55.5 -272.5t-149 -223t-223 -149t-272.5 -55.5zM803 35q176 0 326 88t237.5 238t87.5 325q0 176 -87.5 326t-237.5 237t-326 86
q-175 -1 -324.5 -88t-237 -236t-87.5 -325q0 -175 87.5 -325t237 -238t324.5 -88zM807 346q-138 0 -235 96.5t-97 237.5t98.5 237.5t233.5 96.5q137 0 234.5 -96.5t97.5 -237.5t-97.5 -237.5t-234.5 -96.5zM807 457q93 0 156 65.5t63 157.5q0 91 -63.5 157t-155.5 66
q-94 0 -157.5 -66t-63.5 -157q0 -92 63.5 -157.5t157.5 -65.5z" />
    <glyph glyph-name="uni24DF" unicode="&#x24df;" 
d="M803 -14q-190 0 -351.5 93.5t-255.5 255t-94 351.5t94 351.5t255.5 255t351.5 93.5q143 0 272.5 -55.5t223 -149t149 -223t55.5 -272.5t-55.5 -272.5t-149 -223t-223 -149t-272.5 -55.5zM803 35q176 0 326 88t237.5 238t87.5 325q0 176 -87.5 326t-237.5 237t-326 86
q-175 -1 -324.5 -88t-237 -236t-87.5 -325q0 -175 87.5 -325t237 -238t324.5 -88zM807 365q-67 0 -123.5 32.5t-87.5 87.5v-319h-113v522q0 135 95 230.5t229 95.5q135 0 229 -95.5t94 -230.5q0 -134 -94 -228.5t-229 -94.5zM807 899q-88 0 -149.5 -61.5t-61.5 -149.5
t61.5 -149.5t149.5 -61.5t150.5 61.5t62.5 149.5t-62.5 149.5t-150.5 61.5z" />
    <glyph glyph-name="uni24E0" unicode="&#x24e0;" 
d="M803 -14q-190 0 -351.5 93.5t-255.5 255t-94 351.5t94 351.5t255.5 255t351.5 93.5q143 0 272.5 -55.5t223 -149t149 -223t55.5 -272.5t-55.5 -272.5t-149 -223t-223 -149t-272.5 -55.5zM803 35q176 0 326 88t237.5 238t87.5 325q0 176 -87.5 326t-237.5 237t-326 86
q-175 -1 -324.5 -88t-237 -236t-87.5 -325q0 -175 87.5 -325t237 -238t324.5 -88zM788 362q-135 0 -229 95t-94 229q0 135 94 230.5t229 95.5q134 0 229 -95.5t95 -230.5v-522h-113v319q-31 -55 -87.5 -88t-123.5 -33zM788 897q-88 0 -150.5 -61.5t-62.5 -149.5t62.5 -149.5
t150.5 -61.5t149.5 61.5t61.5 149.5t-61.5 149.5t-149.5 61.5z" />
    <glyph glyph-name="uni24E1" unicode="&#x24e1;" 
d="M803 -14q-190 0 -351.5 93.5t-255.5 255t-94 351.5t94 351.5t255.5 255t351.5 93.5q143 0 272.5 -55.5t223 -149t149 -223t55.5 -272.5t-55.5 -272.5t-149 -223t-223 -149t-272.5 -55.5zM803 35q176 0 326 88t237.5 238t87.5 325q0 176 -87.5 326t-237.5 237t-326 86
q-175 -1 -324.5 -88t-237 -236t-87.5 -325q0 -175 87.5 -325t237 -238t324.5 -88zM653 991h107v-76q25 43 82.5 62.5t124.5 13.5v-112q-79 11 -140 -29t-61 -111v-370h-113v622z" />
    <glyph glyph-name="uni24E2" unicode="&#x24e2;" 
d="M803 -14q-190 0 -351.5 93.5t-255.5 255t-94 351.5t94 351.5t255.5 255t351.5 93.5q143 0 272.5 -55.5t223 -149t149 -223t55.5 -272.5t-55.5 -272.5t-149 -223t-223 -149t-272.5 -55.5zM803 35q176 0 326 88t237.5 238t87.5 325q0 176 -87.5 326t-237.5 237t-326 86
q-175 -1 -324.5 -88t-237 -236t-87.5 -325q0 -175 87.5 -325t237 -238t324.5 -88zM547 530q68 -36 139 -56.5t129.5 -22t96 22t38.5 71.5q0 28 -32 49t-80.5 33t-105 30t-104 39t-77.5 61t-27 95q5 72 58 117t129 56t169.5 -12t174.5 -79l-47 -80q-52 41 -116.5 61.5
t-118.5 18.5t-92 -25t-40 -63q-1 -30 29.5 -53t77.5 -36t102.5 -31t103 -37t79.5 -55.5t32 -84.5q0 -55 -24 -98t-72 -69t-114 -32t-156 15.5t-191 70.5z" />
    <glyph glyph-name="uni24E3" unicode="&#x24e3;" 
d="M803 -14q-190 0 -351.5 93.5t-255.5 255t-94 351.5t94 351.5t255.5 255t351.5 93.5q143 0 272.5 -55.5t223 -149t149 -223t55.5 -272.5t-55.5 -272.5t-149 -223t-223 -149t-272.5 -55.5zM803 35q176 0 326 88t237.5 238t87.5 325q0 176 -87.5 326t-237.5 237t-326 86
q-175 -1 -324.5 -88t-237 -236t-87.5 -325q0 -175 87.5 -325t237 -238t324.5 -88zM985 274q-41 -3 -84 -2.5t-84.5 16t-74 39.5t-52.5 69t-20 104v313h-58v111h58v133h118v-133h156v-111h-156v-276q0 -42 12 -72t32 -44.5t45.5 -23.5t53 -9t54.5 1v-115z" />
    <glyph glyph-name="uni24E4" unicode="&#x24e4;" 
d="M803 -14q-190 0 -351.5 93.5t-255.5 255t-94 351.5t94 351.5t255.5 255t351.5 93.5q143 0 272.5 -55.5t223 -149t149 -223t55.5 -272.5t-55.5 -272.5t-149 -223t-223 -149t-272.5 -55.5zM803 35q176 0 326 88t237.5 238t87.5 325q0 176 -87.5 326t-237.5 237t-326 86
q-175 -1 -324.5 -88t-237 -236t-87.5 -325q0 -175 87.5 -325t237 -238t324.5 -88zM805 344q-133 0 -217 83.5t-84 221.5v326h112v-326q0 -90 51 -141t138 -51q86 0 136 51t50 141v326h113v-326q0 -138 -83.5 -221.5t-215.5 -83.5z" />
    <glyph glyph-name="uni24E5" unicode="&#x24e5;" 
d="M803 -14q-190 0 -351.5 93.5t-255.5 255t-94 351.5t94 351.5t255.5 255t351.5 93.5q143 0 272.5 -55.5t223 -149t149 -223t55.5 -272.5t-55.5 -272.5t-149 -223t-223 -149t-272.5 -55.5zM803 35q176 0 326 88t237.5 238t87.5 325q0 176 -87.5 326t-237.5 237t-326 86
q-175 -1 -324.5 -88t-237 -236t-87.5 -325q0 -175 87.5 -325t237 -238t324.5 -88zM797 362l-338 623h129l209 -393l209 393h129z" />
    <glyph glyph-name="uni24E6" unicode="&#x24e6;" 
d="M803 1386q143 0 272.5 -55.5t223 -149t149 -223t55.5 -272.5t-55.5 -272.5t-149 -223t-223 -149t-272.5 -55.5q-190 0 -351.5 93.5t-255.5 255t-94 351.5t94 351.5t255.5 255t351.5 93.5zM803 1335q-201 -1 -365 -114t-237 -293h121l206 -393l209 393h129l209 -393
l207 393h123q-71 182 -235.5 295t-366.5 112zM803 35q176 0 326 88t237.5 238t87.5 325q0 122 -45 234l-334 -617l-272 510l-275 -510l-331 615q-43 -110 -43 -232q0 -175 87.5 -325t237 -238t324.5 -88z" />
    <glyph glyph-name="uni24E7" unicode="&#x24e7;" 
d="M803 -14q-190 0 -351.5 93.5t-255.5 255t-94 351.5t94 351.5t255.5 255t351.5 93.5q143 0 272.5 -55.5t223 -149t149 -223t55.5 -272.5t-55.5 -272.5t-149 -223t-223 -149t-272.5 -55.5zM803 35q176 0 326 88t237.5 238t87.5 325q0 176 -87.5 326t-237.5 237t-326 86
q-175 -1 -324.5 -88t-237 -236t-87.5 -325q0 -175 87.5 -325t237 -238t324.5 -88zM498 379l229 319l-227 320h139l156 -223l157 223h140l-228 -316l230 -323h-138l-161 225l-162 -225h-135z" />
    <glyph glyph-name="uni24E8" unicode="&#x24e8;" 
d="M803 -14q-190 0 -351.5 93.5t-255.5 255t-94 351.5t94 351.5t255.5 255t351.5 93.5q143 0 272.5 -55.5t223 -149t149 -223t55.5 -272.5t-55.5 -272.5t-149 -223t-223 -149t-272.5 -55.5zM803 35q176 0 326 88t237.5 238t87.5 325q0 176 -87.5 326t-237.5 237t-326 86
q-175 -1 -324.5 -88t-237 -236t-87.5 -325q0 -175 87.5 -325t237 -238t324.5 -88zM551 238q60 -13 109.5 21t68 83.5t2.5 81.5l-237 569h120l197 -469l199 469h118l-258 -622q-30 -63 -55 -103t-63.5 -79.5t-88.5 -54.5t-112 -5v109z" />
    <glyph glyph-name="uni24E9" unicode="&#x24e9;" 
d="M803 -14q-190 0 -351.5 93.5t-255.5 255t-94 351.5t94 351.5t255.5 255t351.5 93.5q143 0 272.5 -55.5t223 -149t149 -223t55.5 -272.5t-55.5 -272.5t-149 -223t-223 -149t-272.5 -55.5zM803 35q176 0 326 88t237.5 238t87.5 325q0 176 -87.5 326t-237.5 237t-326 86
q-175 -1 -324.5 -88t-237 -236t-87.5 -325q0 -175 87.5 -325t237 -238t324.5 -88zM866 889h-299v115h535l-416 -510h383v-115h-614z" />
    <glyph glyph-name="uni24EA" unicode="&#x24ea;" horiz-adv-x="1722" 
d="M860 -20q-142 0 -271 55t-222 148t-148 222t-55 271t55 271t148 222.5t222 149t271 55.5q189 0 350 -93.5t255 -254.5t94 -350t-94 -349.5t-255 -253.5t-350 -93zM860 23q133 0 254 52t208.5 140t139 208.5t51.5 252.5q0 133 -51.5 254t-139 208.5t-208.5 138.5t-254 50
q-132 -1 -252.5 -52t-208 -138t-139 -207.5t-51.5 -253.5q0 -176 87.5 -326.5t237.5 -238.5t326 -88zM860 207q-113 0 -201 64t-134 171t-46 236q0 198 105.5 334t275.5 135q172 1 277.5 -135t105.5 -334q0 -199 -105.5 -335t-277.5 -136zM860 319q81 1 140.5 51.5
t88.5 130.5t29 177q0 147 -69 251.5t-189 104.5q-119 0 -188.5 -105t-69.5 -251q0 -97 29 -177t89 -130.5t140 -51.5z" />
    <glyph glyph-name="uni24FF" unicode="&#x24ff;" horiz-adv-x="1720" 
d="M860 -20q-142 0 -271 55t-222 148.5t-148 222.5t-55 272q0 188 93 348.5t253.5 254t349.5 93.5t349.5 -93.5t253.5 -254t93 -348.5q0 -143 -55 -272t-148 -222.5t-222 -148.5t-271 -55zM858 207q172 0 277.5 136.5t105.5 334.5q0 130 -46 237t-134 171.5t-203 64.5
q-170 0 -275.5 -137t-105.5 -336q0 -129 46 -235.5t134 -171t201 -64.5zM858 322q-119 0 -187.5 103.5t-68.5 252.5q0 95 28.5 174.5t88 130.5t139.5 51q120 0 189 -104t69 -252q0 -96 -28.5 -175.5t-88.5 -130t-141 -50.5z" />
    <glyph glyph-name="lozenge" unicode="&#x25ca;" horiz-adv-x="985" 
d="M414 51l-326 635l326 633h157l326 -633l-326 -635h-157zM494 203l247 483l-247 481l-248 -481z" />
    <glyph glyph-name="uni2776" unicode="&#x2776;" horiz-adv-x="1722" 
d="M860 -20q-142 0 -271 55t-222 148t-148 222t-55 271t55 271t148 222.5t222 149t271 55.5q189 0 350 -93.5t255 -254.5t94 -350t-94 -349.5t-255 -253.5t-350 -93zM799 215h114v887h-266v-98h152v-789z" />
    <glyph glyph-name="uni2777" unicode="&#x2777;" horiz-adv-x="1722" 
d="M860 -20q-142 0 -271 55t-222 148t-148 222t-55 271t55 271t148 222.5t222 149t271 55.5q189 0 350 -93.5t255 -254.5t94 -350t-94 -349.5t-255 -253.5t-350 -93zM532 225h625v97h-504q0 48 22.5 86.5t59 64t83.5 51t95.5 46t95.5 51t83.5 64.5t59 87t22.5 119
q0 131 -87.5 200.5t-220.5 69.5q-124 0 -208 -63.5t-109 -157.5l100 -39q25 66 78.5 110t136.5 44q98 0 149.5 -47.5t51.5 -124.5q0 -59 -29.5 -104t-76.5 -74t-103.5 -55t-113.5 -55.5t-104 -66.5t-76.5 -96.5t-29.5 -136.5v-70z" />
    <glyph glyph-name="uni2778" unicode="&#x2778;" horiz-adv-x="1722" 
d="M860 -20q-142 0 -271 55t-222 148t-148 222t-55 271t55 271t148 222.5t222 149t271 55.5q189 0 350 -93.5t255 -254.5t94 -350t-94 -349.5t-255 -253.5t-350 -93zM860 199q160 0 247 88.5t89 222.5q2 124 -90 206t-229 75l307 249v88h-592v-100h430l-313 -256l59 -86
q47 20 100.5 13.5t99 -28t75.5 -62.5t30 -89q0 -92 -60.5 -150.5t-166.5 -58.5q-162 0 -268 115l-62 -92q76 -71 156 -103t188 -32z" />
    <glyph glyph-name="uni2779" unicode="&#x2779;" horiz-adv-x="1722" 
d="M860 -20q-142 0 -271 55t-222 148t-148 222t-55 271t55 271t148 222.5t222 149t271 55.5q189 0 350 -93.5t255 -254.5t94 -350t-94 -349.5t-255 -253.5t-350 -93zM907 233h111v216h149v100h-149v325h-109v-325h-336l373 579h-129l-371 -579v-100h461v-216z" />
    <glyph glyph-name="uni277A" unicode="&#x277a;" horiz-adv-x="1722" 
d="M860 -20q-142 0 -271 55t-222 148t-148 222t-55 271t55 271t148 222.5t222 149t271 55.5q189 0 350 -93.5t255 -254.5t94 -350t-94 -349.5t-255 -253.5t-350 -93zM844 203q163 0 262.5 75t99.5 214q0 272 -319 272h-162v272h422v97h-541v-465h232q245 0 245 -179
q0 -77 -61.5 -126.5t-181.5 -49.5q-136 0 -260 76l-54 -98q146 -88 318 -88z" />
    <glyph glyph-name="uni277B" unicode="&#x277b;" horiz-adv-x="1722" 
d="M860 -20q-142 0 -271 55t-222 148t-148 222t-55 271t55 271t148 222.5t222 149t271 55.5q189 0 350 -93.5t255 -254.5t94 -350t-94 -349.5t-255 -253.5t-350 -93zM858 227q147 0 251.5 104t104.5 251q0 74 -29 142t-84 118t-134.5 69.5t-180.5 -4.5l185 267h-137
l-246 -359q-88 -123 -88 -233q0 -147 105.5 -251t252.5 -104zM858 344q-93 0 -165 69t-72 169q0 46 21.5 98t59.5 84q31 25 76 40t80 15q108 0 173 -72.5t65 -164.5q0 -98 -72 -168t-166 -70z" />
    <glyph glyph-name="uni277C" unicode="&#x277c;" horiz-adv-x="1722" 
d="M860 -20q-142 0 -271 55t-222 148t-148 222t-55 271t55 271t148 222.5t222 149t271 55.5q189 0 350 -93.5t255 -254.5t94 -350t-94 -349.5t-255 -253.5t-350 -93zM616 199h138l430 825v82h-629v-105h489z" />
    <glyph glyph-name="uni277D" unicode="&#x277d;" horiz-adv-x="1722" 
d="M860 -20q-142 0 -271 55t-222 148t-148 222t-55 271t55 271t148 222.5t222 149t271 55.5q189 0 350 -93.5t255 -254.5t94 -350t-94 -349.5t-255 -253.5t-350 -93zM858 215q151 0 252.5 74t101.5 188q0 81 -54 142.5t-138 85.5q70 27 110.5 80.5t40.5 121.5q0 104 -93 174
t-220 70q-126 0 -218.5 -70t-92.5 -174q0 -68 41 -121.5t110 -80.5q-82 -24 -137 -86t-55 -142q0 -114 100.5 -188t251.5 -74zM858 745q-83 0 -139.5 46t-56.5 114q0 67 56 112.5t140 47.5q85 0 142 -46t57 -114t-57 -114t-142 -46zM858 303q-96 0 -163.5 52.5t-67.5 125.5
q0 74 67.5 126t163.5 52q97 0 165.5 -52t68.5 -126q0 -72 -69 -125t-165 -53z" />
    <glyph glyph-name="uni277E" unicode="&#x277e;" horiz-adv-x="1722" 
d="M860 -20q-142 0 -271 55t-222 148t-148 222t-55 271t55 271t148 222.5t222 149t271 55.5q189 0 350 -93.5t255 -254.5t94 -350t-94 -349.5t-255 -253.5t-350 -93zM750 168h137l248 358q86 126 86 234q0 147 -105 250.5t-252 103.5q-148 0 -252 -103t-104 -251
q-1 -74 28 -142.5t84 -118.5t135 -69.5t181 4.5zM862 522q-107 0 -171 73t-64 165q0 98 71 167.5t166 69.5q94 0 166 -68.5t72 -168.5q0 -45 -23 -97.5t-61 -84.5q-29 -25 -75 -40.5t-81 -15.5z" />
    <glyph glyph-name="i.loclTRK" horiz-adv-x="251" 
d="M127 1221q-32 0 -55 22.5t-23 54.5t23 55t55 23t56 -23t24 -55t-23.5 -54.5t-56.5 -22.5zM47 0v1120h160v-1120h-160z" />
    <glyph glyph-name="a.ss05" horiz-adv-x="1343" 
d="M1346 160v-166q-103 0 -164.5 69.5t-77.5 178.5q-67 -123 -189 -195t-270 -72q-114 0 -217.5 44.5t-178.5 120t-119 179t-44 216.5t44 216t119 178t178.5 119t217.5 44q113 0 216 -44t178 -119t119 -178t44 -216v-136q0 -97 38.5 -168t105.5 -71zM645 139
q162 0 277.5 116.5t115.5 279.5t-115 278t-278 115q-164 0 -279.5 -115t-115.5 -278t115.5 -279.5t279.5 -116.5z" />
    <glyph glyph-name="aacute.ss05" horiz-adv-x="1351" 
d="M612 1208l86 224h185l-176 -224h-95zM1346 160v-166q-103 0 -164.5 69.5t-77.5 178.5q-67 -123 -189 -195t-270 -72q-114 0 -217.5 44.5t-178.5 120t-119 179t-44 216.5t44 216t119 178t178.5 119t217.5 44q113 0 216 -44t178 -119t119 -178t44 -216v-136
q0 -97 38.5 -168t105.5 -71zM645 139q162 0 277.5 116.5t115.5 279.5t-115 278t-278 115q-164 0 -279.5 -115t-115.5 -278t115.5 -279.5t279.5 -116.5z" />
    <glyph glyph-name="abreve.ss05" horiz-adv-x="1351" 
d="M645 1182q-89 0 -144 45t-55 119h123q0 -66 76 -66q74 0 74 66h123q0 -74 -54 -119t-143 -45zM1346 160v-166q-103 0 -164.5 69.5t-77.5 178.5q-67 -123 -189 -195t-270 -72q-114 0 -217.5 44.5t-178.5 120t-119 179t-44 216.5t44 216t119 178t178.5 119t217.5 44
q113 0 216 -44t178 -119t119 -178t44 -216v-136q0 -97 38.5 -168t105.5 -71zM645 139q162 0 277.5 116.5t115.5 279.5t-115 278t-278 115q-164 0 -279.5 -115t-115.5 -278t115.5 -279.5t279.5 -116.5z" />
    <glyph glyph-name="acircumflex.ss05" horiz-adv-x="1351" 
d="M463 1217l131 213h104l131 -213h-104l-78 126l-80 -126h-104zM1346 160v-166q-103 0 -164.5 69.5t-77.5 178.5q-67 -123 -189 -195t-270 -72q-114 0 -217.5 44.5t-178.5 120t-119 179t-44 216.5t44 216t119 178t178.5 119t217.5 44q113 0 216 -44t178 -119t119 -178
t44 -216v-136q0 -97 38.5 -168t105.5 -71zM645 139q162 0 277.5 116.5t115.5 279.5t-115 278t-278 115q-164 0 -279.5 -115t-115.5 -278t115.5 -279.5t279.5 -116.5z" />
    <glyph glyph-name="adieresis.ss05" horiz-adv-x="1351" 
d="M512 1198q-32 0 -56 23t-24 55t24 56t56 24q31 0 54.5 -24t23.5 -56t-23.5 -55t-54.5 -23zM780 1198q-31 0 -54.5 23t-23.5 55t23.5 56t54.5 24q32 0 56 -24t24 -56t-24 -55t-56 -23zM1346 160v-166q-103 0 -164.5 69.5t-77.5 178.5q-67 -123 -189 -195t-270 -72
q-114 0 -217.5 44.5t-178.5 120t-119 179t-44 216.5t44 216t119 178t178.5 119t217.5 44q113 0 216 -44t178 -119t119 -178t44 -216v-136q0 -97 38.5 -168t105.5 -71zM645 139q162 0 277.5 116.5t115.5 279.5t-115 278t-278 115q-164 0 -279.5 -115t-115.5 -278
t115.5 -279.5t279.5 -116.5z" />
    <glyph glyph-name="agrave.ss05" horiz-adv-x="1351" 
d="M618 1198l-174 223h183l88 -223h-97zM1346 160v-166q-103 0 -164.5 69.5t-77.5 178.5q-67 -123 -189 -195t-270 -72q-114 0 -217.5 44.5t-178.5 120t-119 179t-44 216.5t44 216t119 178t178.5 119t217.5 44q113 0 216 -44t178 -119t119 -178t44 -216v-136
q0 -97 38.5 -168t105.5 -71zM645 139q162 0 277.5 116.5t115.5 279.5t-115 278t-278 115q-164 0 -279.5 -115t-115.5 -278t115.5 -279.5t279.5 -116.5z" />
    <glyph glyph-name="amacron.ss05" horiz-adv-x="1351" 
d="M453 1239v96h385v-96h-385zM1346 160v-166q-103 0 -164.5 69.5t-77.5 178.5q-67 -123 -189 -195t-270 -72q-114 0 -217.5 44.5t-178.5 120t-119 179t-44 216.5t44 216t119 178t178.5 119t217.5 44q113 0 216 -44t178 -119t119 -178t44 -216v-136q0 -97 38.5 -168
t105.5 -71zM645 139q162 0 277.5 116.5t115.5 279.5t-115 278t-278 115q-164 0 -279.5 -115t-115.5 -278t115.5 -279.5t279.5 -116.5z" />
    <glyph glyph-name="aogonek.ss05" horiz-adv-x="1361" 
d="M1329 -6q-44 -26 -59.5 -58.5t7.5 -53.5t79 -15v-105q-78 -4 -119.5 17t-52.5 51q-34 104 88 174h2q-71 22 -114 86.5t-56 151.5q-67 -123 -189 -195t-270 -72q-114 0 -217.5 44.5t-178.5 120t-119 179t-44 216.5t44 216t119 178t178.5 119t217.5 44q113 0 216 -44
t178 -119t119 -178t44 -216v-136q0 -97 38.5 -168t105.5 -71v-156h2h-2v-10h-17zM645 139q162 0 277.5 116.5t115.5 279.5t-115 278t-278 115q-164 0 -279.5 -115t-115.5 -278t115.5 -279.5t279.5 -116.5z" />
    <glyph glyph-name="aring.ss05" horiz-adv-x="1351" 
d="M647 1217q-45 0 -78.5 31.5t-33.5 80.5t33.5 80t78.5 31q46 0 78.5 -31t32.5 -80q0 -50 -32.5 -81t-78.5 -31zM647 1272q22 0 37.5 16.5t15.5 40.5q0 22 -15.5 37.5t-37.5 15.5q-24 0 -39.5 -15.5t-15.5 -37.5q0 -25 15 -41t40 -16zM1346 160v-166q-103 0 -164.5 69.5
t-77.5 178.5q-67 -123 -189 -195t-270 -72q-114 0 -217.5 44.5t-178.5 120t-119 179t-44 216.5t44 216t119 178t178.5 119t217.5 44q113 0 216 -44t178 -119t119 -178t44 -216v-136q0 -97 38.5 -168t105.5 -71zM645 139q162 0 277.5 116.5t115.5 279.5t-115 278t-278 115
q-164 0 -279.5 -115t-115.5 -278t115.5 -279.5t279.5 -116.5z" />
    <glyph glyph-name="atilde.ss05" horiz-adv-x="1351" 
d="M455 1257q0 25 0.5 37.5t3 33.5t8.5 31.5t16 22t26.5 16.5t39.5 5q19 -1 49 -10.5t54.5 -19t47.5 -14.5t36.5 4.5t13.5 37.5h92q0 -30 -0.5 -45t-5.5 -37.5t-14 -33.5t-27 -19.5t-45 -8.5q-19 2 -49 12t-54.5 19t-47.5 13.5t-36.5 -6t-13.5 -38.5h-94zM1346 160v-166
q-103 0 -164.5 69.5t-77.5 178.5q-67 -123 -189 -195t-270 -72q-114 0 -217.5 44.5t-178.5 120t-119 179t-44 216.5t44 216t119 178t178.5 119t217.5 44q113 0 216 -44t178 -119t119 -178t44 -216v-136q0 -97 38.5 -168t105.5 -71zM645 139q162 0 277.5 116.5t115.5 279.5
t-115 278t-278 115q-164 0 -279.5 -115t-115.5 -278t115.5 -279.5t279.5 -116.5z" />
    <glyph glyph-name="zero.osf" horiz-adv-x="1110" 
d="M555 -23q-133 0 -237 75.5t-159 201.5t-55 278q0 153 55 279.5t159 202.5t237 76t237 -76t159 -202.5t55 -279.5q0 -152 -55 -278t-159 -201.5t-237 -75.5zM555 133q135 0 215 117t80 282q0 106 -33.5 195.5t-102.5 147t-159 57.5t-159 -57.5t-102.5 -147t-33.5 -195.5
q0 -165 80 -282t215 -117z" />
    <glyph glyph-name="one.osf" horiz-adv-x="581" 
d="M205 0v926h-189v145h344v-1071h-155z" />
    <glyph glyph-name="two.osf" horiz-adv-x="868" 
d="M25 0l-2 82q0 88 33.5 156t87 110t118 75.5t129 63t118 63t87 84.5t33.5 118q0 87 -54.5 136.5t-160.5 49.5q-171 0 -236 -164l-135 49q28 107 129 182.5t246 75.5q157 0 262 -82t104 -233q0 -79 -24 -142t-63.5 -102.5t-90.5 -73.5t-104 -56t-104 -48.5t-90.5 -52
t-64 -65t-24.5 -89.5h545v-137h-739z" />
    <glyph glyph-name="three.osf" horiz-adv-x="1132" 
d="M522 -334q-122 0 -216.5 34t-156.5 90t-114 142l160 72q95 -182 327 -182q153 0 241.5 93.5t88.5 231.5q-1 65 -29 120.5t-74 91t-102 55.5t-117 18.5t-114 -24.5l-88 133l471 381h-625v149h852v-127l-438 -371q127 -5 228 -65.5t154.5 -156t51.5 -204.5
q-2 -207 -137 -344t-363 -137z" />
    <glyph glyph-name="four.osf" horiz-adv-x="1177" 
d="M764 -283v328h-686v152l555 874h190l-555 -874h500v487h162v-487h221v-152h-221v-328h-166z" />
    <glyph glyph-name="five.osf" horiz-adv-x="1124" 
d="M518 -332q-258 0 -471 133l78 150q201 -125 387 -125q193 0 287 77t94 199q0 39 -6.5 71t-30 70t-63.5 63.5t-112.5 43t-170.5 17.5h-338v704h797v-149h-639v-408h243q135 0 230 -30t148 -87t76.5 -129t23.5 -166q0 -209 -146 -321.5t-387 -112.5z" />
    <glyph glyph-name="six.osf" horiz-adv-x="1183" 
d="M612 -27q-138 0 -256 68t-187 186t-69 258q0 152 123 336l379 549h189l-289 -420q148 36 264 9t196 -99t122 -170t42 -205q-1 -140 -70 -258t-187 -186t-257 -68zM612 135q141 0 246 101.5t105 248.5q0 62 -23.5 123t-66.5 112t-110 82.5t-147 31.5q-51 0 -118.5 -22
t-110.5 -58q-57 -49 -91 -125.5t-34 -143.5q0 -98 51 -179.5t131 -126t168 -44.5z" />
    <glyph glyph-name="seven.osf" horiz-adv-x="1067" 
d="M139 -299l643 1210h-714v160h917v-127l-651 -1243h-195z" />
    <glyph glyph-name="eight.osf" horiz-adv-x="1216" 
d="M608 -8q-221 0 -368.5 112t-147.5 287q0 119 81 212t202 130q-101 41 -163 122.5t-62 182.5q0 104 64.5 190t169 132.5t224.5 46.5t225 -46.5t169.5 -132.5t64.5 -190q0 -102 -61 -183.5t-164 -121.5q123 -36 202.5 -129t79.5 -213q0 -175 -147.5 -287t-368.5 -112z
M608 797q125 0 209 68t84 169q0 102 -84.5 170.5t-208.5 67.5q-123 0 -207 -68.5t-84 -169.5t84 -169t207 -68zM608 127q142 0 243 79.5t101 188.5q0 112 -100.5 190.5t-243.5 78.5t-242.5 -78.5t-99.5 -190.5q0 -109 100 -188.5t242 -79.5z" />
    <glyph glyph-name="nine.osf" horiz-adv-x="1183" 
d="M397 -322l285 416q-148 -36 -264 -9t-196 99t-122 170.5t-41 206.5q0 139 69 256.5t187 185.5t256 68t256 -68t187 -185.5t69 -256.5q0 -158 -122 -336l-375 -547h-189zM569 211q51 0 119 23t111 59q56 47 89.5 124t33.5 144q0 147 -107 247.5t-244 100.5
q-139 0 -244.5 -101.5t-105.5 -246.5q0 -63 23.5 -124.5t66.5 -112t110.5 -82t147.5 -31.5z" />
    <glyph glyph-name="zero.dnom" horiz-adv-x="882" 
d="M440 -113q-169 0 -274 136t-105 333q0 128 46 235t133.5 171.5t199.5 64.5q113 0 201 -64.5t134 -171t46 -235.5q0 -198 -105.5 -333.5t-275.5 -135.5zM440 -10q125 0 197 106.5t72 259.5q0 97 -30 180t-92.5 136t-146.5 53q-123 0 -194.5 -109t-71.5 -260
q0 -99 30 -180.5t91.5 -133.5t144.5 -52z" />
    <glyph glyph-name="one.dnom" horiz-adv-x="557" 
d="M319 -102v809h-153v98h268v-907h-115z" />
    <glyph glyph-name="two.dnom" horiz-adv-x="808" 
d="M63 -102v71q0 77 29.5 136t76 95.5t103 66t113.5 55.5t103.5 55t76 74t29.5 104q0 78 -50.5 126t-148.5 48q-84 0 -137 -44.5t-78 -111.5l-102 39q25 95 109.5 158.5t209.5 63.5q86 0 154 -28.5t111 -91t43 -151.5q0 -74 -29 -132t-75 -94t-101.5 -66t-111.5 -55.5
t-102 -54t-75 -70t-29 -95.5h506v-98h-625z" />
    <glyph glyph-name="three.dnom" horiz-adv-x="860" 
d="M395 -113q-123 0 -202 46t-132 135l111 47q66 -123 223 -123q104 0 163.5 63t59.5 156q-1 55 -30 98.5t-73 64.5t-96 26.5t-97 -15.5l-62 90l320 254h-424v102h585v-88l-299 -245q129 -6 213 -90.5t82 -196.5q-2 -139 -94.5 -231.5t-247.5 -92.5z" />
    <glyph glyph-name="four.dnom" horiz-adv-x="823" 
d="M506 -109v218h-461v98l373 581h129l-373 -581h336v325h106v-325h152v-98h-152v-218h-110z" />
    <glyph glyph-name="five.dnom" horiz-adv-x="858" 
d="M393 -113q-172 0 -321 88l53 103q141 -84 264 -84q130 0 194 52t64 134q0 25 -4.5 46t-20.5 46.5t-42.5 42.5t-76 29t-116.5 12h-231v473h544v-100h-434v-272h166q177 0 251.5 -73t74.5 -204q0 -141 -100 -217t-265 -76z" />
    <glyph glyph-name="six.dnom" horiz-adv-x="860" 
d="M434 -113q-148 0 -252 103.5t-104 251.5q0 113 86 233l246 359h139l-187 -267q102 23 182 3.5t135 -69t84 -117.5t28 -142q0 -148 -104.5 -251.5t-252.5 -103.5zM434 4q95 0 166.5 70t71.5 168q0 92 -64 164.5t-172 72.5q-36 0 -81 -14t-74 -39q-39 -34 -62.5 -86
t-23.5 -98q0 -100 72.5 -169t166.5 -69z" />
    <glyph glyph-name="seven.dnom" horiz-adv-x="770" 
d="M139 -102l426 804h-489v103h631v-82l-433 -825h-135z" />
    <glyph glyph-name="eight.dnom" horiz-adv-x="821" 
d="M412 -113q-152 0 -253.5 74t-101.5 191q0 77 56 139t137 86q-68 27 -110 81.5t-42 121.5q0 103 94 173t220 70t219.5 -70t93.5 -173q0 -68 -42 -122t-112 -81q84 -24 138.5 -85.5t54.5 -139.5q0 -117 -100.5 -191t-251.5 -74zM412 420q83 0 139.5 45.5t56.5 112.5
q0 68 -56.5 113.5t-139.5 45.5q-85 -2 -142 -47t-57 -112t57 -112.5t142 -45.5zM412 -25q95 0 163 52.5t68 126.5q0 75 -67.5 126.5t-163.5 51.5q-98 0 -166 -51.5t-68 -126.5q0 -74 68 -126.5t166 -52.5z" />
    <glyph glyph-name="nine.dnom" horiz-adv-x="860" 
d="M311 -102l187 268q-102 -24 -182 -5.5t-135 68t-83.5 117.5t-27.5 143q0 148 104 251.5t252 103.5q147 0 251.5 -104t104.5 -251q0 -107 -86 -233l-247 -358h-138zM424 252q35 0 80 15t76 40q38 31 61 84t23 98q0 100 -72 169t-166 69q-95 0 -167.5 -70t-72.5 -168
q0 -91 65.5 -164t172.5 -73z" />
    <glyph glyph-name="zero.numr" horiz-adv-x="882" 
d="M442 537q-170 0 -275.5 135.5t-105.5 333.5t105.5 333.5t275.5 135.5q169 0 275 -136t106 -333t-106 -333t-275 -136zM442 637q83 0 145 52t92 135t30 182q0 96 -30 178.5t-92 136t-145 53.5t-145 -53.5t-92.5 -136t-30.5 -178.5q0 -99 30.5 -182t92.5 -135t145 -52z" />
    <glyph glyph-name="one.numr" horiz-adv-x="557" 
d="M319 567v809h-153v99h268v-908h-115z" />
    <glyph glyph-name="two.numr" horiz-adv-x="808" 
d="M63 539v73q0 77 29.5 136t76.5 95.5t103.5 66t113.5 55.5t104 55t76.5 74t29.5 104q0 78 -51.5 126t-149.5 48q-82 0 -136 -44.5t-79 -110.5l-100 38q25 95 109.5 158.5t207.5 63.5q86 0 154 -28.5t111 -91t43 -151.5q0 -58 -18 -106.5t-48 -82t-69 -61.5t-82.5 -49.5
t-86.5 -41.5t-82.5 -42t-69.5 -47t-48.5 -60t-18.5 -77h508v-100h-627z" />
    <glyph glyph-name="three.numr" horiz-adv-x="860" 
d="M395 530q-122 0 -200.5 46.5t-133.5 134.5l111 49q66 -123 223 -123q104 0 163.5 63t59.5 156q-1 55 -30 98.5t-72.5 64.5t-95 26t-96.5 -17l-64 90l322 256h-424v101h585v-86l-301 -248q129 -4 213.5 -89t81.5 -196q-2 -141 -94 -233.5t-248 -92.5z" />
    <glyph glyph-name="four.numr" horiz-adv-x="833" 
d="M516 578v217h-463v98l373 582h129l-373 -582h336v326h107v-326h151v-98h-151v-217h-109z" />
    <glyph glyph-name="five.numr" horiz-adv-x="858" 
d="M393 532q-172 0 -321 91l53 100q135 -84 264 -84t193.5 52.5t64.5 133.5q0 26 -4.5 47t-20.5 46.5t-42.5 42.5t-76 28.5t-116.5 11.5h-231v474h544v-99h-434v-276h166q177 0 251.5 -72.5t74.5 -202.5q0 -141 -100 -217t-265 -76z" />
    <glyph glyph-name="six.numr" horiz-adv-x="860" 
d="M434 528q-148 0 -252 103.5t-104 251.5q0 113 86 233l246 359h139l-187 -269q102 24 182 5.5t135 -68t84 -117.5t28 -143q0 -148 -104.5 -251.5t-252.5 -103.5zM434 645q95 0 166.5 70t71.5 168q0 91 -64.5 164t-171.5 73q-35 0 -80.5 -15t-74.5 -40q-38 -31 -62 -84
t-24 -98q0 -100 72.5 -169t166.5 -69z" />
    <glyph glyph-name="seven.numr" horiz-adv-x="770" 
d="M139 567l426 805h-489v103h631v-82l-433 -826h-135z" />
    <glyph glyph-name="eight.numr" horiz-adv-x="831" 
d="M416 524q-152 0 -255.5 76t-103.5 193q0 80 56 142.5t139 86.5q-69 27 -111.5 82t-42.5 123q0 105 96 176.5t222 71.5q129 0 224 -71.5t95 -176.5q0 -68 -41.5 -123t-111.5 -82q84 -24 138 -86t54 -143q0 -118 -102 -193.5t-256 -75.5zM416 1065q84 0 141 46t57 114
t-57 114t-141 45q-84 0 -141.5 -46t-57.5 -113t58 -113.5t141 -46.5zM416 616q96 0 164.5 53.5t68.5 127.5q0 75 -68 127.5t-165 52.5t-165.5 -52.5t-68.5 -127.5q0 -74 69 -127.5t165 -53.5z" />
    <glyph glyph-name="nine.numr" horiz-adv-x="860" 
d="M311 528l187 267q-102 -23 -182 -3.5t-135 69t-83.5 117.5t-27.5 142q0 148 104 251.5t252 103.5q147 0 251.5 -104t104.5 -251q0 -107 -86 -233l-247 -359h-138zM424 883q34 0 79.5 14.5t76.5 38.5q38 34 61 86t23 98q0 100 -72 169t-166 69q-95 0 -167.5 -70
t-72.5 -168q0 -92 65 -164.5t173 -72.5z" />
    <glyph glyph-name="arrowup.ss03" 
d="M803 -14q-190 0 -351.5 93.5t-255.5 255t-94 351.5t94 351.5t255.5 255t351.5 93.5q143 0 272.5 -55.5t223 -149t149 -223t55.5 -272.5t-55.5 -272.5t-149 -223t-223 -149t-272.5 -55.5zM803 35q176 0 326 88t237.5 238t87.5 325q0 176 -87.5 326t-237.5 237t-326 86
q-175 -1 -324.5 -88t-237 -236t-87.5 -325q0 -175 87.5 -325t237 -238t324.5 -88zM741 281v600l-256 -256l-69 71l381 379l379 -379l-70 -71l-254 256l-2 -600h-109z" />
    <glyph glyph-name="uni2197.ss03" 
d="M803 -14q-190 0 -351.5 93.5t-255.5 255t-94 351.5t94 351.5t255.5 255t351.5 93.5q143 0 272.5 -55.5t223 -149t149 -223t55.5 -272.5t-55.5 -272.5t-149 -223t-223 -149t-272.5 -55.5zM803 35q176 0 326 88t237.5 238t87.5 325q0 176 -87.5 326t-237.5 237t-326 86
q-175 -1 -324.5 -88t-237 -236t-87.5 -325q0 -175 87.5 -325t237 -238t324.5 -88zM567 369l-78 77l424 424h-360l2 101l535 -2l2 -535l-101 -2v361z" />
    <glyph glyph-name="arrowright.ss03" horiz-adv-x="1597" 
d="M799 -18q-190 0 -350 92.5t-253.5 253t-93.5 350.5q0 189 93.5 349.5t254 253.5t349.5 93q142 0 271 -55t222 -148t148 -222t55 -271q0 -143 -55 -272t-148 -221.5t-222 -147.5t-271 -55zM799 33q175 0 323.5 86.5t235 235t86.5 323.5t-86.5 323.5t-235 234.5t-323.5 85
q-131 -1 -249.5 -52t-205 -136.5t-137.5 -204.5t-51 -250q0 -175 86.5 -323.5t234.5 -235t322 -86.5zM817 311l-72 70l256 254l-600 2v108h600l-256 256l72 70l379 -381z" />
    <glyph glyph-name="uni2198.ss03" 
d="M803 -14q-190 0 -351.5 93.5t-255.5 255t-94 351.5t94 351.5t255.5 255t351.5 93.5q143 0 272.5 -55.5t223 -149t149 -223t55.5 -272.5t-55.5 -272.5t-149 -223t-223 -149t-272.5 -55.5zM803 35q176 0 326 88t237.5 238t87.5 325q0 176 -87.5 326t-237.5 237t-326 86
q-175 -1 -324.5 -88t-237 -236t-87.5 -325q0 -175 87.5 -325t237 -238t324.5 -88zM551 393v101l360 -2l-422 426l76 75l424 -420v359h101v-539h-539z" />
    <glyph glyph-name="arrowdown.ss03" 
d="M803 -14q-190 0 -351.5 93.5t-255.5 255t-94 351.5t94 351.5t255.5 255t351.5 93.5q143 0 272.5 -55.5t223 -149t149 -223t55.5 -272.5t-55.5 -272.5t-149 -223t-223 -149t-272.5 -55.5zM803 35q176 0 326 88t237.5 238t87.5 325q0 176 -87.5 326t-237.5 237t-326 86
q-175 -1 -324.5 -88t-237 -236t-87.5 -325q0 -175 87.5 -325t237 -238t324.5 -88zM791 307l-381 379l71 72l256 -256v600h107v-600l256 256l71 -72z" />
    <glyph glyph-name="uni2199.ss03" 
d="M803 -14q-190 0 -351.5 93.5t-255.5 255t-94 351.5t94 351.5t255.5 255t351.5 93.5q143 0 272.5 -55.5t223 -149t149 -223t55.5 -272.5t-55.5 -272.5t-149 -223t-223 -149t-272.5 -55.5zM803 35q176 0 326 88t237.5 238t87.5 325q0 176 -87.5 326t-237.5 237t-326 86
q-175 -1 -324.5 -88t-237 -236t-87.5 -325q0 -175 87.5 -325t237 -238t324.5 -88zM502 373l-2 536h100v-358l424 422l78 -76l-424 -426l360 2v-102z" />
    <glyph glyph-name="arrowleft.ss03" 
d="M803 -14q-190 0 -351.5 93.5t-255.5 255t-94 351.5t94 351.5t255.5 255t351.5 93.5q143 0 272.5 -55.5t223 -149t149 -223t55.5 -272.5t-55.5 -272.5t-149 -223t-223 -149t-272.5 -55.5zM803 35q176 0 326 88t237.5 238t87.5 325q0 176 -87.5 326t-237.5 237t-326 86
q-175 -1 -324.5 -88t-237 -236t-87.5 -325q0 -175 87.5 -325t237 -238t324.5 -88zM770 297l-379 381l379 379l72 -70l-256 -254l600 -2v-108h-600l256 -256z" />
    <glyph glyph-name="uni2196.ss03" 
d="M803 -14q-190 0 -351.5 93.5t-255.5 255t-94 351.5t94 351.5t255.5 255t351.5 93.5q143 0 272.5 -55.5t223 -149t149 -223t55.5 -272.5t-55.5 -272.5t-149 -223t-223 -149t-272.5 -55.5zM803 35q176 0 326 88t237.5 238t87.5 325q0 176 -87.5 326t-237.5 237t-326 86
q-175 -1 -324.5 -88t-237 -236t-87.5 -325q0 -175 87.5 -325t237 -238t324.5 -88zM1028 383l-426 424v-358h-100l2 534h534v-98h-358l424 -426z" />
    <glyph glyph-name="arrowboth.ss03" 
d="M803 -14q-190 0 -351.5 93.5t-255.5 255t-94 351.5t94 351.5t255.5 255t351.5 93.5q143 0 272.5 -55.5t223 -149t149 -223t55.5 -272.5t-55.5 -272.5t-149 -223t-223 -149t-272.5 -55.5zM803 35q176 0 326 88t237.5 238t87.5 325q0 176 -87.5 326t-237.5 237t-326 86
q-175 -1 -324.5 -88t-237 -236t-87.5 -325q0 -175 87.5 -325t237 -238t324.5 -88zM582 338l-349 350l349 352l61 -59l-246 -246h828l-246 246l59 59l351 -352l-351 -350l-59 59l246 246h-828l246 -246z" />
    <glyph glyph-name="arrowupdn.ss03" 
d="M803 -14q-190 0 -351.5 93.5t-255.5 255t-94 351.5t94 351.5t255.5 255t351.5 93.5q143 0 272.5 -55.5t223 -149t149 -223t55.5 -272.5t-55.5 -272.5t-149 -223t-223 -149t-272.5 -55.5zM803 35q176 0 326 88t237.5 238t87.5 325q0 176 -87.5 326t-237.5 237t-326 86
q-175 -1 -324.5 -88t-237 -236t-87.5 -325q0 -175 87.5 -325t237 -238t324.5 -88zM803 121l-352 350l59 59l248 -245v796l-248 -245l-59 61l352 348l350 -348l-59 -61l-246 245v-796l246 245l59 -59z" />
    <glyph glyph-name="arrowup.ss04" horiz-adv-x="1679" 
d="M840 -20q-150 0 -287 58t-235.5 157t-157 235.5t-58.5 286.5t58.5 286.5t157 235.5t235.5 157t287 58t286.5 -58t235.5 -157t157 -235.5t58 -286.5t-58 -286.5t-157 -235.5t-235.5 -157t-286.5 -58zM776 313h109v600l256 -256l69 72l-381 379l-378 -379l69 -72l254 256z
" />
    <glyph glyph-name="uni2197.ss04" horiz-adv-x="1679" 
d="M840 -20q-150 0 -287 58t-235.5 157t-157 235.5t-58.5 286.5t58.5 286.5t157 235.5t235.5 157t287 58t286.5 -58t235.5 -157t157 -235.5t58 -286.5t-58 -286.5t-157 -235.5t-235.5 -157t-286.5 -58zM592 410l426 424l-2 -361l102 2l-2 535l-536 2v-101h358l-422 -424z
" />
    <glyph glyph-name="arrowright.ss04" horiz-adv-x="1679" 
d="M840 -20q-150 0 -287 58t-235.5 157t-157 235.5t-58.5 286.5t58.5 286.5t157 235.5t235.5 157t287 58t286.5 -58t235.5 -157t157 -235.5t58 -286.5t-58 -286.5t-157 -235.5t-235.5 -157t-286.5 -58zM854 334l379 381l-379 379l-72 -70l256 -254l-600 -2v-109h600
l-256 -256z" />
    <glyph glyph-name="uni2198.ss04" horiz-adv-x="1679" 
d="M840 -20q-150 0 -287 58t-235.5 157t-157 235.5t-58.5 286.5t58.5 286.5t157 235.5t235.5 157t287 58t286.5 -58t235.5 -157t157 -235.5t58 -286.5t-58 -286.5t-157 -235.5t-235.5 -157t-286.5 -58zM588 426h536l2 539h-102l2 -361l-426 422l-76 -76l422 -426l-358 2
v-100z" />
    <glyph glyph-name="arrowdown.ss04" horiz-adv-x="1679" 
d="M840 -20q-150 0 -287 58t-235.5 157t-157 235.5t-58.5 286.5t58.5 286.5t157 235.5t235.5 157t287 58t286.5 -58t235.5 -157t157 -235.5t58 -286.5t-58 -286.5t-157 -235.5t-235.5 -157t-286.5 -58zM831 322l381 378l-71 72l-254 -256l-2 600h-107l-2 -600l-254 256
l-71 -72z" />
    <glyph glyph-name="uni2199.ss04" horiz-adv-x="1679" 
d="M840 -20q-150 0 -287 58t-235.5 157t-157 235.5t-58.5 286.5t58.5 286.5t157 235.5t235.5 157t287 58t286.5 -58t235.5 -157t157 -235.5t58 -286.5t-58 -286.5t-157 -235.5t-235.5 -157t-286.5 -58zM539 420l534 -2l2 100h-360l424 424l-78 78l-424 -424v360l-100 -2z
" />
    <glyph glyph-name="arrowleft.ss04" horiz-adv-x="1679" 
d="M840 -20q-150 0 -287 58t-235.5 157t-157 235.5t-58.5 286.5t58.5 286.5t157 235.5t235.5 157t287 58t286.5 -58t235.5 -157t157 -235.5t58 -286.5t-58 -286.5t-157 -235.5t-235.5 -157t-286.5 -58zM801 334l71 69l-256 256h601v109l-601 2l256 254l-71 70l-379 -379z
" />
    <glyph glyph-name="uni2196.ss04" horiz-adv-x="1679" 
d="M840 -20q-150 0 -287 58t-235.5 157t-157 235.5t-58.5 286.5t58.5 286.5t157 235.5t235.5 157t287 58t286.5 -58t235.5 -157t157 -235.5t58 -286.5t-58 -286.5t-157 -235.5t-235.5 -157t-286.5 -58zM1069 406l76 77l-422 424h360l-2 101l-536 -2v-537h100l-2 360z" />
    <glyph glyph-name="arrowboth.ss04" horiz-adv-x="1679" 
d="M840 -20q-150 0 -287 58t-235.5 157t-157 235.5t-58.5 286.5t58.5 286.5t157 235.5t235.5 157t287 58t286.5 -58t235.5 -157t157 -235.5t58 -286.5t-58 -286.5t-157 -235.5t-235.5 -157t-286.5 -58zM616 362l60 60l-246 246h830l-248 -246l61 -60l348 351l-348 352
l-61 -59l248 -246h-830l246 246l-60 59l-350 -352z" />
    <glyph glyph-name="arrowupdn.ss04" horiz-adv-x="1679" 
d="M840 -20q-150 0 -287 58t-235.5 157t-157 235.5t-58.5 286.5t58.5 286.5t157 235.5t235.5 157t287 58t286.5 -58t235.5 -157t157 -235.5t58 -286.5t-58 -286.5t-157 -235.5t-235.5 -157t-286.5 -58zM844 150l350 350l-59 59l-246 -246v797l246 -246l59 62l-350 348
l-352 -348l59 -62l248 246v-797l-248 246l-59 -59z" />
    <glyph glyph-name="uni24B6.ss01" 
d="M803 -14q-190 0 -351.5 93.5t-255.5 255t-94 351.5t94 351.5t255.5 255t351.5 93.5q143 0 272.5 -55.5t223 -149t149 -223t55.5 -272.5t-55.5 -272.5t-149 -223t-223 -149t-272.5 -55.5zM367 352h129l88 164h442l88 -164h129l-438 799zM643 621l162 301l162 -301h-324z
" />
    <glyph glyph-name="uni24B7.ss01" 
d="M803 -14q-190 0 -351.5 93.5t-255.5 255t-94 351.5t94 351.5t255.5 255t351.5 93.5q143 0 272.5 -55.5t223 -149t149 -223t55.5 -272.5t-55.5 -272.5t-149 -223t-223 -149t-272.5 -55.5zM502 287h364q141 0 213 58t72 161q0 73 -37.5 128t-116.5 73q49 16 80 62.5
t31 113.5q0 88 -71.5 144t-192.5 56h-342v-796zM618 756v223h205q68 0 116 -28.5t48 -86.5q0 -55 -35 -81.5t-90 -26.5h-244zM618 391v260h242q88 0 129 -35t41 -94q0 -64 -48 -97.5t-132 -33.5h-232z" />
    <glyph glyph-name="uni24B8.ss01" 
d="M803 -14q-190 0 -351.5 93.5t-255.5 255t-94 351.5t94 351.5t255.5 255t351.5 93.5q143 0 272.5 -55.5t223 -149t149 -223t55.5 -272.5t-55.5 -272.5t-149 -223t-223 -149t-272.5 -55.5zM803 260q223 0 334 160l-90 84q-69 -119 -240 -119q-121 0 -207 90.5t-86 212.5
q0 115 81 209t212 94q61 0 111.5 -21t76.5 -44t54 -58l88 86q-43 51 -79.5 82t-103 55.5t-151.5 24.5q-96 0 -176.5 -36.5t-132.5 -97t-80.5 -137t-28.5 -157.5q0 -79 29 -154.5t80.5 -137t132.5 -99t176 -37.5z" />
    <glyph glyph-name="uni24B9.ss01" 
d="M803 -14q-190 0 -351.5 93.5t-255.5 255t-94 351.5t94 351.5t255.5 255t351.5 93.5q143 0 272.5 -55.5t223 -149t149 -223t55.5 -272.5t-55.5 -272.5t-149 -223t-223 -149t-272.5 -55.5zM500 1087v-796h309q160 0 272.5 112.5t112.5 286.5q0 194 -109 295.5t-276 101.5
h-309zM793 403h-175v572h175q123 0 202.5 -74t79.5 -211q0 -124 -81.5 -205.5t-200.5 -81.5z" />
    <glyph glyph-name="uni24BA.ss01" 
d="M803 -14q-190 0 -351.5 93.5t-255.5 255t-94 351.5t94 351.5t255.5 255t351.5 93.5q143 0 272.5 -55.5t223 -149t149 -223t55.5 -272.5t-55.5 -272.5t-149 -223t-223 -149t-272.5 -55.5zM522 1087v-796h570v102h-453v250h395v102h-395v242h453v100h-570z" />
    <glyph glyph-name="uni24BB.ss01" 
d="M803 -14q-190 0 -351.5 93.5t-255.5 255t-94 351.5t94 351.5t255.5 255t351.5 93.5q143 0 272.5 -55.5t223 -149t149 -223t55.5 -272.5t-55.5 -272.5t-149 -223t-223 -149t-272.5 -55.5zM518 1063v-797h119v352h422v103h-422v242h479v100h-598z" />
    <glyph glyph-name="uni24BC.ss01" 
d="M803 -14q-190 0 -351.5 93.5t-255.5 255t-94 351.5t94 351.5t255.5 255t351.5 93.5q143 0 272.5 -55.5t223 -149t149 -223t55.5 -272.5t-55.5 -272.5t-149 -223t-223 -149t-272.5 -55.5zM811 274q96 0 192.5 40t149.5 120v289h-113v-225q-38 -54 -102.5 -81.5
t-126.5 -27.5q-118 0 -208.5 85.5t-90.5 213.5t91 214.5t208 86.5q127 0 217 -90l78 80q-114 123 -295 123q-104 0 -198 -50t-155 -146.5t-61 -217.5q0 -173 122.5 -293.5t291.5 -120.5z" />
    <glyph glyph-name="uni24BD.ss01" 
d="M803 -14q-190 0 -351.5 93.5t-255.5 255t-94 351.5t94 351.5t255.5 255t351.5 93.5q143 0 272.5 -55.5t223 -149t149 -223t55.5 -272.5t-55.5 -272.5t-149 -223t-223 -149t-272.5 -55.5zM475 1087v-796h119v358h422v-358h119v796h-119v-327h-422v327h-119z" />
    <glyph glyph-name="uni24BE.ss01" 
d="M803 -14q-190 0 -351.5 93.5t-255.5 255t-94 351.5t94 351.5t255.5 255t351.5 93.5q143 0 272.5 -55.5t223 -149t149 -223t55.5 -272.5t-55.5 -272.5t-149 -223t-223 -149t-272.5 -55.5zM731 1073v-797h119v797h-119z" />
    <glyph glyph-name="uni24BF.ss01" 
d="M803 -14q-190 0 -351.5 93.5t-255.5 255t-94 351.5t94 351.5t255.5 255t351.5 93.5q143 0 272.5 -55.5t223 -149t149 -223t55.5 -272.5t-55.5 -272.5t-149 -223t-223 -149t-272.5 -55.5zM629 373v-115q152 0 225.5 71t73.5 228v518h-187v-102h68v-410q0 -96 -40.5 -143
t-139.5 -47z" />
    <glyph glyph-name="uni24C0.ss01" 
d="M803 -14q-190 0 -351.5 93.5t-255.5 255t-94 351.5t94 351.5t255.5 255t351.5 93.5q143 0 272.5 -55.5t223 -149t149 -223t55.5 -272.5t-55.5 -272.5t-149 -223t-223 -149t-272.5 -55.5zM516 1087v-798h117v315l18 19l359 -334h170l-437 420l379 378h-172l-317 -311v311
h-117z" />
    <glyph glyph-name="uni24C1.ss01" 
d="M803 -14q-190 0 -351.5 93.5t-255.5 255t-94 351.5t94 351.5t255.5 255t351.5 93.5q143 0 272.5 -55.5t223 -149t149 -223t55.5 -272.5t-55.5 -272.5t-149 -223t-223 -149t-272.5 -55.5zM543 1094v-797h538v113h-422v684h-116z" />
    <glyph glyph-name="uni24C2.ss01" 
d="M803 -14q-190 0 -351.5 93.5t-255.5 255t-94 351.5t94 351.5t255.5 255t351.5 93.5q143 0 272.5 -55.5t223 -149t149 -223t55.5 -272.5t-55.5 -272.5t-149 -223t-223 -149t-272.5 -55.5zM356 291h119v532l324 -346l321 346v-532h119l-2 796l-438 -444l-443 444v-796z" />
    <glyph glyph-name="uni24C3.ss01" 
d="M803 -14q-190 0 -351.5 93.5t-255.5 255t-94 351.5t94 351.5t255.5 255t351.5 93.5q143 0 272.5 -55.5t223 -149t149 -223t55.5 -272.5t-55.5 -272.5t-149 -223t-223 -149t-272.5 -55.5zM535 838l630 -578v830h-116v-580l-631 577v-796h117v547z" />
    <glyph glyph-name="uni24C4.ss01" 
d="M803 -14q-190 0 -351.5 93.5t-255.5 255t-94 351.5t94 351.5t255.5 255t351.5 93.5q143 0 272.5 -55.5t223 -149t149 -223t55.5 -272.5t-55.5 -272.5t-149 -223t-223 -149t-272.5 -55.5zM811 264q174 0 299 124.5t125 301.5q0 185 -124 306.5t-300 121.5
q-175 0 -300.5 -122t-125.5 -306q0 -117 57.5 -215t155.5 -154.5t213 -56.5zM809 391q-124 0 -210.5 90t-86.5 209q0 123 86 211t211 88q124 0 211.5 -88.5t87.5 -210.5q0 -119 -87 -209t-212 -90z" />
    <glyph glyph-name="uni24C5.ss01" 
d="M803 -14q-190 0 -351.5 93.5t-255.5 255t-94 351.5t94 351.5t255.5 255t351.5 93.5q143 0 272.5 -55.5t223 -149t149 -223t55.5 -272.5t-55.5 -272.5t-149 -223t-223 -149t-272.5 -55.5zM520 1063v-799h121v252h252q127 0 201.5 78t74.5 194q0 114 -75 194.5t-201 80.5
h-373zM885 618h-244v340h244q69 0 118.5 -48.5t49.5 -121.5q0 -72 -49.5 -121t-118.5 -49z" />
    <glyph glyph-name="uni24C6.ss01" 
d="M803 -14q-190 0 -351.5 93.5t-255.5 255t-94 351.5t94 351.5t255.5 255t351.5 93.5q143 0 272.5 -55.5t223 -149t149 -223t55.5 -272.5t-55.5 -272.5t-149 -223t-223 -149t-272.5 -55.5zM1133 209l86 72l-127 116q118 125 118 291q0 173 -122.5 295.5t-294.5 122.5
q-173 0 -295.5 -122.5t-122.5 -295.5q0 -172 122.5 -295t295.5 -123q104 0 192 68zM793 389q-124 0 -212.5 88t-88.5 211q0 126 88 214.5t213 88.5q122 0 210.5 -89t88.5 -214q0 -123 -87.5 -211t-211.5 -88z" />
    <glyph glyph-name="uni24C7.ss01" 
d="M803 -14q-190 0 -351.5 93.5t-255.5 255t-94 351.5t94 351.5t255.5 255t351.5 93.5q143 0 272.5 -55.5t223 -149t149 -223t55.5 -272.5t-55.5 -272.5t-149 -223t-223 -149t-272.5 -55.5zM514 1087v-796h119v250l209 2l176 -250h137l-188 268q79 28 124.5 96.5t45.5 157.5
q0 113 -75 192.5t-202 79.5h-346zM633 645v340h221q69 0 118.5 -48.5t49.5 -121.5q0 -72 -49.5 -121t-118.5 -49h-221z" />
    <glyph glyph-name="uni24C8.ss01" 
d="M803 -14q-190 0 -351.5 93.5t-255.5 255t-94 351.5t94 351.5t255.5 255t351.5 93.5q143 0 272.5 -55.5t223 -149t149 -223t55.5 -272.5t-55.5 -272.5t-149 -223t-223 -149t-272.5 -55.5zM532 485l-49 -116q116 -58 220.5 -84t183.5 -20.5t137.5 35t88.5 82.5t30 124
q0 53 -30.5 93t-79 63.5t-107 42t-116 33t-105 31.5t-75 43t-24.5 62q4 39 35 67t80.5 38t107.5 6t121 -28.5t115 -65.5l57 96q-100 68 -214 95t-206 12t-154.5 -71t-66.5 -142q-2 -59 26.5 -104t76 -72t106 -47.5t117 -35t106.5 -30t77.5 -38.5t27.5 -54
q-4 -77 -87.5 -103.5t-196.5 -0.5t-202 89z" />
    <glyph glyph-name="uni24C9.ss01" 
d="M803 -14q-190 0 -351.5 93.5t-255.5 255t-94 351.5t94 351.5t255.5 255t351.5 93.5q143 0 272.5 -55.5t223 -149t149 -223t55.5 -272.5t-55.5 -272.5t-149 -223t-223 -149t-272.5 -55.5zM745 952v-684h119v684h232v113h-582v-113h231z" />
    <glyph glyph-name="uni24CA.ss01" 
d="M803 -14q-190 0 -351.5 93.5t-255.5 255t-94 351.5t94 351.5t255.5 255t351.5 93.5q143 0 272.5 -55.5t223 -149t149 -223t55.5 -272.5t-55.5 -272.5t-149 -223t-223 -149t-272.5 -55.5zM799 262q153 0 231 95t78 270v450h-115v-450q0 -124 -47.5 -191t-144.5 -67
q-195 0 -195 258v450h-117v-450q0 -175 78.5 -270t231.5 -95z" />
    <glyph glyph-name="uni24CB.ss01" 
d="M803 -14q-190 0 -351.5 93.5t-255.5 255t-94 351.5t94 351.5t255.5 255t351.5 93.5q143 0 272.5 -55.5t223 -149t149 -223t55.5 -272.5t-55.5 -272.5t-149 -223t-223 -149t-272.5 -55.5zM371 1030l430 -799l430 799h-129l-301 -569l-301 569h-129z" />
    <glyph glyph-name="uni24CC.ss01" 
d="M803 -14q-190 0 -351.5 93.5t-255.5 255t-94 351.5t94 351.5t255.5 255t351.5 93.5q143 0 272.5 -55.5t223 -149t149 -223t55.5 -272.5t-55.5 -272.5t-149 -223t-223 -149t-272.5 -55.5zM643 272l158 291l153 -291l422 783h-123l-299 -561l-92 178l203 383h-125
l-139 -275l-144 275h-122l202 -383l-94 -178l-297 561h-125z" />
    <glyph glyph-name="uni24CD.ss01" 
d="M803 -14q-190 0 -351.5 93.5t-255.5 255t-94 351.5t94 351.5t255.5 255t351.5 93.5q143 0 272.5 -55.5t223 -149t149 -223t55.5 -272.5t-55.5 -272.5t-149 -223t-223 -149t-272.5 -55.5zM735 694l-278 -403h139l205 305l209 -305h141l-283 407l275 389h-133l-205 -292
l-205 292h-139z" />
    <glyph glyph-name="uni24CE.ss01" 
d="M803 -14q-190 0 -351.5 93.5t-255.5 255t-94 351.5t94 351.5t255.5 255t351.5 93.5q143 0 272.5 -55.5t223 -149t149 -223t55.5 -272.5t-55.5 -272.5t-149 -223t-223 -149t-272.5 -55.5zM745 578v-318h119v318l303 479h-137l-225 -346l-223 346h-138z" />
    <glyph glyph-name="uni24CF.ss01" 
d="M803 -14q-190 0 -351.5 93.5t-255.5 255t-94 351.5t94 351.5t255.5 255t351.5 93.5q143 0 272.5 -55.5t223 -149t149 -223t55.5 -272.5t-55.5 -272.5t-149 -223t-223 -149t-272.5 -55.5zM942 971l-516 -680h715v119h-484l510 677h-589v-116h364z" />
    <glyph glyph-name="uni24D0.ss02" 
d="M803 -14q-190 0 -351.5 93.5t-255.5 255t-94 351.5t94 351.5t255.5 255t351.5 93.5q143 0 272.5 -55.5t223 -149t149 -223t55.5 -272.5t-55.5 -272.5t-149 -223t-223 -149t-272.5 -55.5zM803 365q66 0 121.5 32t87.5 84v-116h110v323q0 131 -93.5 224.5t-225.5 93.5
t-227 -94t-95 -224q0 -133 95 -228t227 -95zM803 477q-86 0 -147.5 61.5t-61.5 149.5q0 85 61.5 146t147.5 61t147.5 -61t61.5 -146q0 -88 -61.5 -149.5t-147.5 -61.5z" />
    <glyph glyph-name="uni24D1.ss02" 
d="M803 -14q-190 0 -351.5 93.5t-255.5 255t-94 351.5t94 351.5t255.5 255t351.5 93.5q143 0 272.5 -55.5t223 -149t149 -223t55.5 -272.5t-55.5 -272.5t-149 -223t-223 -149t-272.5 -55.5zM809 940q-68 0 -124.5 -34t-88.5 -89v322h-111v-523q0 -135 94.5 -230t229.5 -95
q133 0 227 95t94 230q0 133 -94 228.5t-227 95.5zM809 403q-88 0 -150.5 62.5t-62.5 150.5t62.5 149.5t150.5 61.5q87 0 149 -62t62 -149q0 -88 -62.5 -150.5t-148.5 -62.5z" />
    <glyph glyph-name="uni24D2.ss02" 
d="M803 -14q-190 0 -351.5 93.5t-255.5 255t-94 351.5t94 351.5t255.5 255t351.5 93.5q143 0 272.5 -55.5t223 -149t149 -223t55.5 -272.5t-55.5 -272.5t-149 -223t-223 -149t-272.5 -55.5zM799 336q102 0 186.5 52t114.5 136l-96 60q-20 -57 -76.5 -95t-122.5 -38
q-94 0 -159.5 68t-65.5 165q0 105 68 167t157 62q58 0 115.5 -35t83.5 -100l96 60q-31 82 -115.5 136t-185.5 54q-61 0 -120 -23t-107.5 -65.5t-78.5 -109t-30 -146.5q0 -143 99 -245.5t237 -102.5z" />
    <glyph glyph-name="uni24D3.ss02" 
d="M803 -14q-190 0 -351.5 93.5t-255.5 255t-94 351.5t94 351.5t255.5 255t351.5 93.5q143 0 272.5 -55.5t223 -149t149 -223t55.5 -272.5t-55.5 -272.5t-149 -223t-223 -149t-272.5 -55.5zM768 289q84 0 149 37.5t103 103.5q33 -123 151 -123v133q-29 0 -54 30t-25 91v576
h-113v-322q-31 55 -87 88t-124 33q-134 0 -229 -95t-95 -229q0 -133 95 -228t229 -95zM768 401q-88 0 -149.5 61.5t-61.5 149.5t61.5 150.5t149.5 62.5t149.5 -62.5t61.5 -150.5t-61.5 -149.5t-149.5 -61.5z" />
    <glyph glyph-name="uni24D4.ss02" 
d="M803 -14q-190 0 -351.5 93.5t-255.5 255t-94 351.5t94 351.5t255.5 255t351.5 93.5q143 0 272.5 -55.5t223 -149t149 -223t55.5 -272.5t-55.5 -272.5t-149 -223t-223 -149t-272.5 -55.5zM795 356q186 0 276 103l-86 67q-19 -30 -77 -49.5t-101 -19.5q-81 1 -140 54
t-65 124h473q37 166 -50.5 271.5t-244.5 105.5q-134 0 -217.5 -96t-83.5 -232q0 -81 38.5 -155.5t112.5 -123.5t165 -49zM965 733h-363q0 69 49.5 124.5t132.5 55.5q52 0 91 -18t59 -46t28 -58t3 -58z" />
    <glyph glyph-name="uni24D5.ss02" 
d="M803 -14q-190 0 -351.5 93.5t-255.5 255t-94 351.5t94 351.5t255.5 255t351.5 93.5q143 0 272.5 -55.5t223 -149t149 -223t55.5 -272.5t-55.5 -272.5t-149 -223t-223 -149t-272.5 -55.5zM672 748v-512h110v512h213v112h-217q0 73 56.5 105.5t160.5 -0.5l23 104
q-98 28 -164.5 22.5t-107 -43.5t-57.5 -85t-17 -103h-76v-112h76z" />
    <glyph glyph-name="uni24D6.ss02" 
d="M803 -14q-190 0 -351.5 93.5t-255.5 255t-94 351.5t94 351.5t255.5 255t351.5 93.5q143 0 272.5 -55.5t223 -149t149 -223t55.5 -272.5t-55.5 -272.5t-149 -223t-223 -149t-272.5 -55.5zM795 1094q-133 0 -228.5 -95t-95.5 -229t95.5 -229t228.5 -95q68 0 124 33t87 88
v-110q0 -100 -60.5 -150.5t-152.5 -50.5v-113q140 0 232.5 83.5t92.5 234.5v309q0 134 -95 229t-228 95zM795 559q-88 0 -149.5 61.5t-61.5 149.5t61.5 150.5t149.5 62.5q86 0 148.5 -62.5t62.5 -150.5q0 -87 -62 -149t-149 -62z" />
    <glyph glyph-name="uni24D7.ss02" 
d="M803 -14q-190 0 -351.5 93.5t-255.5 255t-94 351.5t94 351.5t255.5 255t351.5 93.5q143 0 272.5 -55.5t223 -149t149 -223t55.5 -272.5t-55.5 -272.5t-149 -223t-223 -149t-272.5 -55.5zM805 920q-131 0 -189 -95v291h-112v-827h112v325q0 90 51 141.5t138 51.5
q86 0 136 -51t50 -142v-325h113v325q0 138 -83.5 222t-215.5 84z" />
    <glyph glyph-name="uni24D8.ss02" 
d="M803 -14q-190 0 -351.5 93.5t-255.5 255t-94 351.5t94 351.5t255.5 255t351.5 93.5q143 0 272.5 -55.5t223 -149t149 -223t55.5 -272.5t-55.5 -272.5t-149 -223t-223 -149t-272.5 -55.5zM801 977q27 0 46 19t19 44q0 28 -18.5 47t-46.5 19q-26 0 -45 -19t-19 -47
q0 -25 19 -44t45 -19zM748 901v-622h108v622h-108z" />
    <glyph glyph-name="uni24D9.ss02" 
d="M803 -14q-190 0 -351.5 93.5t-255.5 255t-94 351.5t94 351.5t255.5 255t351.5 93.5q143 0 272.5 -55.5t223 -149t149 -223t55.5 -272.5t-55.5 -272.5t-149 -223t-223 -149t-272.5 -55.5zM831 1051q26 0 46 20.5t20 46.5q0 25 -20 43.5t-46 18.5t-44.5 -18.5t-18.5 -43.5
q0 -27 18.5 -47t44.5 -20zM659 311v-110q115 0 173.5 78.5t58.5 207.5v478h-111v-480q0 -84 -27 -129t-94 -45z" />
    <glyph glyph-name="uni24DA.ss02" 
d="M803 -14q-190 0 -351.5 93.5t-255.5 255t-94 351.5t94 351.5t255.5 255t351.5 93.5q143 0 272.5 -55.5t223 -149t149 -223t55.5 -272.5t-55.5 -272.5t-149 -223t-223 -149t-272.5 -55.5zM1102 276l-299 388l211 235h-137l-242 -256v252q0 60 25 96.5t73 36.5v111
q-102 1 -155.5 -69.5t-53.5 -174.5v-619h111v228l90 76l238 -304h139z" />
    <glyph glyph-name="uni24DB.ss02" 
d="M803 -14q-190 0 -351.5 93.5t-255.5 255t-94 351.5t94 351.5t255.5 255t351.5 93.5q143 0 272.5 -55.5t223 -149t149 -223t55.5 -272.5t-55.5 -272.5t-149 -223t-223 -149t-272.5 -55.5zM909 227v115q-49 0 -73.5 36.5t-24.5 96.5v617h-113v-619q0 -109 56.5 -177.5
t154.5 -68.5z" />
    <glyph glyph-name="uni24DC.ss02" 
d="M803 -14q-190 0 -351.5 93.5t-255.5 255t-94 351.5t94 351.5t255.5 255t351.5 93.5q143 0 272.5 -55.5t223 -149t149 -223t55.5 -272.5t-55.5 -272.5t-149 -223t-223 -149t-272.5 -55.5zM991 1001q-135 0 -182 -108q-50 108 -184 108q-118 0 -179 -75.5t-61 -216.5v-336
h111v336q0 91 30.5 136.5t98.5 45.5q66 0 96.5 -45.5t30.5 -136.5v-336h112v336q0 91 30.5 136.5t96.5 45.5q68 0 98.5 -45.5t30.5 -136.5v-336h113v336q0 143 -61 217.5t-181 74.5z" />
    <glyph glyph-name="uni24DD.ss02" 
d="M803 -14q-190 0 -351.5 93.5t-255.5 255t-94 351.5t94 351.5t255.5 255t351.5 93.5q143 0 272.5 -55.5t223 -149t149 -223t55.5 -272.5t-55.5 -272.5t-149 -223t-223 -149t-272.5 -55.5zM498 700v-325h112v325q0 91 51 142t138 51q86 0 136 -51t50 -142v-325h113v325
q0 139 -83.5 222.5t-215.5 83.5q-134 0 -217.5 -83.5t-83.5 -222.5z" />
    </font>
</defs>
</svg>
